<svg xmlns="http://www.w3.org/2000/svg" fill="none" viewBox="0 0 329 257"><g clip-path="url(#a)"><circle cx="281.686" cy="239.795" r="174.201" fill="#fff"/><path fill="#FFBF9D" d="m261.809 117.024 1.311-71.067c.917-17.678-8.596-32.921-26.218-33.352h-1.629a31.628 31.628 0 0 0-30.524 30.131c-.712 15.318-1.292 32.247-.918 40.45.787 16.947 17.847 19.007 17.847 19.007v15.299l.861 11.705 10.487 2.659 28.783-14.832Z"/><path fill="#FF9A6C" d="M221.678 101.669a41.014 41.014 0 0 0 21.873-7.285s-4.888 12.94-21.854 11.985l-.019-4.7Z"/><path fill="#263238" d="M210.516 54.72a2.435 2.435 0 0 0 2.416 2.36 2.338 2.338 0 0 0 2.226-1.371c.128-.282.199-.586.209-.895a2.436 2.436 0 0 0-2.435-2.378 2.323 2.323 0 0 0-2.416 2.285ZM208.625 49.572c.3.318 2.098-1.105 4.701-1.199 2.603-.093 4.569 1.162 4.831.843.262-.318-.187-.712-1.048-1.292a6.499 6.499 0 0 0-3.877-1.049 6.274 6.274 0 0 0-3.745 1.349c-.768.636-1.03 1.217-.862 1.348ZM234.88 54.665a2.39 2.39 0 0 0 .708 1.702 2.412 2.412 0 0 0 1.708.695 2.302 2.302 0 0 0 2.415-2.266 2.413 2.413 0 0 0-2.415-2.36 2.301 2.301 0 0 0-2.416 2.23ZM234.187 49.308c.318.3 2.116-1.124 4.719-1.199 2.603-.074 4.551 1.161 4.832.824.281-.337-.188-.693-1.049-1.273a6.667 6.667 0 0 0-3.876-1.067 6.52 6.52 0 0 0-3.746 1.348c-.768.693-1.03 1.236-.88 1.367ZM225.516 69.665a16.847 16.847 0 0 0-4.251-.618c-.674 0-1.31-.169-1.423-.618a3.263 3.263 0 0 1 .375-1.985c.562-1.63 1.161-3.334 1.872-5.131a92.051 92.051 0 0 0 3.971-13.409c-.3-.112-2.566 5.75-5.057 13.109-.58 1.873-1.161 3.52-1.704 5.169a3.86 3.86 0 0 0-.262 2.621 1.712 1.712 0 0 0 1.142.937c.368.087.746.125 1.124.112 1.407.114 2.822.051 4.213-.187ZM233.063 41.145c.394.656 2.884-.13 5.974-.3 3.09-.168 5.618.207 5.936-.486.131-.319-.412-.918-1.516-1.405a9.702 9.702 0 0 0-4.607-.749 9.569 9.569 0 0 0-4.457 1.349c-1.03.674-1.498 1.31-1.33 1.591ZM208.232 41.912c.562.58 2.678 0 5.225-.15 2.547-.15 4.719.319 5.206-.318.206-.3-.131-.9-1.086-1.442a8.299 8.299 0 0 0-4.27-.88 7.907 7.907 0 0 0-4.139 1.273c-.898.618-1.179 1.236-.936 1.517Z"/><path fill="#FFBF9D" d="M262.239 57.998c.281-.13 11.536-3.838 11.554 7.772.019 11.61-11.629 9.232-11.648 8.895-.018-.337.094-16.667.094-16.667Z"/><path fill="#FF9A6C" d="M265.686 70.245s.206.15.543.3a1.964 1.964 0 0 0 1.517 0 5.028 5.028 0 0 0 1.758-1.937 5.03 5.03 0 0 0 .545-2.558 6.767 6.767 0 0 0-.581-2.884 2.325 2.325 0 0 0-1.516-1.554 1.052 1.052 0 0 0-1.199.562c-.15.318 0 .561-.15.58-.15.019-.243-.206-.15-.674.067-.286.225-.542.45-.73a1.512 1.512 0 0 1 1.123-.3 2.826 2.826 0 0 1 2.117 1.873c.502.997.747 2.104.711 3.22a5.28 5.28 0 0 1-2.94 4.963 2.172 2.172 0 0 1-1.873-.318c-.337-.262-.393-.525-.355-.543Z"/><path fill="#263238" d="M181.434 26.762a2.735 2.735 0 0 1 1.273-1.61 8.409 8.409 0 0 1 4.345-.712 24.666 24.666 0 0 0 10.524-2.715 12.206 12.206 0 0 1-3.127-2.191 7.262 7.262 0 0 1-2.135-7.229 1.656 1.656 0 0 1 .899-1.123c.768-.225 1.423.505 1.872 1.086a6.316 6.316 0 0 0 5.918 2.49 10.354 10.354 0 0 0 4.419-1.329l.132-.168 1.872-1.873a38.527 38.527 0 0 1 11.948-8.951A39.548 39.548 0 0 1 240.422.695c5.918 1.536 11.236 6.31 12.098 12.36 3.314-2.828 8.277-2.828 12.322-1.218h.112c4.495 1.573 7.079 6.33 8.408 10.9 0 .243.15.505.206.748a17.815 17.815 0 0 0 6.087 5.899c.43.244.936.543.992 1.049.056.505-.374.917-.768 1.198a8.926 8.926 0 0 1-3.633 1.536c.408 1.09.909 2.142 1.498 3.146.506.861 1.124 1.872.675 2.79a1.872 1.872 0 0 1-1.967.861 5.616 5.616 0 0 1-2.097-.936l1.517 3.596c-1.63.285-3.305.183-4.888-.3-.936 4.288-1.629 12.229-2.715 15.15-3.09 0-3.746-.281-5.393.243-2.004.675-1.218 4.233-3.746 3.24-1.329-.506-3.408-5.618-3.857-6.91a66.281 66.281 0 0 1-2.997-28.09 21.45 21.45 0 0 0-6.591-4.719l.206.187c-4.757-1.629-10.132-3.24-14.626-.992-3.483 1.76-5.524 5.393-8.127 8.296a24.34 24.34 0 0 1-17.903 8.801c-.637 5.131-.805 13.502-1.03 18.296l-4.138-9.55c-.321-.551-.608-1.12-.862-1.705l-.093-.168c-.431-.9-.824-1.873-1.367-2.716a2.98 2.98 0 0 1-4.914-1.923 2.976 2.976 0 0 1 .532-2.047 6.277 6.277 0 0 1 1.441-1.46 4.734 4.734 0 0 1-4.513 1.18 3.748 3.748 0 0 1-2.64-3.746 3.203 3.203 0 0 1 1.873-2.547 10.563 10.563 0 0 1-6.068-1.292c-1.255-.468-2.434-1.573-2.022-3.09Z"/><path fill="#455A64" d="M247.258 15.096c.609.472 1.178.992 1.704 1.555a12.065 12.065 0 0 1 2.641 5.617c.302 1.416.452 2.86.449 4.308 0 1.573-.094 3.24-.225 5.018a45.397 45.397 0 0 0-.093 5.618c.057.989.188 1.971.393 2.94A6.193 6.193 0 0 0 253.344 43a2.587 2.587 0 0 0 2.397.805 3.916 3.916 0 0 0 2.154-1.236 8.765 8.765 0 0 0 1.61-4.326h-.356a14.27 14.27 0 0 0 2.098 3.558 4.961 4.961 0 0 0 3.314 1.78 3.26 3.26 0 0 0 1.742-.3 2.754 2.754 0 0 0 1.18-1.18 2.79 2.79 0 0 0 .355-1.517 2.015 2.015 0 0 0-.543-1.31l-.187.149a11.246 11.246 0 0 0 3.745 2.734 7.95 7.95 0 0 0 1.124.43h.412l-.393-.149-1.086-.487a11.39 11.39 0 0 1-3.615-2.678l-.187.169a2.156 2.156 0 0 1 .131 2.51 2.51 2.51 0 0 1-1.067 1.048 3.015 3.015 0 0 1-1.592.262 4.792 4.792 0 0 1-3.071-1.685 14.342 14.342 0 0 1-2.004-3.484l-.243-.543-.113.58a8.636 8.636 0 0 1-1.648 4.14 3.369 3.369 0 0 1-1.872 1.104 2.172 2.172 0 0 1-2.041-.674 5.879 5.879 0 0 1-1.105-2.659 17.198 17.198 0 0 1-.394-2.884 45.056 45.056 0 0 1 0-5.524c.094-1.873.206-3.446.188-5.038a22.349 22.349 0 0 0-.506-4.382 12.214 12.214 0 0 0-2.79-5.618 7.202 7.202 0 0 0-1.723-1.498ZM194.767 31.78l.131.113.431.318c.225.169.463.319.711.45.338.203.688.385 1.049.543a14.848 14.848 0 0 0 7.266 1.273 19.25 19.25 0 0 0 10.243-3.745 33.365 33.365 0 0 0 8.764-10.187c1.236-2.06 2.229-4.176 3.334-6.124a22.022 22.022 0 0 1 3.745-5.187 11.404 11.404 0 0 1 4.869-2.997 8.256 8.256 0 0 1 2.584-.3 9.366 9.366 0 0 1 2.36.432 9.775 9.775 0 0 1 5.487 4.606c.388.815.69 1.669.898 2.547a1.171 1.171 0 0 0 0-.187c0-.131 0-.3-.093-.525a7.92 7.92 0 0 0-.656-1.872 9.068 9.068 0 0 0-1.872-2.566 9.91 9.91 0 0 0-3.615-2.228 10.009 10.009 0 0 0-2.434-.487 8.857 8.857 0 0 0-2.678.3 12.02 12.02 0 0 0-5.056 3.052 22.597 22.597 0 0 0-3.858 5.262c-1.123 1.966-2.116 4.064-3.333 6.105a33.18 33.18 0 0 1-8.652 10.112 19.079 19.079 0 0 1-10.037 3.746 15.318 15.318 0 0 1-7.191-1.143 22.62 22.62 0 0 1-2.397-1.31Z"/><path fill="#455A64" d="M193.176 24.402c.19.16.397.298.618.412.595.363 1.221.67 1.872.918.92.389 1.873.696 2.847.917 1.23.275 2.485.432 3.745.469a19.016 19.016 0 0 0 3.745-.263 17.916 17.916 0 0 0 2.903-.767 15.177 15.177 0 0 0 1.873-.806c.43-.224.655-.355.636-.393-.018-.037-.973.43-2.584.937-.937.293-1.895.518-2.865.674-1.198.164-2.406.24-3.614.224a20.79 20.79 0 0 1-3.577-.43 21.269 21.269 0 0 1-2.847-.824c-1.797-.6-2.715-1.18-2.752-1.068Z"/><path fill="#263238" d="M225.667 77.605c.149-.43 2.884.656 5.749-.917 2.865-1.573 3.745-4.588 4.101-4.476.356.112.281.861-.169 2.116a7.489 7.489 0 0 1-3.277 3.745 6.348 6.348 0 0 1-4.738.581c-1.161-.3-1.666-.88-1.666-1.049Z"/><path fill="currentColor" stroke="#263238" stroke-width=".924" d="m216.916 244.68 3.345-118.314-12.17 14.43-.012.088-.089.643-.335 2.449a4863.189 4863.189 0 0 0-4.814 36.142c-1.31 10.141-2.613 20.558-3.574 28.993-.963 8.456-1.578 14.873-1.523 17.052.053 2.059 1.251 4.271 3.122 6.467 1.86 2.186 4.332 4.293 6.814 6.137 2.479 1.842 4.953 3.41 6.809 4.518.928.553 1.7.992 2.239 1.291l.188.104Z"/><path fill="#FAFAFA" d="m263.7 96.873.018-4.138-42.059 23.97-.899 8.352-15.731 42.453-7.378 113.24 7.36 16.554 33.333 8.614 11.198-180.093L263.7 96.873Z"/><path fill="currentColor" d="m269.393 104.495 17.172 9.681 3.127 91.03-3.333 39.045 12.528 64.026-.412 8.97-98.127-.356-.918-34.494s-.899-17.191-.955-22.079c-.187-14.269 5.281-53.277 7.94-73.932 3.615-28.09 21.948-59.925 21.948-59.925l37.21-31.161 3.82 9.195Z"/><path fill="#263238" d="M205.067 218.39s0-.093.188-.299l.43-.955c.394-.899.955-2.135 1.63-3.746l5.861-13.576 19.082-44.944c1.461-3.483 2.897-6.885 4.307-10.206v-.15c-.543-2.584-1.067-5.131-1.573-7.49l-.412.412 4.907.917h.187l.131-.131 23.034-22.959 6.535-6.704 1.723-1.872c.206-.196.394-.409.562-.637-.233.17-.452.358-.655.562l-1.873 1.704-6.723 6.498-23.202 22.753.3-.094-4.907-.918-.524-.112.093.524c.506 2.472 1.03 5.019 1.555 7.603v-.224c-1.405 3.314-2.847 6.741-4.326 10.206l-18.876 44.943-5.618 13.671c-.637 1.592-1.143 2.827-1.499 3.745l-.374.974.037.505Z"/><path fill="#000" d="m288.887 257.191-40.206 2.022s-22.603 16.854-31.142 17.023a18.238 18.238 0 0 1-12.528-4.214l-6.536-9.363v-5.936l25 1.741 13.258-5.355 51.686-1.03.468 5.112Z" opacity=".3"/><path fill="#fff" d="M211.153 207.81a7.344 7.344 0 0 0 8.773 7.2 7.346 7.346 0 0 0 5.768-5.768 7.338 7.338 0 0 0-3.122-7.536 7.344 7.344 0 0 0-4.078-1.237 7.331 7.331 0 0 0-5.196 2.145 7.32 7.32 0 0 0-2.145 5.196Z"/><path fill="#000" d="m247.033 136.349-3.764 5.468-4.925-1.536 2.378 4.607-6.254 17.378-3.427-5.524 5.131-12.153-1.573-7.585 4.925.899 8.071-7.959-.562 6.405ZM262.37 211.03l-45.262 7.359-11.048 1.049-17.585-12.753 1.161 6.124 8.839 10.075 6.536 13.689 1.929 7.584 49.869-2.978 8.464-5.936-2.903-24.213Z" opacity=".3"/><path fill="#FFBF9D" d="M187.521 204.683a1.27 1.27 0 0 0-1.001-.615 1.27 1.27 0 0 0-1.078.465 8.295 8.295 0 0 0-.543 9.232 20.475 20.475 0 0 0 5.449 7.154l-12.921 6.61s-4.232 3.146-2.453 5.749c1.779 2.603 2.359 2.172 2.359 2.172a3.418 3.418 0 0 0-1.905 3.469c.055.468.206.919.445 1.325a5.765 5.765 0 0 0 3.745 2.472s.58 3.746 1.386 4.27a16.06 16.06 0 0 0 4.532.73s.206 2.454 1.985 2.978c1.779.524 9.7-.468 9.7-.468s8.801-2.884 12.097-4.101l5.319-.487-1.873-21.517a22.751 22.751 0 0 1-5.506-.543c-2.153-1.143-10.524-8.184-10.524-8.184a23.4 23.4 0 0 1-6.517-5.487 56.275 56.275 0 0 1-2.696-5.224Z"/><path fill="#FF9A6C" d="M185.18 232.267a30.447 30.447 0 0 1-3.97 1.629 29.883 29.883 0 0 1-4.083 1.348 27.518 27.518 0 0 1 3.97-1.648 25.683 25.683 0 0 1 4.083-1.329ZM189.656 239.645a7.058 7.058 0 0 1-1.423.599 54.1 54.1 0 0 1-3.502 1.123 71.303 71.303 0 0 1-3.577.937 6.438 6.438 0 0 1-1.517.243 8.601 8.601 0 0 1 1.461-.468l3.539-1.011 3.521-1.049a8.572 8.572 0 0 1 1.498-.374ZM191.285 246.649c-.898.31-1.828.517-2.772.617-.93.192-1.877.292-2.828.3.898-.31 1.828-.517 2.772-.618a13.113 13.113 0 0 1 2.828-.299Z"/><path fill="#F5F5F5" d="m220.816 221.63-8.164.861.618 25.637 9.138-.899-1.592-25.599Z"/><path fill="#263238" d="M220.816 221.63v2.004c0 1.254.131 3.183.244 5.393.206 4.569.524 10.918.955 18.221l.337-.375-8.67.824h-.487l.393.356c-.243-10.318-.506-19.55-.73-25.618l-.225.244 5.936-.768c.742-.074 1.48-.186 2.21-.337a14.99 14.99 0 0 0-2.097.112l-6.105.506h-.206v.225c0 6.086.243 15.299.487 25.636v.412h.899l8.651-.861h.356v-.468c-.487-7.491-.974-13.914-1.33-18.446-.168-2.172-.318-3.951-.43-5.3a12.846 12.846 0 0 0-.188-1.76Z"/><path fill="currentColor" d="M283.588 112.679s15.618 5.937 19.719 25.843c4.101 19.906 22.865 86.854 19.045 98.951-3.821 12.098-16.854 13.596-43.203 15.412-26.348 1.817-56.179 3.596-56.179 3.596l-2.341-35.581 56.573-8.033s-16.461-58.708-17.678-67.191c-1.217-8.483-3.895-39.27 24.064-32.997Z"/><path fill="#263238" d="M322.352 237.398s0 .149-.225.487l-.618 1.46a23.338 23.338 0 0 1-1.255 2.229l-.992 1.292c-.413.46-.851.897-1.311 1.311a21.805 21.805 0 0 1-8.39 4.438 70.9 70.9 0 0 1-12.49 2.378c-9.363 1.086-20.712 1.648-33.24 2.453l-40.842 2.585.393.355c0-.618 0-1.292-.131-1.966-.768-11.779-1.536-23.108-2.229-33.595l-.299.374 56.554-8.202h-.131l10.468 5.618 2.753 1.461.711.355.244.113-.225-.15-.674-.412-2.697-1.554-10.393-5.843-56.592 7.884h-.337v.337c.674 10.487 1.424 21.816 2.191 33.595 0 .675 0 1.33.131 1.967v.355h.375l40.824-2.64c12.547-.861 23.82-1.461 33.258-2.622a71.612 71.612 0 0 0 12.566-2.509 22.013 22.013 0 0 0 8.464-4.626c.455-.431.887-.888 1.292-1.367l.993-1.329a26.55 26.55 0 0 0 1.217-2.285l.524-1.498a3.83 3.83 0 0 0 .113-.449Z"/></g><defs><clipPath id="a"><path fill="#fff" d="M0 0h329v257H0z"/></clipPath></defs></svg>