<svg width="24" height="24" viewBox="0 0 24 24" fill="none" xmlns="http://www.w3.org/2000/svg">
<g id="Frame 117" clip-path="url(#clip0_120_1629)">
<g id="freepik--Character--inject-509">
<g id="Group">
<g id="Group_2">
<g id="Group_3">
<g id="Group_4">
<path id="Vector" d="M8.16004 18.7473L7.95004 7.36229C7.80304 4.53029 9.32704 2.08829 12.15 2.01929H12.411C13.6835 2.06237 14.8931 2.5829 15.7992 3.47732C16.7053 4.37174 17.2415 5.5745 17.301 6.84629C17.415 9.30029 17.508 12.0123 17.448 13.3263C17.322 16.0413 14.589 16.3713 14.589 16.3713C14.589 16.3713 14.589 18.0243 14.589 18.8223L14.451 20.6973L12.771 21.1233L8.16004 18.7473Z" fill="#FFBF9D"/>
<path id="Vector_2" d="M14.589 16.2874C13.3334 16.2414 12.1174 15.8364 11.085 15.1204C11.085 15.1204 11.868 17.1934 14.586 17.0404L14.589 16.2874Z" fill="#FF9A6C"/>
<path id="Vector_3" d="M16.3771 8.76621C16.374 8.86703 16.332 8.96273 16.2598 9.03321C16.1876 9.1037 16.091 9.14348 15.9901 9.14421C15.9406 9.14621 15.8912 9.13839 15.8447 9.12119C15.7983 9.104 15.7557 9.07776 15.7194 9.04401C15.6832 9.01026 15.6539 8.96966 15.6335 8.92455C15.613 8.87944 15.6016 8.83072 15.6001 8.78121C15.6024 8.67934 15.6446 8.58244 15.7175 8.51123C15.7903 8.44003 15.8882 8.40018 15.9901 8.40021C16.0397 8.3982 16.0892 8.40614 16.1357 8.42356C16.1822 8.44098 16.2247 8.46752 16.2607 8.50163C16.2968 8.53574 16.3257 8.57672 16.3457 8.62216C16.3656 8.66759 16.3763 8.71657 16.3771 8.76621Z" fill="#263238"/>
<path id="Vector_4" d="M16.68 7.94135C16.632 7.99235 16.344 7.76435 15.927 7.74935C15.51 7.73435 15.195 7.93535 15.153 7.88435C15.111 7.83335 15.183 7.77035 15.321 7.67735C15.5051 7.55719 15.7225 7.49838 15.942 7.50935C16.1602 7.51431 16.3708 7.59013 16.542 7.72535C16.665 7.82735 16.707 7.92035 16.68 7.94135Z" fill="#263238"/>
<path id="Vector_5" d="M12.4741 8.75735C12.4741 8.80803 12.464 8.85821 12.4446 8.905C12.4251 8.95178 12.3965 8.99425 12.3605 9.02995C12.3246 9.06564 12.2819 9.09387 12.2349 9.11299C12.188 9.13211 12.1378 9.14175 12.0871 9.14135C12.0376 9.14377 11.9882 9.13622 11.9417 9.11914C11.8953 9.10205 11.8527 9.0758 11.8166 9.04193C11.7805 9.00806 11.7516 8.96727 11.7315 8.92198C11.7115 8.8767 11.7008 8.82785 11.7001 8.77835C11.7024 8.67728 11.7442 8.58114 11.8166 8.5105C11.8889 8.43986 11.986 8.40032 12.0871 8.40035C12.136 8.39794 12.185 8.4053 12.2311 8.42201C12.2771 8.43872 12.3194 8.46444 12.3554 8.49768C12.3915 8.53091 12.4205 8.571 12.4409 8.61558C12.4613 8.66016 12.4725 8.70836 12.4741 8.75735Z" fill="#263238"/>
<path id="Vector_6" d="M12.585 7.89913C12.534 7.94713 12.246 7.71914 11.829 7.70714C11.412 7.69514 11.1001 7.89313 11.0551 7.83913C11.0101 7.78513 11.0851 7.72813 11.2231 7.63513C11.4075 7.51558 11.6244 7.45587 11.844 7.46413C12.0617 7.4718 12.2715 7.54732 12.444 7.68014C12.567 7.79114 12.609 7.87813 12.585 7.89913Z" fill="#263238"/>
<path id="Vector_7" d="M13.9741 11.1603C14.1959 11.0984 14.4248 11.0651 14.6551 11.0613C14.7631 11.0613 14.8651 11.0343 14.8831 10.9623C14.8973 10.8526 14.8763 10.7413 14.8231 10.6443C14.7331 10.3833 14.6371 10.1103 14.5231 9.82233C14.257 9.12347 14.0444 8.4054 13.8871 7.67433C13.9351 7.65633 14.2981 8.59533 14.6971 9.77433C14.7901 10.0743 14.8831 10.3383 14.9701 10.6023C15.0329 10.7331 15.0478 10.8817 15.0121 11.0223C14.9948 11.0595 14.9694 11.0922 14.9377 11.1182C14.906 11.1441 14.8689 11.1627 14.8291 11.1723C14.7702 11.1864 14.7096 11.1924 14.6491 11.1903C14.4237 11.2086 14.1969 11.1986 13.9741 11.1603Z" fill="#263238"/>
<path id="Vector_8" d="M12.7651 6.59143C12.7021 6.69643 12.3031 6.57043 11.8081 6.54343C11.3131 6.51643 10.9081 6.57643 10.8571 6.46543C10.8361 6.41443 10.9231 6.31843 11.1001 6.24043C11.3327 6.14096 11.586 6.09977 11.8381 6.12043C12.0902 6.13254 12.3355 6.20674 12.5521 6.33643C12.7171 6.44443 12.7921 6.54643 12.7651 6.59143Z" fill="#263238"/>
<path id="Vector_9" d="M16.743 6.71425C16.653 6.80725 16.3141 6.71425 15.9061 6.69025C15.4981 6.66625 15.1501 6.74125 15.0721 6.63925C15.0391 6.59125 15.0931 6.49525 15.2461 6.40825C15.4574 6.30111 15.6936 6.25243 15.9301 6.26725C16.1657 6.2722 16.3954 6.34285 16.593 6.47125C16.737 6.57025 16.782 6.66925 16.743 6.71425Z" fill="#263238"/>
<path id="Vector_10" d="M8.09112 9.29135C8.04612 9.27035 6.24312 8.67636 6.24012 10.5364C6.23712 12.3964 8.10312 12.0154 8.10612 11.9614C8.10912 11.9074 8.09112 9.29135 8.09112 9.29135Z" fill="#FFBF9D"/>
<path id="Vector_11" d="M7.53899 11.2532C7.53899 11.2532 7.50598 11.2772 7.45198 11.3012C7.4135 11.3173 7.3722 11.3256 7.33048 11.3256C7.28877 11.3256 7.24747 11.3173 7.20898 11.3012C7.08933 11.2245 6.99214 11.1175 6.92732 10.991C6.8625 10.8645 6.83237 10.7231 6.83999 10.5812C6.83679 10.4223 6.86854 10.2646 6.93298 10.1192C6.95013 10.061 6.98123 10.008 7.02358 9.96456C7.06593 9.92116 7.11825 9.88877 7.17598 9.87022C7.21346 9.86086 7.25301 9.8647 7.28798 9.8811C7.32295 9.89749 7.3512 9.92543 7.36798 9.96021C7.39198 10.0112 7.36798 10.0502 7.39198 10.0532C7.41598 10.0562 7.43098 10.0202 7.41598 9.94522C7.40536 9.89942 7.38008 9.85834 7.34398 9.82822C7.31861 9.80877 7.28965 9.79452 7.25877 9.78628C7.22788 9.77804 7.19567 9.77598 7.16399 9.78022C7.08613 9.7961 7.01383 9.83218 6.95433 9.88483C6.89482 9.93749 6.85022 10.0049 6.82498 10.0802C6.74448 10.24 6.70529 10.4174 6.71098 10.5962C6.70395 10.7601 6.74473 10.9225 6.82835 11.0637C6.91198 11.2049 7.03485 11.3186 7.18199 11.3912C7.23259 11.406 7.28588 11.4091 7.33785 11.4002C7.38982 11.3914 7.43911 11.3709 7.48199 11.3402C7.53599 11.2982 7.54499 11.2562 7.53899 11.2532Z" fill="#FF9A6C"/>
</g>
<g id="Group_5">
<path id="Vector_12" d="M21.0362 4.28733C21.0043 4.17809 20.9311 4.08556 20.8322 4.02933C20.6144 3.93019 20.3742 3.89084 20.1362 3.91533C19.5488 3.89751 18.9728 3.7489 18.4502 3.48033C18.6345 3.39033 18.8036 3.27188 18.9512 3.12933C19.1086 2.98604 19.2237 2.80231 19.284 2.59814C19.3443 2.39397 19.3475 2.17717 19.2932 1.97133C19.2841 1.93247 19.2665 1.89614 19.2416 1.86499C19.2167 1.83384 19.1851 1.80867 19.1491 1.79133C19.0261 1.75533 18.9211 1.87233 18.8491 1.96533C18.7413 2.11057 18.5964 2.22421 18.4297 2.29439C18.2629 2.36457 18.0804 2.38872 17.9012 2.36433C17.6521 2.34749 17.4101 2.27468 17.1932 2.15133L17.1722 2.12433L16.8722 1.82433C16.3338 1.22609 15.6836 0.738941 14.9582 0.390328C13.8802 -0.00661815 12.7147 -0.103057 11.5862 0.111328C10.6382 0.357328 9.78615 1.12233 9.64815 2.09133C9.11715 1.63833 8.32215 1.63833 7.67415 1.89633H7.65615C6.93615 2.14833 6.52215 2.91033 6.30915 3.64233C6.30915 3.68133 6.28515 3.72333 6.27615 3.76233C6.03194 4.1512 5.69747 4.47538 5.30115 4.70733C5.23215 4.74633 5.15115 4.79433 5.14215 4.87533C5.13315 4.95633 5.20215 5.02233 5.26515 5.06733C5.4384 5.19167 5.63725 5.27572 5.84716 5.31333C5.78186 5.48794 5.70156 5.65657 5.60715 5.81733C5.52615 5.95533 5.42715 6.11733 5.49915 6.26433C5.53118 6.31685 5.57857 6.35826 5.63492 6.38294C5.69126 6.40763 5.75384 6.4144 5.81415 6.40233C5.93529 6.376 6.04968 6.32493 6.15015 6.25233L5.90715 6.82833C6.1683 6.87411 6.43656 6.85767 6.69015 6.78033C6.84015 7.46733 6.95115 8.73933 7.12515 9.20733C7.62015 9.20733 7.72515 9.16233 7.98915 9.24633C8.31015 9.35433 8.18415 9.92433 8.58915 9.76533C8.80215 9.68433 9.13515 8.86533 9.20715 8.65833C9.6887 7.21026 9.85242 5.67539 9.68715 4.15833C9.98793 3.84153 10.3463 3.58495 10.7432 3.40233L10.7102 3.43233C11.4722 3.17133 12.3332 2.91333 13.0532 3.27333C13.6112 3.55533 13.9382 4.13733 14.3552 4.60233C14.7065 5.02656 15.1438 5.37156 15.6381 5.61459C16.1324 5.85762 16.6726 5.99317 17.2232 6.01233C17.3252 6.83433 17.3522 8.17533 17.3882 8.94333L18.0512 7.41333C18.1025 7.32513 18.1486 7.23397 18.1892 7.14033L18.2042 7.11333C18.2732 6.96933 18.3362 6.81333 18.4232 6.67833C18.5112 6.75491 18.6243 6.79654 18.741 6.79535C18.8577 6.79416 18.9699 6.75023 19.0564 6.67188C19.1429 6.59352 19.1977 6.48617 19.2103 6.37016C19.223 6.25414 19.1927 6.1375 19.1252 6.04233C19.0615 5.95217 18.9835 5.87312 18.8942 5.80833C18.9881 5.89952 19.1041 5.96485 19.2308 5.99797C19.3575 6.03109 19.4906 6.03087 19.6172 5.99733C19.7441 5.95826 19.8546 5.87816 19.9311 5.76957C20.0077 5.66098 20.046 5.53006 20.0401 5.39733C20.0297 5.30918 19.9966 5.22524 19.944 5.15373C19.8914 5.08221 19.8212 5.02557 19.7401 4.98933C20.0776 5.01918 20.4162 4.94707 20.7122 4.78233C20.9132 4.70733 21.1022 4.53033 21.0362 4.28733Z" fill="#263238"/>
<path id="Vector_13" d="M10.4911 2.41846C10.3936 2.49404 10.3023 2.57731 10.2181 2.66746C10.001 2.92541 9.85514 3.23569 9.79508 3.56746C9.74669 3.79425 9.72255 4.02555 9.72309 4.25746C9.72309 4.50946 9.73809 4.77646 9.75909 5.06146C9.78268 5.36086 9.78769 5.66144 9.77409 5.96146C9.76491 6.11981 9.74385 6.27726 9.71109 6.43246C9.6857 6.5985 9.61861 6.7554 9.51609 6.88846C9.46849 6.94106 9.40818 6.98054 9.34094 7.00313C9.2737 7.02572 9.20178 7.03065 9.13209 7.01746C8.99865 6.99065 8.87755 6.92115 8.78708 6.81946C8.6407 6.61566 8.55161 6.37636 8.52908 6.12646H8.58609C8.50236 6.33177 8.38917 6.52378 8.25009 6.69646C8.11735 6.85746 7.92663 6.95983 7.71909 6.98146C7.62344 6.99146 7.52689 6.97485 7.44009 6.93346C7.35905 6.89153 7.29302 6.82549 7.25109 6.74446C7.2094 6.67051 7.18963 6.58623 7.19409 6.50146C7.19677 6.42325 7.22768 6.34865 7.28109 6.29146L7.31109 6.31546C7.14372 6.50159 6.93936 6.65076 6.71109 6.75346C6.65293 6.781 6.59275 6.80406 6.53109 6.82246H6.46509L6.52809 6.79846L6.70209 6.72046C6.92169 6.61738 7.11854 6.47154 7.28109 6.29146L7.31109 6.31846C7.26595 6.37483 7.23965 6.44396 7.23588 6.51608C7.23211 6.5882 7.25107 6.65968 7.29009 6.72046C7.32868 6.79254 7.38833 6.85115 7.46109 6.88846C7.54069 6.92536 7.62885 6.93988 7.71609 6.93046C7.90828 6.90575 8.08402 6.8093 8.20809 6.66046C8.34074 6.49044 8.4488 6.3026 8.52908 6.10246L8.56809 6.01546L8.58609 6.10846C8.61471 6.34871 8.70573 6.57729 8.85009 6.77146C8.92779 6.86197 9.03328 6.92421 9.15009 6.94846C9.20928 6.96037 9.27055 6.95668 9.32788 6.93774C9.38521 6.9188 9.43663 6.88528 9.47709 6.84046C9.57048 6.71532 9.6313 6.56893 9.65408 6.41446C9.68811 6.26251 9.70918 6.10796 9.71709 5.95246C9.73523 5.65774 9.73523 5.36218 9.71709 5.06746C9.70209 4.76746 9.68408 4.51546 9.68708 4.26046C9.69086 4.02436 9.71799 3.78921 9.76809 3.55846C9.83617 3.22465 9.99025 2.91441 10.2151 2.65846C10.2937 2.56427 10.3869 2.48325 10.4911 2.41846Z" fill="#455A64"/>
<path id="Vector_14" d="M18.9002 5.09124L18.8792 5.10924L18.8102 5.16024C18.7741 5.18722 18.736 5.2113 18.6962 5.23224C18.6421 5.2649 18.586 5.29396 18.5282 5.31924C18.1635 5.48406 17.7631 5.55422 17.3642 5.52324C16.7708 5.48561 16.2009 5.27725 15.7232 4.92324C15.1493 4.48007 14.6716 3.92482 14.3192 3.29124C14.1212 2.96124 13.9622 2.62224 13.7852 2.31024C13.6267 2.00551 13.4245 1.72555 13.1852 1.47924C12.9701 1.25561 12.7017 1.09042 12.4052 0.999238C12.2706 0.961466 12.1308 0.945265 11.9912 0.951238C11.8627 0.957938 11.7357 0.981128 11.6132 1.02024C11.2373 1.14613 10.9232 1.40986 10.7342 1.75824C10.6719 1.88877 10.6236 2.02553 10.5902 2.16624C10.5894 2.15625 10.5894 2.14622 10.5902 2.13624C10.5902 2.11524 10.5902 2.08824 10.6052 2.05224C10.6274 1.94823 10.6627 1.84744 10.7102 1.75224C10.7852 1.59868 10.8868 1.45955 11.0102 1.34124C11.1751 1.18179 11.3726 1.05999 11.5892 0.984238C11.7154 0.942169 11.8464 0.915968 11.9792 0.906238C12.1238 0.900266 12.2684 0.916453 12.4082 0.954238C12.7146 1.04735 12.993 1.21542 13.2182 1.44324C13.4639 1.69284 13.672 1.97681 13.8362 2.28624C14.0162 2.60124 14.1752 2.93724 14.3702 3.26424C14.718 3.89229 15.1895 4.44337 15.7562 4.88424C16.2239 5.23368 16.7819 5.44189 17.3642 5.48424C17.7573 5.51671 18.1524 5.45394 18.5162 5.30124C18.6483 5.23903 18.7765 5.1689 18.9002 5.09124Z" fill="#455A64"/>
<path id="Vector_15" d="M19.1551 3.90923C19.1246 3.93474 19.0914 3.95686 19.0561 3.97523C18.9608 4.03331 18.8604 4.08251 18.7561 4.12223C18.6087 4.18453 18.4561 4.23372 18.3001 4.26923C18.1029 4.31325 17.902 4.33837 17.7001 4.34423C17.4992 4.35005 17.2982 4.33598 17.1001 4.30223C16.9419 4.2743 16.7864 4.23315 16.6351 4.17923C16.5323 4.14301 16.4321 4.09991 16.3351 4.05023C16.2661 4.01423 16.2301 3.99323 16.2331 3.98723C16.2361 3.98123 16.3891 4.05623 16.6471 4.13723C16.7973 4.18427 16.9507 4.22037 17.1061 4.24523C17.2979 4.27159 17.4915 4.28362 17.6851 4.28123C17.8777 4.27486 18.0694 4.25177 18.2581 4.21223C18.413 4.1789 18.5653 4.13479 18.7141 4.08023C19.0021 3.98423 19.1491 3.89123 19.1551 3.90923Z" fill="#455A64"/>
</g>
</g>
<path id="Vector_16" d="M13.95 12.4324C13.926 12.3634 13.488 12.5374 13.029 12.2854C12.57 12.0334 12.429 11.5504 12.372 11.5684C12.315 11.5864 12.327 11.7064 12.399 11.9074C12.5005 12.1613 12.6858 12.373 12.924 12.5074C13.1553 12.6359 13.4276 12.6693 13.683 12.6004C13.869 12.5524 13.95 12.4594 13.95 12.4324Z" fill="#263238"/>
</g>
<g id="Group_6">
<path id="Vector_17" d="M14.7361 20.0342L16.8361 22.5242C16.8361 22.5242 22.1851 34.1282 22.1491 35.5502C22.1131 36.9722 18.9331 38.6372 18.9331 38.6372L14.7361 20.0342Z" fill="#2C55DE"/>
<path id="Vector_18" d="M7.85713 15.5192L7.85413 14.8562L14.5921 18.6962L14.7361 20.0342L17.2561 26.8352L18.4381 44.9762L17.2591 47.6282L11.9191 49.0082L10.1251 20.1572L7.85713 15.5192Z" fill="#FAFAFA"/>
<path id="Vector_19" d="M6.94509 16.7401L4.19409 18.2911L3.69309 32.8741L4.22709 39.1291L2.22009 49.3861L2.28609 50.8231L18.0061 50.7661L18.1531 45.2401C18.1531 45.2401 18.2971 42.4861 18.3061 41.7031C18.3361 39.4171 17.4601 33.1681 17.0341 29.8591C16.4551 25.3591 13.5181 20.2591 13.5181 20.2591L7.5571 15.2671L6.94509 16.7401Z" fill="#2C55DE"/>
<path id="Vector_20" d="M17.25 34.9863C17.25 34.9863 17.25 34.9713 17.22 34.9383L17.151 34.7853C17.088 34.6413 16.998 34.4433 16.89 34.1853L15.951 32.0103L12.894 24.8103C12.66 24.2523 12.43 23.7073 12.204 23.1753V23.1573V23.1513C12.291 22.7373 12.375 22.3293 12.456 21.9513L12.522 22.0173L11.736 22.1643H11.706L11.685 22.1433L7.99503 18.4653L6.94803 17.3913L6.67203 17.0913C6.63913 17.0599 6.60902 17.0258 6.58203 16.9893C6.61929 17.0165 6.65439 17.0466 6.68703 17.0793L6.98703 17.3523L8.06403 18.3933L11.781 22.0383L11.733 22.0233L12.519 21.8763L12.603 21.8583L12.588 21.9423C12.507 22.3383 12.423 22.7463 12.339 23.1603V23.1243C12.564 23.6553 12.795 24.2043 13.032 24.7593L16.056 31.9593L16.956 34.1493C17.058 34.4043 17.139 34.6023 17.196 34.7493L17.256 34.9053L17.25 34.9863Z" fill="#263238"/>
<g id="Group_7" opacity="0.3">
<path id="Vector_21" d="M10.5271 21.8431L11.1301 22.7191L11.9191 22.4731L11.5381 23.2111L12.5401 25.9951L13.0891 25.1101L12.2671 23.1631L12.5191 21.9481L11.7301 22.0921L10.4371 20.8171L10.5271 21.8431Z" fill="black"/>
</g>
</g>
<g id="Group_8">
<g id="Group_9">
<path id="Vector_22" d="M4.67109 18.0513C4.67109 18.0513 2.16909 19.0023 1.51209 22.1913C0.855087 25.3803 -2.15091 36.1053 -1.53891 38.0433C-0.926913 39.9813 1.16109 40.2213 5.38209 40.5123C9.60309 40.8033 14.3821 41.0883 14.3821 41.0883L14.7571 35.3883L5.69409 34.1013C5.69409 34.1013 8.33109 24.6963 8.52609 23.3373C8.72109 21.9783 9.15009 17.0463 4.67109 18.0513Z" fill="#2C55DE"/>
</g>
</g>
</g>
</g>
</g>
<defs>
<clipPath id="clip0_120_1629">
<rect width="24" height="24" fill="white"/>
</clipPath>
</defs>
</svg>
