<svg viewBox="0 0 24 24" fill="none" xmlns="http://www.w3.org/2000/svg">
<g clip-path="url(#clip0_127_221)">
<path d="M12 22C6.477 22 2 17.523 2 12C2 6.47699 6.477 1.99999 12 1.99999C17.523 1.99999 22 6.47699 22 12C22 17.523 17.523 22 12 22ZM12 20C14.1217 20 16.1566 19.1571 17.6569 17.6568C19.1571 16.1566 20 14.1217 20 12C20 9.87826 19.1571 7.84343 17.6569 6.34314C16.1566 4.84284 14.1217 3.99999 12 3.99999C9.87827 3.99999 7.84344 4.84284 6.34315 6.34314C4.84285 7.84343 4 9.87826 4 12C4 14.1217 4.84285 16.1566 6.34315 17.6568C7.84344 19.1571 9.87827 20 12 20Z" fill="currentColor"/>
</g>
<defs>
<clipPath id="clip0_127_221">
<rect width="24" height="24" fill="white"/>
</clipPath>
</defs>
</svg>
