<svg viewBox="0 0 16 17" fill="none" xmlns="http://www.w3.org/2000/svg">
<path d="M10.3731 10.6309C10.7215 10.747 11.0981 10.5587 11.2142 10.2103C11.3304 9.86187 11.1421 9.48527 10.7937 9.36913L10.3731 10.6309ZM8.33337 9.25H7.66837C7.66837 9.53624 7.85153 9.79036 8.12308 9.88087L8.33337 9.25ZM8.99837 6.11391C8.99837 5.74664 8.70064 5.44891 8.33337 5.44891C7.9661 5.44891 7.66837 5.74664 7.66837 6.11391H8.99837ZM10.7937 9.36913L8.54367 8.61913L8.12308 9.88087L10.3731 10.6309L10.7937 9.36913ZM8.99837 9.25V6.11391H7.66837V9.25H8.99837ZM13.6684 8.5C13.6684 11.4464 11.2798 13.835 8.33337 13.835V15.165C12.0144 15.165 14.9984 12.181 14.9984 8.5H13.6684ZM8.33337 13.835C5.38693 13.835 2.99837 11.4464 2.99837 8.5H1.66837C1.66837 12.181 4.6524 15.165 8.33337 15.165V13.835ZM2.99837 8.5C2.99837 5.55356 5.38693 3.165 8.33337 3.165V1.835C4.6524 1.835 1.66837 4.81902 1.66837 8.5H2.99837ZM8.33337 3.165C11.2798 3.165 13.6684 5.55356 13.6684 8.5H14.9984C14.9984 4.81902 12.0144 1.835 8.33337 1.835V3.165Z" fill="#1D1D1D" fill-opacity="0.6"/>
</svg>
