<svg width="22" height="22" viewBox="0 0 22 22" fill="none" xmlns="http://www.w3.org/2000/svg">
    <g id="icons">
        <path id="Icon"
              d="M16.6693 16.4992L16.2748 15.8311L16.6693 16.4992ZM17.1015 15.742H16.3256H17.1015ZM10.0904 19.2687L9.6742 19.9235L10.0904 19.2687ZM11.928 19.2989L12.3225 19.9669L11.928 19.2989ZM2.12254 7.60314L1.72536 6.93665L2.12254 7.60314ZM2.12254 8.35849L1.72536 9.02498L2.12254 8.35849ZM11.4501 13.3806L11.8473 14.0471L11.4501 13.3806ZM10.5498 13.3806L10.947 12.7142L10.5498 13.3806ZM19.8774 7.60314L20.2746 6.93665L19.8774 7.60314ZM19.8774 8.35849L19.4802 7.69201L19.8774 8.35849ZM5.73957 16.5031L6.15578 15.8483L5.73957 16.5031ZM11.4501 2.58099L11.0529 3.24748L11.4501 2.58099ZM10.5498 2.58099L10.947 3.24748L10.5498 2.58099ZM20.7448 7.96618C20.7448 7.53768 20.3974 7.19032 19.9689 7.19032C19.5404 7.19032 19.1931 7.53768 19.1931 7.96618H20.7448ZM19.1931 12.7145C19.1931 13.143 19.5404 13.4903 19.9689 13.4903C20.3974 13.4903 20.7448 13.143 20.7448 12.7145H19.1931ZM11.0529 3.24748L19.4802 8.26963L20.2746 6.93665L11.8473 1.9145L11.0529 3.24748ZM19.4802 7.69201L11.0529 12.7142L11.8473 14.0471L20.2746 9.02498L19.4802 7.69201ZM2.51973 8.26963L10.947 3.24748L10.1526 1.9145L1.72536 6.93665L2.51973 8.26963ZM10.947 12.7142L5.72915 9.60463L4.93478 10.9376L10.1526 14.0471L10.947 12.7142ZM5.72915 9.60463L2.51973 7.69201L1.72536 9.02498L4.93478 10.9376L5.72915 9.60463ZM4.55611 10.2711V15.761H6.10783V10.2711H4.55611ZM5.32336 17.1578L9.6742 19.9235L10.5066 18.6139L6.15578 15.8483L5.32336 17.1578ZM12.3225 19.9669L17.0638 17.1673L16.2748 15.8311L11.5335 18.6308L12.3225 19.9669ZM17.8773 15.742L17.8773 10.2711L16.3256 10.2711L16.3256 15.742L17.8773 15.742ZM17.0638 17.1673C17.568 16.8695 17.8773 16.3276 17.8773 15.742H16.3256C16.3256 15.7786 16.3063 15.8125 16.2748 15.8311L17.0638 17.1673ZM9.6742 19.9235C10.4786 20.4348 11.5018 20.4516 12.3225 19.9669L11.5335 18.6308C11.2153 18.8187 10.8185 18.8122 10.5066 18.6139L9.6742 19.9235ZM1.72536 6.93665C0.934341 7.40805 0.934346 8.55359 1.72536 9.02498L2.51973 7.69201C2.73852 7.82239 2.73852 8.13924 2.51973 8.26963L1.72536 6.93665ZM11.0529 12.7142C11.0203 12.7336 10.9796 12.7336 10.947 12.7142L10.1526 14.0471C10.6747 14.3582 11.3253 14.3582 11.8473 14.0471L11.0529 12.7142ZM19.4802 8.26963C19.2614 8.13924 19.2614 7.82239 19.4802 7.69201L20.2746 9.02498C21.0656 8.55359 21.0656 7.40805 20.2746 6.93665L19.4802 8.26963ZM4.55611 15.761C4.55611 16.3272 4.84553 16.8541 5.32336 17.1578L6.15578 15.8483C6.12592 15.8293 6.10783 15.7964 6.10783 15.761H4.55611ZM11.8473 1.9145C11.3253 1.60339 10.6747 1.60339 10.1526 1.9145L10.947 3.24748C10.9796 3.22803 11.0203 3.22803 11.0529 3.24748L11.8473 1.9145ZM19.1931 7.96618V12.7145H20.7448V7.96618H19.1931Z"
              fill="currentColor"/>
    </g>
</svg>
