<svg width="24" height="24" viewBox="0 0 24 24" fill="none" xmlns="http://www.w3.org/2000/svg">
<g id="icons">
<path id="Icon" d="M11.3689 6.26258H7.38833C6.06929 6.26258 5 7.33184 5 8.65083V16.6117C5 17.9307 6.06929 19 7.38833 19H15.3494C16.6685 19 17.7377 17.9307 17.7377 16.6117L17.7377 12.6313M14.9124 6.60482L9.78247 11.7214C9.6718 11.8322 9.59623 11.9731 9.56522 12.1265L8.98055 15.0195L11.877 14.4359C12.0308 14.4049 12.172 14.3292 12.2829 14.2183L17.3929 9.10556M14.9124 6.60482L16.2672 5.23332C16.578 4.92241 17.0819 4.9222 17.3929 5.23285L18.7665 6.60482C19.0776 6.9156 19.0779 7.41978 18.767 7.73081L17.3929 9.10556M14.9124 6.60482L17.3929 9.10556" stroke="#1D1D1D" stroke-opacity="0.6" stroke-linecap="round" stroke-linejoin="round"/>
</g>
</svg>
