<svg width="16" height="17" viewBox="0 0 16 17" fill="none" xmlns="http://www.w3.org/2000/svg">
<path d="M2 4.16667C2 9.8736 6.62639 14.5 12.3333 14.5C12.5908 14.5 12.8461 14.4906 13.0989 14.4721C13.3889 14.4508 13.5339 14.4402 13.666 14.3642C13.7753 14.3013 13.879 14.1897 13.9338 14.076C14 13.9388 14 13.7787 14 13.4587V11.5805C14 11.3113 14 11.1767 13.9557 11.0613C13.9166 10.9594 13.853 10.8687 13.7706 10.7971C13.6773 10.716 13.5508 10.67 13.2979 10.578L11.16 9.8006C10.8657 9.6936 10.7185 9.64007 10.5789 9.64913C10.4557 9.65713 10.3373 9.6992 10.2366 9.77053C10.1225 9.8514 10.0419 9.98567 9.8808 10.2543L9.33333 11.1667C7.56673 10.3666 6.1346 8.9326 5.33333 7.16667L6.24575 6.61921C6.5143 6.45809 6.64857 6.37752 6.72947 6.26337C6.8008 6.16272 6.84287 6.04425 6.85087 5.92113C6.85993 5.78151 6.8064 5.63435 6.6994 5.34003L5.92199 3.20214C5.83 2.94917 5.78401 2.82269 5.70295 2.7294C5.63134 2.64699 5.54059 2.58343 5.43868 2.5443C5.32331 2.5 5.18872 2.5 4.91955 2.5H3.04134C2.72125 2.5 2.56121 2.5 2.42399 2.56617C2.31033 2.62097 2.19876 2.72467 2.1358 2.83402C2.05979 2.96605 2.04917 3.11108 2.02793 3.40115C2.00942 3.65391 2 3.90919 2 4.16667Z" stroke="#1D1D1D" stroke-opacity="0.6" stroke-linecap="round" stroke-linejoin="round"/>
</svg>
