<svg width="16" height="16" viewBox="0 0 16 16" fill="none" xmlns="http://www.w3.org/2000/svg">
<path d="M1.92274 7.3444C1.92274 7.3444 7.37757 5.11256 9.26941 4.32673C9.99457 4.0124 12.454 3.00648 12.454 3.00648C12.454 3.00648 13.5891 2.56648 13.4945 3.63515C13.4629 4.07523 13.2107 5.61548 12.9584 7.28148C12.5801 9.63906 12.1702 12.2166 12.1702 12.2166C12.1702 12.2166 12.1072 12.9396 11.5712 13.0653C11.0351 13.1911 10.1522 12.6252 9.99457 12.4995C9.86849 12.4051 7.62982 10.9906 6.81007 10.2991C6.58932 10.1106 6.33707 9.73331 6.84157 9.29323C7.97666 8.25598 9.33249 6.96715 10.1522 6.1499C10.5306 5.77265 10.909 4.89248 9.33249 5.96123C7.09382 7.50148 4.88666 8.94748 4.88666 8.94748C4.88666 8.94748 4.38224 9.26181 3.43632 8.9789C2.49041 8.69598 1.38682 8.31881 1.38682 8.31881C1.38682 8.31881 0.630157 7.84723 1.92291 7.3444H1.92274Z" stroke="#1D1D1D" stroke-opacity="0.6"/>
</svg>
