<svg width="25" height="25" viewBox="0 0 25 25" fill="none" xmlns="http://www.w3.org/2000/svg">
<g id="icons">
<path id="Vector" d="M24.5 12.118C24.5 15.3006 23.2357 18.3529 20.9853 20.6033C18.7348 22.8538 15.6826 24.118 12.5 24.118C9.3174 24.118 6.26516 22.8538 4.01472 20.6033C1.76428 18.3529 0.5 15.3006 0.5 12.118C0.5 8.93544 1.76428 5.8832 4.01472 3.63276C6.26516 1.38232 9.3174 0.118042 12.5 0.118042C15.6826 0.118042 18.7348 1.38232 20.9853 3.63276C23.2357 5.8832 24.5 8.93544 24.5 12.118ZM12.9305 8.97704C11.7635 9.46304 9.4295 10.468 5.9315 11.992C5.3645 12.217 5.066 12.439 5.039 12.655C4.994 13.0195 5.4515 13.1635 6.074 13.36L6.3365 13.4425C6.9485 13.642 7.7735 13.8745 8.201 13.8835C8.591 13.8925 9.0245 13.7335 9.503 13.4035C12.7715 11.197 14.459 10.0825 14.564 10.0585C14.639 10.0405 14.744 10.0195 14.813 10.0825C14.8835 10.144 14.876 10.2625 14.8685 10.294C14.8235 10.4875 13.028 12.1555 12.0995 13.0195C11.81 13.2895 11.6045 13.48 11.5625 13.5235C11.47 13.6181 11.376 13.7111 11.2805 13.8025C10.7105 14.3515 10.2845 14.7625 11.303 15.4345C11.7935 15.7585 12.1865 16.024 12.578 16.291C13.004 16.582 13.43 16.8715 13.982 17.2345C14.1215 17.3245 14.2565 17.422 14.387 17.515C14.8835 17.869 15.332 18.187 15.8825 18.136C16.2035 18.106 16.535 17.806 16.703 16.906C17.1005 14.7805 17.882 10.177 18.062 8.27954C18.073 8.12181 18.0664 7.96334 18.0425 7.80704C18.0284 7.68092 17.9673 7.56473 17.8715 7.48154C17.735 7.38733 17.5723 7.33852 17.4065 7.34204C16.9565 7.34954 16.262 7.59104 12.9305 8.97704Z" fill="#3EB7F5"/>
</g>
</svg>
