<svg width="24" height="25" viewBox="0 0 24 25" fill="none" xmlns="http://www.w3.org/2000/svg">
<path fill-rule="evenodd" clip-rule="evenodd" d="M19.7071 5.82515C20.0976 5.43462 20.0976 4.80146 19.7071 4.41093C19.3166 4.02041 18.6834 4.02041 18.2929 4.41093L14.032 8.67186C13.4365 8.31997 12.7418 8.11804 12 8.11804C9.79086 8.11804 8 9.9089 8 12.118C8 12.8598 8.20193 13.5545 8.55382 14.15L4.29289 18.4109C3.90237 18.8014 3.90237 19.4346 4.29289 19.8251C4.68342 20.2156 5.31658 20.2156 5.70711 19.8251L9.96803 15.5642C10.5635 15.9161 11.2582 16.118 12 16.118C14.2091 16.118 16 14.3271 16 12.118C16 11.3762 15.7981 10.6815 15.4462 10.0861L19.7071 5.82515ZM12.518 10.1857C12.3528 10.1416 12.1792 10.118 12 10.118C10.8954 10.118 10 11.0134 10 12.118C10 12.2972 10.0236 12.4708 10.0677 12.636L12.518 10.1857ZM11.482 14.0503L13.9323 11.6C13.9764 11.7652 14 11.9388 14 12.118C14 13.2226 13.1046 14.118 12 14.118C11.8208 14.118 11.6472 14.0944 11.482 14.0503ZM15.7651 4.93874C14.6287 4.43853 13.3675 4.11804 12 4.11804C9.14754 4.11804 6.75717 5.51266 4.99812 7.02399C3.23268 8.5408 2.00757 10.2556 1.46387 11.0878C1.05306 11.7165 1.05306 12.5195 1.46387 13.1482C1.92276 13.8506 2.86706 15.1817 4.21194 16.4919L5.62626 15.0776C4.4555 13.9409 3.61144 12.7711 3.18002 12.118C3.6904 11.3454 4.77832 9.84962 6.30147 8.54098C7.87402 7.18989 9.81574 6.11804 12 6.11804C12.7719 6.11804 13.5135 6.25189 14.2193 6.48462L15.7651 4.93874ZM12 18.118C11.2282 18.118 10.4866 17.9841 9.78083 17.7514L8.23496 19.2973C9.37136 19.7975 10.6326 20.118 12 20.118C14.8525 20.118 17.2429 18.7234 19.002 17.2121C20.7674 15.6952 21.9925 13.9804 22.5362 13.1482C22.947 12.5195 22.947 11.7165 22.5362 11.0878C22.0773 10.3854 21.133 9.05431 19.7881 7.74415L18.3738 9.15847C19.5446 10.2951 20.3887 11.4649 20.8201 12.118C20.3097 12.8906 19.2218 14.3864 17.6986 15.6951C16.1261 17.0462 14.1843 18.118 12 18.118Z" fill="#1D1D1D" fill-opacity="0.6"/>
</svg>
