<svg width="24" height="25" viewBox="0 0 24 25" fill="none" xmlns="http://www.w3.org/2000/svg">
<path fill-rule="evenodd" clip-rule="evenodd" d="M6.30147 16.1951C4.77832 14.8864 3.6904 13.3906 3.18002 12.618C3.6904 11.8454 4.77832 10.3496 6.30147 9.04098C7.87402 7.68989 9.81574 6.61804 12 6.61804C14.1843 6.61804 16.1261 7.68989 17.6986 9.04098C19.2218 10.3496 20.3097 11.8454 20.8201 12.618C20.3097 13.3906 19.2218 14.8864 17.6986 16.1951C16.1261 17.5462 14.1843 18.618 12 18.618C9.81574 18.618 7.87402 17.5462 6.30147 16.1951ZM12 4.61804C9.14754 4.61804 6.75717 6.01266 4.99812 7.52399C3.23268 9.0408 2.00757 10.7556 1.46387 11.5878C1.05306 12.2165 1.05306 13.0195 1.46387 13.6482C2.00757 14.4804 3.23268 16.1952 4.99812 17.7121C6.75717 19.2234 9.14754 20.618 12 20.618C14.8525 20.618 17.2429 19.2234 19.002 17.7121C20.7674 16.1952 21.9925 14.4804 22.5362 13.6482C22.947 13.0195 22.947 12.2165 22.5362 11.5878C21.9925 10.7556 20.7674 9.0408 19.002 7.52399C17.2429 6.01266 14.8525 4.61804 12 4.61804ZM10 12.618C10 11.5134 10.8955 10.618 12 10.618C13.1046 10.618 14 11.5134 14 12.618C14 13.7226 13.1046 14.618 12 14.618C10.8955 14.618 10 13.7226 10 12.618ZM12 8.61804C9.7909 8.61804 8.00004 10.4089 8.00004 12.618C8.00004 14.8271 9.7909 16.618 12 16.618C14.2092 16.618 16 14.8271 16 12.618C16 10.4089 14.2092 8.61804 12 8.61804Z" fill="#1D1D1D" fill-opacity="0.6"/>
</svg>
