<svg width="36" height="36" viewBox="0 0 37 36" fill="none" xmlns="http://www.w3.org/2000/svg">
<rect x="0.310345" y="0.310345" width="35.3793" height="35.3793" rx="4.65517" fill="currentColor" fill-opacity="0.12" stroke="currentColor" stroke-width="0.62069"/>
<path d="M20.638 9.55863V12.7241C20.638 13.3069 21.1104 13.7793 21.6932 13.7793H24.8587M14.8345 13.7793H16.9449M14.8345 16.9448H21.1656M14.8345 20.1104H21.1656M23.2759 11.1414C22.8063 10.7212 22.319 10.2228 22.0113 9.89917C21.8066 9.68379 21.5238 9.55863 21.2266 9.55863H13.2515C12.086 9.55863 11.1412 10.5035 11.1412 11.669L11.1411 24.331C11.1411 25.4965 12.0859 26.4413 13.2514 26.4413L22.748 26.4414C23.9135 26.4414 24.8584 25.4966 24.8584 24.3311L24.8587 13.1443C24.8587 12.8745 24.7558 12.6151 24.5685 12.4209C24.2222 12.0617 23.644 11.4707 23.2759 11.1414Z" stroke="currentColor" stroke-width="1.55172" stroke-linecap="round" stroke-linejoin="round"/>
</svg>
