<svg width="36" height="36" viewBox="0 0 36 37" fill="none" xmlns="http://www.w3.org/2000/svg">
<rect x="0.310345" y="0.310345" width="35.3793" height="35.3793" rx="4.65517" fill="currentColor" fill-opacity="0.12" stroke="currentColor" stroke-width="0.62069"/>
<path d="M23.6694 23.4991L23.2749 22.831L23.2749 22.831L23.6694 23.4991ZM24.1016 22.7419L23.3257 22.7419L23.3257 22.7419L24.1016 22.7419ZM17.0905 26.2686L16.6743 26.9234L16.6743 26.9234L17.0905 26.2686ZM18.9281 26.2988L19.3226 26.9668L18.9281 26.2988ZM9.12266 14.603L8.72548 13.9366L9.12266 14.603ZM9.12266 15.3584L8.72548 16.0249L9.12266 15.3584ZM18.4502 20.3805L18.8474 21.047L18.4502 20.3805ZM17.55 20.3805L17.9471 19.7141L17.9471 19.7141L17.55 20.3805ZM26.8775 14.603L27.2747 13.9366L26.8775 14.603ZM26.8775 15.3584L26.4804 14.6919L26.8775 15.3584ZM12.7397 23.503L13.1559 22.8482L13.1559 22.8482L12.7397 23.503ZM18.4502 9.58089L18.0531 10.2474L18.0531 10.2474L18.4502 9.58089ZM17.55 9.58089L17.9471 10.2474L17.9471 10.2474L17.55 9.58089ZM27.7449 14.9661C27.7449 14.5376 27.3976 14.1902 26.9691 14.1902C26.5406 14.1902 26.1932 14.5376 26.1932 14.9661H27.7449ZM26.1932 19.7144C26.1932 20.1429 26.5406 20.4902 26.9691 20.4902C27.3976 20.4902 27.7449 20.1429 27.7449 19.7144H26.1932ZM18.0531 10.2474L26.4804 15.2695L27.2747 13.9366L18.8474 8.9144L18.0531 10.2474ZM26.4804 14.6919L18.0531 19.7141L18.8474 21.047L27.2747 16.0249L26.4804 14.6919ZM9.51985 15.2695L17.9471 10.2474L17.1528 8.9144L8.72548 13.9366L9.51985 15.2695ZM17.9471 19.7141L12.7293 16.6045L11.9349 17.9375L17.1528 21.047L17.9471 19.7141ZM12.7293 16.6045L9.51985 14.6919L8.72548 16.0249L11.9349 17.9375L12.7293 16.6045ZM11.5562 17.271V22.7609H13.108V17.271H11.5562ZM12.3235 24.1577L16.6743 26.9234L17.5067 25.6138L13.1559 22.8482L12.3235 24.1577ZM19.3226 26.9668L24.0639 24.1672L23.2749 22.831L18.5336 25.6307L19.3226 26.9668ZM24.8774 22.7419L24.8774 17.271L23.3257 17.271L23.3257 22.7419L24.8774 22.7419ZM24.0639 24.1672C24.5681 23.8694 24.8774 23.3275 24.8774 22.7419L23.3257 22.7419C23.3257 22.7785 23.3064 22.8124 23.2749 22.831L24.0639 24.1672ZM16.6743 26.9234C17.4787 27.4347 18.5019 27.4515 19.3226 26.9668L18.5336 25.6307C18.2154 25.8186 17.8186 25.8121 17.5067 25.6138L16.6743 26.9234ZM8.72548 13.9366C7.93446 14.408 7.93447 15.5535 8.72548 16.0249L9.51985 14.6919C9.73864 14.8223 9.73864 15.1391 9.51985 15.2695L8.72548 13.9366ZM18.0531 19.7141C18.0204 19.7335 17.9798 19.7335 17.9471 19.7141L17.1528 21.047C17.6748 21.3581 18.3254 21.3581 18.8474 21.047L18.0531 19.7141ZM26.4804 15.2695C26.2616 15.1391 26.2616 14.8223 26.4804 14.6919L27.2747 16.0249C28.0657 15.5535 28.0657 14.408 27.2747 13.9366L26.4804 15.2695ZM11.5562 22.7609C11.5562 23.3271 11.8456 23.854 12.3235 24.1577L13.1559 22.8482C13.126 22.8292 13.108 22.7963 13.108 22.7609H11.5562ZM18.8474 8.9144C18.3254 8.60329 17.6748 8.60329 17.1528 8.9144L17.9471 10.2474C17.9798 10.2279 18.0204 10.2279 18.0531 10.2474L18.8474 8.9144ZM26.1932 14.9661V19.7144H27.7449V14.9661H26.1932Z" fill="currentColor"/>
</svg>
