<svg width="36" height="36" viewBox="0 0 37 36" fill="none" xmlns="http://www.w3.org/2000/svg">
<rect x="0.310345" y="0.310345" width="35.3793" height="35.3793" rx="4.65517" fill="currentColor" fill-opacity="0.12" stroke="currentColor" stroke-width="0.62069"/>
<g clip-path="url(#clip0_203_14188)">
<path d="M19.9042 7.936H7.98621C7.68916 7.936 7.44836 8.1768 7.44836 8.47386V17.3064C7.44836 17.6034 7.68916 17.8442 7.98621 17.8442H19.6854L18.2695 16.9651C18.1769 16.9075 18.093 16.8413 18.0177 16.7686H8.52402V9.01166H19.3663V14.2341C19.5316 14.269 19.6937 14.3326 19.8455 14.4269L20.442 14.7972V8.47386C20.442 8.1768 20.2012 7.936 19.9042 7.936Z" fill="currentColor"/>
<path d="M16.3867 12.9853C16.2073 12.844 15.9471 12.8747 15.8056 13.0541C15.6642 13.2335 15.6949 13.4937 15.8744 13.6351L17.6995 15.0742C17.7254 15.0177 17.7547 14.9621 17.7883 14.9079C17.9072 14.7166 18.0624 14.5617 18.2393 14.4461L16.3867 12.9853Z" fill="currentColor"/>
<path d="M24.7478 12.3516C25.6028 12.3516 26.2959 11.6585 26.2959 10.8036C26.2959 9.94865 25.6028 9.25558 24.7478 9.25558C23.8929 9.25558 23.1998 9.94865 23.1998 10.8036C23.1998 11.6585 23.8929 12.3516 24.7478 12.3516Z" fill="currentColor"/>
<path d="M28.5242 14.604C28.5193 13.6343 27.7264 12.8453 26.7566 12.8453H26.007C25.2721 14.7513 25.5401 14.0563 25.0793 15.2512L25.2734 14.2733C25.2877 14.2014 25.2762 14.1268 25.2409 14.0626L24.9367 13.5093L25.2067 13.0182C25.2254 12.9841 25.2247 12.9428 25.205 12.9094C25.1852 12.8759 25.1493 12.8555 25.1105 12.8555H24.3702C24.3314 12.8555 24.2955 12.8759 24.2757 12.9094C24.2559 12.9428 24.2553 12.9842 24.274 13.0182L24.5434 13.5082L24.2398 14.0605C24.2038 14.126 24.1925 14.2023 24.208 14.2753L24.4322 15.2512C24.3036 14.9178 23.5633 13.0778 23.4737 12.8453H22.7388C21.7689 12.8453 20.976 13.6342 20.9712 14.604C20.9671 15.4105 20.9705 14.7351 20.9642 16.0007L19.4514 15.0614C19.101 14.8438 18.6405 14.9515 18.4229 15.302C18.2053 15.6525 18.313 16.1129 18.6634 16.3305L21.3104 17.974C21.8062 18.2819 22.4484 17.9259 22.4513 17.3432C22.4528 17.0509 22.4633 14.9605 22.4651 14.6115C22.4656 14.5253 22.5357 14.4559 22.6219 14.4562C22.708 14.4564 22.7777 14.5263 22.7777 14.6125C22.7769 18.2118 22.7614 19.218 22.7614 27.1677C22.7614 27.6627 23.1627 28.064 23.6577 28.064C24.1528 28.064 24.5541 27.6627 24.5541 27.1677V20.0034H24.941V27.1677C24.941 27.6627 25.3423 28.064 25.8373 28.064C26.3324 28.064 26.7337 27.6627 26.7337 27.1677L26.734 14.6123C26.734 14.5306 26.8001 14.4644 26.8818 14.4641C26.9635 14.4639 27.03 14.5298 27.0304 14.6115L27.058 20.0989C27.06 20.5102 27.3941 20.8421 27.8048 20.8421C27.8061 20.8421 27.8073 20.8421 27.8087 20.8421C28.2211 20.84 28.5539 20.5039 28.5518 20.0914L28.5242 14.604Z" fill="currentColor"/>
</g>
<defs>
<clipPath id="clip0_203_14188">
<rect width="21.1034" height="21.1034" fill="white" transform="translate(7.44836 7.44827)"/>
</clipPath>
</defs>
</svg>
