<svg width="36" height="36" viewBox="0 0 37 36" fill="none" xmlns="http://www.w3.org/2000/svg">
<rect x="0.310345" y="0.310345" width="35.3793" height="35.3793" rx="4.65517" fill="currentColor" fill-opacity="0.12" stroke="currentColor" stroke-width="0.62069"/>
<g clip-path="url(#clip0_203_13857)">
<path d="M10.9655 9.20689C9.99829 9.20689 9.20691 9.99827 9.20691 10.9655V22.3966C9.20691 23.3638 9.99829 24.1552 10.9655 24.1552H16.2414V25.0345H12.7242V26.7931H23.2759V25.0345H19.7586V24.1552H25.0345C26.0017 24.1552 26.7931 23.3638 26.7931 22.3966V10.9655C26.7931 9.99827 26.0017 9.20689 25.0345 9.20689H10.9655ZM10.9655 10.9655H25.0345V22.3966H10.9655V10.9655ZM18 11.8448C17.0328 11.8448 16.2414 12.6362 16.2414 13.6034C16.2414 14.5707 17.0328 15.3621 18 15.3621C18.9673 15.3621 19.7586 14.5707 19.7586 13.6034C19.7586 12.6362 18.9673 11.8448 18 11.8448ZM16.2414 16.2414C15.2742 16.2414 14.4828 17.0328 14.4828 18V18.8793H21.5173V18C21.5173 17.0328 20.7259 16.2414 19.7586 16.2414H16.2414ZM11.8448 19.7586V21.5172H15.3621V19.7586H11.8448ZM16.2414 19.7586V21.5172H19.7586V19.7586H16.2414ZM20.6379 19.7586V21.5172H24.1552V19.7586H20.6379Z" fill="currentColor"/>
</g>
<defs>
<clipPath id="clip0_203_13857">
<rect width="21.1034" height="21.1034" fill="white" transform="translate(7.44824 7.44827)"/>
</clipPath>
</defs>
</svg>
