<svg width="63" height="63" viewBox="0 0 63 63" fill="none" xmlns="http://www.w3.org/2000/svg">
<g clip-path="url(#clip0_1337_8212)">
<rect width="63" height="63" fill="white"/>
<path d="M0.322068 73.1635L8.98944 69.6633L15.6085 52.3726L24.4323 56.9189C24.4323 56.9189 23.5817 58.625 21.7583 62.8536C21.0495 64.4815 18.7176 69.0327 17.7692 71.2472C16.8916 73.2946 15.4459 75.0479 13.6033 76.2997C11.7607 77.5515 9.59811 78.2495 7.37134 78.3111L-0.763184 78.5213L0.322068 73.1635Z" fill="#FFBF9D"/>
<path d="M46.4454 24.9775C46.4796 22.2008 46.9342 19.4339 46.8071 16.667C46.68 13.9 45.9712 11.0011 44.0353 9.01151C42.0994 7.02188 38.7215 6.26905 36.4727 7.85782L35.9839 10.2239C36.8736 20.9298 36.7563 31.8068 37.646 42.5127C37.7633 43.9206 38.9023 45.1965 39.5427 46.4528C40.1831 47.7092 41.4688 48.7504 42.8767 48.6624C44.7197 48.55 45.9272 46.6826 46.4991 44.9227C48.6012 38.5627 46.3622 31.6894 46.4454 24.9775Z" fill="#59331F"/>
<path d="M39.7671 10.5808C39.3963 9.87545 38.9199 9.23086 38.3543 8.66942C38.0691 8.3902 37.7243 8.1792 37.3458 8.0522C36.9674 7.92521 36.5651 7.88553 36.1692 7.93614C35.9827 7.95932 35.8052 8.02989 35.6537 8.14115C35.5023 8.2524 35.3818 8.40061 35.3039 8.57164C35.1817 8.92361 35.4457 9.3978 35.8172 9.36358L35.8954 9.43203C36.7265 10.1686 37.5722 10.8872 38.4326 11.5879C38.6379 11.7794 38.8787 11.9288 39.1414 12.0278C39.2735 12.076 39.4165 12.0859 39.5539 12.0565C39.6914 12.0271 39.8178 11.9596 39.9187 11.8616C40.2267 11.5194 40.0018 10.9768 39.7671 10.5808Z" fill="#2C55DE"/>
<path d="M41.3365 13.3087C38.5696 9.92579 34.8543 7.97526 30.484 7.93126C28.0397 7.88727 26.9985 8.42012 25.2239 8.87964C23.447 9.30864 21.8765 10.3464 20.7851 11.8128C19.5288 13.5971 18.4728 15.5965 18.2333 17.7719C17.9201 19.9946 17.8137 22.2415 17.9156 24.4839C18.0181 26.7371 18.7423 28.918 20.0078 30.7852L25.6981 31.7629C28.8414 31.8704 32.0288 31.9731 35.0939 31.274C38.159 30.575 41.1312 28.908 42.7689 26.2242C45.0469 22.4698 44.0986 16.6866 41.3365 13.3087Z" fill="#59331F"/>
<path d="M36.2763 13.2694L28.6893 10.2532L26.7046 10.4829C22.2462 10.4829 19.1665 15.4204 19.1371 19.0281C19.1078 23.0465 19.2251 27.9448 19.8606 30.9024C21.1463 36.8517 26.2157 37.3454 26.2157 37.3454C26.2157 37.3454 26.1131 40.5181 26.074 42.5126L37.694 41.6767L38.2758 15.3079C38.2581 14.7795 38.043 14.277 37.6728 13.8996C37.3026 13.5221 36.8043 13.2973 36.2763 13.2694Z" fill="#FFBF9D"/>
<path d="M28.7828 29.5094C28.7359 29.2053 28.5794 28.9289 28.3428 28.7321C28.1276 28.5468 27.8575 28.4373 27.5739 28.4205C27.2904 28.4037 27.0092 28.4806 26.7736 28.6393C26.5291 28.8277 26.3392 29.0778 26.2232 29.3638C26.1072 29.6499 26.0694 29.9616 26.1137 30.2671C26.2443 30.4505 26.4127 30.6039 26.6074 30.7168C26.8022 30.8298 27.0189 30.8998 27.2429 30.9222C27.3129 30.9271 27.3831 30.9271 27.4531 30.9222C27.8158 30.9297 28.1669 30.7946 28.4308 30.5458C28.5636 30.4106 28.6642 30.2472 28.7251 30.0678C28.786 29.8883 28.8058 29.6975 28.7828 29.5094Z" fill="#FF9A6C"/>
<path d="M21.147 24.1072C21.1546 24.3082 21.2409 24.4981 21.3871 24.6362C21.5334 24.7743 21.728 24.8494 21.9291 24.8454C22.0275 24.8473 22.1253 24.8297 22.2169 24.7935C22.3084 24.7574 22.3918 24.7034 22.4623 24.6347C22.5328 24.566 22.589 24.484 22.6275 24.3935C22.6661 24.3029 22.6862 24.2056 22.6869 24.1072C22.6768 23.9062 22.5891 23.717 22.4423 23.5793C22.2955 23.4416 22.101 23.3663 21.8998 23.369C21.8016 23.3671 21.7041 23.3847 21.6128 23.421C21.5216 23.4572 21.4384 23.5113 21.3683 23.58C21.2982 23.6487 21.2425 23.7308 21.2045 23.8213C21.1665 23.9118 21.147 24.009 21.147 24.1072Z" fill="#263238"/>
<path d="M20.4968 21.0369C20.5945 21.1298 21.1567 20.6703 21.9633 20.6263C22.7699 20.5823 23.4299 20.9636 23.5081 20.8561C23.5863 20.7485 23.4397 20.6312 23.1659 20.4552C22.7938 20.2266 22.36 20.119 21.9242 20.1472C21.4938 20.1685 21.0812 20.326 20.7461 20.597C20.5212 20.8072 20.443 20.9929 20.4968 21.0369Z" fill="#263238"/>
<path d="M25.8154 27.5338C25.3718 27.4173 24.9149 27.3598 24.4563 27.3627C24.2461 27.3627 24.0408 27.3236 23.9968 27.177C23.9703 26.9608 24.0077 26.7415 24.1044 26.5464C24.2755 26.0233 24.4563 25.4758 24.6421 24.8989C25.3852 22.5622 25.9131 20.641 25.8154 20.6117C25.7176 20.5823 25.043 22.4546 24.2999 24.7963L23.8111 26.4486C23.6907 26.7107 23.6682 27.0072 23.7475 27.2845C23.7813 27.3573 23.8316 27.4213 23.8944 27.4713C23.9572 27.5214 24.0307 27.5562 24.1093 27.5729C24.2281 27.5984 24.3497 27.6083 24.471 27.6023C24.9203 27.6325 25.3715 27.6095 25.8154 27.5338Z" fill="#263238"/>
<path d="M26.2061 37.3407C29.0345 37.2288 31.7762 36.3335 34.1255 34.7546C34.1255 34.7546 32.2141 39.0321 26.1768 38.8023L26.2061 37.3407Z" fill="#FF9A6C"/>
<path d="M28.2839 27.9693C28.152 27.9693 28.196 28.8688 27.4627 29.5483C26.7294 30.2278 25.7664 30.1838 25.7664 30.3109C25.7664 30.438 25.9912 30.4722 26.3921 30.4625C26.9208 30.4415 27.4249 30.2337 27.8147 29.8758C28.1877 29.534 28.4137 29.0609 28.4453 28.5559C28.455 28.1795 28.3475 27.9644 28.2839 27.9693Z" fill="#263238"/>
<path d="M20.7758 18.1385C20.9273 18.3291 21.5531 18.1629 22.2961 18.1825C23.0392 18.202 23.6649 18.3633 23.8214 18.1825C23.8898 18.0896 23.7969 17.8989 23.528 17.6936C23.1645 17.4573 22.7395 17.3332 22.3059 17.3368C21.8723 17.3251 21.4446 17.4388 21.074 17.6643C20.8051 17.85 20.7122 18.0407 20.7758 18.1385Z" fill="#263238"/>
<path d="M30.1853 23.9019C30.1894 24.1026 30.1151 24.2971 29.9782 24.444C29.8413 24.5909 29.6526 24.6788 29.452 24.6889C29.3543 24.6983 29.2556 24.6881 29.1618 24.6588C29.0681 24.6296 28.9811 24.5819 28.9059 24.5187C28.8308 24.4554 28.7691 24.3777 28.7244 24.2903C28.6796 24.2028 28.6528 24.1074 28.6454 24.0094C28.6413 23.8089 28.7147 23.6146 28.8505 23.467C28.9862 23.3194 29.1737 23.23 29.3738 23.2175C29.4722 23.2081 29.5715 23.2184 29.6659 23.2479C29.7603 23.2774 29.8478 23.3254 29.9234 23.3891C29.999 23.4529 30.061 23.5311 30.106 23.6191C30.151 23.7071 30.178 23.8033 30.1853 23.9019Z" fill="#263238"/>
<path d="M31.7013 20.7145C31.6084 20.8172 31.0169 20.3968 30.1858 20.4115C29.3548 20.4261 28.7584 20.8563 28.6655 20.7537C28.5726 20.651 28.7144 20.5288 28.9784 20.3284C29.3316 20.0737 29.7553 19.9353 30.1907 19.9324C30.622 19.9228 31.045 20.0512 31.3982 20.299C31.6573 20.4897 31.7501 20.6705 31.7013 20.7145Z" fill="#263238"/>
<path d="M31.2024 18.0654C31.046 18.256 30.4007 18.0654 29.6332 18.0654C28.8657 18.0654 28.2106 18.2169 28.0591 18.0214C27.9906 17.9285 28.0933 17.7378 28.3719 17.5325C28.7583 17.3063 29.2003 17.1928 29.6478 17.205C30.0923 17.1999 30.5287 17.3239 30.9042 17.5619C31.1828 17.777 31.2757 17.9725 31.2024 18.0654Z" fill="#263238"/>
<path d="M37.2544 25.3885C37.2544 24.9436 37.6895 23.8632 38.1294 23.7703C39.2978 23.521 41.4243 23.4966 41.6101 26.4884C41.8643 30.5801 37.6993 29.9886 37.6993 29.8712C37.6993 29.7539 37.3277 26.9332 37.2544 25.3885Z" fill="#FFBF9D"/>
<path d="M38.7217 28.3064C38.7217 28.3064 38.795 28.3553 38.9172 28.3993C39.0896 28.4694 39.2826 28.4694 39.455 28.3993C39.8754 28.2135 40.198 27.5047 40.1736 26.7665C40.1616 26.4154 40.0714 26.0713 39.9096 25.7595C39.8637 25.6335 39.7875 25.5208 39.6878 25.4313C39.588 25.3418 39.4678 25.2782 39.3376 25.2462C39.255 25.2298 39.1692 25.2429 39.0951 25.2831C39.021 25.3232 38.9633 25.388 38.9319 25.4662C38.883 25.5835 38.9319 25.6666 38.8928 25.6715C38.8537 25.6764 38.7999 25.6079 38.8243 25.4368C38.8406 25.3343 38.8925 25.2408 38.971 25.1729C39.0233 25.1265 39.0846 25.0913 39.151 25.0694C39.2174 25.0476 39.2876 25.0395 39.3572 25.0457C39.5276 25.0663 39.6896 25.1313 39.8269 25.2343C39.9642 25.3372 40.0719 25.4745 40.1394 25.6324C40.3346 25.9759 40.4436 26.3618 40.4571 26.7567C40.4816 27.5829 40.1051 28.3797 39.5283 28.585C39.4205 28.6241 39.3053 28.6387 39.1911 28.6277C39.077 28.6167 38.9667 28.5804 38.8683 28.5215C38.7217 28.409 38.7217 28.3162 38.7217 28.3064Z" fill="#FF9A6C"/>
<path d="M38.2866 23.7799L37.2552 24.8456C32.7675 20.5486 23.9975 9.7938 24.4912 10.4342C26.5367 9.67392 28.7406 9.44026 30.9001 9.7547C34.2389 10.3218 40.5647 11.9937 40.4669 15.9289C40.3692 19.8642 38.2866 23.7799 38.2866 23.7799Z" fill="#59331F"/>
<path d="M44.2305 22.8902C44.2172 22.81 44.1959 22.7314 44.1669 22.6555C44.0925 22.433 43.9992 22.2171 43.8883 22.0103C43.4647 21.2529 42.8807 20.5972 42.1773 20.0891C41.1403 19.3442 39.9827 18.7836 38.7553 18.4318C37.3866 17.987 35.8467 17.6399 34.3312 16.9653C32.9021 16.3699 31.547 15.6103 30.2933 14.7019C29.2679 13.9593 28.3123 13.1248 27.4384 12.2087C26.8521 11.5891 26.3021 10.9362 25.7909 10.2533L25.3803 9.68625C25.3345 9.61774 25.2821 9.55389 25.2239 9.49561C25.2582 9.57079 25.2991 9.64277 25.3461 9.7107C25.4292 9.84758 25.5514 10.048 25.7225 10.2973C26.2119 11.0047 26.7493 11.6776 27.3308 12.3114C29.2604 14.4094 31.6221 16.0639 34.253 17.1608C35.7092 17.7127 37.1923 18.1908 38.6967 18.5932C39.9187 18.9262 41.0756 19.4634 42.1187 20.1819C42.8146 20.6709 43.4021 21.2984 43.8443 22.0249C44.0985 22.5578 44.2061 22.8902 44.2305 22.8902Z" fill="#455A64"/>
<path d="M43.0383 23.521C43.0516 23.215 42.9982 22.9097 42.8818 22.6264C42.5731 21.8446 42.0366 21.1735 41.3419 20.7003C40.3023 20.0306 39.1386 19.5767 37.92 19.3657C36.4618 19.0735 35.0404 18.621 33.6816 18.0165C32.3286 17.3991 31.0575 16.6159 29.8979 15.6847C28.9545 14.9208 28.0868 14.0679 27.307 13.1377C26.7757 12.5068 26.2859 11.8422 25.8404 11.1481L25.4933 10.5761C25.4575 10.5073 25.4131 10.4433 25.3613 10.3855C25.3886 10.4579 25.4213 10.5282 25.4591 10.5957L25.772 11.1921C26.188 11.9046 26.6553 12.5858 27.1701 13.2306C27.9406 14.1854 28.8072 15.0585 29.7561 15.8362C30.9226 16.7859 32.2056 17.5827 33.5741 18.2072C34.9449 18.8188 36.3819 19.27 37.8564 19.5515C39.053 19.7508 40.1989 20.1826 41.2295 20.8225C41.9111 21.2711 42.4477 21.908 42.7743 22.6557C42.8887 22.9354 42.977 23.2251 43.0383 23.521Z" fill="#455A64"/>
<path d="M38.1492 30.7117C38.1492 30.6824 38.4963 30.6384 39.1024 30.4771C39.9523 30.2317 40.7349 29.7953 41.3903 29.2012C42.3504 28.3026 43.0798 27.1858 43.5168 25.9454C44.0751 24.4338 44.3758 22.8392 44.4065 21.228C44.425 20.3955 44.3578 19.5633 44.2061 18.7446C43.7959 16.6853 42.8287 14.7781 41.4098 13.2303C40.5755 12.3444 39.6552 11.5436 38.6625 10.8398C38.6625 10.8398 38.7456 10.8692 38.8922 10.9572C39.0389 11.0452 39.2491 11.1625 39.5082 11.3483C40.2508 11.8577 40.9359 12.4461 41.5516 13.1032C42.4736 14.077 43.2196 15.2034 43.7563 16.4323C44.0675 17.1613 44.3049 17.9195 44.4652 18.6957C44.6224 19.5319 44.6929 20.3822 44.6754 21.2329C44.646 22.8743 44.3334 24.4983 43.7514 26.0334C43.2887 27.3027 42.5216 28.4392 41.5174 29.343C40.8319 29.9391 40.014 30.3631 39.1318 30.5797C38.8917 30.6342 38.6484 30.6734 38.4034 30.6971C38.3192 30.7086 38.2342 30.7135 38.1492 30.7117Z" fill="#455A64"/>
<path d="M26.1136 41.5152L37.8657 40.2441L40.0166 42.1996L31.6279 47.137L27.9273 49.0533L24.2706 47.9436L23.1121 45.7633L26.1136 41.5152Z" fill="#FFBF9D"/>
<path d="M10.27 55.8241C10.27 55.8241 13.956 48.7553 14.8652 47.2105C16.4198 44.5756 19.3236 43.0846 19.3236 43.0846L26.1138 41.5154C26.1138 41.5154 25.4098 44.9373 29.6335 45.1524C35.0109 45.4506 38.3498 40.2981 38.3498 40.2981C38.3498 40.2981 44.48 40.9287 46.1714 41.6376C47.8629 42.3464 52.6536 44.3556 53.3576 50.7205L55.0001 61.1184L42.0455 62.0961L42.2215 75.9404L36.717 80.4428C36.717 80.4428 20.9124 85.8837 19.9004 86.2406C19.4116 86.4116 19.5387 79.6948 18.4094 73.9361L16.278 68.7591C15.4152 66.6914 14.9047 64.4938 14.7675 62.2574C14.6844 60.7908 14.7235 59.6665 14.7235 59.6665C14.7235 59.6665 11.3993 58.5274 10.27 55.8241Z" fill="#455A64"/>
<path d="M20.4772 80.8141L42.197 74.2977L42.0454 62.1057L53.1033 61.2649C53.1033 61.2649 52.2234 67.5809 52.0914 70.8171C51.9056 75.4759 49.6471 81.9874 48.1806 83.366C46.714 84.7445 19.915 86.2502 19.915 86.2502L20.4772 80.8141Z" fill="#FFBF9D"/>
<path d="M18.077 48.0168C18.1161 48.0168 17.7641 48.6964 17.2704 49.7914C15.978 52.6498 15.1338 55.6903 14.7675 58.8058C14.6208 60.0035 14.5817 60.7613 14.5377 60.7613C14.5115 60.5862 14.5115 60.4083 14.5377 60.2333C14.5377 59.896 14.5377 59.4071 14.6061 58.801C14.8824 55.6461 15.741 52.5698 17.1384 49.7278C17.4073 49.1852 17.6273 48.7501 17.8179 48.4666C17.8858 48.3068 17.9728 48.1558 18.077 48.0168Z" fill="#263238"/>
<path d="M54.9995 61.1183C54.9122 61.145 54.8218 61.1598 54.7306 61.1623L53.9533 61.2356L51.0495 61.4801L41.1209 62.228H40.9938V62.1009C40.9107 60.781 40.8227 59.3878 40.7347 57.9603C40.593 55.4672 40.4707 53.0718 40.4316 50.9257C40.3052 48.9925 40.7452 47.0643 41.6978 45.3772C42.3517 44.2394 43.3167 43.3118 44.4793 42.7032C44.7932 42.5459 45.1204 42.4166 45.4571 42.317C45.5741 42.2804 45.6933 42.251 45.8139 42.229C45.8139 42.2681 45.3251 42.3708 44.5185 42.7912C43.3974 43.4209 42.472 44.3479 41.8444 45.4701C40.9385 47.1402 40.5329 49.036 40.6761 50.9306C40.7249 53.0864 40.852 55.4623 40.9938 57.9554C41.0818 59.3829 41.1649 60.7761 41.248 62.0911L41.1111 61.9738L51.0495 61.3187L53.9827 61.1476L54.7599 61.1183H54.9995Z" fill="#263238"/>
<path d="M30.6403 69.5856C30.4896 69.5563 30.3444 69.5035 30.2101 69.4292C30.0419 69.3586 29.8786 69.277 29.7212 69.1848C29.5104 69.0713 29.3063 68.9456 29.1102 68.8083C28.5901 68.4575 28.1098 68.0509 27.6778 67.596C27.1552 67.0321 26.6961 66.4124 26.309 65.7481C25.9356 65.0763 25.6388 64.3646 25.4242 63.6265C25.254 63.0235 25.1491 62.404 25.1113 61.7786C25.097 61.5393 25.097 61.2993 25.1113 61.06C25.1121 60.8784 25.1251 60.6972 25.1504 60.5174C25.1549 60.3621 25.1846 60.2085 25.2384 60.0627C25.2873 60.0627 25.2042 60.7227 25.3069 61.7639C25.3683 62.372 25.4878 62.9728 25.6637 63.558C25.8885 64.2737 26.185 64.9649 26.5486 65.621C26.9229 66.268 27.3636 66.8742 27.8636 67.4298C28.2794 67.88 28.736 68.2907 29.2275 68.6568C30.0585 69.2776 30.6647 69.5416 30.6403 69.5856Z" fill="#263238"/>
</g>
<defs>
<clipPath id="clip0_1337_8212">
<rect width="63" height="63" fill="white"/>
</clipPath>
</defs>
</svg>