<svg width="16" height="17" viewBox="0 0 16 17" fill="none" xmlns="http://www.w3.org/2000/svg">
<path d="M1.92274 7.8444C1.92274 7.8444 7.37757 5.61256 9.26941 4.82673C9.99457 4.5124 12.454 3.50648 12.454 3.50648C12.454 3.50648 13.5891 3.06648 13.4945 4.13515C13.4629 4.57523 13.2107 6.11548 12.9584 7.78148C12.5801 10.1391 12.1702 12.7166 12.1702 12.7166C12.1702 12.7166 12.1072 13.4396 11.5712 13.5653C11.0351 13.6911 10.1522 13.1252 9.99457 12.9995C9.86849 12.9051 7.62982 11.4906 6.81007 10.7991C6.58932 10.6106 6.33707 10.2333 6.84157 9.79323C7.97666 8.75598 9.33249 7.46715 10.1522 6.6499C10.5306 6.27265 10.909 5.39248 9.33249 6.46123C7.09382 8.00148 4.88666 9.44748 4.88666 9.44748C4.88666 9.44748 4.38224 9.76181 3.43632 9.4789C2.49041 9.19598 1.38682 8.81881 1.38682 8.81881C1.38682 8.81881 0.630157 8.34723 1.92291 7.8444H1.92274Z" stroke="#1D1D1D" stroke-opacity="0.6"/>
</svg>
