<svg xmlns="http://www.w3.org/2000/svg" fill="none" viewBox="0 0 200 100"><mask id="a" width="200" height="100" x="0" y="0" maskUnits="userSpaceOnUse" style="mask-type:alpha"><rect width="200" height="100" fill="#fff" /></mask><g><rect width="200" height="100" fill="#fff" opacity=".6" /><path fill="#7B2CBF" d="M81.998-8c23 17-13.786 26.679-36.167 56.623-10.106 13.521 21.572 28.384 57.564 39.212 39.044 3.522 74.985 5.593 83.103 11.961 10.694 8.389-39.387 1.191-83.103-11.96C48.662 82.897-12.17 75.106-11.002 48.622c2-45.377 70-73.623 93-56.623ZM172.806 14c10.347-22.149 39.412-22.951 45.741-12.616L226.228-33l5.357 96.26c-17.262 12.947-74.87-14.815-58.779-49.26Z" opacity=".2"/><path fill="#263238" d="M52.342 63.699 45.62 92.846h1.596l6.56-29.147h-1.434Z"/><path fill="#455A64" d="m51.544 63.699-6.72 29.147h1.594l6.561-29.147h-1.435Z"/><path fill="#263238" d="M69.693 61.947c0 .26 5.848 30.823 5.848 30.823h1.713L71.29 61.947h-1.598Z"/><path fill="#455A64" d="M68.976 61.947c0 .26 5.847 30.823 5.847 30.823h1.824l-6.072-30.823h-1.6Z"/><path fill="#263238" d="m65.114 63.699-.39 29.147h2.154l.315-29.147h-2.079Z"/><path fill="#455A64" d="m49.471 61.947-.137 1.931 18.112.613.193-2.302-18.168-.242Z"/><path fill="#263238" d="M67.446 64.49h1.01l.184-2.29-1.001-.011-.193 2.302Z"/><path fill="#455A64" d="m50.695 71.213 13.813.64v2.325l-14.212-.696.399-2.269Z"/><path fill="#455A64" d="m64.508 63.699-.391 29.147h2.155l.312-29.147h-2.076ZM55.344 63.699c-.03.521-.03 1.044 0 1.565l7.451.423v-1.693l-7.451-.295ZM61.83 8.165c.089.204 1.249 7.913 1.249 7.913l1.387-.093-1.12-7.82H61.83Z"/><path fill="#263238" d="m64.016 8.753-.67-.588 1.12 7.82.576-.041-1.026-7.19ZM65.85 11.784c0 .148-.107 4.133-.107 4.133l1.49-.1v-4.033H65.85Z"/><path fill="#455A64" d="M65.472 11.784c0 .148-.107 4.133-.107 4.133l1.489-.1v-4.033h-1.382Z"/><path fill="#263238" d="m60.938 11.906-1.102 4.392 1.316-.09 1.001-4.302h-1.215Z"/><path fill="#455A64" d="m60.37 11.906-1.101 4.392 1.316-.09 1.001-4.302h-1.215Z"/><path fill="#E0E0E0" d="m77.171 14.782.89.78-1.132 46.73H75.62l1.55-47.51Z"/><path fill="#FAFAFA" d="m47.498 17.269-3.878 44.5 32.001.523 1.55-47.51-29.674 2.487Z"/><path fill="#455A64" d="m47.498 17.279.526-.049 1.548-.134 5.94-.509 21.655-1.832h.048v.047c-.412 12.822-.95 29.285-1.53 47.173 0 .114 0 .226-.01.338v.05h-.054l-32.001-.528h-.052v-.051c1.158-13.162 2.135-24.29 2.823-32.13.348-3.916.617-7.008.81-9.125.095-1.054.167-1.866.206-2.416l.058-.61.02-.204s0 .074-.014.204c-.015.13-.029.35-.052.625-.047.55-.117 1.365-.205 2.424-.183 2.118-.448 5.216-.784 9.136-.676 7.834-1.645 18.954-2.775 32.106l-.048-.053 32.002.519-.054.05c0-.11 0-.223.01-.335L77.118 14.8l.045.043-21.63 1.773-5.942.486-1.559.126-.534.051Z"/><path fill="#FFBE9D" d="m21.945 22.293-.599 7.26a2.148 2.148 0 0 0 .55 1.619 2.19 2.19 0 0 0 1.564.723 2.205 2.205 0 0 0 1.534-.547c.422-.371.682-.889.728-1.445.045-.548.082-1.004.09-1.059 0 0 1.882-.024 2.168-1.831.137-.88.273-2.711.376-4.372a3.402 3.402 0 0 0-.773-2.374 3.469 3.469 0 0 0-2.194-1.226l-.179-.027c-1.941-.169-3.156 1.364-3.265 3.279Z"/><path fill="#EB996E" d="M25.816 28.818a4.34 4.34 0 0 1-2.3-1.018s.378 1.39 2.237 1.486l.063-.468Z"/><path fill="#263238" d="M27.667 23.56a.26.26 0 0 1-.098.173.265.265 0 0 1-.192.054.258.258 0 0 1-.177-.087.251.251 0 0 1-.062-.186.267.267 0 0 1 .292-.226.253.253 0 0 1 .227.174c.01.032.013.065.01.099Z"/><path fill="#263238" d="M27.872 23.363c-.039.031-.205-.144-.5-.183-.293-.038-.51.072-.534.033-.024-.039.029-.073.128-.126a.726.726 0 0 1 .436-.067c.147.019.284.084.39.187.08.08.101.144.08.156ZM24.924 23.308a.269.269 0 0 1-.292.228.257.257 0 0 1-.225-.174.25.25 0 0 1-.011-.098.267.267 0 0 1 .29-.228.255.255 0 0 1 .226.173.25.25 0 0 1 .012.1ZM25.052 23.06c-.04.029-.216-.144-.5-.183-.284-.039-.51.071-.537.033-.026-.04.03-.074.13-.127a.74.74 0 0 1 .436-.069.714.714 0 0 1 .39.19c.076.08.097.156.08.156ZM25.76 25.35c.156-.026.315-.032.472-.019.074 0 .144 0 .162-.046a.367.367 0 0 0-.016-.22l-.136-.574c-.185-.814-.309-1.486-.274-1.492.171.477.303.967.395 1.466l.126.578a.403.403 0 0 1 0 .284.178.178 0 0 1-.134.088.517.517 0 0 1-.125 0 1.807 1.807 0 0 1-.47-.065ZM25.216 22.488c-.039.073-.317 0-.654 0s-.617.043-.654-.03c-.014-.037.044-.102.16-.159a1.158 1.158 0 0 1 .998.03c.113.058.167.12.15.16ZM27.757 22.246c-.057.057-.242-.037-.477-.073-.234-.037-.44-.018-.475-.092-.016-.034.025-.093.12-.142a.68.68 0 0 1 .41-.05.686.686 0 0 1 .365.182c.068.07.084.138.057.175Z"/><path fill="#FFBE9D" d="M21.91 23.67c-.029-.018-1.211-.549-1.351.703-.14 1.252 1.157 1.131 1.164 1.097.006-.035.187-1.8.187-1.8Z"/><path fill="#EB996E" d="M21.381 24.945s-.022.012-.061.026a.226.226 0 0 1-.167-.016.544.544 0 0 1-.205-.51.722.722 0 0 1 .096-.306.251.251 0 0 1 .185-.149.114.114 0 0 1 .123.074c.013.036 0 .06 0 .065 0 .004.03-.019.025-.072a.134.134 0 0 0-.04-.083.159.159 0 0 0-.118-.047.315.315 0 0 0-.253.17.736.736 0 0 0-.115.341.56.56 0 0 0 .26.574.245.245 0 0 0 .207-.01c.057-.027.067-.055.063-.057Z"/><path fill="#263238" d="M21.207 23.522a.67.67 0 0 1 .561.393c.058.19.045.393.1.582.056.19.219.377.412.358a.39.39 0 0 0 .302-.246c.047-.13.068-.269.062-.407.01-.592-.03-1.187.03-1.775a3 3 0 0 1 .618-1.642c.185-.234.43-.414.71-.521.28-.107.585-.139.881-.09.387.088.716.34 1.096.448a1.57 1.57 0 0 0 1.338-.24.394.394 0 0 1 .066-.039.343.343 0 0 0 .177-.372.33.33 0 0 0-.057-.13c-.669-.815-2.03-1.207-3.085-1.098a3.74 3.74 0 0 0-1.517.492c-.463.271-.862.639-1.168 1.078-.574.88-.633 2.214-.53 3.203M26.365 26.164c-.137 0-.274-.027-.4-.082a1.043 1.043 0 0 1-.379-.16c.141-.002.282.026.411.081.133.028.258.083.368.16Z"/><path fill="#EB996E" d="M27.797 27.49a.756.756 0 0 1-.14.343 1.842 1.842 0 0 1-.652.61 3.246 3.246 0 0 1-.835.328 1.44 1.44 0 0 1-.366.065c.112-.052.228-.093.348-.122.281-.084.553-.2.81-.342.253-.145.473-.341.645-.576.13-.177.175-.311.19-.305Z"/><path fill="#455A64" d="M22.076 19.885c.251.155.515.287.79.395.286.073.578.122.872.144a1.731 1.731 0 0 1-1.662-.539Z"/><path fill="#455A64" d="M26.135 20.618c-.014.014-.175-.159-.5-.336a2.418 2.418 0 0 0-1.392-.285c-.28.027-.549.086-.797.118a2.495 2.495 0 0 1-.67.012 1.273 1.273 0 0 1-.434-.13c-.095-.05-.138-.091-.136-.098.183.082.378.134.578.155.216.015.434.003.647-.037.245-.036.512-.097.804-.126a2.335 2.335 0 0 1 1.44.326c.127.078.244.172.347.279a.51.51 0 0 1 .113.122Z"/><path fill="#263238" d="M22.181 19.967a3.17 3.17 0 0 0 0-.778c-.035-.26-.155-.5-.341-.686a1.016 1.016 0 0 0-.925-.203 1.27 1.27 0 0 0-.759.588 1.197 1.197 0 0 0-.023 1.221.91.91 0 0 0 1.133.344c.138-.071.251-.183.389-.256a.414.414 0 0 1 .44 0"/><path fill="currentColor" d="M22.267 19.616c.025.019-.078.192-.236.385-.158.194-.315.328-.34.3.068-.135.154-.258.258-.367.166-.191.296-.334.318-.318Z"/><path fill="#455A64" d="M20.723 18.38a1.25 1.25 0 0 0-.238.282.616.616 0 0 0-.074.37.77.77 0 0 0 .232.407c.227.198.503.33.8.383.128.018.252.05.372.098-.13.012-.26.004-.386-.025a1.56 1.56 0 0 1-.862-.378.834.834 0 0 1-.253-.468.669.669 0 0 1 .105-.422c.14-.207.304-.248.304-.248Z"/><path fill="#455A64" d="M21.406 18.288a.842.842 0 0 0-.205.203.606.606 0 0 0-.093.295.829.829 0 0 0 .1.368c.119.212.288.391.494.522.158.103.272.144.265.16a.589.589 0 0 1-.304-.095 1.308 1.308 0 0 1-.55-.538.878.878 0 0 1-.104-.42.628.628 0 0 1 .13-.335c.123-.163.27-.175.267-.16Z"/><path fill="#FFBE9D" d="m26.133 81.856-1.717 7.74 2.932.027 2.126-6.78-3.34-.987Z"/><path fill="currentColor" d="m28.71 86.56-1.072 3.52s3.255 2.26 3.121 2.93l-6.97-1.81 1.44-5.554 3.48.914Z"/><path fill="#E0E0E0" d="M25.561 89.206a.298.298 0 0 0-.281.27.285.285 0 0 0 .267.279.308.308 0 0 0 .298-.289.289.289 0 0 0-.103-.192.294.294 0 0 0-.21-.066"/><path fill="#000" d="m23.79 91.19.176-.56 6.62 1.942s.276.214.184.421l-6.98-1.803Z" opacity=".4"/><path fill="#263238" d="M27.76 90.064c0 .033-.184 0-.381.07-.197.069-.323.183-.35.162-.026-.02.075-.203.313-.278.239-.076.434.018.417.046ZM28.411 90.553c0 .035-.162.055-.316.167-.155.112-.227.254-.26.244-.032-.01 0-.204.188-.342.187-.138.396-.1.388-.07ZM28.598 91.528c-.033 0-.037-.181.101-.344.138-.163.315-.204.32-.16.007.042-.116.103-.227.237-.112.135-.16.273-.194.267ZM27.914 89.236c-.023.027-.167-.06-.362-.098-.195-.036-.362-.016-.372-.048-.01-.033.166-.116.396-.07.23.047.362.186.338.216ZM28.117 88.522a.675.675 0 0 1-.35-.094 1.557 1.557 0 0 1-.507-.36.42.42 0 0 1-.085-.11.15.15 0 0 1 .033-.183.205.205 0 0 1 .169-.039 1.285 1.285 0 0 1 .331.183c.104.083.194.182.265.293a.595.595 0 0 1 .132.334c-.019 0-.07-.12-.206-.285a1.508 1.508 0 0 0-.265-.254 1.167 1.167 0 0 0-.185-.112c-.068-.039-.132-.055-.158-.029-.027.027-.013.017 0 .041a.32.32 0 0 0 .061.08 1.83 1.83 0 0 0 .46.368c.106.048.208.104.305.167Z"/><path fill="#263238" d="M28.06 88.558a.556.556 0 0 1 0-.358 1.171 1.171 0 0 1 .292-.553.303.303 0 0 1 .269-.116.172.172 0 0 1 .121.134.757.757 0 0 1-.062.368.815.815 0 0 1-.244.32c-.183.142-.335.146-.335.134 0-.012.13-.055.28-.203a.844.844 0 0 0 .195-.296.724.724 0 0 0 .047-.203c0-.077 0-.142-.033-.142a.251.251 0 0 0-.152.08c-.051.051-.097.107-.138.166a1.277 1.277 0 0 0-.158.328c-.064.205-.064.341-.082.341Z"/><path fill="#FFBE9D" d="m18.447 83.181.18 7.921 2.853-.659.448-7.085-3.48-.177Z"/><path fill="currentColor" d="m22.068 87.14-.206 3.663s3.701 1.435 3.732 2.117l-7.196-.13.074-5.734 3.596.084Z"/><path fill="#E0E0E0" d="M19.648 90.461a.291.291 0 0 0-.206.33.286.286 0 0 0 .327.204.31.31 0 0 0 .22-.35.292.292 0 0 0-.364-.18"/><path fill="#000" d="m18.396 92.798.029-.578 6.898.34s.319.144.277.368l-7.204-.13Z" opacity=".4"/><path fill="#263238" d="M21.986 90.777c0 .034-.179.047-.354.156-.175.11-.27.253-.302.239-.033-.015.025-.214.239-.342.213-.129.425-.086.417-.053ZM22.732 91.098c0 .035-.146.092-.27.237-.122.144-.157.3-.192.299-.035-.002-.054-.204.1-.379.155-.175.362-.19.362-.157ZM23.143 92.002c-.033 0-.078-.167.015-.356.092-.19.26-.263.275-.234.015.028-.09.13-.164.287-.074.157-.084.301-.126.303ZM21.939 89.934c-.017.033-.177-.018-.377-.01-.199.008-.355.07-.372.04-.016-.028.134-.152.368-.16.235-.008.397.104.38.13ZM21.965 89.193a.703.703 0 0 1-.362 0 1.656 1.656 0 0 1-.58-.234.487.487 0 0 1-.108-.087.155.155 0 0 1-.013-.185.206.206 0 0 1 .156-.076c.047 0 .092.007.136.02a1.315 1.315 0 0 1 .551.301c.165.158.22.29.206.296-.015.006-.097-.1-.263-.23a1.576 1.576 0 0 0-.319-.185 1.548 1.548 0 0 0-.206-.067c-.076-.02-.14-.023-.16.012-.02.034 0 .016 0 .038a.335.335 0 0 0 .078.064 2.03 2.03 0 0 0 .535.25c.118.02.235.048.35.083Z"/><path fill="#263238" d="M21.91 89.242a.563.563 0 0 1-.089-.346 1.166 1.166 0 0 1 .153-.606.294.294 0 0 1 .232-.175.167.167 0 0 1 .15.102c.017.041.03.085.035.13a.862.862 0 0 1 0 .242.81.81 0 0 1-.162.366c-.144.181-.293.22-.294.204-.003-.017.113-.084.224-.259a.845.845 0 0 0 .119-.537c-.01-.075-.037-.136-.066-.13a.26.26 0 0 0-.13.114 1.247 1.247 0 0 0-.169.547c-.003.212.024.344-.003.348ZM27.766 52.642s5.703 14.57 5.233 18.66c-.471 4.088-3.481 17.293-3.481 17.293l-4.832-1.69 1.934-16.281-3.73-11.206 1.164-6.356 3.712-.42Z"/><path fill="#263238" d="M16.813 51.438s0 2.873.323 4.042l.294 1.699c-.206 9.362-.15 31.422-.15 31.422l6.456.078 2.02-36.515-8.943-.726Z"/><path fill="#455A64" d="M25.923 55.577a.381.381 0 0 1 0 .086c0 .06 0 .144-.016.25-.017.226-.041.55-.074.965l-.276 3.543a955.37 955.37 0 0 0-.822 11.699c-.296 4.575-.52 8.709-.701 11.709-.089 1.495-.163 2.706-.206 3.549l-.064.965-.018.25a.405.405 0 0 1-.01.085.452.452 0 0 1 0-.085v-.252l.043-.965c.04-.845.103-2.056.179-3.552.156-2.995.38-7.137.668-11.71.288-4.574.594-8.707.845-11.699.125-1.496.23-2.707.31-3.541.042-.407.072-.737.095-.963 0-.106.02-.19.027-.25a.42.42 0 0 1 .02-.084ZM20.775 56.455c0-.019.247-.08.637-.214.228-.078.447-.177.656-.295.254-.143.47-.342.631-.582.156-.247.253-.525.286-.814a4.15 4.15 0 0 0 .025-.715c-.02-.407-.05-.663-.033-.665a.554.554 0 0 1 .043.175c.02.114.047.278.066.486.024.243.024.488 0 .73a1.93 1.93 0 0 1-.292.853c-.17.255-.402.465-.672.611a3.461 3.461 0 0 1-.681.283 5.733 5.733 0 0 1-.481.118.656.656 0 0 1-.185.029ZM27.544 73.154a1.358 1.358 0 0 1-.128-.259 20.893 20.893 0 0 1-.302-.724 36.895 36.895 0 0 1-.876-2.443 38.723 38.723 0 0 1-.714-2.49c-.08-.322-.14-.583-.176-.764a1.574 1.574 0 0 1-.05-.285c.04.088.07.18.09.275.054.203.126.452.206.755.177.637.432 1.516.74 2.477.309.96.617 1.821.846 2.442.109.295.205.543.271.735.04.09.07.184.093.28Z"/><path fill="currentColor" d="M24.91 31.388s8.87 8.345 8.814 10.303c-.055 1.958-1.922 2.462-2.543 2.416-.621-.047-5.513-4.942-5.513-4.942l-.758-7.777Z"/><path fill="#000" d="M24.91 31.388s8.87 8.345 8.814 10.303c-.055 1.958-1.922 2.462-2.543 2.416-.621-.047-5.513-4.942-5.513-4.942l-.758-7.777Z" opacity=".4"/><path fill="currentColor" d="m20.84 29.512.552-1.97 4.355 1.748-.097 2.062-2.093.698-2.147-1.164-.57-1.374Z"/><path fill="currentColor" d="m27.766 52.642-.73-16.689c-.099-1.996-.75-4.347-2.067-5.863l-.012-.269-3.62-.7s-4.298.981-4.543 4.663c-.205 2.922-.446 14.57-.446 18.858h11.418Z"/><path fill="#263238" d="M22.136 29.13c.042-.385.14-.761.292-1.118a2.016 2.016 0 0 1-.105.57c-.035.19-.098.375-.187.547ZM23.77 28.5c.01.19-.009.38-.057.564a1.816 1.816 0 0 1-.144.548c.013-.379.082-.753.206-1.112h-.005ZM25.04 29.052c.01.17.004.342-.021.51.003.172-.014.344-.05.512-.07-.34-.045-.691.07-1.018v-.004Z"/><path fill="#000" d="M18.62 36.29a43.83 43.83 0 0 0 5.14 7.595c.51.61 1.053 1.237 1.762 1.614.71.376 1.162.24 1.83-.204a4.313 4.313 0 0 1-1.665-.712 7.693 7.693 0 0 1-1.73-1.659c-1.74-2.14-3.441-4.351-5.18-6.494" opacity=".2"/><path fill="#263238" d="M20.362 42.027a2.997 2.997 0 0 1-.693.543 2.947 2.947 0 0 1-.782.407c.226-.187.468-.354.724-.499a4.81 4.81 0 0 1 .75-.451ZM18.396 40.093a2.378 2.378 0 0 1-.04-.692 2.3 2.3 0 0 1 .069-.69c.049.227.062.46.039.692.014.232-.009.465-.068.69ZM18.451 47.412a2.19 2.19 0 0 1-.57-.676 2.206 2.206 0 0 1-.349-.814c.031-.012.187.346.442.753.255.407.502.717.477.737ZM22.775 46.262a8.472 8.472 0 0 1-.865.531 8.65 8.65 0 0 1-.872.517c.241-.243.519-.45.822-.61.282-.19.59-.337.915-.438ZM21.996 44.613a2.723 2.723 0 0 1-.67-.333 2.55 2.55 0 0 1-.617-.426c.238.08.464.193.67.334.225.112.433.255.617.425ZM22.13 42.79c.068-.19.17-.365.3-.52.102-.172.232-.326.387-.455-.068.189-.17.364-.3.517a1.736 1.736 0 0 1-.387.458ZM18.782 52.347c-.22-.119-.423-.269-.6-.445-.2-.15-.378-.328-.528-.528.22.12.423.27.6.448.2.151.377.328.528.525ZM21.597 51.128a2.546 2.546 0 0 1-.966 1.002c.142-.184.301-.353.475-.507.147-.18.312-.346.491-.495ZM17.25 41.137c.058.543.042 1.09-.045 1.628a3.067 3.067 0 0 1-.03-.814c-.01-.273.015-.547.075-.814ZM17.798 36.619c0 .03-.185.047-.412.037-.226-.01-.41-.041-.41-.07.271-.06.555-.049.822.033ZM18.488 31.73a2.365 2.365 0 0 1-.41.558c-.142.187-.31.352-.5.488.25-.392.56-.745.919-1.046h-.009ZM21.145 31.224a2.61 2.61 0 0 1-.175-.611 2.576 2.576 0 0 1-.131-.61c.12.176.2.376.236.585.069.205.093.421.07.636Z"/><path fill="#FFBE9D" d="M28.041 30.16c-.617.03-.68 0-1.37.072a1.077 1.077 0 0 0-.301.064.336.336 0 0 0-.206.22c-.04.189.16.35.351.384.192.035.393-.01.584.024.303.04.581.184.786.407.423.54.822.253 1.108.438l.691-.478-.302-1.028-1.349-.104"/><path fill="#EB996E" d="M29.065 31.767a.805.805 0 0 0-.206-.05 1.758 1.758 0 0 1-.57-.072.902.902 0 0 1-.314-.24 1.024 1.024 0 0 0-.327-.281 1.51 1.51 0 0 0-.456-.157 3.673 3.673 0 0 0-.529-.02.513.513 0 0 1-.46-.3.29.29 0 0 1 .053-.274.465.465 0 0 1 .222-.14c.15-.033.302-.053.455-.06.14-.01.273-.018.393-.022h.567a1.12 1.12 0 0 1 .206 0 .884.884 0 0 1-.206.026c-.134 0-.329.017-.567.03l-.39.034c-.146.01-.291.03-.435.063-.14.038-.274.173-.222.315a.431.431 0 0 0 .39.242 3.4 3.4 0 0 1 .537.023c.167.03.328.088.477.169.135.076.252.18.344.303a.85.85 0 0 0 .294.23c.177.056.362.088.549.093a.414.414 0 0 1 .148.05c.033.024.047.034.047.038Z"/><path fill="#263238" d="m27.4 29.573 3.495-1.858a.222.222 0 0 1 .323.154.218.218 0 0 1-.115.235l-3.194 1.656-.51-.187Z"/><path fill="currentColor" d="M16.428 49.604a2.605 2.605 0 0 1-.448.092c-.41.05-.826.043-1.234-.023a5.82 5.82 0 0 1-1.754-.576 5.983 5.983 0 0 1-.927-.578 2.869 2.869 0 0 1-.436-.39.672.672 0 0 1-.144-.28.442.442 0 0 1 .056-.321.677.677 0 0 1 .54-.297 3.08 3.08 0 0 1 .587.026c.982.117 1.918.48 2.72 1.054.348.23.647.527.88.871.06.096.108.198.142.306a.366.366 0 0 1 .026.116 2.481 2.481 0 0 0-.205-.407 3.274 3.274 0 0 0-.89-.833 5.844 5.844 0 0 0-2.688-1.017 2.917 2.917 0 0 0-.563-.025.582.582 0 0 0-.46.244.404.404 0 0 0 .08.483c.125.137.262.262.41.374.286.217.59.41.91.574.539.283 1.12.48 1.72.587.407.073.822.092 1.234.056.284-.01.442-.05.444-.036Z"/><path fill="currentColor" d="M15.97 48.833a.41.41 0 0 1-.064-.076l-.167-.224c-.2-.28-.386-.57-.555-.869a4.058 4.058 0 0 1-.5-1.445 2.62 2.62 0 0 1 .04-.91 1.64 1.64 0 0 1 .065-.232.733.733 0 0 1 .11-.23.297.297 0 0 1 .246-.14.313.313 0 0 1 .239.157 7.311 7.311 0 0 1 1.048 3.213c.027.343.027.686 0 1.028 0 .12-.022.214-.028.277a.29.29 0 0 1-.019.096 2.6 2.6 0 0 1 0-.375c.009-.34-.005-.68-.041-1.017a7.558 7.558 0 0 0-1.061-3.161.205.205 0 0 0-.154-.11.195.195 0 0 0-.157.098c-.077.13-.131.272-.16.42a2.634 2.634 0 0 0-.041.876c.067.5.226.982.469 1.425.205.38.392.675.522.879l.15.236c.045.05.062.081.058.084ZM11 53.589a2.917 2.917 0 0 0 2.23-.025 3.801 3.801 0 0 0 1.2-.814 7.295 7.295 0 0 0 1.453-2.192c.136-.295.247-.541.333-.732.036-.093.08-.181.132-.265-.021.096-.052.19-.093.28-.067.178-.166.437-.302.748a6.94 6.94 0 0 1-1.44 2.239c-.352.349-.771.625-1.233.814-.379.152-.785.227-1.194.22a2.463 2.463 0 0 1-.804-.153 1.453 1.453 0 0 1-.206-.092.225.225 0 0 1-.076-.028ZM15.536 56.75a1.434 1.434 0 0 1-.068-.283l-.03-.153c0-.059-.011-.12-.02-.185 0-.133-.032-.283-.03-.45-.008-.871.06-1.742.206-2.601a28.66 28.66 0 0 1 .511-2.558c.079-.324.148-.584.206-.766.021-.094.05-.187.088-.276a1.35 1.35 0 0 1-.049.287l-.164.771c-.14.651-.327 1.553-.48 2.558a17.467 17.467 0 0 0-.232 2.583c-.004.663.089 1.069.062 1.073Z"/><path fill="#fff" d="M20.1 29.573s.021-.018.068-.047c.065-.04.134-.073.206-.1.282-.088.58-.108.872-.059.431.069.843.229 1.207.468.439.293.846.63 1.215 1.006a6.663 6.663 0 0 1 1.536 2.39c.067.17.109.329.152.467.043.139.066.263.084.363.023.103.038.208.045.313-.024 0-.082-.446-.351-1.117a7.014 7.014 0 0 0-1.544-2.343 8.186 8.186 0 0 0-1.193-1 3.088 3.088 0 0 0-1.164-.471 1.944 1.944 0 0 0-.847.022c-.183.047-.28.108-.286.108Z"/><path fill="currentColor" d="M25.2 43.73s.03 4.779-.771 5.046c-1.012.335-8.073 0-8.073 0v1.715s7.03-.448 7.608.448c.545.847 5.58 16.392 6.594 21.06h3.176s-1.686-8.018-2.282-10.064c-.318-1.089-1.375-4.55-2.331-7.251a22.086 22.086 0 0 1-1.263-7.832l.076-3.553-.55-9.159h-2.032l-.152 9.59Z"/><path fill="#fff" d="M25.2 43.73s.03 4.779-.771 5.046c-1.012.335-8.073 0-8.073 0v1.715s7.03-.448 7.608.448c.545.847 5.58 16.392 6.594 21.06h3.176s-1.686-8.018-2.282-10.064c-.318-1.089-1.375-4.55-2.331-7.251a22.086 22.086 0 0 1-1.263-7.832l.076-3.553-.55-9.159h-2.032l-.152 9.59Z" opacity=".7"/><path fill="currentColor" d="M31.615 54.898a.707.707 0 0 0 .388-.408.684.684 0 0 0-.055-.563c-.12-.204-.354-.363-.401-.599a.382.382 0 0 0-.138.257c-.138-.135.015-.407-.136-.535a.261.261 0 0 0-.292.022.8.8 0 0 0-.337.61 1.094 1.094 0 0 0 .436.967c.161.095.317.198.467.31"/><path fill="#263238" d="m31.302 54.985-.23 2.933a.202.202 0 0 0 .12.23.208.208 0 0 0 .25-.072.218.218 0 0 0 .053-.124l.227-2.93-.42-.037Z"/><path fill="#E0E0E0" d="m31.302 54.985-.07-.23.592.022-.098.239-.424-.031Z"/><path fill="#263238" d="M30.223 57.07c-.023-.09-.412-2.925-.53-3.894a.281.281 0 0 1 .069-.225.288.288 0 0 1 .402-.03.285.285 0 0 1 .098.171l.67 4.085-.71-.108Z"/><path fill="currentColor" d="M28.744 56.208h3.335s1.028 4.295-.637 5.727l-1.028-.18-1.67-5.547Z"/><path fill="#fff" d="M28.744 56.208h3.335s1.028 4.295-.637 5.727l-1.028-.18-1.67-5.547Z" opacity=".7"/><path fill="#263238" d="M31.573 61.73a.505.505 0 0 1-.224.02 1.242 1.242 0 0 1-.582-.203 2.092 2.092 0 0 1-.635-.648 9.93 9.93 0 0 1-.537-.96 13.663 13.663 0 0 1-.754-1.844 11.37 11.37 0 0 1-.169-.58.967.967 0 0 1-.04-.218.881.881 0 0 1 .081.204l.206.567a17.7 17.7 0 0 0 .78 1.832c.174.344.343.674.522.955.15.25.352.467.592.637.164.111.35.186.547.217.142.02.213.005.213.02Z"/><path fill="#FFBE9D" d="M32.367 39.64c.01-.188.052-.372.126-.544a.534.534 0 0 1 .435-.318.336.336 0 0 1 .327.213c.017.043.024.09.021.135a.825.825 0 0 1-.169.285c-.193.29-.156.668-.135 1.018.02.35 0 .745-.28.967"/><path fill="currentColor" d="M19.031 32.154a2.913 2.913 0 0 0-.458 4.207l6.335 7.479a4.48 4.48 0 0 0 2.592 1.486 4.51 4.51 0 0 0 2.96-.468 4.443 4.443 0 0 0 1.8-1.822c.408-.769.577-1.64.488-2.503l-1.544-6.717-3.105.485.39 5.11-5.296-6.738a2.987 2.987 0 0 0-4.153-.519h-.009Z"/><path fill="#FFBE9D" d="M32.429 42.867c-.798-.144-.938-.273-1.734-.407-.238-.043-.546-.179-.454-.43a.335.335 0 0 1 .325-.203c.31.01.822.167 1.11.181.074 0 .068-.069.033-.118a9.413 9.413 0 0 0-1.488-.242.365.365 0 0 1-.308-.245.355.355 0 0 1 .102-.378.516.516 0 0 1 .206-.071c.318.03.318.03.657.073.953.116.823-.063.823-.063 0-.071-1.084-.122-1.645-.163a.471.471 0 0 1-.329-.108.309.309 0 0 1 .019-.39.547.547 0 0 1 .37-.204c.617-.04 2.642.086 2.642.086s.281.344.236 1.072a4.104 4.104 0 0 1-.565 1.61Z"/><path fill="#263238" d="m29.682 45.183-.086.017-.25.036c-.22.03-.544.078-.966.102a4.787 4.787 0 0 1-1.53-.134 4.31 4.31 0 0 1-1.73-1.044 22.355 22.355 0 0 1-1.666-1.804c-.57-.673-1.166-1.4-1.789-2.171a154.935 154.935 0 0 1-1.93-2.443l-1.006-1.3c-.086-.11-.17-.222-.255-.332l-.121-.175a2.833 2.833 0 0 1-.42-.985 2.782 2.782 0 0 1-.06-.855c.012-.141.032-.282.062-.421a2.95 2.95 0 0 1 .128-.407c.05-.131.108-.259.175-.383.07-.12.148-.236.234-.346.167-.22.365-.414.588-.578.22-.161.46-.293.713-.393a3.049 3.049 0 0 1 2.291.07c.449.205.84.515 1.141.903l.835 1.079 1.499 1.938 2.167 2.808c.253.33.448.588.584.767l.152.204a.705.705 0 0 1 .047.071l-.055-.065-.157-.203-.598-.758-2.188-2.794-1.507-1.931-.84-1.059a2.962 2.962 0 0 0-1.115-.877 2.93 2.93 0 0 0-2.922.318c-.216.159-.409.348-.571.561a3.44 3.44 0 0 0-.227.338 3.245 3.245 0 0 0-.294.763c-.027.135-.047.27-.06.407-.022.28-.003.56.058.833.06.272.16.535.298.777.144.238.305.465.482.68l1.005 1.3c.662.85 1.306 1.665 1.927 2.443.62.777 1.215 1.502 1.782 2.176a22.34 22.34 0 0 0 1.645 1.803 4.25 4.25 0 0 0 1.705 1.042 4.73 4.73 0 0 0 1.513.148c.411-.018.746-.06.966-.085l.251-.028a.669.669 0 0 1 .095-.013Z"/><path fill="#263238" d="M28.95 41.835c.066-.437.06-.883-.017-1.319a4.167 4.167 0 0 0-.518-1.22c.1.089.183.194.247.31.335.55.472 1.196.387 1.832-.01.137-.043.272-.1.397ZM20.902 35.176a3.817 3.817 0 0 1-.808-.377 3.711 3.711 0 0 1-.758-.47c.284.094.555.22.81.377.27.126.524.284.756.47ZM23.053 36.45a3.026 3.026 0 0 1 0-.955c.02-.32.089-.635.206-.934-.01.318-.04.634-.093.947a7.296 7.296 0 0 1-.113.942ZM23.291 39.01a3.218 3.218 0 0 1-1.468-.496c.253.057.5.136.739.236.25.067.494.154.73.26ZM25.777 40.396a3.73 3.73 0 0 1 .033-.88c.012-.296.059-.59.14-.874.024.295.013.591-.033.883a3.56 3.56 0 0 1-.14.871ZM26.248 42.932a3.826 3.826 0 0 1-.617-.639 3.754 3.754 0 0 1-.54-.706c.23.188.437.401.616.637.209.214.39.452.541.708ZM29.63 43.195c-.259.062-.522.108-.787.14-.258.067-.52.118-.785.15.235-.134.495-.22.765-.254.263-.067.539-.08.808-.036ZM30.038 38.542c.07-.241.175-.471.31-.684.107-.228.245-.441.411-.633-.174.47-.415.914-.715 1.317h-.006ZM30.067 35.919a1.619 1.619 0 0 1-.537-.24 1.686 1.686 0 0 1-.485-.336c.192.049.374.13.538.242.18.082.344.195.484.334Z"/><path fill="#EB996E" d="M26.74 28.596c-.43.24-.726.849-.99 1.248a.997.997 0 0 0-.178.394.902.902 0 0 0 .1.446c.093.204.194.407.294.625.03.059.066.124.132.136.066.013.148-.069.177-.146.052-.2.077-.405.074-.61a.624.624 0 0 1 .277-.526"/><path fill="#FFBE9D" d="m27.517 30.183-.446-.297a.13.13 0 0 0-.18.025l-.205.27.152.654c.181.84-.46.739-.46.739l-.058-.161-.329-1.018c-.08-.49-.043-.551.181-.92l.496-.777a.429.429 0 0 1 .495-.185c.777.242 2.447.67 2.673 1.3.395 1.148.804 4.036.812 4.089l-2.302.352-.107-1.948a1.044 1.044 0 0 1-.463-.523 14.648 14.648 0 0 1-.26-1.606"/><path fill="#EB996E" d="M29.143 30.487s-.022.04-.082.095a.756.756 0 0 1-.308.175.623.623 0 0 1-.253.01.453.453 0 0 1-.257-.142c-.144-.154-.175-.382-.305-.543a1.008 1.008 0 0 0-.246-.183 2.708 2.708 0 0 0-.268-.133.514.514 0 0 0-.242-.055.5.5 0 0 0-.183.12c-.206.204-.31.355-.323.342-.012-.012.019-.042.066-.11.06-.096.129-.188.205-.272a.538.538 0 0 1 .206-.147.25.25 0 0 1 .078 0l.072.014c.047.013.094.028.14.045.096.038.19.082.28.133.1.053.192.121.27.203.149.19.176.407.3.545a.447.447 0 0 0 .435.125.803.803 0 0 0 .3-.14c.078-.058.111-.088.115-.082ZM28.921 31.201a1.978 1.978 0 0 1-.662-.08 1.948 1.948 0 0 1-.617-.221c.219.03.435.076.646.14.215.038.426.092.633.161Z"/><path fill="#EB996E" d="M27.95 29.691c0-.01.044-.022.108 0a.277.277 0 0 1 .166.201.273.273 0 0 1-.078.249c-.051.049-.095.053-.099.045-.004-.009.023-.035.052-.082a.284.284 0 0 0 .04-.203.277.277 0 0 0-.11-.165c-.043-.02-.08-.033-.078-.045Z"/><path fill="#455A64" d="M24.414 31.201a.7.7 0 0 0-1.028.218c-.12.203-.132.486-.315.647.096.034.202.03.294-.012-.045.185-.365.203-.392.389a.251.251 0 0 0 .168.236.828.828 0 0 0 .697-.023 1.117 1.117 0 0 0 .617-.867c0-.185.01-.37.029-.555"/><path fill="#263238" d="m24.649 31.427 2.673-1.307a.205.205 0 0 0 .135-.219.203.203 0 0 0-.189-.175.208.208 0 0 0-.136.018l-2.658 1.306.175.377Z"/><path fill="#E0E0E0" d="m24.648 31.427-.162.177-.284-.513.257-.04.19.376Z"/><path fill="#7B2CBF" d="M69.567 29.057c-.527-1.582-.974-3.38-1.492-4.985-2.098-1.014-5.063-1.659-7.758-1.626-4.293 6.835-.157 22.44-6.107 17.338-10.826-9.282-.733-2.427-.528-13.042.06-3.051 3.116-4.252 6.636-4.296a6.808 6.808 0 0 1 1.419-1.645c3.638-3.006 5.17-.356 6.338 3.27 2.656 1.283 3.922 3.155 1.492 4.986Z" opacity=".2"/><path fill="#7B2CBF" d="M62.872 54.768c-1.567 2.078-5.043.11-8.233-2.131-3.116.52-5.614-.047-6.349-2.362-1.158-3.652 2.373-.432 6.349 2.362 3.904-.653 8.778-3.016 12.365-5.79.553-3.617-1.916-5.693-4.853-9.11-4.564-5.312 5.048-5.722 9.34.599 1.571 2.313-.765 5.633-4.487 8.511-.306 2.004-1.538 4.48-4.132 7.92Z" opacity=".2"/><path fill="#fff" d="m178.226 27.73 2.171-.344a5.168 5.168 0 0 0 6.825 1.16 5.059 5.059 0 0 0 2.172-2.976 5.063 5.063 0 0 0-.426-3.66 5.15 5.15 0 0 0-2.801-2.428 5.162 5.162 0 0 0-3.709.074 5.05 5.05 0 0 0-2.919 6.211l-1.313 1.962Z"/><path fill="#7B2CBF" d="m178.226 27.73 1.293-1.976a.023.023 0 0 1 .012-.01.022.022 0 0 1 .016.001l.003.01-.04.012a5.045 5.045 0 0 1-.128-2.648c.059-.263.141-.521.246-.77.055-.126.108-.258.168-.387l.204-.387a5.141 5.141 0 0 1 3.04-2.27 5.168 5.168 0 0 1 2.159-.12 5.277 5.277 0 0 1 2.122.848 5.064 5.064 0 0 1 1.601 1.753c.399.715.62 1.513.645 2.327a5.15 5.15 0 0 1-.464 2.255 4.997 4.997 0 0 1-1.313 1.747 5.21 5.21 0 0 1-3.652 1.224 5.568 5.568 0 0 1-1.643-.372 5.125 5.125 0 0 1-2.113-1.572l.019.008-2.173.326 2.171-.368h.01a.017.017 0 0 1 .009.007 5.132 5.132 0 0 0 2.112 1.565 5.53 5.53 0 0 0 1.624.36 5.138 5.138 0 0 0 3.596-1.217 4.9 4.9 0 0 0 1.291-1.722 5.018 5.018 0 0 0-.193-4.508 4.968 4.968 0 0 0-1.575-1.726 5.196 5.196 0 0 0-2.081-.837 5.083 5.083 0 0 0-2.126.113 5.074 5.074 0 0 0-3.001 2.223l-.208.375c-.059.127-.112.257-.168.377a4.4 4.4 0 0 0-.242.76 5.048 5.048 0 0 0 .11 2.628.022.022 0 0 1-.002.008.019.019 0 0 1-.005.007.025.025 0 0 1-.007.004.021.021 0 0 1-.014-.001.023.023 0 0 1-.011-.01h.036l-1.328 1.962Z"/><path fill="#7B2CBF" d="M183.94 25.409a.593.593 0 0 1-.436.5.606.606 0 0 1-.76-.534.586.586 0 0 1 .328-.575.606.606 0 0 1 .85.377.607.607 0 0 1 .018.232Z"/><path fill="#7B2CBF" d="M183.882 25.207c-.051.029-.394-.504-.669-1.225-.275-.72-.469-1.298-.42-1.33.048-.03.347.542.616 1.249.269.706.517 1.271.473 1.306Z"/><path fill="#7B2CBF" d="M184.71 22.324c.035.033-.303.401-.891.555-.25.072-.515.073-.766.005-.195-.059-.281-.164-.264-.183.017-.018.12.023.296.04.229.02.459-.001.68-.062.529-.135.905-.408.945-.355ZM185.862 25.082a.593.593 0 0 1-.436.5.607.607 0 0 1-.76-.534.593.593 0 0 1 .672-.633.613.613 0 0 1 .401.226.606.606 0 0 1 .123.44Z"/><path fill="#7B2CBF" d="M185.796 24.872c-.049.028-.392-.505-.667-1.226-.275-.72-.47-1.3-.42-1.33.049-.03.346.542.614 1.249.267.707.526 1.277.473 1.306Z"/><path fill="#7B2CBF" d="M184.874 22.697c.043.033-.258.406-.801.573-.543.167-1.005.03-.989-.021.017-.05.437-.022.927-.176.489-.155.82-.421.863-.376Z"/><path fill="#FFBF9D" d="m164.159 44.419-7.55 1.44-7.992-.216.747 2.3 7.286 1.254 7.876-1.329-.367-3.45Z"/><path fill="#FFBF9D" d="M144.07 45.473c.286-.208 2.592-.17 2.592-.17l.171-.24a.937.937 0 0 1 1.012-.368c.124.032.24.09.34.169.656.514 1.436 1.188 1.436 1.188l-.217 1.778-.333.36c-.256.37-1.278.268-1.973.161-.696-.106-.571-.555-.571-.555-.554-.332-.158-.731-.158-.731-.482-.31-.173-.792-.173-.792s-1.532-.073-2.007-.199c-.474-.126-.402-.396-.119-.601Z"/><path fill="#FF9A6C" d="M146.373 47.04c.146.033.294.057.443.072.076.012.153.019.23.02a.856.856 0 0 0 .263-.048.62.62 0 0 0 .257-.154.4.4 0 0 0 .101-.308.31.31 0 0 0-.077-.156.375.375 0 0 0-.137-.09 1.718 1.718 0 0 0-.284-.074 2.942 2.942 0 0 0-.815-.059.428.428 0 0 0-.121.015c.005.008.173.005.448.03.16.016.32.04.478.075.092.017.182.042.27.074a.265.265 0 0 1 .175.197.353.353 0 0 1-.016.137.35.35 0 0 1-.07.12.55.55 0 0 1-.228.14.857.857 0 0 1-.244.05c-.075 0-.15-.004-.224-.013a3.013 3.013 0 0 0-.449-.028Z"/><path fill="#FF9A6C" d="M146.442 47.733s.039.018.112.038c.074.02.179.044.312.064.158.026.319.026.477 0a.654.654 0 0 0 .269-.102.281.281 0 0 0 .137-.281.288.288 0 0 0-.206-.238 1.48 1.48 0 0 0-.273-.078 4.687 4.687 0 0 0-.783-.102.361.361 0 0 0-.116.006s.164.021.427.064c.131.02.287.05.458.09.089.018.176.043.26.078a.255.255 0 0 1 .168.188.241.241 0 0 1-.026.126.243.243 0 0 1-.086.096.578.578 0 0 1-.241.094 1.577 1.577 0 0 1-.459.013c-.264-.03-.427-.066-.43-.056Z"/><path fill="#FF9A6C" d="M146.696 48.227c.091.053.192.089.297.104.112.024.227.035.342.034a.895.895 0 0 0 .206-.021.254.254 0 0 0 .179-.15.218.218 0 0 0-.072-.226.556.556 0 0 0-.186-.1 1.334 1.334 0 0 0-.338-.063 2.343 2.343 0 0 0-.311-.02c.098.037.201.06.306.065.11.013.218.038.323.074.059.02.114.05.162.089a.15.15 0 0 1 .045.068c.009.027.01.055.004.082a.189.189 0 0 1-.135.112.93.93 0 0 1-.19.02 1.74 1.74 0 0 1-.332-.017c-.184-.02-.296-.063-.3-.051Z"/><path fill="#FFBF9D" d="M146.834 45.063c-.234.347-.561.873-.746 1.232.149.203.475.209.686.083.207-.146.371-.343.478-.572a.943.943 0 0 0 .446.624.964.964 0 0 0 .764.096"/><path fill="#FF9A6C" d="M148.462 46.526a1.292 1.292 0 0 1-.439.006.925.925 0 0 1-.437-.209.952.952 0 0 1-.308-.52l-.016-.08-.041.07a1.58 1.58 0 0 1-.419.525c-.217.166-.557.158-.698-.036l.001.031c.194-.372.383-.679.515-.899l.15-.26c.02-.029.037-.06.051-.093a.482.482 0 0 0-.069.082 11.507 11.507 0 0 0-.705 1.137l-.008.015.01.016a.464.464 0 0 0 .368.182.657.657 0 0 0 .419-.128c.181-.148.327-.334.429-.544l-.059-.01a.997.997 0 0 0 .335.55c.135.109.298.179.471.203a.926.926 0 0 0 .334-.006.324.324 0 0 0 .116-.032Z"/><path fill="#455A64" d="m180.744 85.336 2.575 2.432s-2.544 2.864-2.216 3.461l6.198-3.515-3.836-4.293-2.721 1.915Z"/><path fill="#fff" d="M185.03 86.345a.297.297 0 0 1 .349.175.278.278 0 0 1-.166.34.314.314 0 0 1-.368-.188.288.288 0 0 1 .218-.336M187.301 87.706l-.391-.44-5.787 3.56a.481.481 0 0 0-.034.467l6.212-3.588Z" opacity=".6"/><path fill="#263238" d="M183.2 87.796c.017.03.176-.049.381-.044.204.004.361.08.385.049.023-.031-.131-.172-.38-.173-.249-.001-.409.146-.386.168ZM182.728 88.45c.016.03.178 0 .349.066.172.067.292.177.32.156.028-.02-.057-.197-.281-.27-.224-.075-.406.02-.388.048ZM182.842 89.43c.028-.016-.021-.182-.198-.297-.178-.116-.357-.091-.353-.06.004.032.142.066.287.161.145.096.233.21.264.196ZM182.811 87.054c.029.02.139-.105.314-.198.175-.093.338-.12.338-.156-.001-.035-.193-.063-.396.05-.204.111-.289.292-.256.304ZM182.402 86.437a.65.65 0 0 0 .303-.188 1.616 1.616 0 0 0 .373-.493.446.446 0 0 0 .045-.128.151.151 0 0 0-.091-.161.193.193 0 0 0-.171.012.414.414 0 0 0-.104.086 1.262 1.262 0 0 0-.314.537c-.06.21-.037.355-.023.355.014 0 .03-.134.107-.328a1.368 1.368 0 0 1 .317-.483c.054-.056.109-.09.137-.075.028.015.016.01.019.034a.283.283 0 0 1-.034.093 2.163 2.163 0 0 1-.322.49c-.086.078-.167.16-.242.249Z"/><path fill="#263238" d="M182.472 86.454c.013-.007.007-.144-.102-.341a1.196 1.196 0 0 0-.444-.44.296.296 0 0 0-.288-.033.163.163 0 0 0-.062.07.163.163 0 0 0-.012.093.421.421 0 0 0 .039.13.786.786 0 0 0 .126.203.85.85 0 0 0 .327.231c.223.08.363.042.359.03-.003-.013-.139-.014-.324-.108a.846.846 0 0 1-.275-.224.685.685 0 0 1-.1-.179c-.038-.066-.041-.135-.012-.144a.257.257 0 0 1 .168.033c.063.034.123.073.178.116.095.077.179.165.249.264.106.18.148.307.173.299Z"/><path fill="#455A64" d="m149.441 74.878-1.193 3.457s-3.851-.31-4.134.306l6.586 2.813 2.086-5.304-3.345-1.272Z"/><path fill="#fff" d="M150.423 78.836a.286.286 0 0 1 .073.387.28.28 0 0 1-.378.07.308.308 0 0 1-.072-.404.295.295 0 0 1 .403-.029M150.691 81.458l.209-.534-6.445-2.5a.502.502 0 0 0-.394.25l6.63 2.784Z" opacity=".6"/><path fill="#263238" d="M148.151 78.26c-.01.031.145.109.267.274.122.165.153.334.187.332.035-.001.06-.21-.09-.403-.15-.194-.359-.237-.364-.204ZM147.338 78.279c-.019.028.101.137.159.316.058.18.034.336.067.346.032.01.123-.163.05-.382-.073-.218-.262-.31-.276-.28ZM146.619 78.956c.027.02.134-.125.119-.333-.016-.208-.14-.338-.165-.317-.024.02.037.157.047.329.009.172-.037.309-.001.321ZM148.514 77.502c.002.035.169.047.349.131.179.084.298.19.328.174.03-.016-.065-.189-.278-.285-.213-.095-.405-.052-.399-.02ZM148.77 76.808c-.005.014.116.084.335.129a1.642 1.642 0 0 0 .624 0 .473.473 0 0 0 .131-.038.153.153 0 0 0 .084-.169.193.193 0 0 0-.115-.128.486.486 0 0 0-.132-.03 1.224 1.224 0 0 0-.622.072.6.6 0 0 0-.3.192c.009.018.124-.054.328-.111a1.43 1.43 0 0 1 .362-.052c.072-.001.145.004.216.015.078.009.137.031.145.07.006.01 0 .02-.022.034a.415.415 0 0 1-.097.028 2 2 0 0 1-.587.03c-.214-.019-.348-.057-.35-.042Z"/><path fill="#263238" d="M148.796 76.873c.007.012.118-.082.212-.286a1.136 1.136 0 0 0 .086-.613.292.292 0 0 0-.142-.252.172.172 0 0 0-.176.039.451.451 0 0 0-.08.108.804.804 0 0 0-.077.62.477.477 0 0 0 .194.303 2.596 2.596 0 0 1-.11-.32.852.852 0 0 1 .014-.353.765.765 0 0 1 .075-.184c.037-.067.086-.113.11-.096a.204.204 0 0 1 .074.154c.011.07.016.14.014.21a1.3 1.3 0 0 1-.062.356c-.064.2-.147.302-.132.314Z"/><path fill="currentColor" d="M169.116 43.086c.035.126-1.812 4.525-1.904 5.493-.092.968.24 4.266.24 4.266l-.882 3.273 6.942-.242 3.167-10.77-.45-3.403-2.795-1.217-3.834 1.375-.484 1.225Z"/><path fill="currentColor" d="m169.452 42.27-5.515 1.71.171 4.084 5.781-.436-.437-5.359Z"/><path fill="#000" d="M173.183 54.258a54.82 54.82 0 0 0-5.818-6.453l.005.643 4.64 6.566c.149.243.347.454.582.618a.63.63 0 0 0 .771.025.611.611 0 0 0 .201-.737 2.03 2.03 0 0 0-.381-.662Z" opacity=".3"/><path fill="#263238" d="M148.028 75.752s2.689-6.733 3.687-9.844a2.93 2.93 0 0 1 1.907-1.89l12.413-5.904.902 8.304-9.829 2.216-3.782 9.143-5.298-2.025Z"/><path fill="#263238" d="M166.537 56.114c-.084.09-1.89 4.873-1.04 6.698 0 0 4.058 14.446 5.038 15.54.979 1.092 11.262 9.122 11.262 9.122l3.408-3.26-8.564-9.101-1.596-9.322s1.727-2.4 1.085-4.993c-.641-2.595-2.661-4.926-2.661-4.926l-6.932.242Z"/><path fill="#455A64" d="M165.957 60.245a.303.303 0 0 1 .003.085l-.005.244c-.008.21-.011.515-.008.89.003.377.022.825.063 1.322.041.497.108 1.04.194 1.61.187 1.139.433 2.152.622 2.882.092.357.169.65.226.865l.06.236c.01.027.015.055.016.084a.323.323 0 0 1-.031-.08l-.075-.23a28.751 28.751 0 0 1-.892-3.75 21.56 21.56 0 0 1-.196-1.612c-.041-.497-.05-.95-.047-1.327.003-.377.015-.683.032-.893l.021-.242a.344.344 0 0 1 .017-.084ZM157.169 68.7a1.267 1.267 0 0 1-.327-.136 5.022 5.022 0 0 1-.725-.45 5.176 5.176 0 0 1-.644-.559 1.3 1.3 0 0 1-.225-.27c.021-.013.389.374.916.766.528.391 1.017.626 1.005.648ZM173.533 57.541c-.042.071-.091.138-.145.2-.141.174-.294.339-.458.493a3.28 3.28 0 0 1-.823.57 2.37 2.37 0 0 1-1.206.24 1.933 1.933 0 0 1-1.127-.49 1.843 1.843 0 0 1-.604-1.517 1.104 1.104 0 0 1 .046-.242c.002 0-.009.087-.015.244-.005.223.027.445.097.657a1.87 1.87 0 0 0 1.614 1.276c.403.026.806-.052 1.169-.226.297-.143.572-.327.815-.547.167-.148.325-.305.472-.471.05-.067.105-.129.165-.187ZM166.616 56.9s.021-.022.07-.039a.403.403 0 0 1 .227.003.34.34 0 0 1 .235.24.325.325 0 0 1-.005.206.275.275 0 0 1-.158.164.314.314 0 0 1-.228.006.254.254 0 0 1-.151-.15.37.37 0 0 1 .047-.332.639.639 0 0 1 .154-.157c.045-.025.07-.038.071-.04.001 0-.085.081-.175.228a.317.317 0 0 0-.025.273.201.201 0 0 0 .277.098.23.23 0 0 0 .123-.277.286.286 0 0 0-.183-.205.615.615 0 0 0-.279-.018Z"/><path fill="#263238" d="m165.858 44.775-1.589 1.539a.34.34 0 0 0-.097.154.165.165 0 0 0 .021.139l.7.977c.022.029.055.05.096.063.041.012.09.014.142.007a.513.513 0 0 0 .288-.15l2.792-2.92a.331.331 0 0 0 .086-.145.163.163 0 0 0-.019-.132l-.596-.902a.173.173 0 0 0-.092-.066.321.321 0 0 0-.141-.01.505.505 0 0 0-.29.145l-1.301 1.3Z"/><path fill="#FFBF9D" d="M167.193 48.061a3.47 3.47 0 0 1-.275-.671c-.142-.454-.104-2.23-.104-2.23l-.396-.703-.421.117s-.237-.401.024-.66c0 0 .045-.52.255-.59 0 0-.154-.23.466-.414.619-.183.848-.018.848-.018l-.329-.128a.217.217 0 0 1-.094-.07.224.224 0 0 1-.042-.109.214.214 0 0 1 .101-.199.147.147 0 0 1 .069-.027c.071.005.798.093.798.093l.518.679.46 1.765-.28 1.995.405.912-2.001.25"/><path fill="#FFBF9D" d="M167.166 47.994s4.632 5.663 5.628 6.565c.997.903 1.403 1.222 2.507.618 1.226-.675 2.459-7.79 2.459-7.79l-3.835-.663-.462 4.397-4.686-4.243-1.611 1.116Z"/><path fill="currentColor" d="M176.144 41.653s.403.083 1.061.764c.836.87.982 2.326.82 3.593-.138 1.08-.317 3.1-.317 3.1l-4.121-.692s.386-2.799.482-3.382c.246-1.434 2.075-3.383 2.075-3.383Z"/><path fill="#263238" d="M174.124 43.895a.655.655 0 0 1-.015.177l-.069.48c-.06.403-.139.963-.216 1.578-.078.616-.135 1.18-.178 1.586l-.05.48a.81.81 0 0 1-.028.177.69.69 0 0 1-.002-.176c.003-.114.018-.284.025-.484a29.383 29.383 0 0 1 .394-3.168l.091-.472a.78.78 0 0 1 .048-.178ZM175.861 41.771c-.224.17-.439.35-.643.543a7.573 7.573 0 0 0-.519.666c.09-.274.247-.52.457-.719.191-.218.433-.386.705-.49Z"/><path fill="#FFF2AF" d="M168.053 30.854c.25-.722 1.461-1.14 1.888-.915a.972.972 0 0 1 .648-.321.985.985 0 0 1 .695.213l1.37-.257c.23-.064.473-.07.706-.014.222.076.416.303.357.536.494-.075.947.506.756.96a.522.522 0 0 1 .266.309.516.516 0 0 1-.043.404c.524.266 1 .619 1.406 1.043.187.161.312.383.352.625.013.244-.202.506-.443.452a.602.602 0 0 1 .285.585c.213-.085.417.214.339.428-.078.213-.309.33-.523.415-.214.086-.449.171-.57.364a.212.212 0 0 0 .128.107.95.95 0 0 1 .573.409.93.93 0 0 1 .132.686l-.027.127c-.051.227-.282.51-.428.688-.372.45-.678.524-1.179.827.293.28-.244 1.405-1.562 1.08a20.744 20.744 0 0 1-5.146 3.046c-.288.123-.661.235-.905.028a.778.778 0 0 1-.763.065 2.383 2.383 0 0 1-.66-.448 1.402 1.402 0 0 1-1.413-.755 1.726 1.726 0 0 1-1.077-.862 1.016 1.016 0 0 1-.986-.612.994.994 0 0 1-.08-.398 5.986 5.986 0 0 1-.135-1.974c-.367.069-.69-.33-.687-.698.004-.367.222-.7.432-1.006-.223.172-.577-.048-.626-.324-.049-.277.104-.545.268-.773a5.11 5.11 0 0 1 .842-.9c-.073-.492.276-1.227.605-1.596 1.329-1.49 2.414-2.183 5.209-1.532"/><path fill="#FFBF9D" d="m173.536 40.66-2.774-7.837a.742.742 0 0 0-.876-.472l-4.009.408c-1.219.303-1.465 2.02-1.103 3.216.401 1.329.942 2.939 1.457 3.852.265.512.688.927 1.207 1.184.52.257 1.108.342 1.678.243l.494 1.295s.212 1.087.603.867c.522-.296 3.32-2.75 3.32-2.75"/><path fill="#263238" d="M165.478 37.394c.036.033.23-.127.517-.15.288-.023.51.108.539.07.018-.009-.024-.077-.122-.136a.746.746 0 0 0-.435-.1.702.702 0 0 0-.406.163c-.086.07-.11.139-.093.153ZM168.241 36.426c.045.016.157-.21.415-.34.258-.129.509-.102.524-.14.016-.04-.052-.062-.169-.085a.727.727 0 0 0-.438.075.686.686 0 0 0-.311.308c-.046.105-.043.174-.021.182ZM167.874 38.123c-.16.007-.318.034-.47.081-.072.018-.142.029-.17-.014a.352.352 0 0 1-.03-.221c.002-.19.006-.388.01-.596.006-.847-.018-1.535-.052-1.535-.034-.001-.067.687-.073 1.535l-.001.597a.414.414 0 0 0 .065.282.182.182 0 0 0 .151.059.512.512 0 0 0 .124-.026c.155-.036.305-.09.446-.162Z"/><path fill="#FF9A6C" d="M169.11 41.246s1.107-.279 2.126-1.537c0 0 .225 1.57-1.869 2.209l-.257-.672Z"/><path fill="#263238" d="M167.584 34.701c.054.062.316-.073.644-.147s.622-.085.641-.166c.007-.038-.063-.09-.195-.124a1.161 1.161 0 0 0-.977.238c-.099.088-.138.168-.113.2ZM165.179 35.725c.072.044.235-.088.457-.172.223-.084.432-.11.451-.19.008-.037-.049-.086-.149-.116a.72.72 0 0 0-.731.29c-.057.092-.06.165-.028.188Z"/><path fill="#FFF2AF" d="M164.299 37.26a1.419 1.419 0 0 1-.03-.957c.079-.16.149-.323.212-.49.096-.373-.101-.754-.155-1.135a1.55 1.55 0 0 1 .491-1.348c.307-.279.725-.43.988-.75.195-.237.288-.543.497-.768.406-.437 1.096-.426 1.695-.337.253.336.151.76.053 1.166a1.448 1.448 0 0 1-.761.952c-.293.144-.675.22-.796.522-.121.3.128.676.053 1.01-.104.477-.761.583-1.058.974-.227.302-.202.712-.222 1.089-.02.377-.143.811-.5.94a4.3 4.3 0 0 1-.467-.868Z"/><path fill="#FFF2AF" d="M167.535 32.458a7.447 7.447 0 0 1 2.779-.605c.285-.03.572.03.821.172.194.16.339.372.417.61.297.723.378 1.718.384 2.495l-.677.904c-.764.125-.951-1.198-1.17-1.808a1.557 1.557 0 0 1-1.357-.902 1.732 1.732 0 0 1-1.197-.866Z"/><path fill="#FFBF9D" d="M171.163 35.774c-.147-.421.325-.711.771-.646.246.042.488.205.648.65.424 1.186-.865 1.363-.879 1.329-.014-.035-.368-.837-.54-1.333Z"/><path fill="#FF9A6C" d="M171.911 36.53s.025.008.067.012a.23.23 0 0 0 .151-.048c.11-.09.145-.326.074-.543a.717.717 0 0 0-.164-.276.257.257 0 0 0-.214-.104.111.111 0 0 0-.103.1c-.003.038.012.058.006.063-.006.006-.033-.01-.037-.065a.132.132 0 0 1 .02-.09.166.166 0 0 1 .104-.072.318.318 0 0 1 .29.103c.088.085.154.19.192.306.078.242.036.512-.12.619a.239.239 0 0 1-.203.036c-.049-.014-.062-.039-.063-.04Z"/><path fill="#455A64" fill-opacity=".4" d="m172.248 36.968.008.014a.163.163 0 0 0 .034.038c.053.046.12.072.19.073a.79.79 0 0 0 .315-.06c.064-.024.125-.054.183-.09a.714.714 0 0 0 .178-.146l-.017-.001a.63.63 0 0 0 1.082-.016l-.018.01a.266.266 0 0 0 .199.037.365.365 0 0 0 .18-.099.326.326 0 0 0 .101-.185.469.469 0 0 0-.022-.216.653.653 0 0 0-.292-.334 1.918 1.918 0 0 0-.435-.17l.014.024a.433.433 0 0 0 .068-.351.635.635 0 0 0-.184-.327 1.011 1.011 0 0 0-.327-.204 3.127 3.127 0 0 0-.376-.118l.011.02a.461.461 0 0 0-.027-.385.68.68 0 0 0-.278-.29 1.73 1.73 0 0 0-.738-.161l.018.017a.835.835 0 0 0-.467-.625.85.85 0 0 0-.781.021l.027.013a.73.73 0 0 0-.398-.5.728.728 0 0 0-.596-.038l.022.01a.72.72 0 0 0-.481-.397.708.708 0 0 0-.548.063l.017.006a.706.706 0 0 0-.221-.26.884.884 0 0 0-.268-.14.736.736 0 0 0-.472-.005l-.041.022-.039.022a.67.67 0 0 0-.169.116l-.053.054c-.015.008-.022.012-.017.02l.021-.012.057-.052c.022-.023.06-.044.099-.074a.64.64 0 0 1 .069-.038l.038-.021.044-.014a.72.72 0 0 1 .463.011c.09.03.174.075.25.132a.68.68 0 0 1 .211.251l.007.012.013-.007a.678.678 0 0 1 .524-.062.685.685 0 0 1 .459.379l.008.013.015-.008a.684.684 0 0 1 .569.041.686.686 0 0 1 .378.474l.004.027.023-.013a.81.81 0 0 1 .751-.019.81.81 0 0 1 .444.602l.007.014.013-.007c.248-.001.494.052.72.155a.648.648 0 0 1 .263.274.436.436 0 0 1 .023.356l-.008.02.021.007c.252.043.488.15.686.311.086.084.146.191.173.308a.4.4 0 0 1-.062.323l-.015.02.025.008c.149.038.292.094.427.166.127.07.225.182.279.316a.341.341 0 0 1-.07.368.275.275 0 0 1-.34.054l-.007-.012-.008.014a.607.607 0 0 1-.835.213.623.623 0 0 1-.204-.194l-.007-.013-.012.007a.735.735 0 0 1-.173.143c-.055.038-.113.07-.174.096a.79.79 0 0 1-.309.064.304.304 0 0 1-.184-.059c-.044-.016-.056-.038-.058-.036ZM176.183 33.883a.669.669 0 0 0 .014-.09.67.67 0 0 0-.287-.58.68.68 0 0 0-.537-.093l.015.011a.871.871 0 0 0-.349-.53.871.871 0 0 0-.331-.147 2.07 2.07 0 0 0-.385-.017.658.658 0 0 1-.193-.026.432.432 0 0 1-.168-.099c-.099-.09-.172-.214-.289-.307a.779.779 0 0 0-.862-.058l.029.012a1.015 1.015 0 0 0-.59-.674 1.03 1.03 0 0 0-.897.049l.028.011a.891.891 0 0 0-.729-.625.898.898 0 0 0-.876.39l.018-.009a1.215 1.215 0 0 0-.511-.073 2.106 2.106 0 0 0-1.136.409c-.133.094-.248.21-.343.342a.747.747 0 0 0-.066.108l-.02.04s.029-.052.097-.145a1.57 1.57 0 0 1 .348-.333c.202-.146.429-.255.67-.323.148-.043.301-.068.455-.073.17-.009.341.018.5.08l.014.005.009-.006a.889.889 0 0 1 .794-.378.88.88 0 0 1 .747.605l.011.02.021-.01a.977.977 0 0 1 .863-.049.981.981 0 0 1 .567.65l.012.022.023-.013a.739.739 0 0 1 .819.052c.109.087.182.21.287.305.051.049.113.085.182.105.063.02.129.03.195.031.127-.007.253-.002.379.015.115.023.225.07.321.14a.846.846 0 0 1 .341.51l.007.011.012-.007a.66.66 0 0 1 .519.086.637.637 0 0 1 .291.563.51.51 0 0 0-.019.093ZM165.119 38.84a.13.13 0 0 0-.036-.097.246.246 0 0 0-.11-.068.427.427 0 0 0-.174-.012.734.734 0 0 1-.215-.001.393.393 0 0 1-.212-.132.802.802 0 0 1-.143-.253c-.036-.097-.065-.205-.11-.313a3.427 3.427 0 0 0-.442-.625 1.054 1.054 0 0 1-.178-.376.506.506 0 0 1 .074-.415c.104-.116.222-.22.352-.307a.74.74 0 0 0 .167-.185.479.479 0 0 0 .07-.244 2.502 2.502 0 0 0-.071-.509.802.802 0 0 1-.013-.254.383.383 0 0 1 .109-.221c.095-.07.199-.127.309-.17a.542.542 0 0 0 .146-.11.348.348 0 0 0 .086-.164 1.182 1.182 0 0 0-.007-.35.771.771 0 0 1 .443-.777.799.799 0 0 1 .573-.026l.021.008.001-.024a1.172 1.172 0 0 1 .817-1.078c.116-.035.238-.05.359-.043.172.01.336.069.475.17a.81.81 0 0 1 .105.085l.026.024.005.01-.006-.012-.024-.024a.903.903 0 0 0-.582-.272 1.12 1.12 0 0 0-.754.238 1.22 1.22 0 0 0-.457.903l.023-.013a.808.808 0 0 0-1.026.5.825.825 0 0 0-.04.33c.019.11.022.222.01.334a.362.362 0 0 1-.217.248c-.113.048-.218.11-.315.184a.426.426 0 0 0-.119.244.809.809 0 0 0 .013.264c.039.162.062.328.068.495a.483.483 0 0 1-.064.228.722.722 0 0 1-.161.174c-.132.09-.252.197-.358.316a.478.478 0 0 0-.084.224.638.638 0 0 0 .011.226c.035.14.098.271.185.386.17.19.318.396.442.618.046.105.075.212.113.312a.771.771 0 0 0 .146.26.416.416 0 0 0 .224.136c.073.01.147.009.22-.003a.423.423 0 0 1 .17.008.24.24 0 0 1 .107.063.149.149 0 0 1 .048.09Z"/><path fill="#455A64" fill-opacity=".4" d="M162.084 37.987a.118.118 0 0 0 .003-.027l.004-.078.009-.3c.007-.132.013-.295.03-.477.015-.208.088-.408.211-.577.072-.09.167-.169.257-.263a.83.83 0 0 0 .12-.158.436.436 0 0 0 .052-.206c.005-.143-.051-.281-.06-.424a.343.343 0 0 1 .046-.203.685.685 0 0 1 .152-.165c.063-.049.121-.104.174-.165a.39.39 0 0 0 .091-.227 1.885 1.885 0 0 0-.093-.482.66.66 0 0 1-.014-.247.333.333 0 0 1 .05-.117.34.34 0 0 1 .092-.088c.139-.095.328-.11.488-.209a.427.427 0 0 0 .174-.211c.031-.084.052-.171.063-.26.007-.084.02-.168.037-.251a.474.474 0 0 1 .11-.217.74.74 0 0 1 .443-.18c.161-.014.317-.063.456-.143.124-.092.229-.205.311-.335.08-.116.169-.225.269-.325a1.3 1.3 0 0 1 .685-.31c.21-.03.424-.013.626.051a1.573 1.573 0 0 1 .653.415l.057.056.02.019-.013-.023c-.01-.018-.031-.035-.054-.06a1.529 1.529 0 0 0-.652-.431 1.439 1.439 0 0 0-.637-.055c-.254.028-.494.129-.691.29a2.12 2.12 0 0 0-.269.336 1.287 1.287 0 0 1-.305.326 1.099 1.099 0 0 1-.447.138 1.761 1.761 0 0 0-.246.055.52.52 0 0 0-.22.136.516.516 0 0 0-.119.232 2.185 2.185 0 0 0-.056.265c-.01.086-.03.17-.059.251a.417.417 0 0 1-.16.195c-.148.092-.336.107-.49.209a.357.357 0 0 0-.149.22.628.628 0 0 0 .014.263c.052.156.083.318.093.482a.364.364 0 0 1-.081.211 1.385 1.385 0 0 1-.169.16.661.661 0 0 0-.157.174.372.372 0 0 0-.052.226c.01.15.067.286.06.423a.52.52 0 0 1-.165.341c-.087.093-.183.174-.258.267-.126.173-.201.379-.214.593-.019.188-.018.348-.023.478-.005.131-.005.232-.007.304-.002.033-.001.06-.001.079 0 .02.009.02.011.019Z"/><path fill="#455A64" fill-opacity=".4" d="m162.808 36.252-.02.01a.181.181 0 0 0-.061.034.266.266 0 0 0-.034.256c.023.06.055.116.094.167a.792.792 0 0 1 .108.192c.025.08.028.166.01.248-.016.089-.044.182-.056.284a.37.37 0 0 0 .094.303c.08.084.187.136.265.223a.463.463 0 0 1 .104.332c0 .124-.022.253-.016.39a.51.51 0 0 0 .168.377c.113.091.235.171.363.24.129.067.229.18.279.316.027.148.035.3.026.45.001.08.017.158.047.231a.504.504 0 0 0 .144.187c.121.09.252.165.39.224.13.057.247.14.344.243.085.11.177.214.275.311.052.047.113.08.18.098a.58.58 0 0 0 .2.01c.062-.007.124-.01.186-.008a.577.577 0 0 1 .174.036c.106.042.205.099.296.168.092.065.178.129.265.182a.92.92 0 0 0 .931.007.816.816 0 0 0 .259-.236c-.075.09-.165.165-.266.223a.962.962 0 0 1-.391.113.854.854 0 0 1-.518-.131c-.087-.052-.171-.117-.262-.182a1.334 1.334 0 0 0-.303-.175.63.63 0 0 0-.184-.038c-.064-.003-.127.005-.19.008a.444.444 0 0 1-.349-.098 3.166 3.166 0 0 1-.27-.309 1.084 1.084 0 0 0-.355-.253 1.921 1.921 0 0 1-.383-.22.468.468 0 0 1-.132-.172.586.586 0 0 1-.045-.218c.01-.153.001-.307-.026-.459a.483.483 0 0 0-.114-.201.887.887 0 0 0-.178-.14 2.483 2.483 0 0 1-.358-.233.496.496 0 0 1-.117-.16.553.553 0 0 1-.041-.193c-.006-.13.016-.26.014-.389a.49.49 0 0 0-.113-.353c-.084-.093-.191-.143-.266-.223a.323.323 0 0 1-.09-.28c.01-.1.035-.196.053-.282a.512.512 0 0 0-.013-.26.807.807 0 0 0-.121-.193.579.579 0 0 1-.099-.157.252.252 0 0 1-.02-.124.254.254 0 0 1 .04-.119.155.155 0 0 1 .082-.057Z"/><path fill="#263238" fill-opacity=".4" d="M176.137 33.856a.71.71 0 0 0 .397-.703.71.71 0 0 0-.328-.509 1.82 1.82 0 0 0-.336-.142.856.856 0 0 1-.336-.185.562.562 0 0 1-.138-.377c-.007-.143.012-.296-.006-.449a1.249 1.249 0 0 0-1.479-1.094l.021.022a.626.626 0 0 0-.005-.295.789.789 0 0 0-.135-.27.904.904 0 0 0-.51-.33 1.991 1.991 0 0 0-.902.01c-.28.057-.55.155-.801.29l.026.008a.889.889 0 0 0-.518-.47.912.912 0 0 0-.7.041c-.126.069-.24.156-.34.258a.875.875 0 0 1-.163.116.506.506 0 0 1-.184.054 1.609 1.609 0 0 1-.37-.023 1.129 1.129 0 0 0-.663.069 1.074 1.074 0 0 0-.613.692 1.108 1.108 0 0 0-.036.339l.004-.088a1.052 1.052 0 0 1 .547-.875 1.08 1.08 0 0 1 .405-.128c.116-.01.232-.006.347.013.125.024.253.032.38.025a.529.529 0 0 0 .194-.057.843.843 0 0 0 .171-.119c.098-.1.211-.185.334-.253a.876.876 0 0 1 1.169.415l.017.03.018-.01c.248-.132.514-.229.79-.286.291-.071.595-.075.888-.01a.962.962 0 0 1 .259.116c.083.054.156.121.216.2a.729.729 0 0 1 .128.255c.025.09.027.186.006.277l-.005.028.027-.005a1.219 1.219 0 0 1 1.286.588c.084.145.136.306.153.473.017.15 0 .301.009.447a.584.584 0 0 0 .148.396c.1.089.219.154.348.19a1.9 1.9 0 0 1 .332.138.689.689 0 0 1 .321.49.658.658 0 0 1-.094.435.671.671 0 0 1-.194.208c-.053.04-.086.054-.085.055ZM162.065 35.629a.147.147 0 0 0-.011-.02l-.023-.068a19.428 19.428 0 0 0-.082-.26 4.966 4.966 0 0 1-.111-.419 2.336 2.336 0 0 1-.057-.565 1.57 1.57 0 0 1 .161-.666c.059-.112.135-.214.226-.302.101-.092.208-.176.32-.254.12-.085.222-.192.301-.315.075-.136.131-.282.168-.432.044-.147.081-.297.139-.442.057-.148.142-.284.249-.4.218-.228.482-.409.774-.53.269-.121.546-.223.83-.304a4.56 4.56 0 0 1 1.478-.18c.338.017.67.087.987.206.055.022.104.04.147.06.043.018.076.036.104.05l.065.03c.015.007.022.011.023.01l-.021-.012-.062-.035c-.03-.014-.063-.033-.104-.055-.041-.022-.092-.038-.146-.062-.316-.126-.65-.2-.99-.218a4.52 4.52 0 0 0-1.491.172c-.286.08-.565.182-.835.304a2.284 2.284 0 0 0-.784.537 1.325 1.325 0 0 0-.25.414c-.057.149-.095.3-.138.446a1.78 1.78 0 0 1-.169.41c-.076.12-.175.223-.291.305-.112.08-.22.167-.322.259-.097.092-.177.2-.236.32a1.586 1.586 0 0 0-.155.677c-.002.192.019.383.064.57.032.141.071.281.118.418.037.113.068.2.088.259l.026.067c.006.018.009.026.01.025Z"/><path fill="#FF9A6C" d="m168.821 38.196-.726.67-.07.062c.1.134.215.254.344.36a.501.501 0 0 0 .409.092.555.555 0 0 0 .377-.458.65.65 0 0 0-.011-.274.702.702 0 0 0-.323-.452Z"/><path fill="#263238" d="M168.732 39.402a.724.724 0 0 0 .295-.218.585.585 0 0 0 .106-.369.74.74 0 0 0-.176-.435.88.88 0 0 0-.089-.091.182.182 0 0 0-.042-.032c-.004-.007-.004-.007-.017.01l-.176.165-.304.281a1.76 1.76 0 0 1-.295.246c.074-.104.159-.2.255-.286l.292-.295.178-.175a.102.102 0 0 1 .101-.015.278.278 0 0 1 .065.046c.035.032.067.066.098.1a.785.785 0 0 1 .191.488.637.637 0 0 1-.13.404.554.554 0 0 1-.236.167c-.077.015-.115.014-.116.009Z"/><path fill="#7B2CBF" d="M130.205 22.553a.702.702 0 0 1-1.078-.075.683.683 0 0 1-.017-.769.704.704 0 0 1 1.228.097.67.67 0 0 1-.133.747Z"/><path fill="#7B2CBF" d="M130.292 22.32c-.043-.003.029-.719.273-1.564.244-.846.449-1.516.486-1.51.036.006-.094.712-.34 1.546-.246.835-.378 1.533-.419 1.527Z"/><path fill="#7B2CBF" d="M132.493 19.573c.019.035-.336.19-.787.104-.451-.087-.722-.36-.691-.386.031-.027.311.164.72.238.409.074.747.001.758.044ZM132.261 20.242c.019.035-.325.204-.759.087-.434-.117-.652-.438-.616-.457.035-.018.269.207.652.303.384.098.71.025.723.067ZM94.271 53.983a.78.78 0 0 0-.882-.66.776.776 0 0 0-.667.872.78.78 0 0 0 .882.661.776.776 0 0 0 .667-.873Z"/><path fill="#7B2CBF" d="M93.92 53.518c-.008.046-.794-.224-1.671-.715-.878-.492-1.57-.894-1.553-.931.017-.038.766.29 1.632.782.865.491 1.608.82 1.592.864Z"/><path fill="#7B2CBF" d="M91.445 50.383c.042-.01.123.418-.095.887-.218.468-.593.692-.615.652-.02-.04.267-.304.457-.723.19-.42.201-.814.253-.816ZM92.128 50.815c.043-.015.14.409-.106.857s-.653.588-.664.55c-.01-.04.302-.24.512-.632.21-.393.208-.772.258-.775ZM96.615 18.072a.843.843 0 0 1-.146.933.86.86 0 0 1-.928.224.845.845 0 0 1-.067-1.57.867.867 0 0 1 1.14.413Z"/><path fill="#7B2CBF" d="M96.38 17.87c-.038.072-.86-.322-1.743-.981-.884-.66-1.555-1.22-1.519-1.286.036-.066.817.387 1.698 1.049.881.662 1.603 1.146 1.564 1.218Z"/><path fill="#7B2CBF" d="M95.192 13.767c.068.012-.065.712-.657 1.338a2.007 2.007 0 0 1-.922.58c-.282.077-.464.014-.46-.02.004-.034.163-.063.385-.176a2.71 2.71 0 0 0 .776-.586c.54-.56.79-1.172.878-1.136ZM98.686 16.239a.842.842 0 0 1-.147.934.86.86 0 0 1-.928.222.857.857 0 0 1-.562-.764.843.843 0 0 1 .498-.806.869.869 0 0 1 1.139.414Z"/><path fill="#7B2CBF" d="M98.453 16.034c-.037.073-.86-.322-1.743-.981-.884-.66-1.555-1.22-1.519-1.286.037-.066.817.387 1.697 1.049.88.661 1.604 1.146 1.565 1.218Z"/><path fill="#7B2CBF" d="M95.673 14.096c.077.014-.002.682-.538 1.289-.536.606-1.2.79-1.211.717-.012-.074.511-.357.985-.91.473-.552.678-1.12.764-1.096ZM89.183 37.901a.85.85 0 0 1 .31.894.85.85 0 0 1-.715.625.867.867 0 0 1-.858-.415.843.843 0 0 1 .31-1.163.864.864 0 0 1 .953.06Z"/><path fill="#7B2CBF" d="M88.88 37.828c.001.083-.905.12-2.005-.062-1.1-.181-1.955-.357-1.949-.433.007-.076.912-.04 1.995.142 1.082.182 1.96.273 1.959.353Z"/><path fill="#7B2CBF" d="M85.89 34.75c.068-.02.281.66.053 1.488-.089.357-.276.682-.54.94-.212.197-.405.227-.416.193-.012-.034.114-.13.26-.334.188-.266.327-.563.41-.878.207-.743.14-1.4.234-1.409ZM90.15 35.32a.851.851 0 0 1 .31.893.85.85 0 0 1-.716.625.866.866 0 0 1-.857-.415.843.843 0 0 1 .059-.943.863.863 0 0 1 1.204-.16Z"/><path fill="#7B2CBF" d="M89.846 35.246c0 .082-.905.12-2.005-.062-1.1-.181-1.956-.358-1.95-.434.006-.076.912-.04 1.996.143 1.084.182 1.96.27 1.959.353Z"/><path fill="#7B2CBF" d="M86.476 34.819c.073-.03.319.604.134 1.39-.185.785-.682 1.25-.74 1.191-.056-.059.285-.552.444-1.26.16-.707.074-1.303.162-1.321ZM139.016 39.223a.695.695 0 0 1-.577.517.693.693 0 0 1-.794-.723.7.7 0 0 1 1.296-.311c.092.156.119.341.075.517Z"/><path fill="#7B2CBF" d="M138.973 38.98c-.039.015-.327-.643-.529-1.499-.201-.856-.354-1.54-.317-1.552.036-.012.266.665.462 1.515.195.85.424 1.52.384 1.535Z"/><path fill="#7B2CBF" d="M139.544 35.516c.033.021-.2.329-.638.471-.438.142-.806.037-.792 0 .013-.036.353-.009.745-.14.393-.133.654-.363.685-.331ZM139.67 36.212c.035.022-.182.336-.619.444-.436.108-.785-.065-.762-.1.022-.034.337.051.72-.05.382-.102.629-.325.661-.294ZM132.16 32.454a.69.69 0 0 1-.628-1.114.703.703 0 0 1 1.081-.012.69.69 0 0 1 .006.871.702.702 0 0 1-.459.255Z"/><path fill="#7B2CBF" d="M132.378 32.332c-.035-.022.489-.535 1.223-1.028.735-.493 1.328-.88 1.352-.853.023.027-.524.487-1.259.98-.734.493-1.288.931-1.316.901Z"/><path fill="#7B2CBF" d="M135.846 31.62c-.008.038-.374-.062-.666-.424-.292-.363-.321-.735-.281-.736.041-.002.133.325.397.64.264.317.568.48.55.52ZM135.234 31.984c-.004.041-.383-.048-.64-.407s-.218-.743-.18-.731c.038.011.071.33.301.648.23.317.537.45.519.49ZM128.281 10.641a.681.681 0 0 1-.759-.735.691.691 0 0 1 1.213-.381.68.68 0 0 1 .156.363.686.686 0 0 1-.151.5.701.701 0 0 1-.459.253Z"/><path fill="#7B2CBF" d="M128.494 10.518c-.028-.03.49-.534 1.225-1.028.736-.495 1.327-.882 1.351-.852.024.03-.532.483-1.265.974-.733.492-1.279.939-1.311.906Z"/><path fill="#7B2CBF" d="M131.967 9.81c-.008.037-.382-.068-.667-.426-.284-.358-.319-.734-.279-.735.04-.001.133.324.397.64s.568.479.549.52ZM131.355 10.174c-.005.04-.381-.05-.641-.408-.259-.359-.218-.743-.18-.732.038.012.072.33.303.648.232.318.536.452.518.492ZM145.488 21.887a.862.862 0 0 1-.811-.496.84.84 0 0 1 .156-.933.862.862 0 0 1 1.325.082.846.846 0 0 1-.073 1.076.868.868 0 0 1-.597.271Z"/><path fill="#7B2CBF" d="M145.771 21.757c-.053-.062.635-.659 1.593-1.209.957-.55 1.741-.944 1.788-.885.046.058-.679.594-1.639 1.138-.96.545-1.692 1.019-1.742.956Z"/><path fill="#7B2CBF" d="M150.049 22.27c-.037.058-.637-.334-.987-1.118a1.977 1.977 0 0 1-.178-1.069c.039-.285.17-.428.199-.41.029.019-.005.174.013.42.022.323.104.64.241.936.309.71.779 1.176.712 1.24ZM146.387 24.493a.862.862 0 0 1-.809-.497.849.849 0 0 1 .589-1.181.864.864 0 0 1 .892.33.837.837 0 0 1 .104.796.842.842 0 0 1-.45.476.861.861 0 0 1-.326.076Z"/><path fill="#7B2CBF" d="M146.67 24.363c-.052-.064.636-.66 1.593-1.209s1.741-.944 1.789-.887c.048.057-.683.602-1.638 1.141-.955.54-1.692 1.018-1.744.955Z"/><path fill="#7B2CBF" d="M149.555 22.582c-.043.065-.632-.27-.989-.994-.356-.724-.263-1.4-.189-1.384.074.016.13.607.459 1.254.328.647.773 1.056.719 1.124ZM110.931 12.029a.857.857 0 0 1-.722.62.862.862 0 0 1-.853-.42.842.842 0 0 1 .07-.943.861.861 0 0 1 .905-.3.856.856 0 0 1 .519.397.837.837 0 0 1 .081.646Z"/><path fill="#7B2CBF" d="M110.876 11.72c-.076.032-.451-.79-.688-1.862-.238-1.072-.397-1.933-.319-1.954.077-.02.376.824.609 1.886.233 1.063.474 1.9.398 1.93Z"/><path fill="#7B2CBF" d="M112.645 7.823c.043.055-.509.499-1.377.608a2.03 2.03 0 0 1-1.082-.143c-.262-.122-.362-.286-.334-.31.027-.023.168.06.408.114.319.074.65.089.976.045.776-.09 1.366-.398 1.409-.314ZM113.704 11.944a.857.857 0 0 1-.721.621.866.866 0 0 1-.492-.082.849.849 0 0 1-.471-.82.85.85 0 0 1 .587-.748.865.865 0 0 1 1.017.384.855.855 0 0 1 .08.645Z"/><path fill="#7B2CBF" d="M113.664 11.646c-.076.031-.451-.791-.688-1.863-.238-1.072-.397-1.933-.319-1.954.077-.02.375.823.609 1.886.235 1.064.467 1.896.398 1.93Z"/><path fill="#7B2CBF" d="M112.8 8.382c.054.055-.449.52-1.247.644-.799.124-1.426-.156-1.392-.224.035-.069.623.053 1.346-.068.722-.122 1.243-.423 1.293-.352Z"/><path fill="#59331F" d="M116.715 26.056c-.183-1.235-.671-2.51-1.701-3.23-1.03-.722-2.689-.627-3.339.443l1.063 2.45c-.378 1.138-.809 2.279-1.531 3.246-.721.968-1.784 1.732-2.986 1.853-.853.089-1.704-.143-2.561-.177-.857-.035-1.823.203-2.254.937a1.48 1.48 0 0 0 .641 2.095c.249.12.528.17.804.143a1.555 1.555 0 0 0-.805 1.786 2.075 2.075 0 0 0 1.179 1.222 4.342 4.342 0 0 0 1.721.308 9.835 9.835 0 0 0 4.101-.837 9.746 9.746 0 0 0 3.368-2.463 9.618 9.618 0 0 0 2.013-3.634 9.557 9.557 0 0 0 .287-4.135v-.006Z"/><path fill="currentColor" d="M113.276 23.513a2.762 2.762 0 0 0-.625-.556.95.95 0 0 0-.809-.095.39.39 0 0 0-.254.273c-.017.13.107.272.234.235l.033.018c.341.193.685.38 1.032.558.084.051.178.085.275.1a.268.268 0 0 0 .256-.11c.083-.135-.033-.304-.142-.423Z"/><path fill="#59331F" d="M114.013 24.336a4.968 4.968 0 0 0-1.945-1.007 4.998 4.998 0 0 0-2.194-.075c-.855.16-1.17.406-1.75.697a2.735 2.735 0 0 0-1.322 1.318 4.496 4.496 0 0 0-.457 2.218c.068.727.258 1.437.564 2.102a8.662 8.662 0 0 0 1.675 2.274l1.342-.11c1.093-.186 2.204-.377 3.21-.837 1.006-.462 1.92-1.236 2.296-2.27.518-1.438-.221-3.347-1.419-4.31Z"/><path fill="#FFBF9D" d="m112.259 24.68-2.842-.496-.669.217c-1.531.32-2.253 2.223-2.005 3.463.275 1.376.666 3.045 1.093 4.012.875 1.948 2.659 1.756 2.659 1.756s.321 1.824.45 2.51l3.825-1.841-1.673-9.065a.74.74 0 0 0-.838-.556Z"/><path fill="#FF9A6C" d="M110.829 30.768a.463.463 0 0 0-.756-.156.6.6 0 0 0-.112.604.568.568 0 0 0 .437.143h.075a.512.512 0 0 0 .304-.197.426.426 0 0 0 .052-.394Z"/><path fill="#263238" d="M108.024 29.24a.274.274 0 0 0 .324.195.263.263 0 0 0 .176-.105.261.261 0 0 0 .042-.2.27.27 0 0 0-.321-.197.256.256 0 0 0-.178.106.247.247 0 0 0-.043.201ZM107.359 28.455c.042.026.201-.173.486-.247.284-.074.527.013.549-.03.021-.044-.04-.072-.147-.113a.75.75 0 0 0-.45-.017.698.698 0 0 0-.376.238c-.07.088-.081.158-.062.169ZM109.662 30.3a1.897 1.897 0 0 0-.481.04c-.075.01-.147.015-.171-.03a.363.363 0 0 1 0-.217l.068-.602a9.454 9.454 0 0 0 .098-1.55 9.51 9.51 0 0 0-.218 1.54c-.02.216-.04.409-.057.601-.023.098-.01.201.037.29a.18.18 0 0 0 .065.054c.025.013.053.02.081.02a2.019 2.019 0 0 0 .578-.145Z"/><path fill="#FF9A6C" d="M110.499 33.63a5.41 5.41 0 0 0 2.554-1.444s-.356 1.597-2.46 1.948l-.094-.504Z"/><path fill="#263238" d="M110.547 30.277c-.046 0 .035.314-.17.597-.206.284-.543.338-.534.381.009.044.09.04.219 0a.792.792 0 0 0 .45-.298.686.686 0 0 0 .125-.498c-.015-.123-.068-.182-.09-.182ZM107.25 27.442c.066.056.269-.048.529-.093.26-.046.486-.033.525-.11.017-.038-.029-.096-.136-.141a.834.834 0 0 0-.848.162c-.081.082-.101.153-.07.182ZM111.151 28.504a.27.27 0 0 1-.195.323.264.264 0 0 1-.328-.178.269.269 0 0 1 .031-.2.27.27 0 0 1 .164-.12.261.261 0 0 1 .281.084.246.246 0 0 1 .047.091ZM111.21 27.552c-.024.041-.258-.06-.545 0-.286.06-.463.251-.5.216-.037-.034 0-.08.076-.166a.745.745 0 0 1 .392-.217.716.716 0 0 1 .437.041c.109.053.153.107.14.126ZM110.849 26.68c-.041.076-.278.058-.542.114-.265.057-.481.152-.547.096-.03-.026-.011-.1.075-.182a.848.848 0 0 1 .415-.203.84.84 0 0 1 .461.032c.11.045.156.106.138.143Z"/><path fill="#FFBF9D" d="M113.462 28.762c-.042-.152.042-.554.186-.617.385-.169 1.119-.327 1.397.684.381 1.383-1.093 1.474-1.113 1.435-.02-.039-.332-.983-.47-1.502Z"/><path fill="#FF9A6C" d="M114.19 29.654s.029 0 .074.02a.267.267 0 0 0 .184-.046.622.622 0 0 0 .131-.61.81.81 0 0 0-.164-.328.285.285 0 0 0-.231-.134.13.13 0 0 0-.083.03.124.124 0 0 0-.044.074v.074c0 .004-.037-.015-.042-.076a.17.17 0 0 1 .033-.102.193.193 0 0 1 .125-.071.36.36 0 0 1 .312.147.837.837 0 0 1 .191.361.648.648 0 0 1-.193.693.267.267 0 0 1-.232.024c-.061-.024-.076-.052-.061-.056Z"/><path fill="#59331F" d="m113.707 28.134-.284.444c-1.857-1.154-5.657-4.214-5.443-4.03a4.65 4.65 0 0 1 2.167-.69c1.194-.042 3.499.082 3.75 1.437.252 1.354-.19 2.84-.19 2.84Z"/><path fill="#000" fill-opacity=".6" d="M115.697 27.405a1.417 1.417 0 0 0-.182-.277c-.2-.23-.449-.413-.728-.537a3.966 3.966 0 0 0-1.312-.322c-.505-.057-1.063-.067-1.633-.182a7.305 7.305 0 0 1-3.433-1.69l-.182-.165a.376.376 0 0 0-.068-.054.404.404 0 0 0 .057.065c.04.039.094.1.173.173.219.208.453.4.7.576a6.904 6.904 0 0 0 2.74 1.169c.542.087 1.089.146 1.637.177.446.028.884.13 1.295.303.276.117.524.29.728.509.146.155.201.26.208.255Z"/><path fill="#000" fill-opacity=".6" d="M115.332 27.71a.756.756 0 0 0-.121-.294 1.445 1.445 0 0 0-.669-.55 3.267 3.267 0 0 0-1.275-.216 7.208 7.208 0 0 1-1.563-.163 6.422 6.422 0 0 1-2.552-1.218 7.55 7.55 0 0 1-.64-.578l-.162-.173a.46.46 0 0 0-.059-.057.332.332 0 0 0 .048.067l.151.182a5.999 5.999 0 0 0 1.71 1.305c.471.244.971.426 1.489.544a7.067 7.067 0 0 0 1.576.158c.428-.016.855.05 1.257.194.265.108.493.288.656.52.059.089.11.182.154.28Z"/><path fill="#000" fill-opacity=".6" d="M114.153 30.515s.116-.05.313-.147c.276-.144.517-.35.701-.6.267-.375.439-.809.501-1.264a4.947 4.947 0 0 0-.028-1.677 3.888 3.888 0 0 0-.639-1.545 4.161 4.161 0 0 0-.968-.98 6.82 6.82 0 0 0-1.12-.624s.031 0 .085.024c.055.023.14.045.243.09.293.122.571.275.831.455.388.269.727.602 1.001.985.335.47.559 1.01.656 1.578.108.564.117 1.143.024 1.71-.067.47-.251.916-.535 1.298a1.99 1.99 0 0 1-.737.593c-.079.036-.16.067-.243.091a.434.434 0 0 1-.085.013Z"/><path fill="#263238" d="m93.461 77.432-2.064 4.574-2.685 3.151a.515.515 0 0 0 .09.747.515.515 0 0 0 .468.071c1.014-.333 4.745-1.584 4.876-1.926.153-.398 2.501-4.682 2.501-4.682l-3.186-1.935Z"/><path fill="#455A64" d="m88.802 85.902 5.49-2.165-.092.19a.768.768 0 0 1-.385.375c-.452.201-1.712.732-4.532 1.675a.524.524 0 0 1-.481-.08v.005Z"/><path fill="#fff" d="M94.054 81.841a.317.317 0 0 0-.254.331.304.304 0 0 0 .328.251.326.326 0 0 0 .267-.35.312.312 0 0 0-.372-.217" opacity=".6"/><path fill="#fff" d="M90.794 84.417a1.595 1.595 0 0 0-.232-.541 1.574 1.574 0 0 0-.48-.347c0-.013.077-.021.191.013a.813.813 0 0 1 .549.686c.009.12-.015.189-.028.189ZM90.177 84.87c-.03 0-.107-.217-.31-.386-.204-.169-.427-.234-.42-.266a.58.58 0 0 1 .494.184c.232.201.267.465.236.467ZM91.773 83.923a5.441 5.441 0 0 0-.437-.625 5.425 5.425 0 0 0-.603-.476c.261.066.499.205.684.4.185.195.31.438.36.701h-.004ZM92.517 82.586c-.024.02-.219-.204-.551-.368-.333-.165-.621-.217-.617-.245a1.301 1.301 0 0 1 1.168.613ZM93.157 81.257a2.48 2.48 0 0 0-.564-.398 2.724 2.724 0 0 0-.678-.135c0-.013.075-.045.208-.056a1.132 1.132 0 0 1 .934.4c.083.104.111.182.1.189Z"/><path fill="#263238" d="m119.377 80.43.076 5.008 1.216 3.946a.505.505 0 0 1-.187.562.515.515 0 0 1-.435.085.518.518 0 0 1-.216-.112c-.8-.704-3.73-3.305-3.717-3.68.016-.433-.437-5.279-.437-5.279l3.7-.53Z"/><path fill="#455A64" d="m120.291 90.033-4.188-4.131v.216c.007.184.08.359.206.494.334.361 1.283 1.34 3.498 3.305a.52.52 0 0 0 .475.114l.009.002Z"/><path fill="#fff" d="M117.079 84.254a.312.312 0 0 1 .1.403.302.302 0 0 1-.402.102.328.328 0 0 1-.139-.196.327.327 0 0 1 .034-.237.315.315 0 0 1 .437-.06" opacity=".6"/><path fill="#fff" d="M119.051 87.89c.028.014.133-.255.437-.406.182-.08.378-.125.577-.132 0-.013-.061-.05-.179-.06a.829.829 0 0 0-.778.415c-.066.106-.07.18-.057.184ZM119.438 88.546c.024.022.179-.147.437-.231.162-.037.325-.064.49-.082a.575.575 0 0 0-.527-.022c-.291.097-.428.323-.4.335ZM118.345 87.055a2.682 2.682 0 0 1 1.397-.604 1.152 1.152 0 0 0-.787.1c-.258.091-.474.27-.61.504ZM118.194 85.536c.015.028.29-.098.656-.124.365-.026.656.048.656.018a1.297 1.297 0 0 0-1.312.106ZM118.126 84.066c.217-.08.445-.129.676-.147.23.018.457.065.675.14 0-.01-.048-.07-.168-.131a1.132 1.132 0 0 0-1.015.002c-.111.065-.168.125-.168.136Z"/><path fill="#FFBF9D" d="m102.84 45.099 3.315.837a34.678 34.678 0 0 1-.302-5.642c.094-2.435 1.705-3.169 1.705-3.169l1.244 11.471-2.186 1.13-4.721-3.39.945-1.237Z"/><path fill="#FFBF9D" d="m103.023 45.211-.627-1.175c-.381-.71-1.282-1.416-1.793-1.79-.512-.374-.862-.745-1.074-.353-.212.392.177.723.177.723l-.072.974c-.113.194-.182.41-.201.632-.017.238.046.474.18.673a.785.785 0 0 0 .08.628c.19.305.951.448.951.448l1.251.366 1.128-1.126Z"/><path fill="#FF9A6C" d="M101.071 43.655s.022-.026.048-.065c.026-.039.011-.106-.016-.19-.11-.21-.272-.39-.47-.524a1.773 1.773 0 0 0-.339-.201.895.895 0 0 0-.308-.067.512.512 0 0 0-.286.047s0-.037.054-.07c.07-.039.151-.058.232-.055a.83.83 0 0 1 .348.047c.132.056.256.129.369.217.113.083.216.179.306.285.081.088.14.192.173.306.01.044.014.09.013.136a.15.15 0 0 1-.043.104c-.042.034-.081.034-.081.03Z"/><path fill="#FF9A6C" d="M101.775 44.562a.585.585 0 0 0-.081-.379 1.19 1.19 0 0 0-.328-.29l-.457-.327c-.16-.114-.311-.233-.451-.324a.953.953 0 0 0-.409-.143.687.687 0 0 0-.293 0c-.065.02-.09.052-.098.045-.009-.006 0-.05.081-.086a.63.63 0 0 1 .319-.05.984.984 0 0 1 .455.134c.155.093.302.216.464.323l.45.333c.134.086.248.198.335.331a.472.472 0 0 1 .061.316c-.018.082-.044.117-.048.117Z"/><path fill="#FF9A6C" d="M101.434 44.902s.043 0 .118-.011a.469.469 0 0 0 .131-.026c.05-.017.098-.039.107-.09a.212.212 0 0 0-.044-.173.545.545 0 0 0-.186-.142l-.533-.253a30.322 30.322 0 0 1-.969-.47.704.704 0 0 0-.29-.11c-.07 0-.103.028-.11.02-.007-.01.02-.053.107-.066a.66.66 0 0 1 .328.085c.254.106.602.262.982.433.19.09.372.18.534.264a.592.592 0 0 1 .218.177.292.292 0 0 1 .042.25.161.161 0 0 1-.075.097.358.358 0 0 1-.091.032.525.525 0 0 1-.147.01c-.083 0-.125-.02-.122-.027Z"/><path fill="#FF9A6C" d="M100.329 45.326c.04-.128.066-.26.077-.394v-.056l.05.03c.193.115.414.177.639.178.133 0 .277-.022.28-.152.002-.13-.101-.242-.219-.344a1.561 1.561 0 0 0-.676-.336.815.815 0 0 0-.321-.013.44.44 0 0 0-.234.135c-.09.106-.158.229-.201.361-.035.095-.053.15-.062.147a.428.428 0 0 1 .02-.16.975.975 0 0 1 .184-.403.52.52 0 0 1 .271-.17.867.867 0 0 1 .365 0c.269.053.52.173.728.35.066.055.125.117.177.184a.37.37 0 0 1 .081.255.25.25 0 0 1-.162.217.626.626 0 0 1-.229.028 1.25 1.25 0 0 1-.676-.216l.053-.026a.913.913 0 0 1-.081.298c-.033.061-.057.09-.064.087ZM106.826 47.68a9.53 9.53 0 0 0-.315-.96 9.726 9.726 0 0 0-.516-.866 2.376 2.376 0 0 1 .831 1.833v-.006Z"/><path fill="currentColor" d="M107.755 44.562c0-.026-2.209-.327-2.209-.327s-.102-4.31.335-5.532c.628-1.753 1.465-2.01 1.465-2.01l.757 1.562-.348 6.307Z"/><path fill="currentColor" d="M110.691 34.681c-.376.202-3.513 2.113-3.513 2.113a20.188 20.188 0 0 0-.464 4.571c.074 2.28 1.163 5.195 1.163 5.195l-.135 1.716 4.637 3.94 4.957-2.436a23.939 23.939 0 0 0 1.918-6.53c.529-3.722.201-3.803-.039-5.315-.241-1.513-1.212-4.396-1.496-4.292l-3.061-.106c-1.743 1.74-3.37 2.021-3.967 1.145Z"/><path fill="#263238" d="M107.016 38.796c.018 0-.05.325-.116.846a11.3 11.3 0 0 0 .236 4.08c.127.513.23.823.219.83a.818.818 0 0 1-.094-.217 6.217 6.217 0 0 1-.195-.598 9.65 9.65 0 0 1-.238-4.112c.044-.262.087-.472.125-.615a.805.805 0 0 1 .063-.214Z"/><path fill="#FFBF9D" d="M124.224 43.755s-2.217-5.987-3.234-7.76c-1.016-1.772-4.005-2.153-4.005-2.153l.142 4.365.874 2.331 3.766 6.803s1.377 1.604 2.882.606c1.504-.998 3.949-5.493 3.949-5.493l-1.173-1.72-3.201 3.02Z"/><path fill="#FFBF9D" d="M126.973 41.34s.19-.607.485-1.533c.295-.927 1.214-1.959 1.739-2.515.524-.556.861-1.072 1.202-.65.341.422-.052.899-.052.899l.299 1.143c.178.204.307.445.381.705.071.28.048.574-.066.84a.942.942 0 0 1 .042.764c-.16.405-1.032.74-1.032.74l-1.408.704-1.59-1.098Z"/><path fill="#FF9A6C" d="M128.947 39.069s-.039 0-.102-.028a.175.175 0 0 1-.07-.115.681.681 0 0 1-.013-.163.942.942 0 0 1 .139-.393c.086-.146.187-.283.302-.407a1.94 1.94 0 0 1 .389-.325c.122-.072.258-.118.398-.134a.54.54 0 0 1 .285.013c.067.026.087.06.083.065-.005.004-.035-.013-.094-.024a.644.644 0 0 0-.258.024 1.04 1.04 0 0 0-.357.143 2.113 2.113 0 0 0-.363.316 1.686 1.686 0 0 0-.437.731c-.011.106-.011.2.031.234.041.035.072.054.067.063Z"/><path fill="#FF9A6C" d="M128.315 40.294s-.043-.033-.076-.117a.528.528 0 0 1 0-.383c.074-.175.184-.333.324-.463l.463-.494c.166-.17.317-.342.479-.483.145-.126.319-.216.507-.26a.763.763 0 0 1 .385-.012c.092.028.122.078.118.08-.004.002-.044-.026-.127-.037a.816.816 0 0 0-.354.048 1.117 1.117 0 0 0-.459.26c-.149.136-.3.311-.468.482l-.468.487a1.35 1.35 0 0 0-.326.42.537.537 0 0 0-.039.342c.024.082.05.125.041.13Z"/><path fill="#FF9A6C" d="M128.794 40.63s-.039.038-.133.062a.612.612 0 0 1-.177.017.378.378 0 0 1-.114-.02.216.216 0 0 1-.107-.094.351.351 0 0 1 0-.3.697.697 0 0 1 .219-.252c.174-.137.371-.28.577-.433.415-.294.794-.554 1.071-.738a.763.763 0 0 1 .365-.171c.105 0 .147.045.142.047-.004.003-.05-.021-.135 0a.839.839 0 0 0-.326.193c-.264.2-.636.472-1.052.764l-.577.418a.625.625 0 0 0-.192.216.285.285 0 0 0-.03.107.274.274 0 0 0 .017.11c.024.065.091.08.155.088a.686.686 0 0 0 .162 0c.085-.004.133-.021.135-.015Z"/><path fill="#FF9A6C" d="M130.202 40.895s-.041-.026-.092-.097a1.086 1.086 0 0 1-.159-.338l.057.018a1.499 1.499 0 0 1-.75.404.688.688 0 0 1-.278.016.293.293 0 0 1-.23-.217.455.455 0 0 1 .038-.314c.048-.09.105-.176.17-.255.209-.253.479-.45.785-.571a1.03 1.03 0 0 1 .427-.08.625.625 0 0 1 .358.14c.134.12.239.267.306.433a.562.562 0 0 1 .064.182.713.713 0 0 1-.103-.163 1.308 1.308 0 0 0-.317-.391.535.535 0 0 0-.313-.11.949.949 0 0 0-.383.084c-.286.12-.538.307-.734.545-.12.15-.236.316-.19.468a.184.184 0 0 0 .144.14.673.673 0 0 0 .236 0 1.54 1.54 0 0 0 .724-.357l.044-.039.013.057c.042.155.103.305.183.445ZM123.592 45.828c.01-.357.072-.712.184-1.052.075-.35.202-.686.376-1a7.967 7.967 0 0 1-.267 1.03 8.066 8.066 0 0 1-.293 1.022Z"/><path fill="currentColor" d="M117.166 39.175c.151.167 1.185 2.814 1.185 2.814l4.572-2.444s-1.323-3.208-2.477-4.409c-1.155-1.201-2.368-1.515-2.913-1.515h-.043a2.25 2.25 0 0 0-1.118.353 2.213 2.213 0 0 0-.782.864 2.19 2.19 0 0 0 .15 2.235l1.426 2.102Z"/><path fill="#263238" d="M117.752 39.748a1.073 1.073 0 0 1-.096-.216c-.055-.147-.131-.36-.219-.623-.238-.689-.404-1.4-.494-2.121a5.853 5.853 0 0 1-.015-1.206c.019-.333.113-.657.273-.95a1.28 1.28 0 0 1 .472-.474.547.547 0 0 1 .232-.085c0 .011-.079.037-.208.121a1.364 1.364 0 0 0-.426.477c-.269.48-.3 1.272-.219 2.104.094.714.247 1.42.459 2.11.073.249.132.46.182.634.028.074.048.151.059.23ZM107.748 48.274s-5.842 4.145-7.672 9.856c-1.83 5.712-5.386 12.42-6.954 17.328l-1.784 6.312 4.128 1.34s4.977-11.387 6.895-14.417c1.917-3.03 4.983-9.158 6.439-8.658 1.456.5 5.139 14.638 5.139 14.638l1.598 9.627 4.522.303s-.547-8.97-1.006-13.066c-.385-3.43-.757-6.942-1.034-11.44-.33-5.334-.309-3.07-.234-6.427.07-3.169-.372-4.132-.372-4.132s-4.793 1.013-6.547.169c-1.753-.845-3.118-1.433-3.118-1.433Z"/><path fill="#455A64" d="M111.752 50.733c.031.013-.413 1.2-.986 2.657s-1.065 2.63-1.093 2.617c-.029-.013.413-1.201.988-2.658.575-1.456 1.063-2.627 1.091-2.616ZM117.641 54.035a2.232 2.232 0 0 1-.527-.28 6.37 6.37 0 0 1-1.113-.91 6.448 6.448 0 0 1-.875-1.134 2.127 2.127 0 0 1-.262-.532c.119.156.229.32.33.489a7.845 7.845 0 0 0 1.968 2.021c.166.106.326.221.479.346ZM108.811 50.157a1.6 1.6 0 0 1-.437.357c-.384.246-.811.42-1.26.51a3.678 3.678 0 0 1-1.36.027 1.654 1.654 0 0 1-.54-.158c0-.018.219.039.551.08a4.206 4.206 0 0 0 2.567-.526c.3-.171.466-.305.479-.29Z"/></g></svg>