<svg xmlns="http://www.w3.org/2000/svg" fill="none" viewBox="0 0 200 100"><mask id="a" width="200" height="100" x="0" y="0" maskUnits="userSpaceOnUse" style="mask-type:alpha"><rect width="200" height="100" fill="#fff" rx="16"/></mask><g><rect width="200" height="100" fill="#fff" opacity=".6" rx="16"/><path fill="#FF6400" d="M15.6 8.744c-38.338-27.3-3.7-46.624-20.452-69.522-16.752-22.897 178.241-35.115 161.981 4.093-16.26 39.21-24.12 23.306-10.198 43.495C160.854 7 46.503 30.75 15.6 8.744ZM220 68.5c13.888-29.73-.606-115-23.5-43S-12 98-12 98h212.5c-17.262 12.947 3.409 4.945 19.5-29.5Z" opacity=".2"/><path fill="#455A64" d="m26.863 87.87-.297 5.485s5.47 2.143 5.514 3.164l-10.65-.204.115-8.559 5.318.114Z"/><path fill="#E0E0E0" d="M23.282 92.828a.437.437 0 0 0-.31.491.422.422 0 0 0 .485.31.46.46 0 0 0 .325-.52.437.437 0 0 0-.54-.269"/><path fill="#fff" d="m21.43 96.315.046-.861 10.19.51s.471.211.423.549l-10.66-.198Z" opacity=".6"/><path fill="#263238" d="M26.74 93.3c0 .05-.265.07-.522.232-.257.163-.4.38-.447.357-.047-.023.036-.319.352-.51.317-.193.629-.127.616-.079ZM27.847 93.781c.012.05-.211.135-.397.352-.185.218-.234.45-.287.446-.053-.005-.08-.298.15-.564.23-.266.534-.282.534-.234ZM28.456 95.131c-.046 0-.114-.25.025-.534.14-.282.384-.392.405-.348.021.045-.133.195-.242.422-.11.228-.135.456-.188.46ZM26.67 92.043c-.024.046-.262-.03-.555-.015-.294.015-.526.103-.551.057-.025-.046.196-.226.544-.238.348-.013.595.156.561.196Z"/><path fill="#455A64" d="m23.292 87.942-.21 5.485s5.505 2.054 5.564 3.071l-10.649-.023-.025-8.558 5.32.025Z"/><path fill="#E0E0E0" d="M19.792 92.958a.423.423 0 0 0-.301.496.422.422 0 0 0 .487.304.46.46 0 0 0 .319-.527.434.434 0 0 0-.545-.26"/><path fill="#fff" d="m18 96.475.031-.863 10.197.346s.475.211.422.54L18 96.475Z" opacity=".6"/><path fill="#263238" d="M23.256 93.372c0 .053-.262.076-.517.243-.255.166-.394.383-.44.364-.047-.019.029-.322.343-.519.314-.196.627-.134.614-.088ZM24.383 93.838c.012.049-.211.137-.39.357-.18.219-.229.451-.281.449-.053-.002-.085-.295.141-.565.226-.27.53-.291.53-.24ZM25.003 95.167c-.047 0-.119-.249.017-.534.134-.284.377-.396.398-.354.021.042-.128.196-.236.422-.108.226-.127.466-.18.466ZM23.166 92.117c-.021.048-.26-.023-.555 0-.296.023-.523.112-.55.065-.028-.046.193-.228.54-.247.345-.019.59.142.565.182Z"/><path fill="#263238" d="m13.707 48.769.36 4.32 2.563 16.737s-.042 8.227-.101 12.868c-.05 4.035 1.16 10.952 1.16 10.952l6.75-.561.484-23.443.29-14.625 2.06-6.818-13.566.57Z"/><path fill="#263238" d="m32.188 70.579-.652-20.884a1.118 1.118 0 0 0-1.097-1.083l-7.242-.137a1.117 1.117 0 0 0-1.134 1.127l.443 39.762a1.115 1.115 0 0 0 .947 1.09l4.035.346 4.417-17.994a7.044 7.044 0 0 0 .283-2.227Z"/><path fill="#455A64" d="M25.21 55.188a.48.48 0 0 1 .01.097c0 .07.01.166.019.287l.057 1.103c.053.96.099 2.348.145 4.063.08 3.43.093 8.174-.067 13.408-.16 5.233-.407 9.972-.595 13.4-.1 1.706-.18 3.09-.234 4.056l-.07 1.103c0 .12-.017.211-.02.285a.623.623 0 0 1-.013.1.586.586 0 0 1 0-.1v-.287c.01-.26.025-.633.046-1.103l.194-4.06c.165-3.427.405-8.163.557-13.396.152-5.234.162-9.974.103-13.404a230.59 230.59 0 0 0-.103-4.063c-.015-.475-.025-.844-.034-1.103v-.29c0-.032 0-.064.004-.096Z"/><path fill="#FFCCB3" d="m23.024 13.97-1.09 10.088c-.211 1.717-.54 4.263 2.194 4.489 2.387.017 3.271-2.141 3.476-3.745.097-.761.18-1.396.194-1.476 0 0 2.603.088 3.118-2.433.247-1.219.555-3.771.804-6.085a4.791 4.791 0 0 0-3.871-5.224l-.243-.046c-2.66-.346-4.308 1.764-4.582 4.432Z"/><path fill="#FF9A6A" d="M27.804 23.33a6.228 6.228 0 0 1-3.107-1.601s.451 2 3.019 2.253l.088-.652Z"/><path fill="#263238" d="M27.378 15.523c-.057 0-.289-.211-.69-.37-.4-.158-.742-.16-.774-.21-.031-.051.053-.051.211-.051.217.005.432.05.633.13.197.075.378.186.534.328.095.105.114.168.086.173ZM27.091 16.413a.352.352 0 0 1-.513.24.334.334 0 0 1-.168-.335.348.348 0 0 1 .616-.153c.054.07.077.16.065.248ZM28.037 18.45c.216-.027.435-.027.651 0 .102 0 .199 0 .228-.056a.515.515 0 0 0 0-.308c-.048-.258-.099-.528-.15-.81-.21-1.154-.329-2.095-.282-2.11.046-.014.249.922.451 2.074l.135.814a.57.57 0 0 1-.023.399.244.244 0 0 1-.19.114.627.627 0 0 1-.173 0 2.447 2.447 0 0 1-.647-.116ZM27.315 13.74c-.053.089-.386-.02-.797-.048-.412-.028-.758.025-.796-.072-.017-.046.057-.127.211-.194a1.349 1.349 0 0 1 1.213.09c.133.083.19.171.169.224ZM31.279 14.993c-.055.072-.378-.053-.78-.112-.404-.059-.743-.046-.777-.133-.015-.04.061-.1.21-.147.2-.053.406-.063.609-.03.205.03.402.101.578.211.126.093.183.175.16.211Z"/><path fill="#FFCCB3" d="M22.872 15.917c-.044-.027-1.744-.844-1.985.992-.24 1.835 1.65 1.687 1.66 1.643.01-.044.325-2.635.325-2.635Z"/><path fill="#FF9A6A" d="M22.077 17.784s-.034.02-.09.036a.336.336 0 0 1-.241-.025c-.184-.097-.306-.422-.272-.758.016-.157.067-.31.15-.445a.372.372 0 0 1 .272-.21.164.164 0 0 1 .177.111c.017.055 0 .089 0 .093 0 .004.044-.025.038-.103a.21.21 0 0 0-.057-.125.249.249 0 0 0-.171-.07.451.451 0 0 0-.37.241c-.098.149-.16.32-.179.498-.035.369.108.74.363.844a.342.342 0 0 0 .298 0c.067-.043.088-.083.082-.087Z"/><path fill="#263238" d="M27.969 19.674c0-.048-.346-.095-.633-.373a2.178 2.178 0 0 1-.314-.422c-.07-.118-.123-.19-.14-.181-.017.008 0 .092.05.225.069.177.174.338.309.47.138.135.31.227.498.269.128.038.23.027.23.012ZM31.12 15.85c-.046.036-.356-.03-.78.046-.424.076-.72.243-.77.224-.05-.02.021-.066.15-.144.19-.105.397-.177.612-.21.209-.04.423-.04.633 0 .128.035.168.084.156.084ZM30.591 16.92a.348.348 0 0 1-.394.282.335.335 0 0 1-.294-.376.348.348 0 0 1 .395-.282.335.335 0 0 1 .293.375Z"/><path fill="#EADC9B" d="M35.437 12.924a.422.422 0 0 0-.165-.264 1.266 1.266 0 0 0-.633-.181 3.722 3.722 0 0 1-1.548-.585c.182-.065.354-.158.508-.276a1.099 1.099 0 0 0 .439-1.055.244.244 0 0 0-.116-.181c-.11-.049-.222.05-.31.13a.95.95 0 0 1-.937.275 1.571 1.571 0 0 1-.633-.272l-.019-.028-.234-.3c-.58-.725-1.093-1.242-1.645-1.541-.81-.441-2.217-.745-3.13-.616-.914.128-1.794.757-2.022 1.652-.449-.48-1.196-.562-1.829-.389h-.014c-.703.163-1.17.83-1.448 1.494l-.044.112c-.27.337-.616.604-1.01.78-.07.03-.15.068-.165.142a.21.21 0 0 0 .093.194c.15.134.328.232.521.289-.08.157-.173.307-.278.449-.091.12-.2.264-.15.405a.29.29 0 0 0 .283.165.844.844 0 0 0 .33-.106l-.288.513c.24.07.494.083.74.038.047.655.13 1.307.249 1.953.283.032.557 0 .713.173.211.24.27.652.681.546.211-.055.44-.451.53-.647.6-1.306.911-2.725.913-4.162.315-.267.678-.47 1.07-.6l-.034.026c.74-.165 1.576-.314 2.21.097.497.32.741.9 1.083 1.38a3.799 3.799 0 0 0 2.599 1.628c.01.78-.186 1.747-.23 2.468l.797-1.08c.057-.077.11-.156.159-.238l.017-.025c.076-.133.159-.262.248-.387a.452.452 0 0 0 .726-.523 1.081 1.081 0 0 0-.192-.244.714.714 0 0 0 .654.255.56.56 0 0 0 .458-.506.47.47 0 0 0-.239-.422c.314.062.638.028.933-.095.198-.062.394-.21.358-.441Z"/><path fill="#455A64" fill-opacity=".4" d="M25.754 10.068a2.767 2.767 0 0 0-.283.21c-.229.221-.398.497-.49.802a3.206 3.206 0 0 0-.14.633c-.028.236-.039.49-.051.755a6.61 6.61 0 0 1-.078.844 3.047 3.047 0 0 1-.108.434.911.911 0 0 1-.221.401.386.386 0 0 1-.374.08.585.585 0 0 1-.303-.21 1.317 1.317 0 0 1-.17-.675l.053.012c-.1.183-.225.351-.373.498a.77.77 0 0 1-.527.211.513.513 0 0 1-.258-.078.442.442 0 0 1-.186-.428.306.306 0 0 1 .106-.188l.023.025a1.632 1.632 0 0 1-.78.393.319.319 0 0 1-.063 0 .286.286 0 0 1 .06-.02c.04 0 .1-.027.174-.054.214-.078.41-.199.578-.355l.023.028a.325.325 0 0 0-.061.375c.029.072.079.133.143.175.07.043.152.066.234.066a.709.709 0 0 0 .49-.211 2.08 2.08 0 0 0 .367-.473l.046-.078v.091c-.002.225.055.446.165.641a.526.526 0 0 0 .272.199.33.33 0 0 0 .316-.068.874.874 0 0 0 .211-.382c.047-.137.083-.278.108-.422a6.85 6.85 0 0 0 .08-.83c.015-.267.025-.522.057-.76.028-.22.078-.438.15-.648.097-.309.274-.586.515-.804.087-.079.187-.143.295-.19ZM33.352 13.464l-.023.015-.07.038a.667.667 0 0 1-.115.057 2.262 2.262 0 0 1-1.278.135 2.929 2.929 0 0 1-1.478-.747 5.042 5.042 0 0 1-1.143-1.688c-.15-.331-.266-.664-.396-.976a3.472 3.472 0 0 0-.482-.844 1.748 1.748 0 0 0-.68-.532 1.332 1.332 0 0 0-.385-.088 1.348 1.348 0 0 0-.36.027 1.477 1.477 0 0 0-.901.597 1.717 1.717 0 0 0-.175.367V9.8c0-.026.012-.047.02-.078a1.32 1.32 0 0 1 .131-.277c.093-.133.207-.25.338-.346.171-.132.37-.226.58-.274a1.286 1.286 0 0 1 .772.06c.278.117.521.303.707.541.203.256.369.54.491.844.136.314.25.648.397.975a5.041 5.041 0 0 0 1.129 1.66c.4.382.9.64 1.442.747.366.072.743.054 1.1-.051.129-.039.255-.085.38-.137Z"/><path fill="#455A64" fill-opacity=".4" d="M33.713 12.371a.571.571 0 0 1-.1.053 2.632 2.632 0 0 1-.73.196 2.863 2.863 0 0 1-.556 0 2.803 2.803 0 0 1-.97-.264 2.079 2.079 0 0 1-.264-.152.415.415 0 0 1-.089-.07c.002-.003.14.081.372.184.137.06.277.109.421.148.177.046.357.078.538.095.182.015.365.015.547 0 .148-.014.294-.04.439-.076.242-.059.388-.124.392-.114Z"/><path fill="#455A64" d="M10.38 32.08s2.972-9.12 6.478-8.925l5.19-.154s.993 2.65 2.898 2.83c1.905.182 2.658-1.029 2.658-1.029s5.428 2.144 6.095 4.413c.666 2.27.16 8.325.16 8.325l-3.72-.194.23 4.851 1.846 9.402-18.72.37.528-14.556.572-4.168-4.215-1.165Z"/><path fill="#263238" d="M15.734 26.969c0 .095-.01.19-.034.283-.04.21-.086.462-.141.763-.12.644-.285 1.534-.45 2.519-.164.985-.299 1.882-.394 2.531l-.116.768c-.009.096-.029.19-.059.28a1.197 1.197 0 0 1 0-.286c.013-.184.038-.447.074-.774a49.298 49.298 0 0 1 .846-5.048c.071-.321.135-.578.181-.756.02-.096.051-.19.093-.28Z"/><path fill="#FFCCB3" d="M30.14 37.346s-.211 3.864 1.322 4.957c.713.506 3.928.496 3.928.496l-1.531-5.26-3.72-.193Z"/><path fill="#000" d="M30.264 40.109a60.845 60.845 0 0 0 1.546-7.233c-.506.824-1.054 2.67-1.491 3.881-.338.947-.171 1.951-.053 3.268" opacity=".3"/><path fill="#263238" d="M32.215 31.916c-.093.278-.204.55-.33.814a45.712 45.712 0 0 0-1.5 3.957c-.08.283-.178.56-.294.83a.862.862 0 0 1 .04-.235c.034-.147.089-.36.165-.622a25.45 25.45 0 0 1 .669-2.015c.293-.776.599-1.464.843-1.953.118-.245.211-.44.29-.576a.81.81 0 0 1 .117-.2ZM27.104 40.881c-.061.078-.132.15-.21.211a26.93 26.93 0 0 1-.621.534 56.152 56.152 0 0 1-2.11 1.687 57.907 57.907 0 0 1-2.18 1.589c-.283.196-.515.35-.678.455-.081.06-.17.111-.261.152.07-.073.147-.138.232-.194l.654-.49c.552-.421 1.318-.978 2.153-1.617a215.19 215.19 0 0 0 2.129-1.65l.645-.502c.077-.066.16-.125.247-.175Z"/><path fill="#455A64" d="m44.292 26.224-2.727-3.05a.91.91 0 0 0-.422-.268l-2.47-.673a.9.9 0 0 0-.794.165l-2.388 1.898a.902.902 0 0 0-.305.464L33 32.797a.895.895 0 0 0 .633 1.1l7.525 2.046a.89.89 0 0 0 1.096-.633l2.25-8.263a.891.891 0 0 0-.212-.823Zm-1.301 1.013a.662.662 0 0 1-.933-.053l-1.734-1.939a.658.658 0 0 1 .529-1.097.66.66 0 0 1 .454.218l1.734 1.94a.66.66 0 0 1-.05.935v-.004Z"/><path fill="#455A64" d="m41.268 22.06-2.335-.634-.224.822 2.335.635.224-.822Z"/><path fill="#263238" d="m41.688 21.502-2.897-.788a.23.23 0 0 0-.282.162l-.18.659a.23.23 0 0 0 .162.282l2.897.788a.23.23 0 0 0 .282-.161l.18-.66a.23.23 0 0 0-.162-.282Z"/><path fill="#E0E0E0" d="M32.939 32.11a.466.466 0 0 0-.33-.439.337.337 0 0 0 .3-.399.538.538 0 0 0-.289-.476.38.38 0 0 0 .283-.422c-.03-.361-.422-.412-.422-.412s.36-.03.363-.363c.002-.333-.382-.405-.382-.405l.316-.375-.1-1.23a.473.473 0 0 0-.19-.337l-1.15-.844-1.439.12-.21.017-.994 1.031a.475.475 0 0 0-.131.365l.103 1.23.373.317s-.364.135-.307.464a.384.384 0 0 0 .421.297.485.485 0 0 0-.354.475.382.382 0 0 0 .35.377.534.534 0 0 0-.21.515.34.34 0 0 0 .36.346.466.466 0 0 0-.251.487.422.422 0 0 0 .316.422l-.354.456.21 2.601a.758.758 0 0 0 .817.473.685.685 0 0 0 .665-.633s.057.567.584.533h.07c.527-.052.49-.622.49-.622a.685.685 0 0 0 .76.519.76.76 0 0 0 .726-.601l-.21-2.603-.422-.39a.422.422 0 0 0 .238-.494Z"/><path fill="#263238" d="m31.251 25.496-1.637.137a.135.135 0 0 0-.124.145l.053.631c.006.074.071.13.146.123l1.637-.136a.135.135 0 0 0 .124-.146l-.053-.63a.135.135 0 0 0-.146-.124ZM32.456 29.19c-.582.103-1.17.17-1.76.2-.587.068-1.178.1-1.77.093.582-.105 1.17-.176 1.76-.21a14.046 14.046 0 0 1 1.77-.083ZM32.745 28.815c-.674.112-1.352.187-2.034.225a18.75 18.75 0 0 1-2.042.114 19.063 19.063 0 0 1 2.042-.225 19.107 19.107 0 0 1 2.034-.114ZM32.563 29.983c-.578.103-1.162.17-1.748.2-.583.068-1.17.1-1.756.094.578-.107 1.161-.178 1.747-.211.584-.064 1.17-.091 1.757-.083ZM32.629 30.768c-.578.103-1.161.17-1.747.2-.583.068-1.17.098-1.757.091a14.783 14.783 0 0 1 1.747-.2c.583-.066 1.17-.097 1.757-.09ZM32.7 31.643c-.577.104-1.16.17-1.746.2-.583.068-1.169.099-1.755.092.577-.103 1.16-.17 1.746-.2a14.313 14.313 0 0 1 1.755-.091ZM32.775 32.515c-.578.102-1.161.17-1.747.2-.583.066-1.17.097-1.757.09a14.253 14.253 0 0 1 1.748-.21 13.81 13.81 0 0 1 1.756-.08ZM33.122 32.985c-.679.111-1.363.186-2.05.226-.684.076-1.372.115-2.061.116.68-.11 1.364-.186 2.05-.226a19.467 19.467 0 0 1 2.061-.116Z"/><path fill="#E0E0E0" d="M37.611 28.967a.536.536 0 0 0-.34-.534.389.389 0 0 0 .378-.433.634.634 0 0 0-.293-.571.44.44 0 0 0 .36-.468c0-.422-.46-.509-.46-.509s.423 0 .448-.386c.025-.386-.405-.498-.405-.498l.394-.405-.017-1.422a.54.54 0 0 0-.187-.403l-1.253-1.073-1.662.019h-.239l-1.228 1.103a.544.544 0 0 0-.179.407l.017 1.422.405.394s-.422.127-.395.509a.445.445 0 0 0 .456.377.561.561 0 0 0-.447.517.441.441 0 0 0 .371.462.62.62 0 0 0-.28.576.394.394 0 0 0 .388.422.54.54 0 0 0-.33.542.492.492 0 0 0 .33.508L33 30.02l.033 3.008a.875.875 0 0 0 .9.61.79.79 0 0 0 .816-.677s.018.656.632.66h.08c.61-.019.614-.677.614-.677a.79.79 0 0 0 .832.66.875.875 0 0 0 .884-.633l-.036-3.008-.456-.485a.487.487 0 0 0 .312-.51Z"/><path fill="#263238" d="M37.3 25.572a19.24 19.24 0 0 1-2.04.079c-.68.026-1.362.016-2.04-.032a19.16 19.16 0 0 1 2.04-.078c.68-.027 1.36-.016 2.04.031ZM37.673 25.165c0 .032-1.055.068-2.357.082-1.301.015-2.356 0-2.356-.027s1.055-.067 2.354-.082c1.3-.015 2.346-.007 2.359.027ZM37.356 26.484c-.672.062-1.348.088-2.023.078-.675.026-1.352.016-2.027-.032.673-.062 1.35-.088 2.025-.078a19.002 19.002 0 0 1 2.025.032ZM37.367 27.401c-.673.063-1.348.089-2.023.078a19.07 19.07 0 0 1-2.028-.031 18.33 18.33 0 0 1 2.026-.078 18.366 18.366 0 0 1 2.025.031ZM37.38 28.412c-.674.063-1.35.09-2.026.078-.675.027-1.351.016-2.025-.032.673-.062 1.35-.088 2.025-.078a19.056 19.056 0 0 1 2.025.032ZM37.39 29.424c-.673.063-1.348.088-2.023.078a19.03 19.03 0 0 1-2.025-.031c.672-.064 1.348-.09 2.023-.078a18.367 18.367 0 0 1 2.025.031ZM37.75 29.983c0 .032-1.054.068-2.375.083-1.32.014-2.375 0-2.375-.028 0-.027 1.055-.065 2.375-.082s2.376.002 2.376.027Z"/><path fill="#455A64" d="m36.186 21.227-1.829.02a.188.188 0 0 0-.185.19l.007.665a.188.188 0 0 0 .19.186l1.83-.021a.188.188 0 0 0 .185-.19l-.008-.665a.188.188 0 0 0-.19-.185Z"/><path fill="#263238" d="M34.525 22.277a1.243 1.243 0 0 1-.065-.504c-.022-.169-.007-.34.042-.504.059.16.082.332.067.502.021.17.006.343-.044.506ZM34.899 22.246a1.227 1.227 0 0 1-.066-.502 1.176 1.176 0 0 1 .045-.507c.08.331.087.675.02 1.009ZM35.276 22.26a1.242 1.242 0 0 1-.065-.504c-.021-.169-.007-.34.042-.504.06.16.082.332.068.502.02.17.005.343-.045.506ZM35.681 22.241a1.243 1.243 0 0 1-.065-.504 1.16 1.16 0 0 1 .044-.504c.057.161.079.332.066.502.022.17.007.343-.045.506ZM36.057 22.23a1.244 1.244 0 0 1-.066-.503 1.163 1.163 0 0 1 .045-.504c.056.16.079.332.065.502.022.17.007.342-.044.506Z"/><path fill="currentColor" d="m26.925 33.385 16.865-.194a.907.907 0 0 0 .896-.917l-.009-.785a.907.907 0 0 0-.917-.897l-16.865.195a.907.907 0 0 0-.896.917l.009.785a.907.907 0 0 0 .917.896Z"/><path fill="currentColor" d="m43.189 32.92-1.968 17.553a1.006 1.006 0 0 1-.966.89l-10.01.32a1.002 1.002 0 0 1-1.03-.902l-1.763-17.785c-.059-.587.4-1.097.867-1.101l13.744-.091c.723-.004 1.194.519 1.126 1.116Z"/><path fill="#fff" d="M31.857 39.928s-.488.483-.264 1c.279.526.598 1.03.956 1.508a3.97 3.97 0 0 1 .776-1.673l.437.24-.469-1.841-1.77.525.334.24Z"/><path fill="#fff" d="M32.764 42.822a1.012 1.012 0 0 0 .7.47 10.23 10.23 0 0 0 1.582.023l-.019-1.64-1.898.023a2.11 2.11 0 0 0-.365 1.124ZM37.278 37.396s-.15-.669-.707-.755a11.263 11.263 0 0 0-1.784 0c.45.43.793.96 1.002 1.546l-.437.251 1.81.582.498-1.778-.382.154Z"/><path fill="#fff" d="M34.344 36.626a1.014 1.014 0 0 0-.77.342c-.32.42-.608.864-.86 1.329l1.398.856.994-1.624a2.11 2.11 0 0 0-.762-.903ZM37.04 43.3s.666.163.99-.299c.303-.513.565-1.049.784-1.603a3.957 3.957 0 0 1-1.831.21l-.023-.497-1.323 1.363 1.371 1.234.032-.407Z"/><path fill="#fff" d="M39.02 41.012a1.004 1.004 0 0 0 .036-.844 10.238 10.238 0 0 0-.81-1.36l-1.388.88 1.017 1.609a2.11 2.11 0 0 0 1.145-.285Z"/><path fill="#263238" d="M40.78 43.86c-.032 0 .177-2.386.462-5.325.285-2.938.57-5.343.572-5.313.002.029-.178 2.385-.462 5.324-.285 2.938-.542 5.318-.572 5.314Z"/><path fill="#263238" d="M43.431 33.196c0 .032-3.586.095-8.016.144-4.43.048-8.016.063-8.016.033s3.586-.095 8.016-.143c4.43-.049 8.017-.063 8.017-.034Z"/><path fill="#FFCCB3" d="M42.03 44.163s1.446.268 1.087 2.173c0 0 .644 1.688-.2 2.346-.844.658-.447 2.3-1.314 2.76-.458.244-1.32.421-2.032.516a.403.403 0 0 1-.236-.76c.076-.039.154-.073.234-.103l1.055-.477.643-1.605-1.938.253a.668.668 0 0 1-.684-.329c-.114-.21-.099-.485.422-.71.895-.39 2.41-.59 2.41-.59l.244-1.702s-.6.568-.78-.063c-.182-.63 1.09-1.709 1.09-1.709Z"/><path fill="#FF9A6A" d="M42.364 45.064a.591.591 0 0 1-.074.298 1.63 1.63 0 0 1-.422.597 1.08 1.08 0 0 1-.354.21.445.445 0 0 1-.348-.012.323.323 0 0 1-.167-.167c-.02-.052-.015-.084 0-.086.015-.002.04.122.211.181a.394.394 0 0 0 .285-.01 1.1 1.1 0 0 0 .316-.211 2.86 2.86 0 0 0 .553-.8ZM42.96 48.357s-.028.05-.102.116a1.412 1.412 0 0 1-.352.226 5.313 5.313 0 0 1-1.327.32c-.526.085-1 .157-1.346.212a2.904 2.904 0 0 1-.561.052 2.8 2.8 0 0 1 .548-.13c.342-.066.816-.148 1.34-.235a6.532 6.532 0 0 0 1.314-.282c.17-.078.332-.171.485-.279Z"/><path fill="#263238" d="M41.297 22.61a7.845 7.845 0 0 1-1.28-.276 7.845 7.845 0 0 1-1.252-.386c.434.058.861.151 1.279.279.427.093.847.221 1.253.384Z"/><path fill="#E0E0E0" d="M24.511 29.561a.466.466 0 0 0-.21-.506.34.34 0 0 0 .388-.316.537.537 0 0 0-.167-.53.384.384 0 0 0 .378-.35.487.487 0 0 0-.317-.5.384.384 0 0 0 .439-.266c.082-.322-.272-.487-.272-.487l.396-.287.197-1.217a.46.46 0 0 0-.102-.373l-.911-1.104-1.424-.238-.21-.034-1.214.762a.468.468 0 0 0-.21.323l-.197 1.217.287.396s-.388.045-.422.378c-.034.333.333.388.333.388a.487.487 0 0 0-.457.378.382.382 0 0 0 .248.449.537.537 0 0 0-.324.451.339.339 0 0 0 .268.422.468.468 0 0 0-.361.422.421.421 0 0 0 .21.483l-.453.359-.422 2.578a.76.76 0 0 0 .677.654.685.685 0 0 0 .8-.458s-.08.563.439.658h.07c.522.074.632-.487.632-.487a.686.686 0 0 0 .614.687.76.76 0 0 0 .844-.409l.422-2.578-.308-.478a.421.421 0 0 0 .34-.387Z"/><path fill="#263238" d="m24.469 22.725-1.623-.262a.135.135 0 0 0-.154.112l-.101.624a.135.135 0 0 0 .111.155l1.623.262a.135.135 0 0 0 .155-.112l.1-.624a.135.135 0 0 0-.111-.155ZM24.746 26.608a13.907 13.907 0 0 1-1.758-.228 14.578 14.578 0 0 1-1.738-.335c.59.04 1.177.116 1.757.228.586.076 1.166.188 1.739.335ZM25.117 26.309a18.805 18.805 0 0 1-2.03-.273 19.19 19.19 0 0 1-2.01-.38c.68.056 1.358.147 2.03.273.676.09 1.347.217 2.01.38ZM24.661 27.39a14.303 14.303 0 0 1-1.745-.225 14.286 14.286 0 0 1-1.727-.333 13.35 13.35 0 0 1 1.744.226c.583.075 1.16.186 1.728.333ZM24.532 28.176a13.406 13.406 0 0 1-1.742-.226 14.167 14.167 0 0 1-1.728-.334c.586.04 1.169.115 1.745.226.582.075 1.158.187 1.726.334ZM24.393 29.043a13.454 13.454 0 0 1-1.744-.226 14.168 14.168 0 0 1-1.726-.334c.586.04 1.168.116 1.745.226.581.076 1.158.187 1.725.334ZM24.254 29.91a13.355 13.355 0 0 1-1.745-.226 14.094 14.094 0 0 1-1.725-.334c.585.039 1.167.114 1.742.226.583.075 1.16.187 1.728.334ZM24.478 30.448a19.553 19.553 0 0 1-2.045-.275 19.355 19.355 0 0 1-2.027-.384c.686.056 1.368.147 2.044.274.683.092 1.36.22 2.028.385Z"/><path fill="#FFCCB3" d="M21.183 26.608s-1.02.357-1.055.827c-.036.47-1.036 3.477-1.036 3.477l-4.497 2.318-4.135-1.137s-2.055 4.071-2.342 5.293c-.223.947-.244 3.797.983 4.176 1.688.526 4.17-.742 5.54-1.883 1.987-1.656 6.008-5.567 6.567-6.778.363-.807.67-1.637.92-2.485l-.945-3.808Z"/><path fill="#FFCCB3" d="M21.183 26.608s2.508-.59 2.683-.464c.175.127 1.22 1.38 1.215 1.614-.004.234-.314.732-.314.732s.35 1.099-.51 1.477c0 0 .632.464.406 1.018a1.55 1.55 0 0 1-.466.562l-.152-.705-1.303-.422-.68.196-1.054-1.687.175-2.32Z"/><path fill="#FF9A6A" d="M24.172 29.983a.832.832 0 0 0-.13-.35c-.132-.198-.444-.31-.811-.392-.73-.19-1.314-.376-1.304-.422.01-.046.61.082 1.34.27.178.04.35.098.517.173a.806.806 0 0 1 .346.3c.141.246.059.421.042.421Z"/><path fill="#FF9A6A" d="M24.383 29.825a2.022 2.022 0 0 1-.027-.538 1.731 1.731 0 0 0-.036-.548c-.07-.171-.323-.211-.57-.258-.987-.21-1.78-.422-1.772-.47.008-.049.816.108 1.804.327.124.024.246.055.367.093a.475.475 0 0 1 .295.253.768.768 0 0 1 .036.335c0 .093-.015.184-.021.273 0 .18-.026.36-.076.533ZM24.805 28.494c-.02.013-.125-.158-.188-.456a1.598 1.598 0 0 0-.175-.474.57.57 0 0 0-.49-.266c-.909-.021-1.656-.053-1.656-.095s.743-.074 1.671-.05c.122.007.24.04.348.094.101.06.185.145.243.247.085.163.14.34.16.523.028.3.087.466.087.477ZM16.1 32.528a6.654 6.654 0 0 1-.832.455l-2.03 1.055c-.768.422-1.462.787-2.012 1.086-.27.161-.553.302-.844.422.25-.195.515-.37.793-.52a40.738 40.738 0 0 1 1.998-1.125 42.782 42.782 0 0 1 2.052-1.02c.281-.142.574-.261.876-.353Z"/><path fill="#FF6400" d="m116.415 55.58-6.049 7.06-.999-25.463-.999 23.912-6.159-7.994 6.152 10.272v26.416a.502.502 0 0 0 .293.41 1.566 1.566 0 0 0 1.419 0 .495.495 0 0 0 .293-.41V65.292l6.049-9.713Z"/><path fill="#000" d="m116.415 55.58-6.049 7.06-.999-25.463-.999 23.912-6.159-7.994 6.152 10.272v26.416a.502.502 0 0 0 .293.41 1.566 1.566 0 0 0 1.419 0 .495.495 0 0 0 .293-.41V65.292l6.049-9.713Z" opacity=".5"/><path fill="#FF6400" d="M107.952 47.992a4.744 4.744 0 0 0-.95-4.503c-1.998-2.332-5.725-1.293-5.972-.973-.246.32-.183 2.068.736 3.26.92 1.193 3.058 3.188 6.186 2.216Z"/><path fill="#000" d="M101.027 42.516a7.488 7.488 0 0 1 6.921 5.476 4.743 4.743 0 0 0-.946-4.503c-1.985-2.322-5.725-1.293-5.975-.973Z" opacity=".1"/><path fill="#FF6400" d="M110.53 49.287a4.925 4.925 0 0 1 2.295-4.366c2.551-1.609 5.079-.666 5.329-.14s.02.766-.666 1.998c-.686 1.233-1.699 2.925-3.531 3.394-1.519.41-2.621-.2-3.427-.886Z"/><path fill="#000" d="M110.53 49.288a4.926 4.926 0 0 1 2.295-4.367c2.551-1.609 5.079-.666 5.329-.14-1.472-.26-6.332.78-7.624 4.507Z" opacity=".15"/><path fill="#FF6400" d="M110.529 49.288c1.293-3.731 6.152-4.767 7.611-4.514-.236-.54-2.768-1.472-5.329.133a4.93 4.93 0 0 0-2.282 4.38Z"/><path fill="#000" d="M110.529 49.288c1.293-3.731 6.152-4.767 7.611-4.514-.236-.54-2.768-1.472-5.329.133a4.93 4.93 0 0 0-2.282 4.38Z" opacity=".1"/><path fill="#FF6400" d="M108.105 40.637a3.536 3.536 0 0 0-.709-3.47c-1.443-1.61-3.368-1.462-3.638-1.14-.269.324-.333.587-.096 1.576.236.99.693 2.122 1.862 2.805a2.786 2.786 0 0 0 2.581.23Z"/><path fill="#000" d="M108.105 40.637a3.536 3.536 0 0 0-.709-3.47c-1.443-1.61-3.368-1.462-3.638-1.14 1.043.114 4.19 1.786 4.347 4.61Z" opacity=".15"/><path fill="#FF6400" d="M108.105 40.637c-.156-2.824-3.304-4.493-4.36-4.606.27-.333 2.195-.473 3.638 1.136a3.54 3.54 0 0 1 .722 3.47Z"/><path fill="#000" d="M108.105 40.637c-.156-2.824-3.304-4.493-4.36-4.606.27-.333 2.195-.473 3.638 1.136a3.54 3.54 0 0 1 .722 3.47Z" opacity=".1"/><path fill="#FF6400" d="M114.843 56.762a2.106 2.106 0 0 0 .483-2.059c-.377-1.232-1.456-1.635-1.666-1.528-.209.106-.333.233-.449.826a2.478 2.478 0 0 0 .303 1.998 1.663 1.663 0 0 0 1.329.763Z"/><path fill="#000" d="M114.843 56.762a2.106 2.106 0 0 0 .483-2.059c-.377-1.232-1.456-1.635-1.666-1.528.527.326 1.809 2.022 1.183 3.587Z" opacity=".15"/><path fill="#FF6400" d="M114.843 56.762c.626-1.566-.666-3.261-1.199-3.587.227-.11 1.306.296 1.665 1.528a2.107 2.107 0 0 1-.466 2.059Z"/><path fill="#000" d="M114.843 56.762c.626-1.566-.666-3.261-1.199-3.587.227-.11 1.306.296 1.665 1.528a2.107 2.107 0 0 1-.466 2.059Z" opacity=".1"/><path fill="#FF6400" d="M110.317 42.703s-.25-2.172 1.139-3.514c1.389-1.343 3.304-1.689 3.76-1.366.456.323.5 2.588-.846 3.944-1.665 1.678-3.704 1.409-4.053.936Z"/><path fill="#000" d="M110.316 42.7c1.523-3.019 4.9-4.877 4.9-4.877-.456-.333-2.331 0-3.76 1.369-1.353 1.306-1.15 3.397-1.14 3.507Z" opacity=".1"/><path fill="#FF6400" d="M109.274 36.28s-1.059-.965-.953-2.224c.107-1.26.906-2.262 1.273-2.298.366-.037 1.362 1.065 1.279 2.331-.1 1.529-1.223 2.278-1.599 2.192Z"/><path fill="#000" d="M109.271 36.28c-.547-2.148.333-4.523.333-4.523-.367.037-1.163 1-1.273 2.299-.116 1.229.89 2.178.94 2.225Z" opacity=".1"/><path fill="#FF6400" d="M115.806 57.664s.779-1.205 2.038-1.305c1.259-.1 2.382.52 2.478.872.097.353-.826 1.52-2.071 1.646-1.529.156-2.465-.826-2.445-1.213Z"/><path fill="#000" d="M115.809 57.664c2.028-.899 4.513-.433 4.513-.433-.097-.353-1.193-.979-2.478-.872-1.229.096-1.999 1.249-2.035 1.305Z" opacity=".1"/><path fill="#FF6400" d="M116.772 54.913s-.283-1.289.466-2.181c.749-.893 1.882-1.223 2.175-1.056.293.166.463 1.525-.263 2.421-.896 1.116-2.138 1.083-2.378.816Z"/><path fill="#000" d="M116.772 54.913c.729-1.908 2.641-3.234 2.641-3.234-.293-.166-1.409.147-2.175 1.056-.766.91-.48 2.118-.466 2.178Z" opacity=".1"/><path fill="#FF6400" d="M103.648 54.067a2.113 2.113 0 0 1-.639-2.015c.276-1.259 1.332-1.745 1.555-1.665.224.08.334.206.513.79a2.444 2.444 0 0 1-.146 1.998 1.676 1.676 0 0 1-1.283.892Z"/><path fill="#000" d="M103.648 54.067a2.113 2.113 0 0 1-.639-2.015c.276-1.259 1.332-1.745 1.555-1.665-.499.376-1.658 2.165-.916 3.68Z" opacity=".15"/><path fill="#FF6400" d="M103.648 54.067c-.743-1.515.403-3.304.919-3.664-.236-.09-1.282.397-1.558 1.666a2.113 2.113 0 0 0 .639 1.998Z"/><path fill="#000" d="M103.648 54.067c-.743-1.515.403-3.304.919-3.664-.236-.09-1.282.397-1.558 1.666a2.113 2.113 0 0 0 .639 1.998Z" opacity=".1"/><path fill="#FF6400" d="M102.732 54.8s-.779-1.203-2.042-1.306c-1.262-.103-2.378.52-2.474.873-.097.353.826 1.519 2.071 1.645 1.556.16 2.478-.826 2.445-1.212Z"/><path fill="#000" d="M102.732 54.8c-2.028-.896-4.513-.433-4.513-.433.096-.353 1.192-.98 2.478-.873 1.239.087 2.008 1.25 2.035 1.306Z" opacity=".1"/><path fill="#FF6400" d="M101.82 52.369s.283-1.29-.467-2.182c-.749-.893-1.882-1.22-2.175-1.053-.293.167-.46 1.523.263 2.419.896 1.112 2.139 1.079 2.379.816Z"/><path fill="#000" d="M101.82 52.368c-.73-1.911-2.642-3.237-2.642-3.237.294-.163 1.413.147 2.175 1.056.763.91.48 2.118.467 2.181Z" opacity=".1"/><path fill="#B16668" d="M100.501 88.987a1.24 1.24 0 0 1 .399-.04.816.816 0 0 1 .733.503 3.537 3.537 0 0 1 2.458-1.522 1.413 1.413 0 0 1 .915-1.155 1.416 1.416 0 0 1 1.447.28 3.536 3.536 0 0 1 4.861-.835c.503.344.909.813 1.177 1.36a.861.861 0 0 1 1.12-.46c.139.057.26.15.353.267.122.16.186.356.18.556.273-.065.554-.099.836-.1a3.53 3.53 0 0 1 2.811 1.38.858.858 0 0 1 .283-.404 1.017 1.017 0 0 1 .999-.08 1.085 1.085 0 0 1 .57.643 1.148 1.148 0 0 1-.21.97 1.224 1.224 0 0 1-1.116.333 2.64 2.64 0 0 1-3.611 1.488 1.378 1.378 0 0 1-1.472.573 1.381 1.381 0 0 1-.503-.24 1.99 1.99 0 0 1-1.508 1.203 2 2 0 0 1-1.822-.633 2.163 2.163 0 0 1-3.704-.453 2 2 0 0 1-3.181-1.096 1.258 1.258 0 0 1-1.494-.073 1.244 1.244 0 0 1-.328-.416 1.055 1.055 0 0 1-.72-1.776 1.04 1.04 0 0 1 .527-.273Z"/><path fill="#9A4A4D" d="M112.148 89.434a.94.94 0 0 1 1.216-.27 1.36 1.36 0 0 1 1.271-.466 1.353 1.353 0 0 1 1.041.866 1.352 1.352 0 0 0-2.185-.047l-.064-.05a.94.94 0 0 0-1.315.223.918.918 0 0 0-.143.293.92.92 0 0 1 .179-.55ZM107.782 88.554a.878.878 0 0 0-1.13-.253 1.253 1.253 0 0 0-1.179-.43 1.254 1.254 0 0 0-.966.803 1.258 1.258 0 0 1 2.029-.043l.057-.047a.872.872 0 0 1 1.355.466.868.868 0 0 0-.166-.496ZM110.593 91.066a.868.868 0 0 0-1.129-.253 1.255 1.255 0 0 0-2.145.373 1.248 1.248 0 0 1 .912-.531 1.26 1.26 0 0 1 1.116.484l.057-.043a.871.871 0 0 1 1.355.466.838.838 0 0 0-.166-.496Z"/><path fill="#FFCCB3" d="M73.174 83.81c.033-1.098.29-12.386.29-12.386l-5.221 4.24c1.099 6.403 1.487 8.114 1.557 9.184a.96.96 0 0 0-.019.278c.063 1.271 1.532 1.894 2.693 2.693.986.7 2.032 1.313 3.125 1.831.832.367 2.488.334 2.67-.197-1.413-.982-3.044-2.048-4.183-3.188-.557-.538-.953-1.113-.912-2.454Z"/><path fill="#263238" d="M80.647 90.713a1.098 1.098 0 0 1-.153 1.099 4.685 4.685 0 0 1-3.393.938c-1.71-.143-2.656-.627-3.363-1.165-.707-.539-1.7-1.3-2.477-1.433a4.714 4.714 0 0 1-1.754-.626c-.239-.209-.25-1.194-.25-1.194l11.39 2.38Z"/><path fill="currentColor" d="M69.763 84.536a.279.279 0 0 0-.249.242c-.04.275-.059 1.066-.154 1.513a8.06 8.06 0 0 0-.055 2.396c.117.498 1.297.795 2.055 1.044a9.593 9.593 0 0 1 2.484 1.414 7 7 0 0 0 3.664 1.173c1.696-.052 2.77-.56 3.08-1.184.386-.773.038-1.194-1.948-2.007-.367-.154-1.707-.861-2.158-1.1-1.227-.695-2.458-1.688-3.066-2.989a.733.733 0 0 0-.3-.396.612.612 0 0 0-.367 0c-.322.06-.634.169-.923.323-.253.139-.62.3-.597.634.012.116.042.23.087.337.03.066.052.157 0 .201-.05.044-.132 0-.183-.044a4.815 4.815 0 0 1-.553-.604 2.075 2.075 0 0 0-.322-.3 3.527 3.527 0 0 1-.345-.202c-.16-.136-.139-.293-.15-.45Z"/><path fill="#000" d="M69.763 84.536a.279.279 0 0 0-.249.242c-.04.275-.059 1.066-.154 1.513a8.06 8.06 0 0 0-.055 2.396c.117.498 1.297.795 2.055 1.044a9.593 9.593 0 0 1 2.484 1.414 7 7 0 0 0 3.664 1.173c1.696-.052 2.77-.56 3.08-1.184.386-.773.038-1.194-1.948-2.007-.367-.154-1.707-.861-2.158-1.1-1.227-.695-2.458-1.688-3.066-2.989a.733.733 0 0 0-.3-.396.612.612 0 0 0-.367 0c-.322.06-.634.169-.923.323-.253.139-.62.3-.597.634.012.116.042.23.087.337.03.066.052.157 0 .201-.05.044-.132 0-.183-.044a4.815 4.815 0 0 1-.553-.604 2.075 2.075 0 0 0-.322-.3 3.527 3.527 0 0 1-.345-.202c-.16-.136-.139-.293-.15-.45Z" opacity=".5"/><path fill="#FAFAFA" d="M78.944 89.248c-2.444.278-3.147 1.831-3.206 2.77a5.711 5.711 0 0 0 1.755.285c1.697-.051 2.84-.564 3.151-1.187.363-.715.055-1.275-1.7-1.868Z"/><path fill="#F0F0F0" d="M75.273 89.453a.094.094 0 0 1-.077-.022.119.119 0 0 1-.049-.08.116.116 0 0 1 .023-.089 2.888 2.888 0 0 1 2.229-.972.12.12 0 0 1-.052.236 2.683 2.683 0 0 0-1.971.879.114.114 0 0 1-.103.048ZM74.189 88.881a.121.121 0 0 1-.103-.19 2.87 2.87 0 0 1 2.176-.978.12.12 0 0 1 .084.04.121.121 0 0 1-.098.201 2.675 2.675 0 0 0-1.971.88.126.126 0 0 1-.088.047ZM73.177 88.229a.117.117 0 0 1-.124-.1.121.121 0 0 1 .022-.09 2.886 2.886 0 0 1 2.228-.973.12.12 0 0 1-.052.236 2.655 2.655 0 0 0-1.967.88.113.113 0 0 1-.107.047ZM72.188 87.57a.099.099 0 0 1-.077-.022.113.113 0 0 1-.025-.165 2.93 2.93 0 0 1 2.377-.997.116.116 0 0 1 .108.079.12.12 0 0 1-.075.153.122.122 0 0 1-.047.006 2.714 2.714 0 0 0-2.17.898.121.121 0 0 1-.09.048Z"/><path fill="#FFCCB3" d="m61.989 75.835-5.433-.758c-.154 3.609.366 7.91.227 11.295-.022.637-.337 4.942-.183 6.268.23 1.99 2.564 1.876 2.784.707.22-1.169.253-6.228.297-6.734.12-2.168 1.282-5.759 2.07-9.616.037-.187.201-.979.238-1.162Z"/><path fill="#263238" d="M60.209 94.223c-.026 1.157-.18 1.934-.564 2.626a1.704 1.704 0 0 1-1.946.759c-.791-.169-1.831-.667-2.073-1.656a6.367 6.367 0 0 1-.1-2.755l4.683 1.026Z"/><path fill="currentColor" d="M56.798 85.95c-.323.037-.367 1.594-.495 3.155-.143 1.674-.615 2.38-.732 3.751-.147 1.568-.04 2.264.538 3.187.579.924 2.564 1.784 3.455.4.733-1.129.733-2.352.604-3.91a39.286 39.286 0 0 1-.212-3.963c.022-1.173.066-2.308-.22-2.43-.018.173-.03.393-.048.561-.018.169-.022.766-.201.777a2.524 2.524 0 0 1-.037-.429.527.527 0 0 0-.099-.366.62.62 0 0 0-.366-.15 9.433 9.433 0 0 0-.967-.114h-.484a1.268 1.268 0 0 0-.407.074.29.29 0 0 0-.168.164.488.488 0 0 0 0 .18c.003.108-.007.216-.03.322 0 .044-.04.103-.087.092-.048-.011-.055-.051-.055-.092V86.273c0-.103.007-.216.01-.323Z"/><path fill="#000" d="M56.798 85.95c-.323.037-.367 1.594-.495 3.155-.143 1.674-.615 2.38-.732 3.751-.147 1.568-.04 2.264.538 3.187.579.924 2.564 1.784 3.455.4.733-1.129.733-2.352.604-3.91a39.286 39.286 0 0 1-.212-3.963c.022-1.173.066-2.308-.22-2.43-.018.173-.03.393-.048.561-.018.169-.022.766-.201.777a2.524 2.524 0 0 1-.037-.429.527.527 0 0 0-.099-.366.62.62 0 0 0-.366-.15 9.433 9.433 0 0 0-.967-.114h-.484a1.268 1.268 0 0 0-.407.074.29.29 0 0 0-.168.164.488.488 0 0 0 0 .18c.003.108-.007.216-.03.322 0 .044-.04.103-.087.092-.048-.011-.055-.051-.055-.092V86.273c0-.103.007-.216.01-.323Z" opacity=".5"/><path fill="#FAFAFA" d="M55.498 93.772c-.023.97.058 1.634.512 2.36.58.923 2.704 1.78 3.613.391.4-.699.603-1.494.586-2.3-.608-1.022-3.84-1.37-4.712-.451Z"/><path fill="#F0F0F0" d="M59.322 92.545h-.04a4.712 4.712 0 0 0-2.8-.19.124.124 0 0 1-.146-.085.12.12 0 0 1 .088-.147 4.873 4.873 0 0 1 2.953.202.116.116 0 0 1 .073.112.117.117 0 0 1-.01.045.128.128 0 0 1-.118.063ZM56.52 91.19a.12.12 0 0 1-.1-.183.121.121 0 0 1 .063-.052 4.122 4.122 0 0 1 2.93.176.117.117 0 0 1 .06.16.125.125 0 0 1-.162.056s-1.429-.67-2.759-.165l-.033.007ZM56.567 90.087a.114.114 0 0 1-.103-.074.121.121 0 0 1 .066-.157 3.711 3.711 0 0 1 3.008.165.12.12 0 1 1-.117.208 3.535 3.535 0 0 0-2.803-.15.084.084 0 0 1-.051.008Z"/><path fill="#EBEBEB" d="M56.622 88.852a.121.121 0 0 1-.037-.231c1.466-.612 2.968.161 3.03.198a.122.122 0 0 1 .057.07.119.119 0 0 1-.17.139s-1.466-.751-2.825-.184a.143.143 0 0 1-.055.008Z"/><path fill="currentColor" d="M58.996 39.592c-.949 2.4-2.004 4.092-1.982 8.554.048 9.478.392 16.314.392 16.314-.033.835-.414 2.074-.831 6.397-.349 3.623-.052 9.158-.052 9.158s2.458 1.187 4.66.198c.784-3.106 2.085-11.207 2.931-15.365.733-3.773 1.429-9.283 1.429-9.283l1.736 9.225s-.135 3.722.066 5.905c.231 2.543 1.667 9.643 1.667 9.643s2.513.996 4.397-.495c0 0 .494-12.844.41-15.91-.172-6.016-.304-18.685-1.572-24.957l-13.25.616Z"/><path fill="#000" d="M58.996 39.592c-.949 2.4-2.004 4.092-1.982 8.554.048 9.478.392 16.314.392 16.314-.033.835-.414 2.074-.831 6.397-.349 3.623-.052 9.158-.052 9.158s2.458 1.187 4.66.198c.784-3.106 2.085-11.207 2.931-15.365.733-3.773 1.429-9.283 1.429-9.283l1.736 9.225s-.135 3.722.066 5.905c.231 2.543 1.667 9.643 1.667 9.643s2.513.996 4.397-.495c0 0 .494-12.844.41-15.91-.172-6.016-.304-18.685-1.572-24.957l-13.25.616Z" opacity=".3"/><path fill="#455A64" d="M56.377 79.129c.93.538 3.828.813 5.052.307l-.3 1.466s-.547.414-2.258.366c-1.71-.047-2.4-.732-2.4-.732l-.094-1.407ZM68.694 79.107c.992.414 3.663.322 4.82-.337l-.105 1.495s-.367.571-2.089.663c-1.721.091-2.348-.414-2.348-.414l-.278-1.407Z"/><path fill="#000" d="m65.524 55.572.799-6.726s3.975-.612 5.378-2.06c0 0-1.74 2.65-4.436 3.166l-.942 5.59.923 9.16-1.722-9.13Z" opacity=".15"/><path fill="currentColor" d="M65.971 15.61c-3.062 1.194-6.345.121-7.327-2.4-.982-2.52.707-5.528 3.77-6.722 3.063-1.194 6.345-.121 7.327 2.4.982 2.52-.703 5.52-3.77 6.722Z"/><path fill="#fff" d="M65.971 15.61c-3.062 1.194-6.345.121-7.327-2.4-.982-2.52.707-5.528 3.77-6.722 3.063-1.194 6.345-.121 7.327 2.4.982 2.52-.703 5.52-3.77 6.722Z" opacity=".6"/><path fill="currentColor" d="M63 8.451c5.496-2.436 11.156-1.666 12.654 1.715 1.498 3.381-1.736 8.096-7.224 10.53-5.489 2.432-11.156 1.662-12.654-1.72-1.499-3.38 1.736-8.092 7.224-10.525Z"/><path fill="#59331F" d="M59.227 16.127c.073-.085 0 2.766-.367 4.312-.29 1.278-1.465 4.246-1.996 6.818-.48 2.38-2.565 8.887 2.564 11.247H69.87s.473-14.61-1.04-18.6c-1.513-3.99-1.213-4.697-1.213-4.697l-8.39.92Z"/><path fill="#FFCCB3" d="M68.755 22.204c1.502-.066 2.84.242 3.741 1.378 1.418 1.777 4.147 6.316 5.722 9.1l6.57 2.011-1.001 3.371s-4.634-.71-6.162-1.015c-2.33-.465-2.506-.234-3.403-1.535-.773-1.117-2.931-4.33-2.931-4.33l-2.535-8.98Z"/><path fill="#263238" d="m97.247 68.684.652.366 1.546 8.591c.462 2.565.107 4.496-.575 7.108l-.733 2.85c-.26 1-.772 1.62-1.282 1.62-.66 0-1.37-.301-2.564-1.078-1.195-.776-2.085-1.597-2.85-4.73a46.16 46.16 0 0 1-1.1-8.349l6.906-6.378Z"/><path fill="#455A64" d="m97.247 68.684.652.377L91 75.447l-.648-.374 6.895-6.389Z"/><path fill="#37474F" d="M99.203 84.434a26.716 26.716 0 0 1-.967 3.187c-.432 1.147-.883 1.608-1.392 1.608a1.166 1.166 0 0 1-.531-.132 5.8 5.8 0 0 1-1.41-.85c-1.287-.978-1.972-1.795-2.631-4.242C91.3 80.411 91 75.447 91 75.447L97.9 69.06l1.546 8.591c.462 2.558.363 4.063-.242 6.782Z"/><path fill="#263238" d="m95.104 71.662-1.308 1.213c.055 1.898.949 7.02 1.337 7.818.389.799.81.367.733-.366-.077-.733-.88-6.466-.762-8.665Z"/><path fill="currentColor" d="m90.341 45.212-1.304 1.209 4.762 26.44c.162.666 1.565.205 1.308-1.213l-4.766-26.436Z"/><path fill="#000" d="m90.341 45.212-1.304 1.209 4.762 26.44c.162.666 1.565.205 1.308-1.213l-4.766-26.436Z" opacity=".3"/><path fill="#455A64" d="M91.1 49.234c.234 1.29-1.246 1.96-1.37 1.271l-.734-4.165 1.37-1.268.733 4.162Z"/><path fill="#37474F" d="M90.905 39.273c.264 1.561.196 3.16-.201 4.693l-.491 1.887c-.176.666-.553 1.018-.883.82l-.938-.568c-.733-.45-1.326-1.553-1.59-3.026l-.428-2.38a1.494 1.494 0 0 1-.026-.29c-.01-.29.058-.576.194-.832a9.56 9.56 0 0 1 1.649-2.084 5.106 5.106 0 0 1 1.831-1.133c.154-.05.3.063.396.286.032.08.056.164.07.25l.417 2.377Zm-2.315 5.821.934.557c.088.055.187-.04.235-.212l.49-1.89a9.2 9.2 0 0 0 .166-3.825l-.239-1.32c-1.146.367-2.198 1.323-3.12 2.891l.237 1.32c.216 1.204.689 2.11 1.297 2.48Z"/><path fill="#FFCCB3" d="M84.787 34.708c1.513.513 2.894.44 3.693.901.476.271 1.645 2.158 1.55 2.682-.147.806-.22 1.19-.93 1.876-.712.685-.99 1.143-1.305 1.256a1.1 1.1 0 0 1-.733-.12l.733-1.1s.275-1.241-.733-1.42l-.513.78a2.67 2.67 0 0 0-.113 1.417.707.707 0 0 1-.927-.319c-.4-.6-.733-1.776-1.03-2.172-.296-.396-1.465-.546-1.465-.546l1.773-3.235Z"/><path fill="#EBEBEB" d="M68.829 22.128c1.04 0 2.319-.1 3.429 1.055 1.11 1.154 1.788 2.403 2.649 3.777a63.43 63.43 0 0 1 1.806 3.14s-.861 2.146-3.836 3.454l-3.902-5.47-.146-5.956Z"/><path fill="#B16668" d="M78.218 32.697c-.758.168-1.978.853-2.15 1.615 0 0-.03-1.252 1.875-2.102l.275.487Z"/><path fill="#F5F5F5" d="M71.866 32.349c-.07 1.579 1.011 10.001 1.011 10.001-4.132 2.543-13.31 2.37-14.779-1.073.422-1.19 1.572-3.663 1.466-4.763L58.53 30.17a13.13 13.13 0 0 0 1.465-7.5l3.535-.53 3.396-.059 1.898.048c.733.637 1.916 2.29 3.023 4.169 1.352 2.293 1.38 4.466.018 6.052Z"/><path fill="currentColor" d="M68.147 31.675c-.956-1.576-3.498-.894-2.656 1.271.792 2.022 3.268 3.103 3.268 3.103s1.726-1.4 1.971-3.1c.33-2.267-1.949-3.19-2.583-1.274Z"/><path fill="#59331F" d="M62.71 20.24c-.46-.52-1.212-.904-2.304-2.084-1.513-1.637-2.443-5.184-.168-7.327 1.51-2.198 5.092-3.165 7.418-2.755 3.734.652 4.397 4.07 3.525 5.323l-8.47 6.844Z"/><path fill="#FFCCB3" d="M59.977 15.244a.964.964 0 0 1 1.55-.055c.143.18.238.395.366.582a.733.733 0 0 0 .576.334.532.532 0 0 0 .443-.253c.077-.21.114-.432.11-.656.315-3.121 1.117-3.803 3.297-3.268.978-.916 1.546-1.099 2.696-1.011 1.257.099 2.26.623 2.26 4.239 0 3.198-1.098 4.722-1.622 5.03-.524.308-1.206.4-2.275.337l.084 1.832a2.311 2.311 0 0 1-.055 2.681 6.272 6.272 0 0 1-2.495-.542c-2.154-.949-2.077-1.949-2.077-1.949l-.279-4.84s-.666 1.03-1.813.224c-.927-.667-1.366-1.916-.766-2.685Z"/><path fill="#263238" d="M66.506 14.797a.484.484 0 0 1-.403.542.457.457 0 0 1-.535-.366.484.484 0 0 1 .403-.543.457.457 0 0 1 .535.367ZM70.503 13.47l-1.033-.45a.538.538 0 0 1 .733-.304.594.594 0 0 1 .3.755ZM66.213 13.188l-.974.59a.542.542 0 0 1 .183-.765.594.594 0 0 1 .791.175Z"/><path fill="#9A4A4D" d="m66.506 17.522 1.865.532a.974.974 0 0 1-1.29.637.912.912 0 0 1-.575-1.169Z"/><path fill="#FFA8A7" d="M67.616 18.728a1.022 1.022 0 0 0-1.051-.872h-.095a.858.858 0 0 0 .611.82c.172.06.355.078.535.052Z"/><path fill="#263238" d="M70.33 14.672a.469.469 0 0 1-.723.453.442.442 0 0 1-.181-.292.477.477 0 0 1 .564-.525.439.439 0 0 1 .34.364Z"/><path fill="#B16668" d="m67.712 14.218.606.94.709 1.522a4.763 4.763 0 0 0-1.316-2.462ZM67.389 20.534c-1.132-.117-3.543-.608-3.997-1.465.194.496.534.923.974 1.223.733.51 3.052.89 3.052.89l-.03-.648Z"/><path fill="currentColor" d="M70.752 9.873c-5.004-1.682-11.701 3.872-11.5 6.7-1.117-1.227-.106-5.128-.106-5.128 1.282-1.975 5.54-3.997 8.66-4.005 1.37.524 2.532 1.37 2.946 2.433Z"/><path fill="#FFCCB3" d="M61.362 43.087a7.01 7.01 0 0 1-1.938-1.162c.419.05.842.05 1.26 0a.762.762 0 0 0 .686-.773c-.022-.16-.422-.077-1.06-.278-.812-.253-1.329-.542-2.252-.593a1.524 1.524 0 0 1-.872-.517c-.235-.216-1.41-2.275-2.455-4.495l4.14-5.005c1.927-1.637 2.565-5.107 1.128-7.594-3.542.49-2.93.875-9.386 10.77-1.099 1.726-1.066 2.54 3.023 7.599a35.538 35.538 0 0 0 2.791 3.092c2.36 2.198 3.976 1.791 5.056 1.403 2.081-.751 1.488-1.788-.12-2.447Z"/><path fill="#EBEBEB" d="M60.271 22.63c-1.077 0-2.378.285-2.978.773-.601.487-1.323 1.392-2.74 3.62-1.418 2.227-2.133 3.241-2.133 3.241a5.386 5.386 0 0 0 3.803 3.415l3.898-4.594s2.176-3.352.15-6.456Z"/><path fill="currentColor" d="m146.499 89.461-.145 7.343 9.136.228c-.032-.874-4.708-2.744-4.708-2.744l.287-4.708-4.57-.119Z"/><path fill="#fff" d="M147.96 93.822a.372.372 0 0 0-.268.41.359.359 0 0 0 .409.27.39.39 0 0 0 .283-.447.373.373 0 0 0-.461-.233M146.353 96.804l.043-.739 8.743.488s.41.188.351.472l-9.137-.22Z" opacity=".6"/><path fill="#263238" d="M150.925 94.245c0 .045-.227.06-.45.205s-.344.324-.385.305c-.041-.018.033-.274.305-.438.272-.164.54-.112.53-.072ZM151.872 94.665c0 .043-.186.115-.341.299-.156.184-.205.385-.25.38-.045-.003-.068-.255.133-.48.2-.226.458-.242.458-.199ZM152.388 95.826c-.041 0-.098-.215.023-.457.121-.241.331-.333.35-.296.018.036-.115.165-.205.364-.09.198-.125.385-.168.389ZM150.869 93.167c-.018.04-.221-.027-.475-.017-.254.01-.45.086-.473.047-.022-.039.17-.192.469-.204.299-.013.502.139.479.174ZM150.687 92.078a.858.858 0 0 1-.456-.015 2.048 2.048 0 0 1-.735-.305.51.51 0 0 1-.135-.11.187.187 0 0 1-.048-.117.188.188 0 0 1 .034-.12.246.246 0 0 1 .204-.098c.058 0 .115.01.17.028.097.025.192.06.283.104.15.075.288.172.409.289.205.204.274.368.26.376-.014.008-.121-.127-.334-.294a1.741 1.741 0 0 0-.409-.24 1.682 1.682 0 0 0-.26-.088c-.096-.029-.18-.03-.205.012-.024.043 0 .023 0 .052.03.031.064.059.101.081a2.446 2.446 0 0 0 .675.323c.152.03.301.07.446.122Z"/><path fill="#263238" d="M150.62 92.139a.717.717 0 0 1-.109-.444c-.006-.272.065-.54.205-.774a.377.377 0 0 1 .297-.223.216.216 0 0 1 .188.13.988.988 0 0 1 .043.477c-.028.172-.099.333-.205.47-.184.23-.372.28-.374.266-.002-.015.143-.107.284-.33a1.07 1.07 0 0 0 .156-.426.988.988 0 0 0 0-.266c-.012-.096-.047-.176-.082-.166a.335.335 0 0 0-.164.146c-.048.078-.088.16-.121.245a1.67 1.67 0 0 0-.1.453c-.037.268.006.436-.018.442Z"/><path fill="currentColor" d="m139.052 89.316-.145 7.343 9.134.23c-.031-.875-4.709-2.746-4.709-2.746l.287-4.708-4.567-.119Z"/><path fill="#fff" d="M140.513 93.687a.382.382 0 0 0-.208.156.383.383 0 0 0-.058.253.358.358 0 0 0 .409.27.39.39 0 0 0 .283-.444.37.37 0 0 0-.461-.233M138.906 96.659l.043-.739 8.743.495s.41.187.349.473l-9.135-.229Z" opacity=".6"/><path fill="#263238" d="M143.477 94.096c0 .045-.227.06-.45.205s-.344.321-.385.303c-.041-.019.033-.275.305-.436.273-.162.541-.109.53-.072ZM144.425 94.522c0 .043-.186.114-.342.299-.155.184-.205.383-.25.38-.045-.002-.067-.255.131-.483.199-.227.461-.24.461-.196ZM144.941 95.68c-.041.01-.098-.215.022-.456.121-.242.332-.334.35-.297.019.037-.114.166-.204.367-.09.2-.125.384-.168.386ZM143.422 93.021c-.018.041-.221-.024-.475-.014s-.45.086-.473.047c-.022-.039.17-.205.469-.205.299 0 .504.14.479.172ZM143.232 91.932a.845.845 0 0 1-.457-.012 2.103 2.103 0 0 1-.735-.305.587.587 0 0 1-.135-.113.199.199 0 0 1-.048-.116.187.187 0 0 1 .034-.121.244.244 0 0 1 .205-.096c.057.001.114.01.169.026a1.59 1.59 0 0 1 .692.393c.205.205.275.37.26.379-.014.008-.12-.129-.333-.297a1.819 1.819 0 0 0-.67-.327c-.096-.027-.18-.031-.204.012-.025.043 0 .022 0 .051.029.032.063.06.1.082a2.647 2.647 0 0 0 .675.326c.152.028.301.068.447.118Z"/><path fill="#263238" d="M143.173 91.996a.717.717 0 0 1-.109-.444 1.45 1.45 0 0 1 .205-.776.377.377 0 0 1 .297-.224c.041.001.081.014.114.038a.2.2 0 0 1 .074.096c.022.053.036.11.043.167.014.103.014.207 0 .31-.029.17-.099.33-.205.466-.184.234-.372.28-.376.266-.005-.014.143-.104.286-.33.082-.128.135-.274.156-.425a.973.973 0 0 0 0-.264c-.013-.098-.047-.178-.084-.168a.345.345 0 0 0-.164.145c-.046.079-.086.161-.119.246a1.685 1.685 0 0 0-.1.454c-.037.269.006.437-.018.443Z"/><path fill="#263238" d="M155.396 53.373c.088 0-.41 9.212-.795 11.482-.591 3.57-2.56 27.996-2.56 27.996h-5.986l-.123-33.982-1.087 13.081-.41 20.971-5.85-.156-.614-22.246c.184-1.66-.314-16.93-.314-16.93l17.739-.216ZM152.687 18.995c.706-.327 1.149-1.05 1.409-1.783.26-.732.378-1.52.667-2.235.205-.538-.02-1.396.463-1.718.604-.399.597-1.463.364-1.994-.254-.577-.944-1.007-.991-1.189-.123-.48.295-1 .139-1.472-.364-1.107-1.267-.962-1.267-.962-.409-.497-.966-1.156-1.869-1.39-.976-.252-2.419-.44-3.289.072-.87.512-1.511.856-1.792 1.826"/><path fill="#CE947A" d="m144.638 21.382 2.047 3.517 2.829 2.825 1.66-2.28v-4.225s2.557-.353 2.633-2.903c.037-1.229-.094-3.775-.242-6.074a4.754 4.754 0 0 0-4.663-4.455h-.246c-2.661.111-4.049 2.428-3.865 5.081l-.168 8.519"/><path fill="#263238" d="M152.832 14.13a.37.37 0 0 1-.358.362.35.35 0 0 1-.371-.336.37.37 0 0 1 .359-.362.352.352 0 0 1 .338.201c.019.042.03.088.032.135ZM153.052 13.345c-.047.047-.32-.161-.711-.167-.391-.007-.683.186-.724.137-.041-.05.026-.107.153-.205a.962.962 0 0 1 1.145.035c.118.09.159.18.137.2ZM149.15 14.041a.364.364 0 0 1-.356.363.352.352 0 0 1-.338-.202.347.347 0 0 1-.032-.134.368.368 0 0 1 .358-.362.344.344 0 0 1 .336.201.33.33 0 0 1 .032.134ZM149.146 13.17c-.041.05-.334-.128-.725-.09-.391.036-.657.257-.704.204-.047-.053.014-.11.131-.205a.99.99 0 0 1 .559-.231.96.96 0 0 1 .583.131c.127.084.176.166.156.19ZM150.53 16.418c.207-.06.422-.096.638-.104.101 0 .195-.027.205-.094a.535.535 0 0 0-.061-.3l-.285-.765c-.391-1.093-.673-1.99-.63-2.006.043-.016.399.858.792 1.95l.27.77a.593.593 0 0 1 .047.396.248.248 0 0 1-.168.143.67.67 0 0 1-.17.02c-.212.024-.427.02-.638-.01ZM149.371 16.67c.063 0 .057.424.409.73.352.308.819.271.819.33 0 .027-.102.08-.293.082-.249 0-.491-.088-.681-.25a.927.927 0 0 1-.322-.614c-.012-.176.039-.282.068-.278ZM149.121 11.878c-.033.108-.426.083-.882.17-.457.085-.819.237-.885.145-.03-.043.027-.147.17-.262.191-.141.412-.235.645-.274.233-.045.473-.033.7.034.18.058.264.135.252.187ZM152.886 12.342c-.07.088-.34 0-.664-.018-.323-.019-.601.049-.663-.045-.026-.045.019-.135.139-.217a.96.96 0 0 1 1.069.051c.115.098.149.186.119.23ZM146.712 7.968a1.925 1.925 0 0 0 .692 1.487 1.926 1.926 0 0 0 1.586.418c.432-.077.905-.296 1.278-.065.372.231.409.833.757 1.136.498.432 1.29.027 1.922.205.488.145.793.614 1.116 1.003.324.389.819.766 1.298.614a5.787 5.787 0 0 0-.192-1.302 1.937 1.937 0 0 0-.742-1.062 7.16 7.16 0 0 1-.614-.363c-.409-.327-.499-.896-.749-1.353a2.125 2.125 0 0 0-1.613-1.068c-.557-.058-1.128.108-1.67-.027-.4-.102-.75-.362-1.155-.438-.79-.152-1.523.41-2.096.98"/><path fill="#263238" d="M149.238 9.091c-.354-.102-1.079-.331-1.267-.638-.41-.668-1.14-1.122-1.884-1.081a1.784 1.784 0 0 0-1.606 1.41 2.571 2.571 0 0 0-2.207 1.421 2.979 2.979 0 0 0 .08 2.77c.153.198.252.433.288.681 0 .316-.229.563-.393.82-.446.708-.409 1.682-.067 2.456.341.774.589 1.042 1.08 1.198.965.3 0 2.239 1.61 2.239l.323-5.732a.515.515 0 0 0 .149.055c.95.215 1.075-1.637.862-2.167.358-.293.678-.63.952-1.002.262-.387.493-1.433.438-1.918.342.013 1.798-.462 1.642-.512Z"/><path fill="#CE947A" d="M145.328 14.668c-.043-.02-1.744-.549-1.717 1.195.026 1.745 1.772 1.36 1.774 1.31.003-.049-.057-2.505-.057-2.505Z"/><path fill="#A56349" d="M144.843 16.51s-.031.023-.082.047a.301.301 0 0 1-.228 0c-.186-.065-.345-.356-.358-.67-.006-.148.021-.297.078-.435a.36.36 0 0 1 .225-.238.16.16 0 0 1 .106.008c.033.014.06.04.076.072.023.05.013.084.023.086.01.002.037-.028.022-.1a.201.201 0 0 0-.071-.109.23.23 0 0 0-.168-.043.425.425 0 0 0-.313.277c-.073.152-.106.319-.099.487.017.352.205.678.455.747a.327.327 0 0 0 .276-.049c.054-.03.064-.07.058-.08Z"/><path fill="#263238" d="M142.433 17.448a1.088 1.088 0 0 1 .122 1.305 1.087 1.087 0 0 1-.327.333.724.724 0 0 0 .531.182c.067.219-.242.37-.305.591a.392.392 0 0 0 .122.375.986.986 0 0 0 .359.205c.387.139.794.217 1.205.231a.82.82 0 0 0 .664-.205.896.896 0 0 0 .147-.567l.043-1.488a.693.693 0 0 0-.078-.424.704.704 0 0 0-.432-.229l-2.114-.54"/><path fill="currentColor" d="M137.069 51.457c.273-1.597 1.908-9.307 1.908-9.307l-1.011-18.424c.467-.313 6.676-2.565 6.676-2.565s.956 2.838 3.994 3.46c3.038.622 2.554-1.652 2.554-1.652s5.937 3.17 6.283 3.404c.346.234 1.824 6.19 1.824 6.19l1.118 3.855-4.694 1.092s-.117 9.19 0 9.85c.116.662.352 5.998.352 5.998l-18.424.234s-.852-.539-.58-2.135Z"/><path fill="currentColor" d="M137.967 23.733s-1.136 1.113-1.517 2.215c-.381 1.1-1.558 8.323-1.558 8.323s6.461.913 6.461.798c0-.114-.57-4.143-.76-5.396-.19-1.253-2.626-5.94-2.626-5.94Z"/><path fill="#263238" d="M155.705 40.576a.313.313 0 0 0 .017-.1c0-.08.016-.178.028-.295.019-.254.039-.614.053-1.08a93.22 93.22 0 0 0 .031-3.573c-.01-1.396-.035-2.661-.061-3.57l-.037-1.081c0-.119-.012-.215-.016-.295a.355.355 0 0 0-.015-.102.35.35 0 0 0 0 .102v1.378c0 .927.019 2.182.031 3.57s.01 2.661 0 3.568c0 .457-.012.819-.021 1.081v.295a.44.44 0 0 0-.01.102ZM140.769 28.562a.874.874 0 0 0 0 .24c0 .177 0 .394.01.652 0 .578.012 1.327.021 2.158.008.831.022 1.605.051 2.158.014.276.028.499.045.652.004.08.015.16.035.238a.96.96 0 0 0 0-.24v-.653c0-.577-.013-1.326-.021-2.157a62.61 62.61 0 0 0-.051-2.158c-.014-.276-.031-.5-.045-.653a1.2 1.2 0 0 0-.045-.237ZM138.161 23.88c.89.312 1.668.883 2.233 1.638a1.208 1.208 0 0 0-.204-.359 3.397 3.397 0 0 0-.721-.706 3.461 3.461 0 0 0-.893-.47 1.19 1.19 0 0 0-.415-.103ZM156.047 28.437c.027.016.297-.45.696-.977.399-.526.77-.919.747-.941a5.323 5.323 0 0 0-1.433 1.918h-.01ZM144.74 39.989a.593.593 0 0 0 .066.094c.053.067.119.153.205.256.174.223.436.538.767.919a37.004 37.004 0 0 0 5.794 5.363c.409.301.741.539.976.694l.272.18a.49.49 0 0 0 .099.058.549.549 0 0 0-.086-.074l-.26-.205c-.23-.168-.555-.41-.956-.722a44.438 44.438 0 0 1-3.014-2.543 43.876 43.876 0 0 1-2.769-2.809c-.338-.374-.615-.681-.793-.896l-.204-.244c-.066-.047-.086-.074-.097-.071Z"/><path fill="#A56349" d="m136.957 63.594-2.442-7.478c-.364-1.118-.764-2.289-1.638-3.07-.509-.46-1.285-.758-1.879-.41a1.448 1.448 0 0 0-.639 1.183c-.003.468.074.933.228 1.376.982 3.404 2.178 6.74 3.42 10.06l-.127-.23"/><path fill="#263238" d="M133.696 61.883c0 .032.387-.052.819-.238.432-.186.761-.395.743-.426-.018-.03-.362.127-.792.307-.43.18-.784.322-.77.357ZM132.877 60.077c.015.033.41-.129.911-.325.502-.197.897-.359.887-.394-.01-.034-.434.074-.934.275-.499.2-.864.411-.864.444ZM132.128 58.585c.02.03.409-.22.931-.443s.967-.337.958-.376c-.008-.04-.477.026-1.009.258-.532.231-.901.534-.88.56ZM131.649 56.703c.024.029.36-.247.831-.487s.886-.356.878-.393c-.008-.037-.45.027-.937.279-.488.251-.795.579-.772.601ZM137.006 57.199h.729v1.443h-.729v-1.443Z"/><path fill="#455A64" d="M137.821 61.459v-3.012h-.888v2.512s-.936.027-1.053.438c-.256.905-.143 2.94-.143 2.94l2.084-2.878Z"/><path fill="#FAFAFA" d="M130.134 69.46c.252-1.512.639-3.008.713-4.54.049-1.05-.051-2.108.08-3.152.157-1.257.642-2.446 1.123-3.617.312-.76.651-1.556 1.3-2.062a2.37 2.37 0 0 1 1.36-.473c.892-.366 3.341-.47 4.114 1.171.41.872.459 1.865.694 2.803.316 1.26.088 1.676.502 2.909.878 2.634 2.211 5.904 1.822 8.655-.076.534-.966 1.415-1.269 1.86-.436.646-1.229.934-1.998 1.098a10.562 10.562 0 0 1-6.465-.692c-.725-.325-1.447-.768-1.814-1.472-.389-.75-.301-1.652-.162-2.487Zm2.322-8.495c.409.344 1.007.176 1.537.15.637-.033 1.259.174 1.888.282.628.109 1.33.105 1.842-.284.374-.318.609-.77.655-1.26a4.986 4.986 0 0 0-.08-1.447 4.003 4.003 0 0 0-.282-1.08 1.492 1.492 0 0 0-.766-.784c-.409-.205-1.887-.34-2.456-.426a3.661 3.661 0 0 0-1.286 1.075 8.697 8.697 0 0 0-1.095 2.047c-.133.278-.22.577-.256.884a.999.999 0 0 0 .299.843Z"/><path fill="#263238" d="M132.455 60.965a.963.963 0 0 1-.223-.358 1.208 1.208 0 0 1-.055-.5c.028-.227.089-.448.18-.658.226-.575.492-1.132.797-1.669a4.033 4.033 0 0 1 1.656-1.62h-.029l1.198.159c.204.028.409.06.626.1.21.033.416.09.614.168.325.145.584.406.727.732.128.292.215.6.26.916.051.313.102.614.123.925.025.297.008.596-.05.888a1.952 1.952 0 0 1-.345.766 1.464 1.464 0 0 1-.639.469 2.185 2.185 0 0 1-.751.125 6.412 6.412 0 0 1-1.374-.205 4.616 4.616 0 0 0-1.155-.129c-.342.02-.63.074-.868.074a1.195 1.195 0 0 1-.532-.097c-.112-.055-.162-.1-.166-.096a.624.624 0 0 0 .156.117c.169.081.355.121.542.117.242 0 .535-.041.87-.056.384.001.765.05 1.137.144.455.119.921.188 1.392.204.266.006.531-.037.782-.127a1.52 1.52 0 0 0 .681-.493 2.455 2.455 0 0 0 .424-1.722c-.02-.31-.072-.614-.123-.937a3.632 3.632 0 0 0-.268-.942 1.53 1.53 0 0 0-.786-.788 2.972 2.972 0 0 0-.645-.174 12.866 12.866 0 0 0-.63-.1l-1.196-.154h-.031a4.071 4.071 0 0 0-1.682 1.667 12.071 12.071 0 0 0-.782 1.688c-.09.217-.148.445-.172.678-.014.175.01.35.071.514a.879.879 0 0 0 .17.276.437.437 0 0 0 .096.099Z"/><path fill="#263238" d="M130.134 69.461s-.041.174-.084.512a5.507 5.507 0 0 0-.049.628 3.33 3.33 0 0 0 .088.856c.086.354.255.681.494.956.287.32.628.588 1.009.788.925.485 1.919.825 2.948 1.005 1.247.227 2.525.227 3.773 0 .343-.056.68-.142 1.009-.256.344-.115.664-.292.944-.524.139-.12.263-.258.368-.41.104-.147.223-.288.342-.431.249-.286.48-.586.692-.9a1.43 1.43 0 0 0 .225-.547c.018-.195.047-.39.053-.586.02-.397.013-.795-.02-1.191a14.74 14.74 0 0 0-.426-2.414 33.383 33.383 0 0 0-.735-2.428c-.139-.41-.28-.819-.422-1.228-.141-.41-.292-.819-.409-1.245a7.373 7.373 0 0 1-.18-1.306 7.816 7.816 0 0 0-.223-1.298c-.195-.839-.262-1.707-.59-2.5a2.176 2.176 0 0 0-.139-.286 2.168 2.168 0 0 0-.624-.712 3.036 3.036 0 0 0-1.133-.493 4.499 4.499 0 0 0-1.201-.099c-.396.014-.786.09-1.159.223h-.031v.035l.048-.049a2.37 2.37 0 0 0-1.552.627c-.384.383-.687.84-.893 1.342a26.91 26.91 0 0 0-1.058 2.788 8.99 8.99 0 0 0-.297 1.337 9.888 9.888 0 0 0-.08 1.276c0 .819.029 1.572-.022 2.252a17.76 17.76 0 0 1-.232 1.81c-.09.523-.176.972-.243 1.336-.068.364-.117.643-.15.833l-.032.215c-.009.051 0 .074 0 .074s0-.025.016-.072c.016-.047.025-.123.041-.215.039-.192.092-.47.164-.831.071-.36.163-.809.26-1.333.111-.6.193-1.205.243-1.813.056-.684.025-1.433.033-2.252.003-.423.032-.846.088-1.265.065-.449.165-.892.297-1.325.306-.944.663-1.87 1.069-2.776.202-.49.499-.936.876-1.31a2.274 2.274 0 0 1 1.488-.598h.047v-.05l-.031.044a3.74 3.74 0 0 1 1.126-.205c.394-.02.79.013 1.175.097a2.9 2.9 0 0 1 1.093.479 2.014 2.014 0 0 1 .594.677c.052.09.097.183.135.279.317.77.387 1.637.582 2.48.11.421.184.85.221 1.284.021.446.082.888.182 1.323.114.432.268.841.409 1.255l.422 1.228c.274.819.528 1.617.733 2.422.209.785.352 1.586.428 2.395.033.391.04.784.022 1.177 0 .194-.037.387-.053.577-.03.182-.1.356-.205.508-.208.312-.436.61-.681.892-.119.146-.238.287-.346.439-.099.151-.217.289-.352.409a2.878 2.878 0 0 1-.913.508 6.248 6.248 0 0 1-.995.255c-1.237.23-2.504.236-3.743.017a10.091 10.091 0 0 1-2.933-.985 3.619 3.619 0 0 1-1.001-.767 2.248 2.248 0 0 1-.489-.934 4.14 4.14 0 0 1-.06-1.472c.021-.166.037-.292.047-.383.011-.09.002-.149.002-.149Z"/><path fill="#263238" d="M132.456 60.965a1.016 1.016 0 0 1-.219-.358 1.192 1.192 0 0 1-.056-.5c.029-.226.09-.447.183-.656.225-.574.492-1.131.798-1.667a4.01 4.01 0 0 1 1.654-1.615h-.035l1.198.158c.205.03.409.061.624.1.21.033.416.089.614.166.322.146.579.405.721.729.128.29.214.598.258.913.053.31.102.614.125.925a2.37 2.37 0 0 1-.393 1.638 1.433 1.433 0 0 1-.635.464c-.24.085-.493.128-.747.127a6.557 6.557 0 0 1-1.372-.205 4.533 4.533 0 0 0-1.156-.128c-.344.02-.631.075-.868.075a1.183 1.183 0 0 1-.53-.094c-.113-.053-.162-.098-.168-.094a.55.55 0 0 0 .155.119c.169.083.355.123.543.118.241 0 .534-.04.87-.053.382.002.763.05 1.134.145.455.124.923.197 1.394.218.267.003.532-.04.784-.127.271-.098.51-.27.688-.498.351-.504.503-1.12.426-1.73-.021-.31-.072-.614-.123-.937a3.499 3.499 0 0 0-.27-.946 1.54 1.54 0 0 0-.791-.792 2.87 2.87 0 0 0-.647-.176c-.204-.041-.423-.072-.63-.1l-1.198-.154h-.034a4.095 4.095 0 0 0-1.687 1.67 12.36 12.36 0 0 0-.78 1.691 2.314 2.314 0 0 0-.17.68c-.013.175.012.351.074.516a.844.844 0 0 0 .17.276c.025.04.058.075.096.102Z"/><path fill="#E0E0E0" d="M131.793 67.377a.814.814 0 0 1 .456-.637c.381-.165.819.064 1.095.38.277.314.426.712.674 1.041a2.314 2.314 0 0 0 1.854.913c.872 0 1.743-.514 2.576-.256.284.088.569.311.571.614a.82.82 0 0 1-.264.533 2.854 2.854 0 0 1-1.562.855 7.925 7.925 0 0 1-2.999-.7c-1.093-.467-1.898-1.044-2.275-1.94a1.496 1.496 0 0 1-.126-.803Z"/><path fill="#263238" d="M131.935 68.605c.05.072.108.136.174.193.171.165.351.32.539.464a7.78 7.78 0 0 0 5.064 1.597c.087 0 .174-.01.258-.033 0-.024-.37 0-.964-.05a8.568 8.568 0 0 1-4.299-1.581c-.487-.352-.757-.608-.772-.59ZM132.237 63.983c-.003.11.008.218.03.325.029.205.074.508.148.876.084.435.204.861.358 1.276.187.513.46.99.806 1.412.351.425.802.756 1.313.963.418.158.865.227 1.312.204.3-.01.596-.063.882-.153.101-.033.176-.064.227-.086.052-.023.076-.037.074-.041-.386.11-.784.173-1.185.188a3.274 3.274 0 0 1-1.267-.231 3.215 3.215 0 0 1-1.257-.936c-.729-.872-1.001-1.906-1.173-2.622-.086-.365-.146-.661-.189-.868a1.626 1.626 0 0 0-.079-.307ZM138.852 67.565c.13-.084.24-.195.324-.325a2.913 2.913 0 0 0 .563-2.102 1.136 1.136 0 0 0-.119-.443c-.043 0 .145.696-.082 1.515-.227.82-.724 1.33-.686 1.355ZM138.537 61.42c.087-.255.15-.517.187-.784a7.28 7.28 0 0 0 .119-1.949 3.686 3.686 0 0 0-.668-1.832 2.334 2.334 0 0 0-.409-.434.625.625 0 0 0-.182-.123c.185.193.358.398.515.614.349.539.56 1.154.615 1.793.046.642.02 1.287-.08 1.923a6.394 6.394 0 0 0-.097.792Z"/><path fill="#CE947A" d="m140.21 34.983-1.607 7.223-.481 11.337-3.5-.26-.508-11.554 1.138-7.407 4.958.661Z"/><path fill="#CE947A" d="M137.749 57.719a.263.263 0 0 0 .221 0 .25.25 0 0 0 .089-.07.273.273 0 0 0 .051-.102c.133-.496.477-1.843.468-2.342-.012-.629-.372-3.05-.372-3.05l-3.65.024-.917 3.33s.239 1.368.479 1.448c.152.039.307.07.462.09l.101.42c.204.64.964.465.964.465a.839.839 0 0 0 .489.554.616.616 0 0 0 .641-.145s.499.293.718.05c.219-.244.158-.768.158-.768a.205.205 0 0 0 .098.096Z"/><path fill="#A56349" d="M137.643 57.897a.354.354 0 0 1 0-.113 2.591 2.591 0 0 1 .015-.305c.02-.256.073-.614.133-.995.054-.328.089-.66.104-.992 0-.254-.031-.41-.02-.41.016.034.028.07.034.106.021.1.033.203.035.305-.001.337-.03.672-.088 1.004-.059.386-.119.737-.151.99-.033.254-.052.41-.062.41ZM136.795 58.345a.837.837 0 0 1-.057-.266 3.773 3.773 0 0 1-.018-.655c.014-.256.039-.487.061-.651.005-.091.022-.181.049-.268.003.307-.011.615-.041.921a5.853 5.853 0 0 0 0 .649c.01.09.012.18.006.27ZM135.637 57.938c-.055-.256-.074-.519-.055-.78a2.567 2.567 0 0 1 .11-.774c.019 0-.028.348-.041.776-.012.428.007.776-.014.778ZM134.681 57.467a2.623 2.623 0 0 1 .025-1.202c.006.201.001.402-.015.602-.008.33.008.598-.01.6ZM135.743 55.885s-.02-.043 0-.113a.409.409 0 0 1 .136-.233.406.406 0 0 1 .255-.093c.07 0 .111.02.109.03a.705.705 0 0 0-.319.114.703.703 0 0 0-.181.295ZM134.707 55.536c-.018 0 0-.137.142-.225a.256.256 0 0 1 .262-.043c0 .02-.115.025-.225.1-.111.076-.166.175-.179.168ZM136.953 55.715c-.019 0-.025-.099.063-.166.088-.068.183-.041.176-.023-.006.019-.071.025-.135.076-.063.051-.086.115-.104.113Z"/><path fill="#A56349" d="M138.2 52.155v.028l.014.09c.015.082.033.205.055.346.048.301.113.741.187 1.294.035.279.073.582.106.913.022.172.03.345.023.518-.015.184-.04.367-.074.549a19.73 19.73 0 0 1-.258 1.169c-.027.1-.051.204-.078.307l-.041.155a.358.358 0 0 1-.077.158.276.276 0 0 1-.342.061.085.085 0 0 1-.033-.049.244.244 0 0 1-.014-.045c0-.029-.013-.055-.017-.084a1.685 1.685 0 0 1-.012-.174.03.03 0 0 1 .01-.023.031.031 0 0 1 .023-.01c.008 0 .017.004.023.01a.033.033 0 0 1 .009.023c.004.148-.001.296-.016.442a1.575 1.575 0 0 1-.1.445.407.407 0 0 1-.152.19.407.407 0 0 1-.239.051 1.139 1.139 0 0 1-.453-.15h.043a.626.626 0 0 1-.204.142.675.675 0 0 1-.614-.061.914.914 0 0 1-.357-.504l.041.025a1.085 1.085 0 0 1-.614-.047.688.688 0 0 1-.393-.44l-.098-.422.024.024a5.758 5.758 0 0 1-.268-.045l-.131-.026-.067-.019a.21.21 0 0 1-.066-.047.794.794 0 0 1-.131-.237 2.97 2.97 0 0 1-.084-.246 9.811 9.811 0 0 1-.215-.944v-.012l.68-2.422c.082-.284.145-.51.19-.667l.053-.176a.283.283 0 0 1 .021-.058.59.59 0 0 1-.012.06 4.18 4.18 0 0 0-.045.178c-.041.16-.103.385-.178.673l-.656 2.428v-.012c.057.315.129.628.217.935.025.08.052.16.084.24a.775.775 0 0 0 .119.217.111.111 0 0 0 .041.03l.061.017.129.027c.088.016.176.03.267.043a.038.038 0 0 1 .016.008c.005.005.008.01.01.016.033.14.066.279.1.41a.624.624 0 0 0 .357.41c.181.067.379.082.569.042a.038.038 0 0 1 .024.005.037.037 0 0 1 .017.02c.052.187.168.35.327.462a.617.617 0 0 0 .559.056.558.558 0 0 0 .186-.123.04.04 0 0 1 .022-.007c.008 0 .015.002.021.007.129.076.273.124.422.141a.35.35 0 0 0 .205-.04.365.365 0 0 0 .125-.16c.051-.137.084-.28.096-.426a3.89 3.89 0 0 0 .016-.432h.066c.001.054.005.108.012.161 0 .027 0 .056.014.08.015.025.023.051.017.06a.266.266 0 0 0 .139.014.238.238 0 0 0 .123-.072.27.27 0 0 0 .063-.129l.041-.155.078-.307c.102-.41.205-.792.264-1.163.035-.18.06-.36.076-.543.007-.17.001-.34-.019-.51-.03-.329-.065-.634-.1-.91l-.164-1.298-.045-.346v-.09c0-.023-.018-.05-.018-.05ZM151.191 21.219a5.935 5.935 0 0 1-3.31-1.001s.755 1.842 3.306 1.662l.004-.661Z"/><path fill="#000" d="m140.924 35.08-.714-.097-1.304 5.861.072 1.306-.465 2.201-.156 3.668s1.759-5.514 1.853-6.83c.102-1.413.714-6.118.714-6.118" opacity=".3"/><path fill="#F4C3AE" d="M172.872 92.728s-.232 1.454-.223 1.708l-1.024.884-2.612-.583-.215-2.137 4.074.129Z"/><path fill="currentColor" d="M168.959 94.415v.234s-3.948 1.53-4 2.276l7.804.053-.088-2.597a4.456 4.456 0 0 1-3.716.034Z"/><path fill="#fff" d="m172.759 96.978-.021-.624-7.472.176s-.348.15-.311.395l7.804.053Z" opacity=".6"/><path fill="#263238" d="M168.927 94.67c0 .038.193.056.379.18.186.122.285.286.321.27.037-.017-.02-.236-.249-.381-.23-.146-.459-.105-.451-.07ZM168.106 95.003c0 .037.155.102.284.264.129.162.164.334.205.332.041-.002.064-.217-.1-.41-.164-.192-.387-.223-.389-.186ZM167.635 95.98c.035 0 .088-.183 0-.392-.088-.209-.274-.294-.29-.262-.017.033.094.144.17.318.075.174.082.331.12.335Z"/><path fill="#F4C3AE" d="M164.374 92.728s-.231 1.454-.223 1.708l-1.023.884-2.614-.583-.217-2.137 4.077.129Z"/><path fill="currentColor" d="M160.46 94.415v.234s-3.948 1.53-4 2.276l7.806.053-.088-2.597a4.46 4.46 0 0 1-3.718.034Z"/><path fill="#fff" d="m164.262 96.978-.022-.624-7.472.176s-.348.15-.312.395l7.806.053Z" opacity=".6"/><path fill="#263238" d="M160.429 94.67c0 .038.19.056.379.18.188.122.284.286.319.27.035-.017-.02-.236-.248-.381-.227-.146-.458-.105-.45-.07ZM159.609 95.003c0 .037.155.102.284.264.129.162.164.334.205.332.041-.002.063-.217-.1-.41-.164-.192-.389-.223-.389-.186ZM159.138 95.98c.033 0 .088-.183 0-.392-.088-.209-.274-.294-.291-.262-.016.033.094.144.17.318.076.174.082.331.121.335ZM157.809 56.288h17.155l1.773 8.123-3.543 28.88h-5.487l-1.255-25.437-1.32 25.438h-5.881L156.78 64.73l1.029-8.442Z"/><path fill="#455A64" d="M170.923 92.888c.03 0 .104-5.091.168-11.367.063-6.277.09-11.376.067-11.376-.022 0-.104 5.087-.166 11.367-.061 6.28-.098 11.374-.069 11.376ZM162.139 92.79a.672.672 0 0 0 0-.064c0-.047-.011-.108-.019-.186-.018-.17-.043-.41-.078-.714-.069-.614-.163-1.517-.27-2.627a188.66 188.66 0 0 1-.313-3.903c-.109-1.472-.174-3.09-.223-4.789-.049-1.699-.056-3.322-.045-4.796.01-1.474.051-2.8.096-3.914.045-1.114.088-2.017.125-2.639.014-.305.026-.544.037-.716v-.187a.672.672 0 0 0 0-.063.228.228 0 0 0-.011.063l-.018.184c-.012.173-.033.41-.057.717a88.05 88.05 0 0 0-.158 2.637 124.379 124.379 0 0 0-.119 3.918c-.022 1.476 0 3.097.037 4.798s.133 3.323.231 4.795c.099 1.471.22 2.794.336 3.903.117 1.11.221 2.007.305 2.625.043.303.074.54.098.71 0 .078.021.14.027.187a.27.27 0 0 0 .019.061Z"/><path fill="#F4C3AE" d="m167.091 30.226 6.551.354.534 2.469s-1.808 1.451-1.988 1.51c-.18.06-4.299.635-4.299.635s-4.432-2.065-4.372-2.047c.059.019 3.574-2.921 3.574-2.921Z"/><path fill="#E0E0E0" d="M172.796 18.793c.373-.387 1.003-.313 1.531-.205.312.045.614.135.899.268a1.085 1.085 0 0 1 .58.704c.092.47-.242.934-.183 1.409a1.17 1.17 0 0 0 .565.794c.293.166.609.288.938.362a1.864 1.864 0 0 1-1.335.705c.031.17.248.219.41.241.161.023.389.119.364.29a.346.346 0 0 1-.156.206 4.816 4.816 0 0 1-3.158.954c-.528-.031-1.087-.172-1.433-.567-.346-.396-.41-.895-.41-1.388a4.766 4.766 0 0 1 1.673-3.56"/><path fill="#E0E0E0" d="M173.085 19.038c.081-.337.084-.689.009-1.028a2.28 2.28 0 0 0-1.255-1.561 2.272 2.272 0 0 0-1.006-.213 1.79 1.79 0 0 1-.725-.047 1.987 1.987 0 0 1-.518-.424c-.479-.434-1.146-.58-1.783-.68-.906-.143-1.856-.225-2.722.076-.866.301-1.626 1.079-1.638 1.996 0 .41.129.794.152 1.196.022.4-.111.861-.475 1.023-.236.11-.543.09-.711.289a.533.533 0 0 0 .017.614c.141.172.319.312.52.41a.784.784 0 0 0-.582.757 1.17 1.17 0 0 0 .459.886c.276.207.594.351.931.422 1.583.395 3.263-.012 4.752-.678a14.256 14.256 0 0 0 4.382-3.07l-.126-.146"/><path fill="#E0E0E0" d="M173.49 19.8c-.051-.145-.479-1.126-.633-1.116-.108 0 .146.917.088 1.011-.555.891-.731 1.976-.677 3.024.063 1.018.24 2.025.528 3.003M172.796 25.722a17.42 17.42 0 0 0 .851-2.917l-.851 2.917Z"/><path fill="#F4C3AE" d="M169.804 34.097a2.894 2.894 0 0 0 2.915-2.807l.282-9.457c.158-2.54-1.189-4.75-3.732-4.836h-.235a4.548 4.548 0 0 0-4.426 4.293c-.125 2.203-.233 4.637-.19 5.814.09 2.44 2.538 2.762 2.538 2.762s0 .565-.016 1.281a2.888 2.888 0 0 0 .818 2.072 2.908 2.908 0 0 0 2.048.878h-.002Z"/><path fill="#CC937F" d="M166.951 29.894a5.897 5.897 0 0 0 3.155-1.023s-.731 1.793-3.171 1.638l.016-.615ZM168.663 25.952a.517.517 0 0 0-.424-.169.528.528 0 0 0-.466.678.533.533 0 0 0 .309.336c.136.05.285.054.424.012a.515.515 0 0 0 .274-.168.466.466 0 0 0 .039-.448.723.723 0 0 0-.229-.307"/><path fill="#263238" d="M165.222 22.928a.351.351 0 0 0 .344.344.334.334 0 0 0 .352-.324.348.348 0 0 0-.343-.343.332.332 0 0 0-.323.194.358.358 0 0 0-.03.129ZM165.146 22.48c.045.043.305-.158.68-.166.374-.008.655.172.694.127.039-.045-.027-.103-.15-.186a.957.957 0 0 0-1.095.03c-.112.09-.149.174-.129.195ZM168.733 22.928a.35.35 0 0 0 .346.344.334.334 0 0 0 .35-.324.349.349 0 0 0-.344-.343.332.332 0 0 0-.352.323ZM168.757 22.482c.043.045.303-.158.678-.166.374-.008.655.174.694.127.039-.047-.025-.103-.148-.187a.96.96 0 0 0-1.097.031c-.112.092-.149.174-.127.195ZM167.552 25.299a2.39 2.39 0 0 0-.614-.097c-.097 0-.189-.024-.205-.09a.477.477 0 0 1 .057-.284l.275-.743c.368-1.047.632-1.908.591-1.923-.041-.014-.376.82-.743 1.871-.09.258-.174.506-.254.741a.546.546 0 0 0-.041.377.25.25 0 0 0 .064.086c.028.024.061.04.096.05.053.014.109.02.164.018.203.022.407.02.61-.006ZM168.661 25.53c-.062 0-.052.41-.394.702-.341.293-.775.264-.777.321 0 .025.098.076.28.078.239-.003.469-.09.651-.245a.878.878 0 0 0 .303-.588c.012-.17-.035-.27-.063-.268Z"/><path fill="#E0E0E0" d="M168.702 21.014c.041.1.409.043.854.086.444.043.8.153.857.061.025-.045-.039-.139-.186-.233a1.394 1.394 0 0 0-.639-.205 1.413 1.413 0 0 0-.663.094c-.149.07-.223.152-.223.197ZM165.269 21.423c.067.084.323 0 .634-.022.312-.023.576.043.633-.047.027-.043-.016-.127-.135-.205a.898.898 0 0 0-.518-.127.882.882 0 0 0-.504.184c-.106.078-.141.166-.11.217Z"/><path fill="#F4C3AE" d="M172.848 23.675c.04-.018 1.664-.536 1.652 1.134-.013 1.67-1.687 1.313-1.689 1.263-.002-.049.037-2.397.037-2.397Z"/><path fill="#CC937F" d="M173.325 25.44s.028.02.077.043c.07.028.148.028.217 0 .178-.062.33-.342.34-.643a.96.96 0 0 0-.08-.41.331.331 0 0 0-.217-.225.145.145 0 0 0-.172.078c-.022.047-.012.08-.02.082-.008.002-.037-.027-.023-.096a.204.204 0 0 1 .068-.105.205.205 0 0 1 .162-.04.41.41 0 0 1 .301.262.994.994 0 0 1 .096.464c-.013.338-.187.651-.43.719a.31.31 0 0 1-.264-.047c-.051-.041-.062-.078-.055-.082Z"/><path fill="#E0E0E0" d="M165.676 18.607c-.268-.154.614-1.05 1.279-1.341 1.012-.438 2.549-.692 3.47-.41 1.11.336 2.025.905 2.567 1.929a6.546 6.546 0 0 1 .682 3.365c-.014.352.655.555.461.852-.236.36-.18.19-.584.69-.112.14-.288.3-.409.436-.315.362-1.104.434-1.274.116a4.016 4.016 0 0 1-.558-1.957c-.015-.512-.025-1.287.11-1.78.051-.184.074-.374.068-.564a1.62 1.62 0 0 0-.262-.878 1.319 1.319 0 0 0-.15-.154 1.497 1.497 0 0 0-1.468-.276c-.951.315-1.719.835-2.808.369a1.34 1.34 0 0 1-.467-.422.487.487 0 0 0-.659.012l.002.012Z"/><path fill="#E0E0E0" d="M171.224 18.979a2.299 2.299 0 0 0-1.785-.19c-.498.153-.928.473-1.407.677a3.329 3.329 0 0 1-3.291-.428 1.14 1.14 0 0 1-.51-.782.899.899 0 0 1 .329-.702c.209-.167.448-.293.705-.37a7.803 7.803 0 0 1 3.641-.279c.981.14 1.982.444 2.688 1.134a.928.928 0 0 1 .228.314.397.397 0 0 1-.041.38.256.256 0 0 1-.355.041"/><path fill="#CC937F" d="M164.702 22.828c0 .028.09.063.205.1.115.037.205.067.223.043.018-.025-.063-.1-.188-.143-.125-.043-.238-.029-.24 0ZM164.558 23.092c0 .028.125.035.268.037.144.002.264 0 .269-.037.004-.037-.115-.072-.269-.072-.153 0-.272.041-.268.072ZM170.374 22.938c0 .03.166.037.367.037.2 0 .364 0 .366-.037.002-.037-.159-.072-.366-.07-.207.003-.371.042-.367.07ZM170.395 23.276c0 .03.147.027.319.027.172 0 .311 0 .317-.025.007-.024-.135-.082-.317-.082s-.325.053-.319.08ZM168.854 23.823s.047.075.167.143c.16.085.341.121.52.104a.94.94 0 0 0 .494-.204c.104-.09.145-.166.135-.174-.19.136-.408.228-.639.268a1.59 1.59 0 0 1-.677-.137Z"/><path fill="#CC937F" d="M168.683 23.74c-.012.027.166.12.41.12a.544.544 0 0 0 .409-.117c0-.029-.188.012-.409 0-.221-.012-.391-.031-.41-.002ZM165.058 23.507a1.356 1.356 0 0 0 1.228.115c0-.03-.278.016-.614-.016-.336-.033-.602-.136-.614-.099Z"/><path fill="#CC937F" d="M165.24 23.636a.932.932 0 0 0 1.122.205c-.192.01-.385.005-.577-.012a4.398 4.398 0 0 1-.545-.193ZM166.018 20.662c.136.054.278.089.424.102a5.577 5.577 0 0 0 2.084-.086c.143-.022.281-.068.409-.135 0-.033-.647.141-1.455.17-.809.029-1.456-.084-1.462-.051ZM165.764 20.369a7.164 7.164 0 0 0 2.706 0c0-.03-.614.027-1.353.027s-1.349-.058-1.353-.027ZM167.668 21.579c.031 0 .039-.078.043-.162.004-.084 0-.158-.031-.166-.03-.008-.073.064-.075.162-.002.098.036.174.063.166ZM167.154 21.646c.01.027.129 0 .178-.139.049-.139-.01-.237-.037-.223-.026.015-.024.094-.061.184s-.094.16-.08.178ZM168.716 25.423c0 .031.119.05.223.138.105.088.152.204.181.188.028-.016.028-.158-.113-.272-.141-.115-.305-.082-.291-.054ZM169.155 25.393c0 .028.069.045.116.102.047.057.06.119.088.129.029.01.033-.014.039-.055a.175.175 0 0 0-.047-.143.184.184 0 0 0-.137-.066c-.041 0-.061.018-.059.033ZM170.739 31.927s.049 0 .114-.057a.509.509 0 0 0 .16-.305 1.335 1.335 0 0 0-.02-.508 1.058 1.058 0 0 1 0-.57c.034-.09.102-.173.143-.28a.506.506 0 0 0 0-.317.41.41 0 0 1 0-.235.944.944 0 0 1 .104-.193.381.381 0 0 0 .066-.34c-.035-.085-.092-.096-.092-.09 0 .007.037.031.053.1a.37.37 0 0 1-.09.289.971.971 0 0 0-.125.205.483.483 0 0 0 0 .287.406.406 0 0 1 0 .258c-.033.086-.098.168-.143.278a1.095 1.095 0 0 0 0 .627c.041.155.056.316.043.476a.554.554 0 0 1-.115.29c-.063.056-.102.077-.098.085ZM169.678 32.13s.053 0 .127-.043a.607.607 0 0 0 .204-.3c.132-.364.224-.742.275-1.127.01-.112.014-.224.01-.336a2.1 2.1 0 0 1 0-.297c0-.184.184-.247.301-.354a.313.313 0 0 0 .108-.188.19.19 0 0 0-.057-.158c-.076-.067-.139-.026-.131-.022.008.004.053 0 .1.05a.15.15 0 0 1 .029.057c.005.02.006.042.002.063a.272.272 0 0 1-.1.14c-.053.046-.125.08-.205.136a.384.384 0 0 0-.151.264 1.82 1.82 0 0 0 0 .313c.002.108-.003.215-.013.322a7.432 7.432 0 0 1-.239 1.113.638.638 0 0 1-.154.291c-.059.055-.108.068-.106.076Z"/><path fill="#fff" d="M169.21 15.925a.42.42 0 0 0-.094-.05 3.544 3.544 0 0 0-.283-.116 4.859 4.859 0 0 0-2.747-.143 3.39 3.39 0 0 0-.925.348 1.734 1.734 0 0 0-.924 1.801c.04.333.156.651.34.932.169.248.388.458.645.614.221.14.463.244.716.309a3.018 3.018 0 0 0 1.417.028.385.385 0 0 0 .102-.03s-.145.022-.409.04a3.273 3.273 0 0 1-1.093-.11 2.487 2.487 0 0 1-.688-.311 2.049 2.049 0 0 1-.614-.602 2.122 2.122 0 0 1-.319-.89 1.65 1.65 0 0 1 .872-1.7c.281-.155.583-.271.896-.343a4.896 4.896 0 0 1 1.628-.123c.368.03.731.098 1.085.204.256.095.391.152.395.142Z"/><path fill="#fff" d="M163.519 17.006a.77.77 0 0 0-.015.409c.063.33.213.638.434.89.217.25.469.467.747.645.107.085.226.154.353.205a1.648 1.648 0 0 0-.31-.262 5.004 5.004 0 0 1-.71-.653 2.092 2.092 0 0 1-.434-.84c-.063-.237-.047-.392-.065-.394ZM169.725 17.3c.462.148.903.355 1.312.615.324.233.614.475.707.712.049.13.063.272.041.41 0 0 .032-.031.051-.107a.59.59 0 0 0-.021-.328c-.092-.276-.385-.534-.716-.773a3.379 3.379 0 0 0-.964-.45 1.175 1.175 0 0 0-.41-.079ZM171.332 16.963c0 .012.088.09.24.215.201.154.375.341.516.552.134.21.196.46.176.709a2.945 2.945 0 0 1-.074.307s.105-.088.148-.295a1.109 1.109 0 0 0-.158-.778 1.938 1.938 0 0 0-.563-.549.858.858 0 0 0-.285-.161ZM174.661 19.974a.828.828 0 0 0-.188-.334 1.832 1.832 0 0 0-1.659-.68.794.794 0 0 0-.368.107c0 .017.145-.02.375-.03a1.99 1.99 0 0 1 1.594.652c.156.168.223.301.246.285ZM173.443 20.84a.51.51 0 0 0 .075-.295 1.116 1.116 0 0 0-.804-1.126.5.5 0 0 0-.303-.022c.091.036.184.067.278.094a1.166 1.166 0 0 1 .754 1.054 2.899 2.899 0 0 0 0 .295ZM162.86 20.742a.656.656 0 0 0 .366.012 1.383 1.383 0 0 0 1.161-1.206.675.675 0 0 0-.025-.364c-.018 0 0 .139-.049.352a1.444 1.444 0 0 1-1.101 1.144c-.213.051-.35.045-.352.062ZM162.888 21.49c.309.079.633.065.934-.038.312-.069.597-.23.819-.46a6.935 6.935 0 0 1-.842.358c-.3.065-.605.112-.911.14Z"/><path fill="#455A64" d="M165.57 30.205c-.26 0-3.022-.368-4.708.744-1.687 1.111-6.224 9.717-6.224 9.717s-1.384 4.58.561 5.487c1.945.906 7.085 3.672 7.085 3.672l1.253-4.536-3.543-1.638v-4.375l5.576-9.07Z"/><path fill="#CE947A" d="m159.993 39.653-1.906.104a3.544 3.544 0 0 0-2.638 1.41l-1.229 1.65s-.657.854-.464 1.229c.157.307.469.282.769.012.301-.27 1.262-1.68 1.262-1.68s-1.769 2.264-1.366 2.681c.403.418.856-.13.856-.13s-.27.871.27.781c.54-.09 1.189-.9 1.189-.9s-.079.51.41.45 1.891-2.223 2.012-2.223.749-.06.749-.06l.086-3.324Z"/><path fill="#A56349" d="M156.513 41.66a5.502 5.502 0 0 0-.727.785 5.504 5.504 0 0 0-.645.854c.268-.238.511-.501.727-.786.242-.263.458-.55.645-.854ZM157.074 42.589a2.256 2.256 0 0 0-.291.354c-.17.227-.409.538-.671.878-.262.34-.512.643-.69.864a2.008 2.008 0 0 0-.274.368c.122-.093.234-.2.331-.32a14.459 14.459 0 0 0 1.366-1.746c.093-.122.17-.256.229-.398ZM157.721 43.553a2.059 2.059 0 0 0-.589.595 2.107 2.107 0 0 0-.41.735c.027.015.215-.307.489-.671.181-.211.352-.431.51-.66Z"/><path fill="#263238" d="M161.216 34.693c.018 0-.013-.23 0-.596.019-.475.113-.944.278-1.39.168-.444.407-.859.706-1.228.232-.283.41-.434.391-.448-.018-.015-.051.026-.131.092a2.985 2.985 0 0 0-.317.307 4 4 0 0 0-.749 1.24 3.94 3.94 0 0 0-.254 1.433c.001.147.014.293.037.438a.444.444 0 0 0 .039.152Z"/><path fill="#FAFAFA" d="M173.193 33.198s-2.495 1.433-4.389 1.024a7.42 7.42 0 0 1-3.234-1.744l-3.35 7.666 1.984 15.354 5.984.78 1.983-14.566 1.022-8.514Z"/><path fill="#455A64" d="m173.379 30.492 1.3.457 2.404 15.676s1.854 6.529 1.693 9.35c-.162 2.82-1.681 11.558-1.681 11.558l-10.964-1.155.454-17.155s-.79-4.937 1.552-7.926 5.242-10.805 5.242-10.805Z"/><path fill="#455A64" d="M167.09 30.146c-.151.217-2.548 9.327-2.29 11.245.258 1.918 1.654 5.937 1.654 5.937V66.32l-9.675-.885s-.792-6.933 0-10.254c.792-3.32 1.947-7.253 1.947-7.253l.763-11.592 4.868-6.19h2.733Z"/><path fill="#FAFAFA" d="M156.309 61.195a.232.232 0 0 0 .055-.029l.156-.094c.139-.084.34-.205.614-.348a3.325 3.325 0 0 1 1.042-.35c.227-.03.456-.022.68.026.248.064.485.165.704.3.231.139.461.308.7.486l.749.553c.518.379 1.067.79 1.656 1.214.299.231.651.383 1.024.44.396.011.789-.077 1.142-.256a47.981 47.981 0 0 1 2.238-.954c.389-.151.772-.303 1.154-.427a3.368 3.368 0 0 1 1.159-.195c.379.022.746.143 1.063.352.306.202.589.436.845.698.514.5.983 1.024 1.564 1.337.07.04.143.074.219.102.072.035.147.062.225.08a1.8 1.8 0 0 0 .457.088c.288.017.577 0 .862-.053a9.674 9.674 0 0 0 2.456-.819c.279-.127.491-.233.635-.305l.163-.082c.037-.02.056-.03.054-.033l-.06.023-.165.074-.643.286c-.783.365-1.608.628-2.457.784-.279.05-.563.065-.845.045a1.73 1.73 0 0 1-.438-.088 1.025 1.025 0 0 1-.205-.077 1.833 1.833 0 0 1-.205-.1c-.561-.304-1.023-.82-1.537-1.33-.26-.268-.548-.509-.86-.716a2.266 2.266 0 0 0-1.11-.368 3.473 3.473 0 0 0-1.197.204c-.389.13-.772.28-1.161.43-.776.305-1.525.633-2.239.958a2.28 2.28 0 0 1-1.091.25 2.125 2.125 0 0 1-.987-.41l-1.66-1.203-.752-.547a8.35 8.35 0 0 0-.712-.485 2.507 2.507 0 0 0-.727-.3 1.991 1.991 0 0 0-.702-.021 3.24 3.24 0 0 0-1.054.373 6.685 6.685 0 0 0-.602.366l-.152.102c-.038.004-.057.017-.055.019Z"/><path fill="#F4C3AE" d="M169.342 46.621c-.053-.018-1.721-.931-2.143-.984-.422-.054-3.701-.205-3.701-.205l-.876 3.175s2.733 1.324 3.154 1.433c.422.108 2.213.755 2.512.755.299 0 1.142-.282 1.142-.475a.301.301 0 0 0-.026-.148.305.305 0 0 0-.096-.116 5.907 5.907 0 0 1-1.143-.07 5.301 5.301 0 0 1-.579-.245s3.003.457 3.214.385c.211-.072.368-.51.368-.51s.352-.245.387-.473c.035-.227-.088-.333-.28-.421-.193-.088-1.493-.668-1.879-.774-.387-.107-1.407-.28-1.407-.28s3.093.333 3.276.245c.182-.088.409-.422.088-.614a4.297 4.297 0 0 0-1.247-.545c-.342-.063-.764-.133-.764-.133Z"/><path fill="#CC937F" d="M167.144 48.51c.185.1.379.18.58.238a17.026 17.026 0 0 0 2.925.737c.206.042.415.064.624.068a4.03 4.03 0 0 0-.614-.142c-.376-.077-.896-.19-1.468-.333a24.29 24.29 0 0 1-1.449-.41 4.257 4.257 0 0 0-.598-.157ZM167.433 46.146c.3.122.613.21.933.264.312.089.633.142.956.16-.3-.122-.613-.21-.933-.264a4.476 4.476 0 0 0-.956-.16ZM163.432 46.693a.72.72 0 0 0 .125.016c.11.026.216.068.313.125.153.097.328.153.508.162.205-.012.409-.127.573.012.082.078.172.146.268.205a.558.558 0 0 0 .328.03c.205-.04.356-.118.497-.126a.41.41 0 0 1 .301.086c.058.05.07.098.078.094.008-.004 0-.053-.047-.123a.429.429 0 0 0-.336-.133c-.171.024-.34.059-.507.104a.463.463 0 0 1-.269-.028 1.893 1.893 0 0 1-.251-.193.41.41 0 0 0-.346-.08c-.111.017-.205.05-.295.056a1.036 1.036 0 0 1-.469-.131.914.914 0 0 0-.342-.099c-.086-.004-.131.017-.129.023ZM163.399 47.344a.646.646 0 0 0 .35.233.995.995 0 0 0 .461.047.962.962 0 0 1 .25-.02.265.265 0 0 1 .188.137.447.447 0 0 0 .248.19c.094.02.191.02.284 0 .143-.036.288-.058.434-.065.094.003.184.04.252.104.045.05.055.088.066.086.01-.002.01-.045-.033-.11a.393.393 0 0 0-.278-.156 1.812 1.812 0 0 0-.455.045.409.409 0 0 1-.432-.168.615.615 0 0 0-.106-.116.32.32 0 0 0-.156-.062 1.03 1.03 0 0 0-.276.027.998.998 0 0 1-.426-.02 2.776 2.776 0 0 1-.371-.152Z"/><path fill="#263238" d="M172.577 48.707c.074.013.15.017.225.01.089.001.178-.003.266-.012.102-.01.221-.016.35-.039a6.56 6.56 0 0 0 .895-.204c.358-.111.71-.244 1.052-.398.617-.284 1.209-.619 1.771-1 .217-.146.387-.267.503-.355a.884.884 0 0 0 .174-.145.838.838 0 0 0-.204.11l-.514.338c-.57.361-1.163.685-1.775.969-.338.155-.684.291-1.036.409a7.077 7.077 0 0 1-.878.217c-.508.076-.831.08-.829.1ZM170.464 51.426c.116-.014.23-.037.342-.07.134-.028.266-.064.395-.108.154-.047.33-.096.516-.17a11.63 11.63 0 0 0 1.296-.567 15.344 15.344 0 0 0 1.486-.889 18.95 18.95 0 0 0 2.43-1.995c.289-.279.516-.512.668-.678.082-.082.158-.17.227-.264a2.21 2.21 0 0 0-.258.233c-.16.158-.395.383-.69.653a21.67 21.67 0 0 1-2.436 1.961c-.475.322-.966.618-1.472.889-.414.218-.841.413-1.277.583-.185.078-.357.133-.506.187-.149.053-.28.094-.389.124a2.424 2.424 0 0 0-.332.11ZM159.039 43.176c.205.123.419.23.639.321.41.187.96.436 1.581.7.62.265 1.185.496 1.598.651.205.078.377.14.494.179a.614.614 0 0 0 .186.049 5.314 5.314 0 0 0-.651-.297l-1.587-.68-1.59-.671c-.217-.101-.44-.185-.67-.252ZM163.15 34.586s-.029.023-.074.072l-.192.219c-.168.186-.41.452-.737.77-.328.317-.707.688-1.122 1.117a8.574 8.574 0 0 0-1.204 1.53 5 5 0 0 0-.645 1.842c-.078.596-.102 1.132-.123 1.582-.02.45-.024.82-.026 1.07v.29a.295.295 0 0 0 .01.102.44.44 0 0 0 .012-.102c0-.078.006-.174.019-.289l.059-1.066c.025-.438.061-.985.145-1.573a4.972 4.972 0 0 1 .639-1.797 8.676 8.676 0 0 1 1.183-1.515c.41-.434.795-.806 1.106-1.134.311-.328.555-.602.714-.796l.176-.232a.411.411 0 0 0 .06-.09ZM155.395 46.239c.098.066.2.126.305.18l.852.462c.72.385 1.719.911 2.825 1.484a240.26 240.26 0 0 0 2.893 1.485l.04.022.013-.045c.094-.366.172-.67.229-.899.033-.107.056-.218.072-.33-.046.104-.083.21-.111.32-.065.227-.155.526-.262.89l.053-.024a324.382 324.382 0 0 0-5.717-2.97l-.866-.432a2.033 2.033 0 0 0-.326-.143ZM166.182 50.175a.918.918 0 0 0 0 .166c0 .117.021.274.037.47.039.41.067 1.002.104 1.735.066 1.463.084 3.48.049 5.732a229.403 229.403 0 0 1-.163 5.732l-.07 1.736c0 .204-.012.356-.016.472a.766.766 0 0 0 0 .166c.011-.054.018-.109.02-.164 0-.118.023-.274.037-.47a152.258 152.258 0 0 0 .299-7.468c.033-2.24 0-4.268-.08-5.732-.047-.733-.086-1.327-.139-1.734-.023-.205-.041-.352-.055-.469a.996.996 0 0 0-.023-.172Z"/><path fill="#455A64" d="M174.679 30.949s3.618 1.543 4.733 3.99c1.116 2.446 3.405 10.212 3.458 11.648.053 1.435-2.606 5.903-2.606 5.903l-4.203-2.66.798-1.968-1.275-8.457-.905-8.456Z"/><path fill="#263238" d="M176.405 96.606a.513.513 0 0 0 .472-.316.524.524 0 0 0 .038-.196c0-.41-.064-41.288-.045-41.95.039-1.408.896-2.047.933-2.081a.511.511 0 0 0-.593-.834c-.054.04-1.311.948-1.364 2.887-.018.675.043 40.293.045 41.978a.517.517 0 0 0 .514.512ZM179.31 57.184a.515.515 0 0 0 .51-.513v-3.962a.505.505 0 0 0-.846-.41.52.52 0 0 0-.176.353v4.02a.512.512 0 0 0 .512.512Z"/><path fill="#F4C3AE" d="m178.528 49.913.991.868c.248.217.559 2.137.559 2.137s-1.085 1.161-1.55 1.208a1.241 1.241 0 0 1-.835-.264s-.465.264-.745.033c-.281-.232.389-1.736.389-1.736s.25-.727-.457-.682l-.303.545-.759 1.3s-.465-.064-.543-.295c-.077-.232.205-1.005.205-1.005a1.12 1.12 0 0 1-.139-.915c.17-.45.448-1.272 1.269-1.456.821-.184 1.918.262 1.918.262Z"/><path fill="#CC937F" d="M177.729 53.676c.015.01.14-.154.369-.393.3-.309.633-.584.993-.82.108-.074.2-.169.27-.28a.576.576 0 0 0 .063-.366c-.038-.201-.13-.388-.266-.54-.108-.132-.204-.23-.254-.303-.049-.074-.086-.115-.092-.111.065.17.162.325.285.459.119.146.198.321.229.507a.47.47 0 0 1-.055.301.876.876 0 0 1-.244.248 4.894 4.894 0 0 0-.984.862 1.748 1.748 0 0 0-.314.436ZM176.356 51.238c-.023.02.1.174.151.397.052.223.021.41.05.424.028.014.118-.193.055-.449-.064-.256-.238-.395-.256-.372Z"/><path fill="#263238" d="M181.891 45.846a1.777 1.777 0 0 0-.29 0h-.342l-.45.057c-.168.022-.344.075-.539.119-.096.024-.19.063-.291.098a2.44 2.44 0 0 0-.305.117 5.051 5.051 0 0 0-1.228.771 7.947 7.947 0 0 0-1.007 1.038c-.283.342-.52.661-.723.925-.202.265-.368.482-.485.615-.065.072-.124.15-.176.233.075-.061.144-.13.205-.205.127-.139.303-.346.512-.614.208-.268.456-.573.741-.909a8.37 8.37 0 0 1 .999-1.023c.36-.31.763-.567 1.195-.764.096-.045.194-.085.295-.119.098-.035.19-.076.285-.102.19-.045.362-.1.526-.129l.444-.072c.131-.014.243-.018.338-.026.099.007.198.004.296-.01Z"/><path fill="#263238" d="M176.356 38.597c.007.12.023.241.047.36.037.23.094.56.168.97.16.835.373 1.957.614 3.196.242 1.238.424 2.38.543 3.206l.139.974c.011.12.031.24.059.358a2.194 2.194 0 0 0-.018-.362 29.846 29.846 0 0 0-.105-.98c-.1-.82-.278-1.966-.513-3.217-.236-1.25-.473-2.372-.641-3.19l-.205-.963a2.241 2.241 0 0 0-.088-.352Z"/><path fill="#455A64" d="M175.36 96.978h1.92l-.356-1.527h-1.137l-.427 1.527Z"/></g></svg>