<svg xmlns="http://www.w3.org/2000/svg" fill="none" viewBox="0 0 200 100"><mask id="a" width="200" height="100" x="0" y="0" maskUnits="userSpaceOnUse" style="mask-type:alpha"><rect width="200" height="100" fill="#fff" rx="16"/></mask><g><rect width="200" height="100" fill="#fff" opacity=".6" rx="16"/><path fill="currentColor" d="M15.6 8.744c-38.338-27.3-3.7-46.624-20.452-69.522C-21.604-83.674 217.26-47.707 201-8.5 189.685 18.784 81.088 30.28 20.77 41.55 11.296 57.72-10.203 69.533-18.5 57.5c-4.234-6.14 12.906-11.023 39.27-15.95 6.419-10.958 7.313-23.916-5.17-32.806ZM217 116.5C230.888 86.77 335 24 225.5 61S-12 98-12 98l197.5 23.5c-15-40.5 15.409 29.445 31.5-5Z" opacity=".2"/><path fill="currentColor" d="M58.059 68.632h19.287v10.121H58.06a3.993 3.993 0 0 1-3.993-3.992v-2.138a3.993 3.993 0 0 1 3.993-3.993v.002Z"/><path fill="currentColor" d="M72.304 68.632h40.686a.66.66 0 0 1 .663.663v.355a.66.66 0 0 1-.663.663H72.304v-1.68ZM72.304 77.075h40.686a.658.658 0 0 1 .612.41.67.67 0 0 1 .051.253v.355a.66.66 0 0 1-.663.663H72.304v-1.681Z"/><path fill="#F5F5F5" d="M112.415 77.075H76.919a3.38 3.38 0 0 1-2.39-5.772 3.38 3.38 0 0 1 2.39-.99h35.496a8.375 8.375 0 0 0 0 6.762Z"/><path fill="#000" d="M73.539 78.756H58.138a4.072 4.072 0 0 1-4.072-4.072v-2.011a4.04 4.04 0 0 1 4.04-4.04h15.815c-3.662 2.22-3.389 7.537-.382 10.123Z" opacity=".3"/><path fill="#263238" d="M108.103 74.007c0 .034-7.286.061-16.272.061-8.985 0-16.272-.027-16.272-.06 0-.034 7.284-.062 16.272-.062s16.272.028 16.272.061ZM111.452 75.51c0 .033-7.287.06-16.272.06-8.986 0-16.273-.026-16.273-.06s7.285-.06 16.273-.06c8.987 0 16.272.028 16.272.06ZM110.465 71.876c0 .034-7.287.061-16.272.061-8.986 0-16.275-.027-16.275-.06 0-.034 7.285-.062 16.275-.062 8.99 0 16.272.032 16.272.061ZM71.756 78.046c0 .033-3.411.06-7.617.06-4.205 0-7.616-.027-7.616-.06 0-.035 3.409-.062 7.616-.062 4.208 0 7.617.028 7.617.062ZM71.756 69.474c0 .034-3.411.061-7.617.061-4.205 0-7.616-.027-7.616-.061s3.409-.061 7.616-.061c4.208 0 7.617.027 7.617.06Z"/><path fill="currentColor" d="M49.544 85.86h25.99v13.034h-25.99a3.993 3.993 0 0 1-3.993-3.993v-5.049a3.993 3.993 0 0 1 3.993-3.993Z"/><path fill="currentColor" d="M69.04 85.86h52.58a.663.663 0 0 1 .663.662v.84a.664.664 0 0 1-.663.662H69.04V85.86ZM69.04 96.731h52.58a.663.663 0 0 1 .663.663v.84a.664.664 0 0 1-.663.662H69.04v-2.165Z"/><path fill="#F5F5F5" d="M120.695 96.731h-45.71a4.355 4.355 0 0 1 0-8.707h45.71a10.772 10.772 0 0 0 0 8.707Z"/><path fill="#000" d="M70.627 98.894H49.492a3.938 3.938 0 0 1-3.939-3.94v-5.01a4.072 4.072 0 0 1 4.072-4.071h21.491c-4.712 2.846-4.36 9.693-.489 13.021Z" opacity=".3"/><path fill="#263238" d="M115.141 92.781c0 .034-9.383.062-20.955.062-11.57 0-20.957-.028-20.957-.062 0-.033 9.382-.06 20.957-.06 11.576 0 20.955.027 20.955.06ZM119.455 94.716c0 .034-9.383.06-20.957.06-11.573 0-20.957-.026-20.957-.06s9.381-.06 20.957-.06 20.957.04 20.957.06ZM118.193 90.985c0 .034-9.381.061-20.955.061-11.573 0-20.957-.027-20.957-.06 0-.035 9.381-.062 20.957-.062s20.955.027 20.955.061ZM68.331 97.98c0 .034-4.39.061-9.809.061-5.418 0-9.809-.027-9.809-.06 0-.035 4.391-.06 9.81-.06 5.417 0 9.808.027 9.808.06ZM68.331 86.943c0 .031-4.39.059-9.809.059-5.418 0-9.809-.028-9.809-.06 0-.03 4.391-.06 9.81-.06 5.417 0 9.808.027 9.808.06Z"/><path fill="#455A64" d="M61.904 78.444H83.32v7.465H61.904a2.94 2.94 0 0 1-2.94-2.941v-1.584a2.94 2.94 0 0 1 2.94-2.94Z"/><path fill="#455A64" d="M78.043 78.444h42.566a.694.694 0 0 1 .694.694v.371a.695.695 0 0 1-.694.695H78.043v-1.76ZM78.043 84.149h42.566a.694.694 0 0 1 .694.694v.371a.695.695 0 0 1-.694.695H78.043v-1.76Z"/><path fill="#F5F5F5" d="M120.003 84.149H81.319a1.975 1.975 0 1 1 0-3.948h38.684c-.99 1.317-.99 2.633 0 3.948Z"/><path fill="#000" d="M79.332 85.907H61.913a2.96 2.96 0 0 1-2.96-2.964v-1.475a3.023 3.023 0 0 1 3.021-3.024h17.761c-3.834 1.637-3.547 5.558-.403 7.463Z" opacity=".3"/><path fill="#263238" d="M115.499 81.864c0 .034-7.624.061-17.026.061-9.401 0-17.025-.027-17.025-.06 0-.035 7.621-.06 17.025-.06 9.404 0 17.026.027 17.026.06ZM119.003 82.932c0 .034-7.624.06-17.026.06-9.401 0-17.025-.026-17.025-.06s7.621-.061 17.025-.061c9.404 0 17.026.022 17.026.06ZM77.473 85.165c0 .034-3.567.06-7.97.06-4.402 0-7.97-.026-7.97-.06s3.568-.061 7.97-.061c4.403 0 7.97.027 7.97.06ZM77.473 79.324c0 .034-3.567.058-7.97.058-4.402 0-7.97-.024-7.97-.058s3.568-.061 7.97-.061c4.403 0 7.97.027 7.97.06ZM120.794 78.444c0 .034-13.091.06-29.234.06s-29.244-.026-29.244-.06 13.087-.062 29.237-.062 29.241.025 29.241.062Z"/><path fill="currentColor" d="M97.32 71.766v4.053l1.404-.9 1.566.9v-4.053h-2.97Z"/><path fill="#FFBF9D" d="m36.629 84.48 4.01-1.62 3.064-8.002 4.083 2.104s-.394.79-1.237 2.746c-.328.754-1.407 2.86-1.846 3.884a5.398 5.398 0 0 1-4.812 3.27l-3.764.097.502-2.48Z"/><path fill="#FFBF9D" d="m34.636 82.932-.597-.638a.679.679 0 0 0-.392-.111l-1.918.059a1.198 1.198 0 0 0-.889.538l-.699 1.188s-.468.812-.41 1.011a.35.35 0 0 0 .405.238s.068.375.193.452a.595.595 0 0 0 .468.03.39.39 0 0 0 .477.208c.227-.07.33-.512.33-.512l.973-.178s1.398.934 1.892 1.545c.493.61 1.782.144 1.782.144l.482-2.307-2.097-1.667Z"/><path fill="#FF9A6C" d="M33.222 83.206a1.585 1.585 0 0 1-.42.07c-.265.03-.639.04-1.062.095l.046-.034a3.845 3.845 0 0 1-.25.452 5.167 5.167 0 0 1-.922 1.093c-.14.14-.303.257-.482.344 0-.016.17-.152.423-.407.333-.331.628-.698.88-1.093.093-.152.176-.301.247-.453l.013-.029h.032c.432-.047.805-.043 1.07-.052a2.05 2.05 0 0 1 .425.014ZM33.265 84.122a.956.956 0 0 1-.362.095c-.312.043-.63.032-.939-.032l.07-.038a3.63 3.63 0 0 1-.14.348c-.175.36-.42.683-.722.948a1.226 1.226 0 0 1-.411.27c.111-.118.23-.229.353-.334a3.358 3.358 0 0 0 .816-1.27l.018-.05h.05c.418.078.844.099 1.267.063Z"/><path fill="#FFBF9D" d="m35.704 84.594-1.713-.796a1.84 1.84 0 0 0-.746-.226 1.78 1.78 0 0 0-.79.265l-.923.475c-.05.027-.104.059-.12.11-.016.053.027.143.08.195a1.358 1.358 0 0 0 1.782.073c.125.407.32.79.577 1.13a1.254 1.254 0 0 0 1.13.483"/><path fill="#FF9A6C" d="M34.977 86.325a.62.62 0 0 1-.185.032c-.18 0-.357-.043-.516-.127a1.616 1.616 0 0 1-.606-.552c-.188-.3-.34-.62-.453-.954l.087.02a1.36 1.36 0 0 1-.998.312 1.417 1.417 0 0 1-.557-.156 1.294 1.294 0 0 1-.246-.17.755.755 0 0 1-.111-.113.227.227 0 0 1-.048-.188.203.203 0 0 1 .102-.126c.04-.025.075-.041.111-.061l.213-.109.418-.226c.26-.152.537-.273.826-.36.277-.05.563-.006.812.125.226.104.453.208.633.3l.905.453c.114.051.224.11.328.179a2.25 2.25 0 0 1-.348-.136l-.928-.41-.637-.285a1.156 1.156 0 0 0-.747-.106 3.757 3.757 0 0 0-.796.355l-.416.226-.213.111c-.073.037-.15.073-.154.109-.005.036.052.124.122.18.07.06.145.112.226.155.159.082.332.13.51.144.33.033.66-.067.918-.276l.059-.05.025.073c.105.33.247.646.422.943.139.226.332.414.562.546.208.111.445.16.68.142Z"/><path fill="#59331F" d="M57.973 62.18c.016-1.284.226-2.565.167-3.845-.058-1.28-.386-2.622-1.282-3.543-.896-.92-2.46-1.269-3.5-.534l-.226 1.095c.412 4.954.357 9.988.769 14.942.054.652.581 1.242.878 1.823.296.582.891 1.064 1.543 1.023.852-.052 1.411-.916 1.676-1.73.973-2.944-.063-6.124-.025-9.23Z"/><path fill="currentColor" d="M54.883 55.518a3.62 3.62 0 0 0-.654-.884 1.224 1.224 0 0 0-1.011-.34.508.508 0 0 0-.4.295c-.057.162.065.382.237.366l.036.032c.385.34.776.673 1.174.997a.995.995 0 0 0 .328.204.346.346 0 0 0 .36-.077c.142-.158.038-.41-.07-.593Z"/><path fill="#59331F" d="M55.609 56.78c-1.28-1.565-3-2.467-5.022-2.488-1.131-.02-1.613.226-2.434.44a3.62 3.62 0 0 0-2.054 1.356c-.582.826-1.07 1.751-1.181 2.758a16.804 16.804 0 0 0-.147 3.106 5.657 5.657 0 0 0 .968 2.916l2.633.453c1.455.05 2.93.097 4.348-.227 1.418-.323 2.794-1.095 3.552-2.337 1.054-1.737.615-4.413-.663-5.976Z"/><path fill="#FFBF9D" d="m53.267 56.763-3.51-1.396-.92.106c-2.062 0-3.487 2.285-3.501 3.954-.014 1.86.04 4.127.335 5.495.595 2.754 2.94 2.982 2.94 2.982s-.047 1.468-.065 2.391l5.377-.387.27-12.202a.977.977 0 0 0-.926-.944Z"/><path fill="#FF9A6C" d="M49.8 64.278a.584.584 0 0 0-.204-.36.6.6 0 0 0-.726-.043.806.806 0 0 0-.306.753.732.732 0 0 0 .523.303.718.718 0 0 0 .097 0 .64.64 0 0 0 .453-.174.585.585 0 0 0 .163-.48Z"/><path fill="#263238" d="M46.266 61.778a.355.355 0 0 0 .362.341.344.344 0 0 0 .35-.341.36.36 0 0 0-.364-.342.34.34 0 0 0-.348.342ZM45.965 60.357c.045.043.305-.17.679-.19.373-.02.678.156.715.106.036-.05-.032-.104-.159-.185a.977.977 0 0 0-.574-.142.94.94 0 0 0-.545.208c-.105.097-.14.183-.116.203ZM48.426 63.364a2.409 2.409 0 0 0-.629-.08c-.097 0-.192-.018-.212-.085a.516.516 0 0 1 .05-.292l.248-.763c.344-1.081.588-1.97.543-1.984-.045-.013-.357.853-.701 1.937l-.226.764a.559.559 0 0 0-.03.387.24.24 0 0 0 .168.134.649.649 0 0 0 .167.013c.208.014.417.004.622-.031Z"/><path fill="#FF9A6C" d="M48.607 67.902a7.072 7.072 0 0 0 3.665-1.197s-.884 1.98-3.678 1.873l.013-.676Z"/><path fill="#263238" d="M49.569 63.565c-.061 0-.041.416-.38.73-.34.315-.785.295-.785.354 0 .058.104.074.29.07.244-.01.477-.106.657-.272a.905.905 0 0 0 .292-.61c.005-.175-.045-.274-.074-.272ZM46.094 59.016c.07.088.36.011.704.02.344.01.633.084.706 0 .031-.043-.012-.131-.136-.226a1.023 1.023 0 0 0-.566-.165c-.2-.006-.398.047-.57.151-.124.086-.167.174-.138.22ZM50.449 61.683a.357.357 0 0 1-.34.364.341.341 0 0 1-.373-.314.36.36 0 0 1 .337-.367.346.346 0 0 1 .376.317ZM51.15 60.208c-.043.047-.317-.147-.701-.14-.385.006-.66.206-.704.158-.043-.047.023-.104.145-.197a.97.97 0 0 1 .561-.183c.2-.004.395.055.559.17.12.088.163.172.14.192ZM50.92 58.982c-.073.088-.372 0-.727 0s-.658.07-.728-.02c-.032-.044.015-.132.144-.227a1.11 1.11 0 0 1 .59-.151c.206-.003.408.055.582.165.13.1.172.19.138.233Z"/><path fill="#FFBF9D" d="M53.72 62.37c0-.205.201-.705.405-.748.54-.116 1.525-.127 1.61 1.258.118 1.893-1.81 1.62-1.81 1.565 0-.054-.171-1.36-.205-2.074Z"/><path fill="#FF9A6C" d="M54.399 63.721s.034.023.09.043a.33.33 0 0 0 .25 0c.194-.086.343-.414.332-.756a1.093 1.093 0 0 0-.122-.466.379.379 0 0 0-.265-.237.167.167 0 0 0-.188.102c-.023.054 0 .093-.018.095-.018.002-.043-.03-.032-.109a.204.204 0 0 1 .068-.122.238.238 0 0 1 .179-.059.452.452 0 0 1 .362.272c.09.159.14.337.147.52.011.382-.163.751-.43.846a.358.358 0 0 1-.305-.03c-.068-.051-.068-.094-.068-.099Z"/><path fill="#59331F" d="m54.197 61.626-.477.494c-2.077-1.989-6.135-6.966-5.907-6.67a6.023 6.023 0 0 1 2.966-.314c1.545.262 4.473 1.036 4.427 2.857-.045 1.821-1.009 3.633-1.009 3.633Z"/><path fill="#455A64" d="M56.948 61.215a.559.559 0 0 0-.03-.109 1.919 1.919 0 0 0-.128-.299 2.759 2.759 0 0 0-.792-.889 5.147 5.147 0 0 0-1.583-.767c-.634-.205-1.346-.366-2.048-.678a9.249 9.249 0 0 1-1.868-1.048 9.643 9.643 0 0 1-2.084-2.058l-.19-.263a.583.583 0 0 0-.072-.088 5.543 5.543 0 0 0 .23.371c.227.328.476.639.745.932a9.121 9.121 0 0 0 3.203 2.244c.674.256 1.36.477 2.056.663.566.154 1.101.403 1.584.735.322.227.594.517.799.853.117.247.167.4.178.4Z"/><path fill="#455A64" d="M56.396 61.506a.98.98 0 0 0-.072-.414 1.941 1.941 0 0 0-.713-.89 4.269 4.269 0 0 0-1.583-.618 9.335 9.335 0 0 1-1.962-.625 8.295 8.295 0 0 1-2.95-2.258 8.833 8.833 0 0 1-.678-.92l-.16-.265a.431.431 0 0 0-.062-.088.71.71 0 0 0 .045.097l.145.276a7.888 7.888 0 0 0 1.844 2.15c.54.439 1.133.807 1.767 1.096.634.283 1.299.492 1.981.623a4.297 4.297 0 0 1 1.561.588c.316.207.564.502.715.848.053.13.094.264.122.4Z"/><path fill="#455A64" d="M54.134 64.834c0-.014.16-.034.441-.109a2.686 2.686 0 0 0 1.059-.59c.444-.416.782-.933.984-1.507.258-.7.397-1.437.411-2.183a5.62 5.62 0 0 0-.092-1.149 5.312 5.312 0 0 0-1.294-2.552 8.496 8.496 0 0 0-1.272-1.106s.039.014.107.055c.068.04.165.095.285.18.343.236.66.509.945.813.427.45.772.971 1.02 1.54.145.337.255.688.329 1.048.072.387.105.78.097 1.174a6.6 6.6 0 0 1-.428 2.221 3.82 3.82 0 0 1-1.033 1.532 2.642 2.642 0 0 1-1.104.572 2.668 2.668 0 0 1-.455.061Z"/><path fill="#263238" d="M56.543 88.115 45.35 89.74c-4.206 1.19-8.635 1.538-13.266 1.131l16.847 7.86 6.764.103s2.059 0 2.418-1.796c.36-1.796.76-7.266.76-7.266s-1.337-1.158-2.33-1.658Z"/><path fill="#000" d="M56.51 92.827c.184 1.12.251 2.258.199 3.393a3.36 3.36 0 0 0 .827-2.828c-.097-.552-.328-1.16-.038-1.642.195-.324.708-.695.633-1.063 0 0-.452 0-.857-.016-.328-.014-1.009-.034-1.009-.034a3.62 3.62 0 0 1 .181 2.224" opacity=".3"/><path fill="#FFBF9D" d="m48.564 69.834 5.439-.589.995.905-3.882 2.285-1.712.887-1.693-.514-.536-1.009 1.39-1.965Z"/><path fill="#455A64" d="M41.233 76.455s1.705-3.271 2.126-3.986c.72-1.22 2.063-1.91 2.063-1.91l3.142-.725s-.325 1.583 1.63 1.683c2.488.138 4.033-2.247 4.033-2.247s2.837.292 3.62.62c.782.328 2.999 1.258 3.325 4.203l.76 4.812-5.995.453.081 6.406-2.547 2.084s-7.314 2.517-7.782 2.683c-.226.079-.167-3.03-.69-5.694l-.986-2.396a9.287 9.287 0 0 1-.7-3.009c-.038-.678-.02-1.199-.02-1.199s-1.538-.527-2.06-1.778Z"/><path fill="#FFBF9D" d="m45.956 88.02 10.051-3.016-.07-5.642 5.117-.389s-.407 2.923-.468 4.42c-.086 2.156-1.131 5.17-1.81 5.807-.679.638-13.08 1.335-13.08 1.335l.26-2.515Z"/><path fill="#FFBF9D" d="M40.255 89.793a.395.395 0 0 0 .496.165c.226-.09.165-.547.165-.547l1.07-.263s1.477.801 2.036 1.358c.559.556 1.787-.025 1.787-.025l.256-2.346-2.134-1.65s.132.1-.034-.225c-.165-.326-.78-.15-.78-.15-.109-.16-.523-.188-.523-.188l-1.735.338a1.2 1.2 0 0 0-.832.617l-.65 1.229s-.325.873-.246 1.065a.353.353 0 0 0 .425.2s.13.547.276.553c.149-.018.292-.065.423-.138v.007Z"/><path fill="#FF9A6C" d="M43.85 87.848c0 .018-.226.013-.607.058a5.133 5.133 0 0 0-2.12.751c-.2.134-.413.25-.47.41a.212.212 0 0 0 .037.206.3.3 0 0 0 .14.102c.095.029.151 0 .156 0 .004 0-.052.052-.168.031a.333.333 0 0 1-.176-.104.28.28 0 0 1-.063-.271.561.561 0 0 1 .199-.263 4.613 4.613 0 0 1 2.457-.95c.205-.023.413-.013.615.03Z"/><path fill="#FF9A6C" d="M44.06 88.954c0 .032-.715.059-1.583.176-.869.118-1.566.28-1.584.25a1.78 1.78 0 0 1 .453-.148 9.83 9.83 0 0 1 1.113-.213c.375-.05.752-.08 1.13-.088a1.73 1.73 0 0 1 .471.023ZM40.262 89.748a.909.909 0 0 1-.036-.183 4.528 4.528 0 0 1-.04-.514 2.25 2.25 0 0 1 .022-.357c.02-.14.07-.273.142-.394.15-.279.355-.525.602-.724.244-.2.515-.363.806-.486.24-.09.49-.148.746-.174.226-.025.39-.032.511-.039a.65.65 0 0 1 .188 0 5.77 5.77 0 0 1-.679.113c-.246.036-.487.1-.719.19a3.375 3.375 0 0 0-.774.48 2.457 2.457 0 0 0-.583.678c-.121.215-.181.458-.175.704-.018.437.014.706-.01.706Z"/><path fill="#FF9A6C" d="M42.545 86.38c0 .017-.26.045-.679.124-.418.079-1.04.172-1.357.755a5.998 5.998 0 0 0-.776 1.442c-.06.218-.098.441-.115.667a.452.452 0 0 1-.025-.186c-.005-.17.017-.34.063-.504a5.203 5.203 0 0 1 .76-1.482c.088-.136.194-.26.315-.369.116-.1.25-.176.395-.226.238-.082.484-.14.733-.174.226-.045.456-.06.686-.048Z"/><path fill="#FF9A6C" d="M43.601 90.17a.693.693 0 0 1-.11-.072l-.31-.21c-.391-.257-.796-.492-1.213-.703h.025l-1.068.269.034-.05c.01.089.01.178 0 .267a.498.498 0 0 1-.102.27.264.264 0 0 1-.138.076.379.379 0 0 1-.152.02.452.452 0 0 1-.334-.187v-.016l.063.018-.034.016a1.263 1.263 0 0 1-.28.108.452.452 0 0 1-.08.016.19.19 0 0 1-.102-.011.313.313 0 0 1-.117-.136 1.183 1.183 0 0 1-.066-.145 2.211 2.211 0 0 1-.092-.3l.065.038a.41.41 0 0 1-.414-.106.333.333 0 0 1-.09-.213c0-.071.006-.143.02-.213.06-.272.14-.54.24-.8l.346-.656.226-.415c.067-.143.15-.278.244-.404.104-.122.231-.22.374-.292.139-.064.287-.107.439-.127l1.633-.314h.013c.1.007.2.025.297.054a.495.495 0 0 1 .264.156l-.063-.014a.611.611 0 0 1 .566-.013.727.727 0 0 1 .312.42l-.016-.02 1.47 1.131.396.313c.048.034.093.073.134.115a.907.907 0 0 1-.147-.095l-.41-.296-1.493-1.1h-.011v-.016a.624.624 0 0 0-.274-.364.512.512 0 0 0-.475.016l-.038.018-.025-.032a.414.414 0 0 0-.213-.117 1.405 1.405 0 0 0-.276-.048h.014l-1.634.321a1.397 1.397 0 0 0-.411.12 1.045 1.045 0 0 0-.335.263c-.09.12-.165.25-.226.387l-.227.413c-.12.227-.226.453-.346.657a5.912 5.912 0 0 0-.226.782.949.949 0 0 0-.02.188.226.226 0 0 0 .063.145.306.306 0 0 0 .303.077l.055-.014v.052c.024.097.054.197.088.29.025.085.07.162.131.226.015.004.03.004.045 0l.066-.014a1.589 1.589 0 0 0 .262-.1l.032-.013.066.018v.012a.431.431 0 0 0 .04.05.324.324 0 0 0 .337.085.174.174 0 0 0 .095-.05.678.678 0 0 0 .084-.452v-.04h.036l1.072-.254h.014c.417.217.818.463 1.201.735.134.098.227.175.301.227.035.015.07.033.102.054Z"/><path fill="#263238" d="M38.375 91.623s-7.092-2.228-9.318-2.94c-3.846-1.245-6.348.013-7.14 1.384-1.027 1.78 1.437 5.253 2.387 6.051 2.812 2.364 7.633 2.683 7.633 2.683l17.333-.031-5.052-6.873-5.843-.274Z"/><path fill="#E0E0E0" d="M39.439 94.84a17.275 17.275 0 0 1-8.509-1.158c-.46-.208-.932-.384-1.416-.527a4.19 4.19 0 0 0-1.463-.104 1.454 1.454 0 0 0-1.032.468c-.346.452-.17 1.104.023 1.642.226.634.452 1.28.905 1.787.513.59 1.26.93 2.008 1.166 1.464.452 3.01.594 4.543.653l5.266-.287-.325-3.64Z"/><path fill="#263238" d="M29.268 93.157c.034.043.061.09.079.143.061.135.108.276.14.42a2.714 2.714 0 0 1-1.217 2.932c-.093.052-.145.075-.15.068-.004-.007.19-.131.453-.387a2.861 2.861 0 0 0 .835-2.597c-.063-.362-.158-.572-.14-.579ZM56.477 91.189c-.411-1.167-.48-2.882-3.02-3.706-2.54-.823-4.459.756-5.764 1.303-1.305.548-8.438 4.462-8.438 4.462s-1.344 2.395-.961 3.454c.382 1.059 2.12 2.104 2.12 2.104h7.978c2.059 0 5.882-.07 5.882-.07.512-.84.97-1.71 1.373-2.606l.068-.344c.007-.274 1.172-3.43.762-4.597Z"/><path fill="#263238" d="M52.057 97.25a.255.255 0 0 1-.059.108c-.077.09-.165.17-.262.237a6.849 6.849 0 0 1-1.131.632 6.16 6.16 0 0 1-1.84.554c-.778.077-1.56.108-2.343.09-1.658.028-3.167.09-4.253.077-.545 0-.986-.025-1.29-.056a3.243 3.243 0 0 1-.468-.077c0-.011.168.018.47.034.304.016.745.027 1.288.022 1.088 0 2.59-.083 4.253-.11.778.016 1.557-.01 2.332-.082.336-.041.667-.11.991-.204.282-.087.559-.19.828-.312a7.44 7.44 0 0 0 1.131-.595c.098-.065.188-.14.27-.226.063-.054.076-.095.083-.093Z"/><path fill="#263238" d="m40.414 98.806-.107-.057a7.172 7.172 0 0 1-1.346-1.02 3.306 3.306 0 0 1-.592-.765 1.771 1.771 0 0 1-.118-1.13c.194-.91.52-1.787.966-2.602v-.012c1.308-.719 2.807-1.536 4.445-2.416.82-.439 1.672-.893 2.559-1.357l1.357-.679c.453-.226.916-.452 1.384-.696a7.825 7.825 0 0 1 2.061-.776c.354-.07.714-.104 1.075-.098.353.011.703.061 1.045.15.663.163 1.285.46 1.828.873.253.21.476.451.665.72.174.264.317.547.428.843.113.29.192.581.273.866.094.277.17.56.227.847a5.557 5.557 0 0 1-.136 1.63c-.102.51-.226.985-.355 1.426-.064.226-.127.436-.186.642-.059.206-.127.41-.158.59-.027.13-.048.227-.07.342a8.435 8.435 0 0 1-.916 1.987 3.423 3.423 0 0 1-.487.61l.03-.04c.024-.03.056-.066.094-.116.12-.15.232-.308.335-.47a8.706 8.706 0 0 0 .885-1.989c.129-.108.104-.215.066-.344.039-.206.09-.41.153-.61l.184-.64c.122-.453.244-.92.343-1.424.12-.525.164-1.066.127-1.603a7.52 7.52 0 0 0-.226-.83c-.084-.286-.165-.575-.276-.858a4.094 4.094 0 0 0-.419-.823 3.544 3.544 0 0 0-.647-.695 5 5 0 0 0-2.81-.995 4.85 4.85 0 0 0-1.049.097 7.69 7.69 0 0 0-2.036.767c-.452.226-.905.498-1.391.699-.487.201-.905.44-1.358.678-.884.453-1.74.905-2.558 1.358l-4.452 2.4.016-.018a9.597 9.597 0 0 0-.97 2.572c-.09.367-.054.753.101 1.097.152.28.346.536.575.758.317.313.661.597 1.029.848l.29.195c.08.043.122.068.122.068Z"/><path fill="#E0E0E0" d="M53.398 95.844s2.378.286 2.168 1.448c-.21 1.163-.989 1.555-.989 1.555l-6.46.013s3.856-.267 5.282-3.016Z"/><path fill="#263238" d="M53.63 95.281a.797.797 0 0 1-.073.328 2.49 2.49 0 0 1-.385.722 1.95 1.95 0 0 1-.904.697c.3-.225.575-.482.82-.765.208-.312.39-.64.541-.982Z"/><path fill="#263238" d="M52.815 95.736c.004.292-.075.579-.226.828a1.81 1.81 0 0 1-.518.679c-.025-.02.208-.322.418-.736s.285-.776.326-.771Z"/><path fill="#455A64" d="M55.837 98.523c-.018 0 .136-.303.322-.803a8.556 8.556 0 0 0 .468-4.092c-.07-.528-.152-.851-.134-.856a.877.877 0 0 1 .077.227c.056.204.1.412.134.622a7.671 7.671 0 0 1-.47 4.13c-.081.193-.173.381-.274.564a1.013 1.013 0 0 1-.123.208Z"/><path fill="#000" d="M54.493 95.218c-.018-.156-.079-.342-.226-.373-.19-.039-.319.178-.393.355-.833 1.893-3.523 3.37-5.584 3.567 1-.002 1.998-.084 2.984-.244a4.525 4.525 0 0 0 2.276-1.04 2.762 2.762 0 0 0 .944-2.265Z" opacity=".3"/><path fill="#263238" d="M38.753 92.641a6.78 6.78 0 0 1-1.145-.436 6.695 6.695 0 0 1-1.1-.537c.394.112.777.257 1.146.435.382.145.75.326 1.099.538Z"/><path fill="#000" d="M41.051 91.641a221.077 221.077 0 0 0-9.263-1.567l-2.308.728c.647 1.204 1.925 1.97 3.253 2.287 1.328.317 2.715.242 4.072.118 1.498-.138 3.036-.349 4.34-1.1.099-.056.212-.142.198-.257-.013-.116-.158-.184-.292-.209Z" opacity=".2"/><path fill="#E0E0E0" d="m25.908 82.48 3.878 8.573a1 1 0 0 0 .905.59l11.31.148 1.426-.767-2.233-.163-3.475-8.339a.718.718 0 0 0-.656-.44L26.23 82a.34.34 0 0 0-.32.48Z"/><path fill="#263238" d="M25.908 82.48a.261.261 0 0 1-.034-.105.343.343 0 0 1 .107-.296.357.357 0 0 1 .226-.095h.993l4.536.016 3.153.016 1.763.011h.452a.767.767 0 0 1 .453.19.96.96 0 0 1 .26.416l.185.453c.989 2.368 2.081 4.988 3.24 7.757l-.055-.039 2.156.159h.077l.226.016-.192.104-1.425.767h-.032l-8.574-.118-1.913-.027c-.313 0-.611 0-.921-.018a1.066 1.066 0 0 1-.767-.475c-.505-1.061-.925-2.036-1.335-2.941l-1.895-4.24c-.227-.495-.39-.882-.507-1.151-.057-.127-.098-.226-.13-.299-.03-.072-.04-.104-.04-.104.02.032.037.066.052.1l.14.294c.123.264.299.649.527 1.13l1.932 4.227c.41.889.849 1.889 1.342 2.92a.95.95 0 0 0 .692.425c.29.014.604.012.905.016l1.914.023 8.574.104h-.032l1.425-.77.027.12h-.077l-2.155-.155h-.039l-.016-.034c-1.151-2.774-2.242-5.393-3.228-7.764l-.183-.441a.836.836 0 0 0-.226-.378.647.647 0 0 0-.39-.165h-.452l-1.762-.016-3.151-.032-4.54-.054h-.991a.33.33 0 0 0-.295.452Z"/><path fill="#263238" d="M40.852 91.775a.45.45 0 0 1-.052-.095l-.129-.276-.452-1.027c-.378-.871-.891-2.075-1.443-3.414-.552-1.34-1.041-2.554-1.378-3.438-.17-.453-.303-.803-.39-1.055l-.099-.29a.52.52 0 0 1-.027-.103c.02.03.038.061.05.095l.118.282.42 1.041c.367.891.862 2.095 1.407 3.427.546 1.333 1.048 2.532 1.414 3.423l.423 1.04c.043.116.08.209.109.286a.317.317 0 0 1 .03.104Z"/><path fill="#fff" d="M33.84 86.635a.556.556 0 1 1-1.112.005.556.556 0 0 1 1.111-.005Z"/><path fill="#263238" d="M44.845 72.842c.018 0-.145.315-.373.822a14.133 14.133 0 0 0-1.158 4.171c-.068.554-.086.905-.107.905a.827.827 0 0 1 0-.244c0-.156 0-.383.032-.663.128-1.46.525-2.884 1.172-4.199.124-.251.226-.452.314-.584a.991.991 0 0 1 .12-.208ZM61.932 78.905a.469.469 0 0 1-.125.02l-.36.034-1.343.114-4.595.346h-.059v-.06l-.12-1.915a87.167 87.167 0 0 1-.14-3.256 4.61 4.61 0 0 1 .586-2.567c.303-.527.75-.956 1.287-1.238.145-.072.297-.132.453-.178.054-.017.11-.03.165-.041 0 .018-.226.066-.6.26a3.23 3.23 0 0 0-1.237 1.24 4.576 4.576 0 0 0-.54 2.527c.022.997.08 2.097.146 3.25l.118 1.914-.063-.054 4.599-.303 1.357-.08.36-.013h.11ZM50.659 82.823a.676.676 0 0 1-.199-.072 1.895 1.895 0 0 1-.226-.113 3.988 3.988 0 0 1-.946-.735 4.85 4.85 0 0 1-.633-.856 4.75 4.75 0 0 1-.41-.981 4.044 4.044 0 0 1-.145-.856 2.754 2.754 0 0 1 0-.332c0-.084.007-.168.019-.251a.661.661 0 0 1 .04-.21c.023 0-.016.305.032.787.028.281.084.56.165.83.104.331.241.65.41.955.173.299.377.58.608.837.192.208.404.398.631.567.385.288.665.41.654.43Z"/><path fill="currentColor" d="m173.291 22.149-3.149-5.054a.183.183 0 0 0-.152-.084.175.175 0 0 0-.151.084l-3.091 5.343 6.543-.29Z"/><path fill="#000" d="m173.291 22.149-3.149-5.054a.183.183 0 0 0-.152-.084.175.175 0 0 0-.151.084l-3.091 5.343 6.543-.29Z" opacity=".3"/><path fill="#EBEBEB" d="m170.142 17.334 2.943 4.794-.749-.117-4.807-.758 1.792-3.77.821-.149Z"/><path fill="currentColor" d="m170.456 26.759 2.835-4.61-7.341-1.358a.577.577 0 0 0-.604.276l-4.14 7.013a.365.365 0 0 0-.016.333.355.355 0 0 0 .263.203l6.899 1.224 2.104-3.081Z"/><path fill="#EBEBEB" d="m168.497 17.624 4.074 4.411-5.915-1.108 1.841-3.303Z"/><path fill="#263238" d="M166.656 20.927a.256.256 0 0 1 .027-.066l.09-.178.362-.68c.326-.59.779-1.415 1.319-2.404l.034-.06.048.051 2.655 2.864 1.421 1.543-.088.07a3955.18 3955.18 0 0 0-2.314-3.273l-.663-.96-.172-.257a.566.566 0 0 1-.057-.093s.028.025.073.081l.188.25.69.936 2.348 3.25-.089.073-1.422-1.538-2.645-2.878h.081c-.556.98-1.02 1.81-1.357 2.384l-.387.665-.104.172c-.022.03-.036.05-.038.048Z"/><path fill="#fff" d="M166.737 22.845c-.063.095-2.47 4.106-2.47 4.106l3.923.733 2.603-4.16-4.056-.679Z" opacity=".3"/><path fill="#455A64" d="m137.229 91.266 2.156-2.817.113-.144 3.674 2.732-3.394 3.738.125 3.782c1.893.491 2.178 1.437 2.178 1.437h-3.938l-3.595-6.896 2.681-1.832Z"/><path fill="#EBEBEB" d="m134.548 93.098 3.586 6.891h3.938a1.622 1.622 0 0 0-.452-.593l-3.203-.167-3.301-6.513-.568.382Z"/><path fill="#263238" d="M139.86 96.824c-.029.041-.256-.088-.561-.081-.305.007-.527.136-.559.095-.031-.04.186-.265.557-.267.371-.002.599.222.563.253ZM139.796 95.885c-.038.027-.214-.203-.529-.267-.314-.063-.563.084-.59.043-.027-.04.034-.083.142-.144a.733.733 0 0 1 .903.18c.077.1.095.177.074.188ZM139.824 94.68c-.043.022-.177-.206-.453-.301s-.52 0-.54-.05c-.021-.05.04-.075.149-.115a.678.678 0 0 1 .803.28c.056.104.061.179.041.186ZM140.878 93.748c-.048.015-.156-.209-.4-.367-.245-.158-.491-.183-.494-.226-.002-.043.292-.113.589.086.296.199.352.5.305.507ZM141.394 92.938c-.021.013-.152-.145-.344-.412l-.333-.473a1.191 1.191 0 0 1-.183-.319.323.323 0 0 1 .025-.24.244.244 0 0 1 .238-.124.71.71 0 0 1 .366.192 1.332 1.332 0 0 1 .446.842.736.736 0 0 1-.089.538 4.72 4.72 0 0 0-.031-.518 1.277 1.277 0 0 0-.435-.733.634.634 0 0 0-.271-.147.068.068 0 0 0-.043.005.066.066 0 0 0-.032.03.169.169 0 0 0 0 .112c.04.097.092.19.154.274l.301.493c.1.148.178.31.231.48Z"/><path fill="#263238" d="M141.527 93.055c-.018 0 0-.208.21-.452a.99.99 0 0 1 1.168-.208.183.183 0 0 1 .061.14.227.227 0 0 1-.048.124.667.667 0 0 1-.142.125c-.088.06-.181.114-.278.158a1.66 1.66 0 0 1-.518.145.82.82 0 0 1-.487-.045c.154-.035.31-.06.466-.077a1.888 1.888 0 0 0 .72-.32.582.582 0 0 0 .101-.087c.018-.037.014-.025 0-.037a.312.312 0 0 0-.113-.043 1.032 1.032 0 0 0-.427-.002.978.978 0 0 0-.426.215c-.196.204-.255.376-.287.364Z"/><path fill="#EBEBEB" d="M137.681 92.98a.464.464 0 0 1-.289.433.466.466 0 0 1-.638-.34.465.465 0 0 1 .199-.482.469.469 0 0 1 .728.39Z"/><path fill="#000" d="m142.819 91.413-.756.83-3.181-3.149.444-.577 3.493 2.896Z" opacity=".3"/><path fill="#455A64" d="m152.637 92.698-.403 4.79s4.733 1.614 4.751 2.506l-9.314-.043.321-7.488 4.645.235Z"/><path fill="#EBEBEB" d="M149.373 96.944a.378.378 0 0 0-.283.423.363.363 0 0 0 .414.285.4.4 0 0 0 .298-.452.378.378 0 0 0-.466-.25M147.664 99.95l.032-.746 8.823.21s.468.376.463.58l-9.318-.043Z"/><path fill="#263238" d="M152.386 97.446c0 .046-.226.057-.453.193-.226.135-.359.319-.4.3-.041-.018.038-.28.321-.438.283-.159.545-.095.532-.055ZM153.345 97.899c0 .043-.195.11-.358.296-.162.186-.226.387-.262.382-.036-.004-.063-.262.145-.488.208-.226.475-.236.475-.19ZM153.842 99.093c-.043 0-.095-.226.034-.466.129-.24.347-.332.365-.294.018.039-.12.168-.227.369-.106.201-.126.389-.172.391ZM152.356 96.345c-.02.04-.226-.032-.484-.028-.258.005-.452.077-.484.037-.032-.041.179-.193.482-.195.303-.002.516.152.486.186ZM152.42 95.383a.904.904 0 0 1-.466-.025 2.131 2.131 0 0 1-.742-.33.588.588 0 0 1-.136-.115.197.197 0 0 1-.041-.121c0-.044.014-.087.041-.121a.25.25 0 0 1 .206-.095.618.618 0 0 1 .172.031 1.7 1.7 0 0 1 .703.416c.206.21.272.385.256.394-.016.01-.12-.133-.333-.31a1.778 1.778 0 0 0-.667-.35c-.097-.03-.183-.034-.21 0-.028.033-.012.024 0 .054.029.032.062.06.099.084a2.395 2.395 0 0 0 .692.348c.146.035.288.082.426.14Z"/><path fill="#263238" d="M152.358 95.44c-.018 0-.099-.16-.101-.453a1.509 1.509 0 0 1 .219-.785.405.405 0 0 1 .31-.226.225.225 0 0 1 .188.14.613.613 0 0 1 .04.175 1.053 1.053 0 0 1-.242.785c-.194.226-.386.278-.389.262-.002-.016.15-.104.299-.328a1.09 1.09 0 0 0 .17-.432c.012-.09.012-.18 0-.27-.012-.099-.043-.18-.082-.174a.32.32 0 0 0-.17.147c-.05.078-.094.16-.128.247a1.765 1.765 0 0 0-.114.453c-.015.28.028.454 0 .459Z"/><path fill="#FFBF9D" d="M171.524 28.266c.091-.269.08-.561-.031-.822-.385-.904-1.29-2.94-1.618-2.884-.289.052-.502.604-.172 1.213l-1.065-.905a.31.31 0 0 0-.477.098c-.028.056-.037.12-.028.182.027.137.071.27.131.396.331.701 1.249 1.357 1.249 1.357l-1.855.012s-.346.484.29.81c.142.069.295.112.452.126l.959.098s-1.733 1.916-1.791 2.094a3.887 3.887 0 0 0-.154.883l-3.326 3.698.889 5.624 6.009-10.406.538-1.574Z"/><path fill="#FF9A6C" d="M171.042 27.42c-.016.01-.077-.077-.208-.177a1.4 1.4 0 0 0-.586-.244 3.303 3.303 0 0 0-.654-.037.763.763 0 0 1-.28-.015c0-.016.101-.043.273-.068.225-.035.454-.035.679 0 .231.036.446.14.62.296.131.131.167.24.156.244ZM171.072 26.838a3.54 3.54 0 0 1-.754-.518 3.478 3.478 0 0 1-.678-.613 3.7 3.7 0 0 1 .755.52c.25.175.478.38.677.611Z"/><path fill="#263238" d="M154.671 54.573c.049 0 .226 11.085.298 16.077a8.67 8.67 0 0 1-1.172 4.482l-10.824 19.016-6.219-5.174 10.055-16.993-3.698-17.913 7.329-6.302 4.231 6.807Z"/><path fill="#263238" d="M159.93 52.308c-.031.638-5.882 41.747-5.882 41.747l-7.239-.516 2.656-41.486 10.465.255Z"/><path fill="#455A64" d="M153.867 55.193s0 .038.014.108.018.181.032.317c.022.285.058.694.101 1.222.084 1.065.206 2.597.353 4.488.147 1.891.308 4.156.494 6.662.04.629.082 1.271.126 1.927.018.329.048.663.036 1a7.273 7.273 0 0 1-.099 1.02 7.67 7.67 0 0 1-.629 2c-.149.324-.328.632-.502.946l-.527.943-7.257 12.97c-.933 1.651-1.688 2.99-2.211 3.922-.262.453-.466.817-.608 1.063l-.159.276-.058.091s.013-.034.047-.097l.149-.28.589-1.075 2.178-3.941c1.851-3.328 4.405-7.918 7.228-12.985.176-.317.351-.634.527-.946.176-.312.353-.62.498-.936a7.657 7.657 0 0 0 .622-1.97c.056-.332.088-.667.097-1.003.014-.333-.016-.663-.032-.99l-.124-1.926c-.176-2.509-.335-4.766-.466-6.664-.131-1.898-.242-3.425-.317-4.493-.034-.525-.061-.937-.081-1.222 0-.136-.014-.242-.018-.319-.005-.077-.003-.108-.003-.108Z"/><path fill="#455A64" d="M148.92 74.634a.42.42 0 0 1-.147-.025 1.936 1.936 0 0 1-.38-.14 2.866 2.866 0 0 1-1.55-2.072 2.111 2.111 0 0 1-.027-.405c0-.095 0-.147.018-.147s.021.21.091.536a3.102 3.102 0 0 0 1.506 2.013c.292.161.494.22.489.24Z"/><path fill="#455A64" d="M149.739 73.397a1.386 1.386 0 0 1-.527 0 3.263 3.263 0 0 1-2.151-1.26 1.42 1.42 0 0 1-.261-.453c.019 0 .12.163.326.407a3.663 3.663 0 0 0 2.1 1.231c.312.05.513.054.513.075ZM144.635 55.794s.05.064.175.12a.652.652 0 0 0 .552-.038 4.98 4.98 0 0 0 .712-.51c.26-.207.536-.452.817-.707.475-.452.919-.937 1.328-1.45.312-.394.491-.652.504-.64a.758.758 0 0 1-.104.194c-.072.12-.185.292-.335.498a11.03 11.03 0 0 1-2.142 2.192c-.231.19-.482.357-.746.497a.683.683 0 0 1-.607 0c-.131-.076-.158-.156-.154-.156ZM148.667 55.453a3.11 3.11 0 0 1-.288.638c-.257.507-.611.96-1.04 1.332a2.55 2.55 0 0 1-1.584.602 1.665 1.665 0 0 1-.511-.072.475.475 0 0 1-.174-.077c.223.045.451.067.678.065a2.62 2.62 0 0 0 1.503-.608c.417-.366.77-.8 1.042-1.283.113-.206.238-.405.374-.597Z"/><path fill="currentColor" d="M159.93 52.308s-5.587 2.609-7.592 1.71c-2.004-.898-3.316-2.97-4.766-2.488-1.45.482-3.663.905-4.423 2.97a1.807 1.807 0 0 1-.482-1.3c0-.806.679-1.898.679-1.898l-.905-9.334.039-15.695s1.556-2.32 5.771-2.181l5.82.837s2.971.905 3.798 2.418c.828 1.513.485 12.325.485 12.325s1.841 10.487 1.841 11.31c.01.457-.078.91-.26 1.329"/><path fill="currentColor" d="m163.244 34.469-2.4 2.14-2.973-9.26-2.488 5.577 1.004 9.049a3.475 3.475 0 0 0 2.629 2.988 3.476 3.476 0 0 0 3.12-.776l2.533-2.167a1.349 1.349 0 0 0 .464-1.256l-.943-5.954a.566.566 0 0 0-.371-.454.57.57 0 0 0-.575.113Z"/><path fill="#FFBF9D" d="M145.065 31.962c0 .206-1.115 10.314-1.115 10.314l4.726 10.222c-.453.964-1.339 1.84-2.314 2.695 0 0-1.208-1.104-1.279-3.455 0 0-5.37-6.309-5.922-7.967-.552-1.658.968-12.983.968-12.983l4.936 1.174Z"/><path fill="#263238" d="M157.071 33.722a.862.862 0 0 1-.097.206 30.69 30.69 0 0 1-.306.538c-.147.27-.309.53-.484.783a1.43 1.43 0 0 1-.405.382 1.235 1.235 0 0 1-.579.17 1.763 1.763 0 0 1-1.084-.344 2.874 2.874 0 0 1-.64-.678 5.427 5.427 0 0 1-.328-.528.858.858 0 0 1-.099-.203c.018-.012.183.267.493.678.179.242.394.455.635.634.297.211.654.322 1.018.314.185-.006.364-.058.523-.151.148-.091.277-.21.38-.349.204-.269.355-.545.5-.762.145-.217.256-.396.337-.516a.865.865 0 0 1 .136-.174ZM160.552 42.106a.846.846 0 0 1-.09-.204 4.804 4.804 0 0 1-.179-.586 6.952 6.952 0 0 1 .201-3.99 5.45 5.45 0 0 1 .238-.563.82.82 0 0 1 .111-.195c.02 0-.116.296-.27.785a7.958 7.958 0 0 0-.355 1.959 8.073 8.073 0 0 0 .154 1.986c.106.5.211.801.19.808Z"/><path fill="#263238" d="M161.817 40.253a2.19 2.19 0 0 1-.292-.486 6.827 6.827 0 0 1-.703-2.634 2.142 2.142 0 0 1 0-.565c.039.184.063.37.072.559.051.448.134.893.249 1.33.12.435.272.862.452 1.276.087.167.161.341.222.52ZM156.91 35.618s.023.034.052.1a3.325 3.325 0 0 1 .263 1.48 2.63 2.63 0 0 1-.663 1.616 2.263 2.263 0 0 1-.862.604c-.36.14-.753.173-1.131.095a1.848 1.848 0 0 1-.993-.538 2.087 2.087 0 0 1-.478-.937 5.858 5.858 0 0 1-.136-.932c-.022-.291-.045-.563-.065-.814-.034-.482-.061-.88-.084-1.176 0-.13-.011-.227-.016-.322a.428.428 0 0 1 0-.113.523.523 0 0 1 .021.111c0 .086.025.192.038.319.032.296.073.692.122 1.174l.079.812c.025.305.072.608.143.905.074.328.229.633.452.885.252.26.577.435.932.502.355.072.722.04 1.059-.088.314-.123.595-.318.821-.568.388-.429.621-.975.661-1.552a3.454 3.454 0 0 0-.109-1.158c-.052-.258-.106-.4-.106-.405Z"/><path fill="#000" d="M145.466 45.551a8.615 8.615 0 0 1 .538-2.149c.326-.857.751-1.708.765-2.626a6.026 6.026 0 0 0-.303-1.7l-1.65-5.942-.187 4.61c-.05.374.01.754.172 1.095.244.398.744.572 1.022.946a1.117 1.117 0 0 1 .152 1.02c-.122.337-.426.423-.772.507a4.417 4.417 0 0 1-.479.097c-.226.036-.579-.016-.679.2-.274.533.018.856.134 1.112.524 1.165 1.296 2.83 1.296 2.83" opacity=".2"/><path fill="currentColor" d="M143.448 25.48s-4.862 2.457-5.541 15.597a1.391 1.391 0 0 0 .476 1.125 1.396 1.396 0 0 0 1.178.322c1.998-.38 5.024-.968 5.004-1.05-.027-.12 1.131-11.561 1.131-11.561l-2.248-4.432Z"/><path fill="#263238" d="M145.599 29.709V30.387c0 .437-.036 1.07-.088 1.851-.052.78-.131 1.708-.24 2.735-.056.514-.118 1.052-.179 1.61l-.104.854c-.036.29-.122.581-.167.866-.026.14-.026.282 0 .42.033.133.1.255.194.354.186.203.453.31.679.516.202.208.332.476.371.764.02.138.02.278 0 .416a.558.558 0 0 1-.547.539l-.367.07-.697.138-1.235.249-1.81.378-.285.056-.113.023h-.018v-.027h.068a.838.838 0 0 1 .174-.028.921.921 0 0 1-.167.05h-.07v-.027h.013l.113-.027.283-.068 1.81-.414 1.249-.271.696-.145.367-.075a.559.559 0 0 0 .296-.104.841.841 0 0 0 .125-.706 1.248 1.248 0 0 0-.34-.699c-.192-.185-.47-.294-.678-.52a.895.895 0 0 1-.226-.407c-.03-.154-.03-.31 0-.464.047-.303.142-.577.167-.864.025-.288.07-.572.104-.85l.188-1.61a89.188 89.188 0 0 0 .389-4.576l.027-.502a.805.805 0 0 1 .018-.183Z"/><path fill="#263238" d="M143.601 37.765a.489.489 0 0 1-.029.156.916.916 0 0 1-.059.176 2.483 2.483 0 0 1-.475.756c-.18.193-.385.362-.608.502a3.01 3.01 0 0 1-.724.317 2.494 2.494 0 0 1-.638.09 1.696 1.696 0 0 1-.249 0 1.122 1.122 0 0 1-.183-.027.513.513 0 0 1-.154-.045c0-.023.226.022.581 0 .207-.015.412-.052.611-.111a3.3 3.3 0 0 0 .694-.312c.215-.136.413-.296.591-.478.144-.15.271-.316.378-.495.183-.319.242-.536.264-.53Z"/><path fill="#000" d="M148.85 49.487c2.262 1.342 5.036 1.663 7.639 1.267a3.741 3.741 0 0 0 1.242-.36 1.485 1.485 0 0 0 .779-.986.948.948 0 0 0-.557-1.056c-.414-.14-.853.086-1.244.283a11.313 11.313 0 0 1-7.986.805" opacity=".2"/><path fill="#263238" d="M159.399 49.687a.528.528 0 0 1-.098.074c-.067.045-.162.12-.298.197a6.355 6.355 0 0 1-1.186.556 9.348 9.348 0 0 1-4.273.378 19.145 19.145 0 0 1-4.16-1.117c-.516-.195-.93-.36-1.215-.478l-.328-.138a.604.604 0 0 1-.111-.056c.041.008.081.019.12.034l.335.117 1.228.442a20.55 20.55 0 0 0 4.147 1.079 9.589 9.589 0 0 0 4.23-.34c.412-.137.81-.31 1.19-.518.269-.142.419-.23.419-.23Z"/><path fill="#000" d="M159.27 45.001c.678-.678.678-1.902.543-2.854-.136-.953-.505-1.867-.634-2.824-.122-.905-.034-1.83-.074-2.746-.041-.916-.238-1.87-.833-2.565a29.937 29.937 0 0 0 .998 10.99ZM152.838 35.061c-.104.602 0 1.233-.052 1.849a8.045 8.045 0 0 0 0 1.848c.074.62.359 1.194.808 1.628a1.666 1.666 0 0 0 1.719.349 1.557 1.557 0 0 0 .869-1.525c-.409.2-.864.286-1.317.249a1.85 1.85 0 0 1-1.192-.575 2.972 2.972 0 0 1-.663-1.834c-.043-.66-.124-1.337-.179-1.989" opacity=".2"/><path fill="#FAFAFA" d="M145.287 33.365a.949.949 0 0 1-.244.054c-.159.025-.387.059-.679.093-.745.1-1.499.1-2.244 0a4.201 4.201 0 0 1-2.057-.885 2.831 2.831 0 0 1-.47-.498.902.902 0 0 1-.129-.214c.197.235.415.452.652.649.593.443 1.289.729 2.022.832a9.664 9.664 0 0 0 2.217.027l.679-.054c.084-.011.169-.013.253-.004ZM144.968 35.102a1.099 1.099 0 0 1-.24.086c-.095.03-.192.055-.289.075-.114.022-.243.054-.39.072-.34.05-.684.073-1.029.068a7.122 7.122 0 0 1-1.255-.145 7.032 7.032 0 0 1-1.204-.387 6.174 6.174 0 0 1-.905-.486c-.124-.075-.226-.158-.323-.226a2.49 2.49 0 0 1-.227-.188 1.054 1.054 0 0 1-.183-.177c.016-.018.288.227.785.52.29.173.593.325.905.453a6.875 6.875 0 0 0 3.434.48c.568-.064.914-.168.921-.145ZM152.655 34.82c0 .03-1.643.015-3.665-.037-2.022-.052-3.665-.12-3.663-.154.003-.034 1.641-.016 3.665.036 2.025.052 3.663.12 3.663.154ZM152.89 36.645a1.49 1.49 0 0 1-.301.095c-.194.054-.479.12-.837.19a15.751 15.751 0 0 1-5.639.056 10.915 10.915 0 0 1-.84-.174 1.572 1.572 0 0 1-.303-.088c.105.006.21.02.312.043.197.038.487.086.844.136 1.863.27 3.756.25 5.613-.06.355-.058.642-.112.841-.153.102-.024.206-.039.31-.045ZM157.136 36.31a.492.492 0 0 1-.074.167c-.088.145-.2.273-.333.378a2.197 2.197 0 0 1-1.572.428 3.974 3.974 0 0 1-1.543-.55 2.879 2.879 0 0 1-.563-.378c.207.09.408.191.602.306.471.26.985.431 1.517.506a2.215 2.215 0 0 0 1.514-.375c.171-.14.323-.302.452-.482ZM158.159 34.921a1.65 1.65 0 0 1-.584.183 1.593 1.593 0 0 1-.606.068c.181-.097.379-.16.584-.183.196-.061.401-.084.606-.068ZM160.346 34.993a3.743 3.743 0 0 1-1.052.52c-.36.152-.741.247-1.131.281 0-.034.498-.17 1.1-.391.602-.222 1.068-.439 1.083-.41ZM159.625 32.826c-.225.09-.457.158-.695.204-.226.086-.46.148-.699.188a2.456 2.456 0 0 1 1.394-.392Z"/><path fill="#263238" d="M158.392 31.998a.596.596 0 0 1 0 .134l-.034.38c-.016.165-.034.366-.05.602-.016.235-.041.502-.052.796a37.231 37.231 0 0 0-.061 2.079c-.004.783.025 1.644.079 2.545.055.9.15 1.758.247 2.536s.215 1.472.328 2.054c.052.292.108.552.156.782.047.231.088.43.127.591.038.16.058.276.081.373a.45.45 0 0 1 .02.131.62.62 0 0 1-.043-.126l-.104-.367a11.92 11.92 0 0 1-.147-.588c-.052-.23-.115-.49-.172-.78a32.787 32.787 0 0 1-.352-2.057 34.644 34.644 0 0 1-.328-5.095c.004-.784.036-1.49.085-2.083.019-.296.048-.563.071-.798.022-.236.047-.437.07-.6.022-.163.04-.28.054-.378a.49.49 0 0 1 .025-.13Z"/><path fill="#000" d="M153.456 34.654a2.443 2.443 0 0 0 2.312.17c.085-.046.177-.08.271-.1a.267.267 0 0 1 .256.098.331.331 0 0 1-.072.366 1.432 1.432 0 0 1-1.471.452 2.197 2.197 0 0 1-1.255-.98" opacity=".2"/><path fill="#FFF2AF" d="M149.219 15.33a7.898 7.898 0 0 1-.258-1.572 2.685 2.685 0 0 1 .362-1.531 1.635 1.635 0 0 1 1.307-.8c.328 0 .659.107.982.048.373-.067.665-.35.984-.556a2.753 2.753 0 0 1 1.695-.441c.31.014.61.118.864.298a.92.92 0 0 1 .398.792 4.437 4.437 0 0 1 1.147-.072c.387.029.748.208 1.004.5a.907.907 0 0 1 .066 1.067.732.732 0 0 1 .878.428.954.954 0 0 1-.227.998c-.32.269-.726.416-1.144.416a2.578 2.578 0 0 1-1.097-.226"/><path fill="#FFBF9D" d="M150.474 27.318a2.676 2.676 0 0 0 3.269-2.344c.086-.862.161-1.584.177-1.699 0 0 2.165.04 2.56-2.06.396-2.102.878-7.014.878-7.014a7.432 7.432 0 0 0-7.519-.364l-.356.186-1.065 10.406a2.674 2.674 0 0 0 2.056 2.889Z"/><path fill="#FF9A6C" d="M153.922 23.246a4.957 4.957 0 0 1-2.608-1.263s.382 1.631 2.517 1.81l.091-.547Z"/><path fill="#FFBF9D" d="M149.354 16.26c-.034-.023-1.373-.679-1.583.767-.211 1.445 1.289 1.357 1.298 1.314.009-.043.285-2.081.285-2.081Z"/><path fill="#FF9A6C" d="M148.71 17.73s-.027.014-.073.028a.258.258 0 0 1-.19-.023.625.625 0 0 1-.208-.602.813.813 0 0 1 .122-.35.296.296 0 0 1 .227-.167c.03-.004.06.003.085.02a.131.131 0 0 1 .053.07c.013.043 0 .072 0 .074 0 .003.034-.02.029-.081a.156.156 0 0 0-.043-.1.2.2 0 0 0-.133-.056.365.365 0 0 0-.297.188.85.85 0 0 0-.145.39.667.667 0 0 0 .279.679.269.269 0 0 0 .237 0c.05-.036.061-.067.057-.07Z"/><path fill="#263238" d="M156.293 17.439a.305.305 0 0 1-.344.251.292.292 0 0 1-.2-.106.299.299 0 0 1-.063-.218.308.308 0 0 1 .342-.255.297.297 0 0 1 .202.108.304.304 0 0 1 .063.22ZM156.433 17.11c-.045.035-.242-.176-.568-.226-.326-.05-.588.064-.617.018-.03-.045.036-.085.153-.142a.845.845 0 0 1 .503-.063.808.808 0 0 1 .452.226c.077.09.102.167.077.188ZM153.153 16.884a.308.308 0 0 1-.344.253.292.292 0 0 1-.263-.325.306.306 0 0 1 .342-.253.292.292 0 0 1 .201.107.301.301 0 0 1 .064.218Z"/><path fill="#263238" d="M153.238 16.606c-.043.034-.242-.174-.565-.226-.324-.052-.591.063-.618.018-.027-.045.036-.084.152-.14a.829.829 0 0 1 .504-.066.797.797 0 0 1 .441.226c.086.098.109.175.086.188ZM153.994 19.214c.18-.023.363-.023.543 0 .084 0 .165 0 .188-.052a.421.421 0 0 0 0-.253c-.043-.226-.088-.439-.134-.679-.183-.954-.301-1.735-.262-1.742.038-.006.226.763.4 1.718.043.226.086.452.125.678a.494.494 0 0 1-.014.333.204.204 0 0 1-.068.067.205.205 0 0 1-.09.03.58.58 0 0 1-.143 0 2.21 2.21 0 0 1-.545-.1ZM153.001 19.271c.054 0 0 .357.251.66.251.304.638.329.631.378-.006.05-.095.055-.253.03a.876.876 0 0 1-.532-.297.781.781 0 0 1-.187-.547c.013-.15.068-.23.09-.224ZM156.413 16.513c-.071.064-.279-.052-.546-.101-.267-.05-.504-.039-.543-.125-.018-.04.032-.108.143-.16a.804.804 0 0 1 .878.18c.081.093.099.175.068.206ZM153.024 15.362c-.043.034-.125 0-.226-.036a2.68 2.68 0 0 0-.39-.125 2.74 2.74 0 0 0-.407-.043c-.111 0-.197 0-.226-.056-.029-.057.023-.132.152-.204a.865.865 0 0 1 1.04.226c.098.109.098.208.057.238Z"/><path fill="#FFF2AF" d="M157.342 14.876a5.036 5.036 0 0 1-3.047-.695c-1.018-.604-2.233-.952-2.52-.76-.287.192-.423 1.278-1.493 1.52 0 0-.079 2.084-.905 1.95-.826-.133-.072-3.316-.072-3.316l2.099-.844 2.244-.256 2.072.152 1.885.733-.263 1.516Z"/><path fill="currentColor" d="m123.882 40.185.439.559s2.172-3.477 4.692-3.834a.493.493 0 0 0 .452-.016l.815-.473a.492.492 0 0 0 .226-.51s1.215-2.155 3.805-2.488l.945-.178-6.499-5.954-10.119 4.114 5.244 8.78Z"/><path fill="#EBEBEB" d="m122.803 39.72.767 1.024s1.766-3.984 6.162-4.264l-4.325-4.47s-3.122 6.48-2.604 7.71Z"/><path fill="#F5F5F5" d="M116.88 32.562s1.677-5.41 7.239-3.432l5.622 7.35s-5.766-1.045-7.121 3.705l-5.74-7.623Z"/><path fill="#EBEBEB" d="M129.732 36.48s1.737-4.249 5.531-3.726l-5.531-6.43-5.429 3.06 5.429 7.096Z"/><path fill="#F5F5F5" d="M124.108 29.139s-.631-3.213 1.851-4.613l1.626-.846 5.69 6.37s-3.93 2.147-3.545 6.439l-5.622-7.35Z"/><path fill="#263238" d="M129.732 36.48a1.83 1.83 0 0 1-.226-.276c-.159-.2-.362-.453-.611-.779-.52-.678-1.219-1.583-1.991-2.578l-1.997-2.577-.609-.778a2.183 2.183 0 0 1-.213-.294c.089.082.172.17.249.264.154.174.371.435.638.756a96.803 96.803 0 0 1 2.025 2.556 174.12 174.12 0 0 1 1.966 2.602l.579.8c.071.096.135.198.19.304ZM127.71 25.553a5.774 5.774 0 0 0-.652.303 4.406 4.406 0 0 0-1.255 1.172c-.349.462-.601.99-.74 1.552-.097.432-.084.713-.109.713a.724.724 0 0 1-.018-.197c-.005-.18.011-.358.045-.534.12-.582.368-1.13.727-1.604a4.05 4.05 0 0 1 1.309-1.174c.158-.087.325-.154.498-.201a.654.654 0 0 1 .195-.03ZM130.513 28.24c0 .023-.256.139-.632.41a4.67 4.67 0 0 0-1.85 2.98c-.077.452-.066.746-.088.746a.736.736 0 0 1-.023-.204 2.352 2.352 0 0 1 0-.237c.001-.106.01-.212.025-.317.035-.274.097-.543.186-.805.112-.316.257-.619.432-.905.181-.286.391-.551.628-.792a4.145 4.145 0 0 1 .912-.688 1.71 1.71 0 0 1 .226-.106.695.695 0 0 1 .184-.081ZM131.42 29.008c0 .022-.281.149-.679.452a5.623 5.623 0 0 0-.661.584 6.992 6.992 0 0 0-.678.839c-.198.3-.37.617-.516.945-.116.27-.207.55-.271.838-.109.488-.093.805-.116.805a.69.69 0 0 1-.02-.226 2.186 2.186 0 0 1 .045-.602 4.38 4.38 0 0 1 .251-.862c.143-.339.318-.664.52-.97.207-.304.439-.588.695-.851.209-.211.436-.403.679-.575.093-.066.191-.127.291-.183.073-.045.149-.085.227-.12a.902.902 0 0 1 .233-.074ZM131.987 29.736c0 .02-.28.147-.678.452a5.172 5.172 0 0 0-.647.602c-.24.27-.457.56-.65.867a6.705 6.705 0 0 0-.488.966 5.31 5.31 0 0 0-.254.846c-.101.493-.086.81-.111.81a.954.954 0 0 1-.018-.227 1.615 1.615 0 0 1 0-.26c.005-.115.019-.23.041-.344.048-.297.123-.588.226-.87.135-.344.298-.674.489-.99.2-.31.427-.604.679-.875.205-.22.433-.42.678-.595.092-.07.189-.134.29-.19.072-.046.148-.087.226-.122a.698.698 0 0 1 .217-.07ZM127.293 35.292c0 .02-.314-.088-.832-.134a4.36 4.36 0 0 0-1.98.297 4.308 4.308 0 0 0-1.617 1.178c-.337.396-.482.68-.503.68a.733.733 0 0 1 .093-.211 3.48 3.48 0 0 1 .344-.52 4.032 4.032 0 0 1 3.672-1.505c.207.025.411.068.61.129a.765.765 0 0 1 .213.086Z"/><path fill="#263238" d="M126.549 34.364c0 .02-.314-.088-.832-.133a4.21 4.21 0 0 0-3.6 1.475c-.337.396-.481.69-.5.679a.734.734 0 0 1 .093-.21c.099-.184.214-.358.344-.521a4.032 4.032 0 0 1 3.672-1.504c.207.024.411.068.61.129a.762.762 0 0 1 .213.085Z"/><path fill="#263238" d="M125.805 33.435c0 .022-.315-.086-.833-.132a4.208 4.208 0 0 0-3.599 1.476c-.337.395-.482.678-.5.678a.705.705 0 0 1 .091-.21c.099-.184.215-.36.346-.523a4.036 4.036 0 0 1 3.671-1.502c.207.025.412.068.611.129a.818.818 0 0 1 .213.084Z"/><path fill="#263238" d="M125.06 32.507c0 .023-.316-.086-.832-.131a4.204 4.204 0 0 0-3.599 1.475c-.337.396-.482.679-.502.679a.93.93 0 0 1 .092-.209 3.39 3.39 0 0 1 .346-.522 4.038 4.038 0 0 1 3.67-1.502c.208.024.413.067.613.129a.813.813 0 0 1 .212.081Z"/><path fill="#263238" d="M124.314 31.589c0 .022-.315-.086-.833-.131a4.2 4.2 0 0 0-3.597 1.474c-.337.394-.481.68-.502.68a.798.798 0 0 1 .093-.209c.099-.184.214-.36.344-.523a4.04 4.04 0 0 1 3.671-1.518c.207.026.412.07.611.132.076.02.148.051.213.095Z"/><path fill="#263238" d="M123.57 30.652c0 .02-.315-.086-.833-.131a4.2 4.2 0 0 0-3.606 1.475c-.337.394-.482.679-.502.679a.74.74 0 0 1 .093-.21c.099-.184.214-.358.343-.521a4.037 4.037 0 0 1 3.686-1.507c.207.026.411.07.61.131a.73.73 0 0 1 .209.084Z"/><path fill="#EBEBEB" d="m125.637 29.514 1.552 1.724s.484-2.384 2.595-3.29l-1.64-1.748a4.072 4.072 0 0 0-2.507 3.314Z"/><path fill="currentColor" d="m131.211 12.08-.226.504s3.188.26 4.339 1.88a.378.378 0 0 0 .177.314l.619.396a.386.386 0 0 0 .435-.025 4.248 4.248 0 0 1 3.09 1.747l.464.59 2.056-6.864-6.746-5.318-4.208 6.775Z"/><path fill="#EBEBEB" d="m131.15 11.168-.436.905s3.393-.202 5.162 2.744l1.552-4.6s-5.613.152-6.278.95Z"/><path fill="#F5F5F5" d="M133.992 4.501s4.35-.776 4.977 3.782l-3.097 6.53s-1.342-4.362-5.115-3.605l3.235-6.707Z"/><path fill="#EBEBEB" d="M135.872 14.812s3.569-.316 4.565 2.489l2.488-6.138-4.072-2.649-2.981 6.298Z"/><path fill="#F5F5F5" d="M138.953 8.288s2.002-1.584 3.861-.369l1.168.821-2.378 6.224s-2.896-1.953-5.732-.15l3.081-6.526Z"/><path fill="#263238" d="M135.872 14.812c.025-.091.06-.18.104-.264.083-.188.19-.424.316-.702l1.073-2.307 1.074-2.305.324-.7c.035-.088.079-.172.133-.25-.02.092-.051.182-.09.269a20.39 20.39 0 0 1-.292.714c-.253.6-.622 1.421-1.043 2.322-.421.9-.812 1.71-1.104 2.293-.145.29-.265.525-.351.679-.037.09-.086.174-.144.251ZM142.81 9.365c-.014.016-.19-.122-.514-.283a3.683 3.683 0 0 0-2.714-.226c-.342.106-.541.226-.55.197-.009-.03.041-.039.129-.093.126-.073.257-.134.394-.183a3.377 3.377 0 0 1 2.789.22c.127.07.247.151.36.243.07.08.11.118.106.125ZM142.629 10.116c-.014.016-.192-.122-.513-.283a3.686 3.686 0 0 0-2.715-.226c-.344.106-.541.226-.552.197-.011-.03.043-.039.131-.093.125-.073.257-.134.394-.183a3.299 3.299 0 0 1 1.418-.193c.481.038.947.178 1.369.412.127.07.247.152.359.244.073.08.114.118.109.125ZM142.29 10.862c-.012.018-.19-.122-.512-.282a3.771 3.771 0 0 0-1.341-.37 3.715 3.715 0 0 0-1.382.155c-.342.108-.541.226-.55.199-.009-.027.043-.041.131-.093.125-.075.257-.137.394-.185a3.365 3.365 0 0 1 2.787.221c.127.07.248.152.359.245.08.065.12.104.114.11ZM142.079 11.609c-.014.018-.192-.122-.514-.283a3.684 3.684 0 0 0-2.714-.226c-.344.108-.541.226-.552.199-.011-.027.043-.04.131-.093.125-.075.257-.137.394-.185a3.368 3.368 0 0 1 2.787.221c.127.07.248.151.359.245.073.077.114.115.109.122ZM141.867 12.403c-.012.016-.19-.122-.512-.283a3.698 3.698 0 0 0-2.721-.215c-.344.107-.541.226-.552.197-.011-.03.043-.038.131-.093.125-.073.257-.134.394-.183a3.327 3.327 0 0 1 2.776.222c.131.068.255.15.371.244.079.068.119.104.113.11ZM141.661 13.306c-.014.018-.206-.134-.559-.301a4.403 4.403 0 0 0-.64-.247 5.552 5.552 0 0 0-.821-.165 5.069 5.069 0 0 0-.84-.02 3.869 3.869 0 0 0-.678.108c-.378.097-.593.226-.604.2a.54.54 0 0 1 .144-.098c.059-.035.12-.064.184-.088.082-.037.166-.068.253-.093.221-.069.448-.115.679-.138.286-.022.574-.018.859.011.286.035.567.095.842.179.223.072.439.164.645.276.078.04.154.087.226.138.057.035.112.075.163.12.108.077.151.113.147.117ZM141.36 13.96c-.014.017-.206-.136-.563-.297a4.247 4.247 0 0 0-.65-.226 5.179 5.179 0 0 0-1.671-.138c-.23.022-.457.063-.679.124-.378.102-.593.226-.604.204-.011-.023.047-.041.145-.098.058-.034.12-.064.183-.09a2.2 2.2 0 0 1 .253-.097 3.68 3.68 0 0 1 .679-.152 4.71 4.71 0 0 1 .862-.016c.287.024.572.075.85.152.227.064.447.151.656.26.079.04.154.085.227.133.058.036.113.076.165.12.108.073.154.116.147.12ZM135.829 12.697c-.021 0-.062-.249-.215-.622a3.451 3.451 0 0 0-.905-1.26 3.377 3.377 0 0 0-1.392-.7c-.393-.094-.647-.094-.647-.115a.497.497 0 0 1 .179-.015c.163.001.326.018.487.05a3.14 3.14 0 0 1 2.364 2.01c.057.153.099.312.124.473.012.06.013.12.005.179Z"/><path fill="#263238" d="M136.204 11.849c-.02 0-.059-.25-.215-.623a3.3 3.3 0 0 0-2.303-1.96c-.393-.094-.649-.094-.649-.114a.494.494 0 0 1 .179-.016c.163.002.326.018.486.048a3.138 3.138 0 0 1 2.364 2.013c.057.153.099.312.127.473a.468.468 0 0 1 .011.179Z"/><path fill="#263238" d="M136.582 11.003c-.02 0-.061-.25-.226-.623a3.306 3.306 0 0 0-2.294-1.963c-.394-.093-.649-.093-.647-.113a.494.494 0 0 1 .179-.016c.163.002.325.018.486.047a3.153 3.153 0 0 1 1.448.695c.413.354.728.808.916 1.319.056.153.098.311.124.473.016.059.02.12.014.18ZM136.958 10.152c-.021 0-.059-.249-.227-.622a3.3 3.3 0 0 0-2.305-1.961c-.391-.093-.647-.093-.647-.114a.494.494 0 0 1 .179-.015c.163 0 .326.016.486.047a3.123 3.123 0 0 1 2.491 2.484c.019.058.027.12.023.181Z"/><path fill="#263238" d="M137.335 9.304c-.02 0-.061-.25-.226-.622a3.3 3.3 0 0 0-2.303-1.962c-.393-.093-.649-.093-.647-.113a.495.495 0 0 1 .179-.016c.163 0 .326.016.486.048a3.13 3.13 0 0 1 2.364 2.013c.055.153.097.31.125.47.018.06.025.12.022.182Z"/><path fill="#263238" d="M137.711 8.453c-.02 0-.059-.247-.215-.62a3.3 3.3 0 0 0-2.303-1.961c-.394-.095-.647-.093-.647-.113a.494.494 0 0 1 .179-.016c.163 0 .326.015.486.047a3.13 3.13 0 0 1 2.364 2.014c.057.152.099.31.125.47a.512.512 0 0 1 .011.18Z"/><path fill="currentColor" d="m173.04 33.557-.38.602s3.999.889 5.178 3.146a.504.504 0 0 0 .17.432l.717.611a.49.49 0 0 0 .554.046s2.436.427 3.62 2.757l.479.844 3.819-8.37-7.619-7.918-6.538 7.85Z"/><path fill="#EBEBEB" d="m173.123 32.392-.712 1.065s4.345.34 6.074 4.389l2.773-5.567s-7.155-.785-8.135.113Z"/><path fill="#F5F5F5" d="M177.899 24.424s5.656-.226 5.656 5.674l-5.059 7.748s-.941-5.773-5.861-5.47l5.264-7.952Z"/><path fill="#EBEBEB" d="M178.485 37.846s4.585.226 5.355 3.975l4.221-7.357-4.683-4.1-4.893 7.482Z"/><path fill="#F5F5F5" d="M183.534 30.102s2.819-1.667 4.966.209l1.339 1.25-4.11 7.493s-3.335-2.988-7.253-1.197l5.058-7.755Z"/><path fill="#263238" d="M178.485 37.846c.051-.11.111-.215.181-.314l.529-.833c.466-.717 1.086-1.676 1.772-2.737l1.764-2.742.53-.832c.06-.106.129-.206.205-.3a2.15 2.15 0 0 1-.165.322c-.113.206-.285.495-.5.855a103 103 0 0 1-1.735 2.76 89.006 89.006 0 0 1-1.81 2.715l-.561.814c-.061.103-.132.2-.21.292ZM188.242 32.145c-.016.016-.215-.194-.595-.452a4.613 4.613 0 0 0-1.64-.71 5.164 5.164 0 0 0-.982-.111c-.27-.001-.54.021-.806.067-.452.08-.723.188-.73.166a.653.653 0 0 1 .183-.089 3.042 3.042 0 0 1 .532-.158c.27-.059.545-.09.821-.095.338 0 .675.035 1.007.104.33.075.652.185.959.328.248.12.485.264.706.43.095.068.171.14.244.201.06.052.117.108.17.168.05.044.094.095.131.151ZM187.88 33.068c-.018.016-.226-.194-.595-.452a4.68 4.68 0 0 0-3.427-.753c-.453.079-.724.187-.733.167a.659.659 0 0 1 .185-.088c.073-.034.149-.06.227-.08.1-.033.203-.06.307-.081.27-.058.545-.089.821-.093.339-.002.676.032 1.007.102.33.076.651.187.957.33.249.118.486.261.706.428.085.063.167.131.244.203a1.5 1.5 0 0 1 .172.166.72.72 0 0 1 .129.151ZM187.319 33.957c-.016.016-.215-.194-.595-.452a4.761 4.761 0 0 0-.704-.398 5.288 5.288 0 0 0-.936-.313 5.153 5.153 0 0 0-.982-.108c-.27 0-.539.022-.805.066-.453.081-.724.187-.731.167a.69.69 0 0 1 .183-.088c.073-.032.149-.059.226-.08a3 3 0 0 1 .306-.08c.27-.059.545-.09.821-.094.338 0 .675.033 1.007.102.33.077.651.188.959.33a4.219 4.219 0 0 1 .95.632c.061.05.118.106.172.165.088.09.136.145.129.151ZM178.793 35.152c-.021 0-.023-.326-.152-.828a4.204 4.204 0 0 0-2.59-2.903c-.484-.185-.81-.226-.805-.246a.796.796 0 0 1 .226.016c.206.033.409.084.606.151a4.023 4.023 0 0 1 2.642 2.961c.047.204.075.412.082.62a.73.73 0 0 1-.009.229Z"/><path fill="#263238" d="M179.419 34.14c-.02 0-.022-.325-.151-.828a4.209 4.209 0 0 0-2.588-2.902c-.487-.185-.812-.226-.808-.247a.79.79 0 0 1 .226.016c.206.034.409.085.607.152a4.03 4.03 0 0 1 2.64 2.961c.047.204.074.411.081.62a.606.606 0 0 1-.007.229Z"/><path fill="#263238" d="M180.046 33.13c-.02 0-.023-.326-.152-.829a4.194 4.194 0 0 0-2.588-2.902c-.486-.186-.812-.226-.807-.247a.793.793 0 0 1 .226.016 4.032 4.032 0 0 1 3.26 3.113c.045.204.072.411.081.62a.652.652 0 0 1-.02.228Z"/><path fill="#263238" d="M180.675 32.118c-.023 0-.025-.326-.154-.828a4.209 4.209 0 0 0-2.588-2.902c-.486-.186-.81-.226-.808-.247a.799.799 0 0 1 .227.016c.206.034.408.084.606.151a4.037 4.037 0 0 1 2.642 2.962c.045.204.072.411.082.62a.796.796 0 0 1-.007.228Z"/><path fill="#263238" d="M181.301 31.107c-.022 0-.024-.326-.153-.828a4.212 4.212 0 0 0-2.588-2.902c-.487-.186-.81-.227-.808-.247a.79.79 0 0 1 .226.016c.206.033.409.084.607.151a4.036 4.036 0 0 1 2.642 2.962c.045.203.072.41.081.62a.761.761 0 0 1-.007.228Z"/><path fill="#263238" d="M181.928 30.096c-.023 0-.025-.326-.154-.828a4.195 4.195 0 0 0-2.588-2.902c-.486-.186-.81-.227-.807-.247a.795.795 0 0 1 .226.015c.206.034.409.085.606.152a4.031 4.031 0 0 1 2.724 3.581.796.796 0 0 1-.007.229Z"/><path fill="#EBEBEB" d="m182.39 33.957-1.475 2.136s2.262-.265 4.23.988l1.357-2.287s-2.09-1.642-4.121-.837"/></g></svg>