<svg xmlns="http://www.w3.org/2000/svg" fill="none" viewBox="0 0 200 100"><mask id="a" width="200" height="100" x="0" y="0" maskUnits="userSpaceOnUse" style="mask-type:alpha"><rect width="200" height="100" fill="#fff" rx="16"/></mask><g><rect width="200" height="100" fill="#fff" opacity=".6" rx="16"/><path fill="#EB5284" d="M45.833 48.623C68.214 18.679 21.43-3.452-4.762-5.5v110.548L186.5 99.796C70.5 96.511 23.452 78.567 45.833 48.623ZM144.643 29.539c-21.905-31.073-22.024-48.13-22.024-55.73h95.833l5.357 96.26c-17.261 12.948-57.261-9.457-79.166-40.53Z" opacity=".2"/><path fill="#FFBF9D" d="M160.295 29.05c.058.127-2.2 9.607-2.846 11.28-.645 1.675-6.727 10.023-6.727 10.023l-1.74-.672s4.082-9.367 4.519-10.484c.438-1.117 1.071-10.785 1.157-11.105.085-.32 3.764-3.146 5.637.958Z"/><path fill="#FFBF9D" d="M148.803 49.98c-.1.082-1.513 2.541-1.51 2.774.002.232-.132 1.689-.047 2.046.086.356.792 1.518.978 1.417.186-.1.433-.379.291-.625l.948.32s.159-.452-.122-.687l.467-.027s-.024-.489-.318-.59c-.293-.1-.188 0-.188 0l-.171-.412s.281-1.046.489-1.26c.208-.212.66-.336.831-.926.171-.589.024-1.302.13-1.434a7.37 7.37 0 0 0 .396-.756s-1.306-1.004-1.374-1.034c-.069-.03-.8 1.193-.8 1.193Z"/><path fill="#FF9A6C" d="M149.551 53.042a.607.607 0 0 1-.044.21 3.174 3.174 0 0 1-.733 1.24.568.568 0 0 1-.516.17.39.39 0 0 1-.244-.2.574.574 0 0 1-.047-.303.949.949 0 0 1 .245-.513c.111-.12.205-.256.281-.401.098-.262.152-.54.161-.819a2.39 2.39 0 0 1 .11-.574.476.476 0 0 1 .1-.191c-.013.07-.031.138-.053.205-.04.187-.062.377-.066.567.002.293-.047.584-.145.86-.127.321-.489.536-.518.878a.322.322 0 0 0 .193.37.452.452 0 0 0 .406-.135c.199-.198.372-.421.516-.662.252-.418.332-.702.354-.702Z"/><path fill="#FF9A6C" d="M149.278 55.254a1.089 1.089 0 0 1-.506-.186.844.844 0 0 1-.223-.32c-.041-.076-.085-.105-.08-.124.005-.02.08 0 .154.07.073.071.127.208.222.27.24.126.455.258.433.29Z"/><path fill="#E0E0E0" d="m163.101 86.548.102-4.06 3.736-.58-.245 3.051.301 1.69s-.77.962-.922.918c-.151-.044-2.972-1.019-2.972-1.019Z"/><path fill="#263238" d="M157.811 88.917a9.29 9.29 0 0 0 2.831.579c1.334 0 3.327-.3 4.058-.403.73-.103 2.801.325 3.011-.394.21-.718-.65-3.515-.65-3.515s-.655.755-1.381.665a13.673 13.673 0 0 1-2.105-.587s-.533-1.004-.948-1.075c-.416-.071-.377 1.127-.377 1.127s-1.139 1.34-1.867 1.589c-.729.249-.77.462-1.589.413-.42-.046-.845.03-1.222.22 0 0-.431.635-.26.892.14.188.308.353.499.489Z"/><path fill="#455A64" d="M157.29 88.413c.133.208.31.383.519.513a9.199 9.199 0 0 0 2.83.58c1.333 0 3.325-.3 4.058-.404.733-.102 2.801.325 3.012-.393.058-.201.064-.414.019-.619 0 0-2.166.394-3.178.291-1.012-.102-3.263.43-4.417.323a14.134 14.134 0 0 1-2.444-.489l-.362-.244c-.059.166-.127.271-.037.442Z"/><path fill="#fff" d="M160.659 86.724c.029.132.066.263.11.391.067.117.14.23.22.34a.555.555 0 0 1-.281-.313.547.547 0 0 1-.049-.418ZM161.375 86.189c.042.157.096.31.164.457.089.134.192.26.306.374a.843.843 0 0 1-.47-.834v.003ZM161.896 85.663c.087.105.169.214.244.328.137.176.274.296.262.31a.732.732 0 0 1-.313-.259.762.762 0 0 1-.193-.379ZM165.77 87.533a.912.912 0 0 1-.276.032h-.674c-.264 0-.489-.034-.67-.056a1.309 1.309 0 0 1-.276-.054c0-.02.425.022.948.041.523.02.948.013.948.037Z"/><path fill="#E0E0E0" d="m178.611 46.757-2.007 5.977-3.74-.548 1.134-2.843.211-1.71s.623-3.164.755-3.076c.132.088 3.647 2.2 3.647 2.2Z"/><path fill="#263238" d="M184.319 45.132a9.308 9.308 0 0 0-2.564-1.337c-1.281-.367-3.278-.626-4.012-.734-.733-.107-2.603-1.083-3.002-.45-.398.634-.342 3.557-.342 3.557s.836-.542 1.508-.257c.651.331 1.274.714 1.863 1.145 0 0 .245 1.11.616 1.295.372.186.672-.978.672-.978s1.467-.977 2.232-1.014c.765-.037.868-.23 1.643.041.394.164.827.21 1.246.13 0 0 .59-.489.489-.787a2.213 2.213 0 0 0-.349-.611Z"/><path fill="#455A64" d="M184.681 45.758a1.675 1.675 0 0 0-.357-.636 9.283 9.283 0 0 0-2.562-1.337c-1.281-.367-3.281-.626-4.011-.733-.731-.108-2.606-1.086-3.005-.45-.112.177-.177.38-.188.589 0 0 2.2.217 3.144.599.943.381 3.253.489 4.336.904.765.318 1.501.701 2.2 1.147l.284.327c.102-.137.198-.215.159-.41Z"/><path fill="#fff" d="M180.977 46.454c.01-.134.01-.269 0-.403a2.942 2.942 0 0 0-.12-.389.687.687 0 0 1 .118.792h.002ZM180.141 46.772a1.449 1.449 0 0 0-.222-.931c.13.11.217.264.244.432a.687.687 0 0 1-.022.499ZM179.496 47.134a3.43 3.43 0 0 1-.14-.382 3.847 3.847 0 0 1-.166-.371 1.051 1.051 0 0 1 .306.753ZM176.284 44.269a.984.984 0 0 1 .276.046 7.379 7.379 0 0 1 1.278.428c.087.032.169.075.245.127 0 .017-.404-.137-.9-.303-.496-.166-.902-.279-.899-.298Z"/><path fill="#FFF2AF" d="M163.846 11.45c-.381-.653-.068-1.552.545-1.997.614-.445 1.428-.509 2.176-.391 1.156.18 2.305.833 2.77 1.909.464 1.075 0 2.552-1.125 2.909.469.23.963.488 1.247.921.283.433.244 1.13-.213 1.384-.523.286-1.139-.142-1.579-.545a.855.855 0 0 1-.244 1.141 1.336 1.336 0 0 1-1.245.074 3.278 3.278 0 0 1-1.039-.77"/><path fill="currentColor" d="M165.477 12.286a3.251 3.251 0 0 0-.413-.917 1.116 1.116 0 0 0-.836-.489.457.457 0 0 0-.413.184.237.237 0 0 0-.027.223.246.246 0 0 0 .166.151l.027.036c.279.377.564.748.855 1.115a.94.94 0 0 0 .245.244.311.311 0 0 0 .335 0c.166-.124.122-.369.061-.547Z"/><path fill="#FFF2AF" d="M165.88 13.55a5.909 5.909 0 0 0-3.996-3.198c-1.012-.244-1.467-.115-2.254-.076a3.274 3.274 0 0 0-2.092.814 5.492 5.492 0 0 0-1.584 2.232 15.276 15.276 0 0 0-.734 2.74 5.18 5.18 0 0 0 .301 2.79l2.261.914c1.288.325 2.904 2.364 4.231 2.34 1.328-.025 2.909-1.856 3.567-3.071.882-1.62 1.154-3.843.3-5.486Z"/><path fill="#FFBF9D" d="M156.875 23.934c.193-.82.445-1.848.442-1.844-.002.005-1.87-.625-1.867-3.194 0-1.276.388-3.31.76-4.963.332-1.488 2.041-3.243 3.884-2.852l.839.08 2.867 1.922a.891.891 0 0 1 .645 1.019l-2.337 11.13-2.613 2.608-2.857-2.643.237-1.263Z"/><path fill="#FF9A6C" d="M159.256 19.118a.532.532 0 0 0-.113-.362.54.54 0 0 0-.638-.178.735.735 0 0 0-.418.613.676.676 0 0 0 .409.362l.085.022c.147.03.299.006.428-.07a.531.531 0 0 0 .247-.387Z"/><path fill="#263238" d="M156.449 15.886a.324.324 0 0 0 .26.375.308.308 0 0 0 .329-.13.32.32 0 0 0 .047-.115.328.328 0 0 0-.259-.374.313.313 0 0 0-.329.13.304.304 0 0 0-.048.114ZM156.591 14.882c.035.049.306-.093.651-.037.344.056.572.269.616.232.044-.036 0-.097-.105-.195a.898.898 0 0 0-.489-.245.854.854 0 0 0-.526.083c-.115.069-.164.14-.147.162ZM158.21 18.035a2.413 2.413 0 0 0-.548-.19c-.085-.022-.166-.054-.171-.115a.45.45 0 0 1 .1-.245l.367-.63c.516-.9.904-1.646.868-1.665-.037-.02-.489.692-1 1.591-.125.223-.245.435-.357.638a.505.505 0 0 0-.1.337.224.224 0 0 0 .124.154c.048.02.097.035.147.044.186.052.377.08.57.081Z"/><path fill="#FF9A6C" d="M157.318 22.09a6.457 6.457 0 0 0 3.498-.361s-1.171 1.596-3.64.96l.142-.599Z"/><path fill="#263238" d="M159.187 18.439c-.056-.013-.115.361-.489.576-.374.215-.757.11-.767.164-.01.054.076.086.244.118a.946.946 0 0 0 .638-.115.814.814 0 0 0 .379-.49c.049-.153.022-.253-.005-.253ZM156.77 14.205c.046.093.32.078.626.154.305.075.547.198.628.132.037-.032.015-.12-.078-.223a.982.982 0 0 0-.475-.244.947.947 0 0 0-.535.027c-.127.039-.183.11-.166.154ZM160.307 16.657a.328.328 0 0 1-.372.261.314.314 0 0 1-.271-.354.322.322 0 0 1 .372-.26.307.307 0 0 1 .271.352ZM161.246 15.75c-.049.031-.245-.194-.599-.262-.355-.069-.629.056-.658 0-.029-.056.039-.088.166-.147a.88.88 0 0 1 .536-.056.87.87 0 0 1 .467.26c.09.097.11.187.088.204ZM161.275 14.608c-.083.066-.33-.069-.648-.135s-.601-.063-.645-.158c-.02-.044.036-.115.171-.164a1.048 1.048 0 0 1 1.041.244c.098.093.12.181.081.213Z"/><path fill="#FFBF9D" d="M163.116 18.172c.031-.188.315-.594.506-.591.503 0 1.383.18 1.192 1.432-.259 1.711-1.923 1.095-1.918 1.046.004-.049.117-1.24.22-1.887Z"/><path fill="#FF9A6C" d="M163.463 19.507s.027.024.073.056a.304.304 0 0 0 .222.039.748.748 0 0 0 .443-.611.995.995 0 0 0-.02-.438.34.34 0 0 0-.188-.264.15.15 0 0 0-.188.057c-.032.044-.025.078-.034.08-.01.003-.032-.034 0-.102a.181.181 0 0 1 .083-.098.225.225 0 0 1 .171-.017.431.431 0 0 1 .271.313c.049.158.059.326.03.489-.064.342-.289.637-.548.672a.327.327 0 0 1-.264-.086c-.054-.044-.059-.088-.051-.09Z"/><path fill="#FFF2AF" d="m163.688 17.598-.523.352c-1.467-2.174-4.129-7.393-3.985-7.09a5.492 5.492 0 0 1 2.706.284c1.328.533 3.792 1.785 3.4 3.4-.391 1.616-1.598 3.053-1.598 3.053Z"/><path fill="#1D1D1D" d="M166.222 17.756a.587.587 0 0 0 0-.102 1.916 1.916 0 0 0-.058-.291 2.529 2.529 0 0 0-.533-.946 4.683 4.683 0 0 0-1.274-.978c-.525-.306-1.129-.587-1.696-.99a8.402 8.402 0 0 1-1.467-1.293 8.99 8.99 0 0 1-.953-1.283 9.36 9.36 0 0 1-.506-.956l-.12-.269a.528.528 0 0 0-.046-.093.394.394 0 0 0 .029.1c.024.064.056.157.105.277.14.336.304.663.489.977a8.384 8.384 0 0 0 2.413 2.618c.553.355 1.124.682 1.711.978.473.247.901.572 1.266.96.243.265.429.576.547.915.074.235.084.379.093.376Z" opacity=".08"/><path fill="#1D1D1D" d="M165.672 17.915a.909.909 0 0 0 .015-.381 1.748 1.748 0 0 0-.462-.931 3.934 3.934 0 0 0-1.291-.858 8.353 8.353 0 0 1-1.628-.934 7.603 7.603 0 0 1-2.195-2.581c-.16-.307-.3-.624-.42-.949-.037-.11-.069-.198-.091-.269a.376.376 0 0 0-.039-.09.515.515 0 0 0 .022.095c.02.074.044.164.076.274.108.335.24.662.396.978a7.396 7.396 0 0 0 2.2 2.625 8.337 8.337 0 0 0 1.648.936c.475.19.909.471 1.278.827.241.245.406.556.474.894.016.12.022.243.017.364Z" opacity=".08"/><path fill="#FF725E" d="M159.381 34.828c-.018.054-5.838-.71-5.838-.71s.489-4.824.934-6.264c.42-1.351 3.29-2.813 4.571-1.579a4.055 4.055 0 0 1 1.247 2.775l-.914 5.778Z"/><path fill="#263238" d="M159.297 34.936c-.405 0-1.672-.159-5.771-.697l-.117-.014v-.12c.019-.196.489-4.852.941-6.287.244-.826 1.388-1.711 2.581-2.02.909-.244 1.687-.095 2.2.39a4.152 4.152 0 0 1 1.283 2.864l-.919 5.808c-.009.044-.019.076-.198.076Zm-5.622-.924c2.063.271 5.031.65 5.598.692l.897-5.674a3.964 3.964 0 0 0-1.21-2.667c-.592-.572-1.481-.45-1.956-.327-1.117.288-2.178 1.102-2.41 1.855-.398 1.288-.838 5.373-.916 6.121h-.003Z"/><path fill="currentColor" d="M156.653 24.464s-3.227 3.936-3.601 5.867c-.374 1.93 1.036 6.964 1.036 6.964l.609 2.997 9.311-1.604.134-6.74-.694-7.677-.956-.875-5.839 1.068Z"/><path fill="#FFBF9D" d="M164.008 39.937V38.68s-1.279-1.467-4.517-1.017c-3.239.45-4.616 2.275-4.616 2.275l.66 2.086 3.288.371 5.185-2.457Z"/><path fill="#263238" d="M177.467 50.26c-.061.176-2.445 10.77-2.933 13.2-.489 2.43-4.378 6.98-7.681 2.718-3.302-4.26-6.72-11.745-6.72-11.745l8.945-2.787 1.016 4.175 4.114-7.042 3.259 1.481Z"/><path fill="#455A64" d="M169.376 63.934a1.72 1.72 0 0 1-.115-.31 3.715 3.715 0 0 1-.113-.372c-.036-.146-.085-.31-.117-.488a9.277 9.277 0 0 1-.183-1.328 10.92 10.92 0 0 1 .024-1.638 10.67 10.67 0 0 1 .289-1.615c.114-.432.258-.855.432-1.267.069-.178.147-.332.21-.469.064-.137.128-.244.179-.345a2.03 2.03 0 0 1 .173-.28c.022.012-.205.422-.488 1.126-.159.413-.293.835-.401 1.264-.13.526-.222 1.06-.277 1.599a11.502 11.502 0 0 0-.034 1.618c.025.442.076.882.154 1.317.144.734.291 1.181.267 1.188Z"/><path fill="#263238" d="M157.261 48.17s-.024 12.237 3.444 19.275c.782 1.584 1.35 2.566 1.357 3.992.007 1.425.462 12.547.462 12.547h4.468s1.374-7.578 1.308-9.582c-.066-2.005-1.168-6.217-1.298-7.823-.129-1.606-1.819-11.063-1.819-11.063l-2.574-6.375-5.348-.97Z"/><path fill="#263238" d="M163.971 39.842c.367.027.677 2.012.817 2.2.139.188 4.537 1.777 4.889 6.111a12.175 12.175 0 0 1-.827 3.98l.228 3.972-8.346 1.934s-1.376-4.313-1.926-7.564a12.38 12.38 0 0 1-2.063-3.451c-.895-2.188-1.239-5.175-1.239-5.175s2.698-2.42 8.467-2.007Z"/><path fill="#455A64" d="M157.965 48.742s0 .017.022.056l.049.171.183.656c.162.57.411 1.39.768 2.385.357.995.843 2.159 1.447 3.423a51.6 51.6 0 0 0 2.158 4.006 89.224 89.224 0 0 0 2.43 3.85l.567.85c.184.277.372.543.523.817.268.512.574 1.002.917 1.467a3.856 3.856 0 0 0 2.022 1.374l.379.093.286.043.173.03c.02.002.04.006.059.012h-.059l-.178-.017c-.076 0-.174-.015-.286-.032l-.389-.083a3.844 3.844 0 0 1-2.078-1.364c-.35-.463-.663-.954-.936-1.467-.152-.27-.337-.53-.523-.806l-.575-.849a85.643 85.643 0 0 1-2.444-3.85 48.677 48.677 0 0 1-2.154-4.02 35.98 35.98 0 0 1-1.415-3.447 31.969 31.969 0 0 1-.733-2.4c-.066-.282-.12-.504-.159-.666l-.037-.173c-.017-.04-.019-.059-.017-.059Z"/><path fill="#FFBF9D" d="M164.172 25.085c.136.032 6.431 7.375 7.352 8.92.922 1.544 4.606 10.865 4.606 10.865l-2.528 1.083s-4.774-8.5-5.39-9.533c-.616-1.034-7.859-7.463-8.066-7.727-.208-.264-.37-4.637 4.026-3.608Z"/><path fill="#FFBF9D" d="m173.399 45.525.201.65c-.152.69-.255 1.39-.308 2.095-.03.827.19 1.93.176 2.076-.015.146.838.865 1.156.792.318-.074.354-.526.12-.804-.235-.28-.23-.964-.23-.964l.244-.437s1.655.69 2.034.626a.865.865 0 0 0 .565-.49s.719.138.782-.3l.064-.435s.376.173.449-.32c.074-.494-.092-.638-.092-.638s.66-.08.293-.734c-.367-.652-2.43-1.48-2.618-1.674a1.466 1.466 0 0 1-.281-.445l-2.555 1.002Z"/><path fill="currentColor" d="m168.796 28.686-4.248 4.4s-3.764-3.577-4.784-4.689c-1.222-1.32.03-4.331 1.765-4.713 1.736-.381 2.973 1.064 2.973 1.064l4.294 3.938Z"/><path fill="#263238" d="m168.797 28.686-.086-.071-.244-.206-.88-.787-3.129-2.828a3.592 3.592 0 0 0-1.467-.95c-.297-.101-.608-.152-.921-.15a2.2 2.2 0 0 0-.939.205 3.195 3.195 0 0 0-1.386 1.467 3.515 3.515 0 0 0-.374 2.097c.061.34.212.656.437.917.245.245.489.506.734.748.489.489.963.958 1.43 1.413l2.606 2.518h-.074l3.092-3.178.873-.885.245-.244.085-.081a.94.94 0 0 1-.071.08l-.217.245-.846.897-3.075 3.232-.037.036-.037-.036a270.456 270.456 0 0 1-2.62-2.506c-.467-.454-.948-.924-1.435-1.41-.244-.245-.489-.49-.733-.753a2.06 2.06 0 0 1-.472-.978 3.663 3.663 0 0 1 .389-2.18 3.323 3.323 0 0 1 1.447-1.518 2.648 2.648 0 0 1 1.955-.054 3.66 3.66 0 0 1 1.496.978c1.293 1.202 2.364 2.2 3.117 2.891l.853.8.218.207a.725.725 0 0 1 .066.084Z"/><path fill="#FF9A6C" d="M154.875 39.937c.291.612.5 1.259.624 1.924a4.243 4.243 0 0 1-.372-.941 4.327 4.327 0 0 1-.252-.983Z"/><path fill="#FFBF9D" d="M104.439 49.405c.142-.323 0-3.54 0-3.54h4.019l-.147 1.555.814 1.975-2.525.926-2.161-.916Z"/><path fill="#263238" d="M99.868 55.606s1.882.125 3.376-.344c1.493-.47 3.62-1.506 4.4-1.878.78-.371 3.253-.618 3.234-1.5-.02-.883-1.956-3.709-1.956-3.709s-.469 1.076-1.312 1.222c-.844.147-2.567.081-2.567.081s-.949-.936-1.44-.873c-.491.064-.027 1.396-.027 1.396s-.806 1.902-1.532 2.445c-.726.542-.704.787-1.638 1.021-.934.235-1.308.68-1.308.68s-.26.865.024 1.093c.228.16.48.285.746.366Z"/><path fill="#455A64" d="M99.108 55.225c.22.187.48.322.76.393 0 0 1.882.125 3.376-.344 1.493-.47 3.622-1.504 4.4-1.875.777-.372 3.253-.62 3.236-1.5a1.433 1.433 0 0 0-.195-.7s-2.291 1.2-3.472 1.442c-1.18.242-3.498 1.623-4.83 1.917-.956.183-1.926.282-2.899.298l-.489-.14c-.01.206-.046.355.113.509Z"/><path fill="#fff" d="M102.288 52.147c.077.14.165.274.261.401.115.11.238.21.367.303a.807.807 0 0 1-.628-.704ZM102.904 51.297c.1.162.215.315.345.454.147.122.305.227.474.316a.834.834 0 0 1-.531-.257.797.797 0 0 1-.288-.513ZM103.302 50.527c.134.087.262.181.384.283.139.078.273.163.401.257a.895.895 0 0 1-.445-.19.92.92 0 0 1-.34-.35ZM108.311 51.26c-.093.06-.194.104-.301.135-.19.07-.457.156-.755.244s-.572.14-.772.173a1.32 1.32 0 0 1-.326.037c0-.024.489-.127 1.078-.286.59-.159 1.061-.325 1.076-.303Z"/><path fill="#FFBF9D" d="M143.289 46.687c.1.12 1.222 3.27 1.18 3.541-.041.272-.198 1.993-.371 2.391-.174.399-1.24 1.599-1.445 1.442-.205-.156-.423-.53-.208-.787l-1.171.174s-.09-.557.286-.773l-.537-.13s.132-.566.488-.618c.357-.051.216.047.216.047l.286-.443s-.11-1.276-.306-1.569c-.196-.293-.697-.528-.772-1.25-.076-.72.244-1.52.146-1.693a8.502 8.502 0 0 1-.303-.96s1.728-.898 1.814-.917c.085-.02.697 1.544.697 1.544Z"/><path fill="#FF9A6C" d="M141.783 50.09c.024 0 .054.356.244.891.117.312.273.608.465.88a.536.536 0 0 0 .45.245.392.392 0 0 0 .313-.401 1.022 1.022 0 0 0-.172-.572 2.203 2.203 0 0 1-.244-.56 2.95 2.95 0 0 1 0-1.026c.032-.224.045-.45.037-.675a1.823 1.823 0 0 1-.025-.245.637.637 0 0 1 .074.245c.027.23.027.462 0 .692-.048.328-.043.663.014.99.058.185.14.362.245.525.125.191.19.415.188.643a.66.66 0 0 1-.105.342.438.438 0 0 1-.311.179.643.643 0 0 1-.555-.3 3.72 3.72 0 0 1-.457-.922 3.623 3.623 0 0 1-.144-.668.867.867 0 0 1-.017-.264ZM143.296 52.34c.027.025-.144.245-.355.511-.21.267-.386.49-.415.462.06-.203.168-.39.315-.542.215-.272.426-.462.455-.43Z"/><path fill="#FF9A6C" d="M143.118 50.598c.014 0 .075.078.156.227.111.2.176.422.193.65a2.66 2.66 0 0 1-.127.655c-.034.16 0 .26-.032.267-.031.007-.071-.098-.058-.276.042-.212.073-.426.09-.641a2.03 2.03 0 0 0-.149-.618c-.056-.164-.09-.264-.073-.264ZM141.638 52.72c.174-.115.367-.198.57-.245.132-.056.218-.203.315-.272.098-.068.189-.073.189-.056 0 .017-.059.042-.128.123-.034.039-.07.092-.119.151a.511.511 0 0 1-.203.169c-.196.09-.409.134-.624.13Z"/><path fill="#FFBF9D" d="m130.685 19.553 1.007.672s2.391.66 3.303 2.147c.911 1.486 1.64 4.092 1.882 5.58.242 1.489 1.44 3.75 2.063 5.786 0 0 2.689 5.107 3.503 10.77l.433 1.357-1.79 1.151s-3.527-6-4.055-7.438c-.528-1.437-.826-2.075-1.45-3.708-.623-1.633-3.072-4.657-3.177-5.52l.298-2.486s-1.44-2.014-2.017-3.935c-.577-1.922 0-4.606 0-4.606M120.03 18.402l-1.726.718s-4.175.177-5.326 3.912l-1.206 2.561.868 5.085 1.44.43 2.112-4.175.504.049s1.943-2.784 2.71-4.464c.768-1.68.624-4.116.624-4.116Z"/><path fill="#E0E0E0" d="M114.933 30.614c-.122-.151-3.742-3.708-3.742-3.708s1.711-3.955 2.073-4.571c.361-.616 1.183-2.39 4.534-3.31l2.444-.69-1.031 7.258-2.511 1.399-1.767 3.622Z"/><path fill="#E0E0E0" d="m120.03 18.402 2.689-.474 5.585.322 1.846.775 2.879 8.4s-1.872 7.389-1.872 7.533c0 .144-2.181 9.915-2.181 9.915s2 .474-.704 1.774c-5.057-1.64-9.504-3.73-11.584-7.56l-.873-3.178.88-2.178v-6.747l3.335-8.582Z"/><path fill="#E0E0E0" d="m133.037 32.624 4.722-2.843s-1.711-7.24-3.852-8.68a22.743 22.743 0 0 0-3.75-2.076l1.662 11.325 1.218 2.274Z"/><path fill="#263238" d="M132.883 25.56c.034 0-.135 1.451-.377 3.23-.242 1.78-.464 3.23-.501 3.23-.036 0 .135-1.452.377-3.234s.464-3.232.501-3.227ZM116.588 24.178c.037 0 .105 2.11.156 4.713.052 2.603.066 4.713.03 4.713-.037 0-.105-2.107-.157-4.71-.051-2.604-.063-4.713-.029-4.716Z"/><path fill="#E0E0E0" d="M121.939 13.234c-.317-.99-.55-2.004-.694-3.033a6.309 6.309 0 0 1 .339-3.068c.059-.147.555-1.122.712-1.102.112.014-.203.928-.149 1.029.482.969.66 2.061.508 3.133a14.18 14.18 0 0 1-.716 3.041Z"/><path fill="#FFBF9D" d="m121.822 18.61.134-9.34c0-2.609 1.503-4.784 4.109-4.718l.245.02a4.664 4.664 0 0 1 4.272 4.656c0 2.258-.044 4.754-.158 5.957-.245 2.488-2.765 2.667-2.765 2.667s-.015.222-.044.956l-1.584 2.444-4.209-2.642Z"/><path fill="#FF9A6C" d="M127.654 17.842a6.044 6.044 0 0 1-3.163-1.222s.623 1.938 3.129 1.921l.034-.699Z"/><path fill="#263238" d="M129.087 11.461a.36.36 0 0 1-.374.332.342.342 0 0 1-.316-.218.337.337 0 0 1-.024-.133.357.357 0 0 1 .374-.33.333.333 0 0 1 .244.102.343.343 0 0 1 .096.247ZM129.957 10.284c-.049.041-.304-.181-.685-.21-.381-.03-.679.136-.719.085-.039-.051.035-.103.164-.18a.992.992 0 0 1 .58-.128.964.964 0 0 1 .54.225c.11.1.142.188.12.208ZM125.813 11.463a.355.355 0 0 1-.374.33.343.343 0 0 1-.339-.351.353.353 0 0 1 .371-.33.344.344 0 0 1 .342.351ZM126.195 10.059c-.049.042-.301-.181-.685-.21-.384-.03-.679.137-.716.085-.037-.051.032-.102.161-.18.176-.1.378-.145.58-.128a.955.955 0 0 1 .54.225c.11.1.142.188.12.208ZM127.322 13.117c.206-.047.418-.068.63-.061.1 0 .193-.015.215-.078a.502.502 0 0 0-.039-.296 100.7 100.7 0 0 1-.227-.77c-.313-1.093-.531-1.99-.489-2.002.042-.012.332.865.645 1.955l.215.773c.051.123.058.26.02.389a.245.245 0 0 1-.174.129.675.675 0 0 1-.168 0c-.21.013-.421 0-.628-.04Z"/><path fill="#E0E0E0" d="M126.417 8.87c-.059.094-.423-.04-.873-.087-.45-.047-.836 0-.872-.115-.018-.049.068-.13.232-.196a1.463 1.463 0 0 1 1.332.166c.147.089.21.189.181.233ZM130.067 9.16c-.086.08-.392-.032-.766-.062-.374-.029-.699 0-.765-.085-.029-.047.027-.13.171-.203a1.286 1.286 0 0 1 1.235.117c.125.098.164.19.125.232Z"/><path fill="#FFBF9D" d="M122 11.13c-.042-.022-1.67-.648-1.758 1.06-.088 1.71 1.646 1.443 1.65 1.394.005-.05.108-2.454.108-2.454Z"/><path fill="#FF9A6C" d="M121.408 12.912s-.029.02-.08.039a.295.295 0 0 1-.223 0 .731.731 0 0 1-.308-.677c.004-.147.04-.292.105-.423a.348.348 0 0 1 .245-.217.153.153 0 0 1 .171.09c.019.049 0 .083.017.088.017.005.037-.027.027-.098a.204.204 0 0 0-.061-.113.245.245 0 0 0-.164-.05.41.41 0 0 0-.323.243c-.08.144-.125.305-.129.47 0 .345.154.677.396.76a.318.318 0 0 0 .276-.03c.046-.04.059-.08.051-.082Z"/><path fill="#E0E0E0" d="M129.593 6.353c.283-.14-.509-1.07-1.176-1.408-1.007-.51-2.562-.865-3.523-.635-1.153.273-2.124.801-2.742 1.813a6.735 6.735 0 0 0-.9 3.408c-.03.362.037.726.196 1.053.222.39.669.646.628 1.167-.019.19.037.38.156.53.299.345.695.049.883-.245.403-.652.489-1.45.545-2.214a5.013 5.013 0 0 0-.039-1.63c-.071-.29-.193-.565-.245-.856a1.028 1.028 0 0 1 .159-.848c.044-.05.092-.095.144-.135a1.79 1.79 0 0 1 1.782-.261c.949.38 2.57.96 3.014.652.314-.186.585-.436.797-.733l.321.342Z"/><path fill="#263238" d="M126.107 13.303c.058 0 .046.39.371.682.325.29.734.264.746.32.012.056-.095.07-.274.07a.976.976 0 0 1-.623-.244.855.855 0 0 1-.286-.572c-.008-.163.039-.259.066-.256ZM127.889 49.08s-.978 6.47-1.467 9.345c-.489 2.874-1 6.6-1.252 9.59-.259 3.038-.075 4.103-.166 7.85-.09 3.748-1.814 9.498-1.814 9.498h-4.077c0-.262-.503-8.27-.503-10.717 0-2.447.119-2.85-.35-4.593-.469-1.743-.606-4.004-.511-7.663.095-3.66-1.053-11.037-1.053-11.037l.374-11.934s7.147 4.442 9.215 5.662c2.068 1.22 2.095.948 2.095.948l-.491 3.05Z"/><path fill="#263238" d="M122.873 84.36c.545.837.853 1.806.892 2.804.015.455 0 .944-.244 1.31-.206.291-.548.474-.69.804-.159.372-.014.802-.068 1.203-.071.526-.734 1.044-1.222 1.257-.489.212-.893.188-1.404.225-.733.056-1.393.058-1.992-.396a1.958 1.958 0 0 1-.718-1.523 2.9 2.9 0 0 1 .523-1.643c.276-.41.635-.768.836-1.222.262-.736.451-1.496.564-2.269 0 0 .225-.317 1.247-.347 1.022-.03 1.467 1.085 1.816.792.35-.293.46-.995.46-.995Z"/><path fill="#455A64" d="M117.451 90.718c.431.334.933.565 1.467.675a4.514 4.514 0 0 0 1.62.012c.38-.06.74-.213 1.046-.445.389-.361.536-.537.636-.855.1-.318.017-.716.134-1.049.128-.371.475-.604.734-.897.337-.394.652-1.002.621-1.525a1.69 1.69 0 0 1 .107 1.71c-.244.409-.679.666-.88 1.094-.176.373 0 .762-.105 1.16-.161.558-.765 1.044-1.283 1.267a3.71 3.71 0 0 1-1.658.225 3.61 3.61 0 0 1-1.359-.303 1.873 1.873 0 0 1-.977-.993"/><path fill="#fff" d="M120.519 88.594c-.017.032-.369-.144-.844-.21-.474-.066-.858 0-.865-.04.279-.12.588-.15.885-.085.303.02.592.138.824.335ZM120.716 87.9c-.017.034-.371-.144-.843-.21s-.86 0-.868-.037c.279-.124.59-.154.888-.088.303.023.591.14.823.335ZM121.135 87.23c-.02.034-.372-.142-.844-.208-.471-.066-.86 0-.867-.039.278-.12.588-.15.884-.085.304.022.592.138.827.332ZM120.147 86.423a.925.925 0 0 1 .086-.227c.089-.203.198-.396.325-.577.086-.135.204-.247.342-.327a.28.28 0 0 1 .296.024.332.332 0 0 1 .117.286 1.007 1.007 0 0 1-.274.543c-.145.16-.323.286-.52.374a.752.752 0 0 1-.65 0 1.173 1.173 0 0 1-.438-.409 2.946 2.946 0 0 1-.147-.23.472.472 0 0 1-.061-.134.14.14 0 0 1 .015-.097.119.119 0 0 1 .038-.038.12.12 0 0 1 .05-.019.245.245 0 0 1 .142.025l.112.049c.067.034.131.074.191.12.182.134.324.316.41.525.038.076.058.16.059.244a1.886 1.886 0 0 1-.103-.215 1.315 1.315 0 0 0-.418-.476 1.589 1.589 0 0 0-.183-.103.485.485 0 0 0-.193-.059c-.015 0-.017 0-.012.032.01.035.027.067.049.095.046.074.093.15.146.22.099.154.237.28.399.365a.619.619 0 0 0 .545 0 1.218 1.218 0 0 0 .733-.807.247.247 0 0 0-.071-.193.173.173 0 0 0-.181-.015.986.986 0 0 0-.315.286c-.13.174-.248.357-.352.548a.995.995 0 0 1-.137.19ZM122.851 86.49c.034 0 .036.23-.084.488-.119.26-.298.391-.32.364-.022-.026.098-.19.206-.42.107-.23.163-.438.198-.433Z"/><path fill="#263238" d="M109.005 25.046s-4.126-.49-4.278 4.889c-.129 4.622-.64 17.077-.64 17.077l4.825-.37s1.738-7.49 1.829-10.54a20.048 20.048 0 0 0-.734-5.75l-1.002-5.306Z"/><path fill="#263238" d="M117.069 39.42s-2.302-9.385-4.453-12.788c-1.012-1.6-3.611-1.586-3.611-1.586s-.454 18.903.641 20.82c1.095 1.916 3.287 4.091 6.028 4.788l1.004.699.391-11.934Z"/><path fill="#455A64" d="M116.092 43.509c.036.09.063.185.08.28.047.184.106.45.172.778.132.66.293 1.574.425 2.591.132 1.017.213 1.944.244 2.613.02.338.032.609.035.797a1.57 1.57 0 0 1 0 .291 1.084 1.084 0 0 1-.042-.288c-.022-.213-.046-.49-.076-.792a69.857 69.857 0 0 0-.674-5.195c-.054-.31-.096-.572-.132-.784a1.14 1.14 0 0 1-.032-.291ZM110.722 28.25c.02.054.036.11.046.167l.105.489c.044.207.098.464.142.765.044.3.112.638.154 1.019.041.381.098.794.129 1.242.032.447.062.926.084 1.432a30.48 30.48 0 0 1-.096 3.283 29.674 29.674 0 0 1-.489 3.249c-.11.489-.21.963-.332 1.396-.122.432-.232.836-.347 1.2-.115.364-.23.69-.33.978-.1.288-.193.53-.276.733l-.189.452a.702.702 0 0 1-.073.157.935.935 0 0 1 .049-.164c.044-.12.098-.272.166-.465.069-.193.164-.442.245-.733.08-.29.21-.614.312-.978.103-.364.225-.765.33-1.2.106-.435.213-.9.321-1.39.213-1.072.371-2.153.474-3.24.09-1.087.125-2.178.105-3.268-.02-.504-.032-.978-.071-1.428-.039-.45-.071-.86-.115-1.239-.044-.379-.093-.719-.132-1.017a14.461 14.461 0 0 0-.122-.767c-.039-.21-.061-.362-.083-.49a1.021 1.021 0 0 1-.007-.183Z"/><path fill="#FFBF9D" d="M106.881 32.264a.919.919 0 0 0-.403-.244.36.36 0 0 0 .374-.335.567.567 0 0 0-.245-.474 1.269 1.269 0 0 0-.52-.193 6.093 6.093 0 0 1-.704-.162l-1.328-.159c-.244.071-.325.773-.026.932-.174.044-.269.017-.394.146a.573.573 0 0 0-.159.49.408.408 0 0 0 .369.33.668.668 0 0 0-.353.527.664.664 0 0 0 .253.582.643.643 0 0 0 .218.117c.028.013.059.021.09.025h.042c.061-.027.117-.066.18-.088l.074-.025a1.26 1.26 0 0 1 .344-.046c.055.004.11.004.164 0a.67.67 0 0 0 .1-.04c.224-.052.457-.057.682-.014.247.047.502.022.734-.073a.492.492 0 0 0 .244-.626.324.324 0 0 0 .372-.217.47.47 0 0 0-.108-.452Z"/><path fill="#FFBF9D" d="M103.809 34.464a.535.535 0 0 0 .112.433c.166.123.37.185.577.174.056-.21.071-.32.125-.531 0-.044 0-.083.031-.12.079-.093.311-.06.428-.093a.407.407 0 0 0 .245-.501.558.558 0 0 0-.467-.366.856.856 0 0 0-.587.178 1.194 1.194 0 0 0-.464.826Z"/><path fill="#FF9A6C" d="M103.791 32.63c.477-.014.953.02 1.423.101.782.093 1.41.2 1.406.245a7.09 7.09 0 0 1-1.423-.1c-.782-.096-1.411-.203-1.406-.245ZM104.002 31.621c.431-.05.868-.03 1.293.062a4.01 4.01 0 0 1 1.249.334c0 .042-.572-.083-1.271-.193-.428-.042-.852-.11-1.271-.203ZM104.065 30.666c0-.042.489-.025 1.066.09.355.048.702.14 1.034.274 0 .041-.489-.017-1.061-.132a6.098 6.098 0 0 1-1.039-.232ZM103.95 34.166c-.017 0-.034-.105.044-.244a.8.8 0 0 1 .489-.36c.193-.057.394-.076.594-.056.174.03.218.161.193.161-.024 0-.071-.063-.203-.06a2.99 2.99 0 0 0-.542.095.863.863 0 0 0-.44.276c-.091.102-.113.19-.135.188Z"/><path fill="#FFBF9D" d="M69.427 66.914s1.94 3.293 2.462 4.527c.33.787 1.772 4.4 2.222 5.686.45 1.286 3.498 9.028 3.498 9.028l3.8-.392s-2.253-10.36-2.762-12.615c-.508-2.257-2.222-6.234-2.222-6.234h-6.998ZM53.966 65.384c-.046.193-.868 4.248-.674 7.145.193 2.897 1.593 13.083 1.593 13.083h2.992s.734-8.013 1.061-10.113c.328-2.1.05-5.818 0-6.397.01-.775.064-1.549.164-2.317l-5.136-1.401Z"/><path fill="#263238" d="M58.232 40.92s-3.713 5.867-4.532 15.077c-.82 9.211-.978 10.404-.978 10.404l8.656.843 2.278-11.056 1.633 11.032 11.777-.396S74.424 55.782 73.98 53.18c-.445-2.6-1.711-5.881-1.711-5.881l-.15-1.545-7.536-.535-6.35-4.3ZM86.326 88.716a9.29 9.29 0 0 1-2.831.58c-1.332 0-3.324-.301-4.058-.404-.733-.102-2.801.325-3.011-.393-.21-.719.65-3.513.65-3.513s.655.753 1.381.665c.717-.14 1.421-.337 2.107-.59 0 0 .533-1.001.946-1.075.413-.073.376 1.127.376 1.127s1.142 1.34 1.868 1.59c.726.248.77.461 1.589.412a2.2 2.2 0 0 1 1.222.22s.433.638.262.895c-.14.188-.31.352-.501.486Z"/><path fill="#455A64" d="M86.846 88.215c-.132.208-.31.383-.518.513a9.29 9.29 0 0 1-2.83.58c-1.333 0-3.325-.3-4.058-.404-.734-.102-2.802.326-3.01-.396a1.2 1.2 0 0 1-.019-.618s2.166.394 3.178.29c1.012-.102 3.26.431 4.417.326a14.443 14.443 0 0 0 2.432-.489l.362-.244c.068.163.137.276.046.442Z"/><path fill="#fff" d="M83.478 86.531a2.579 2.579 0 0 1-.11.391 2.535 2.535 0 0 1-.22.34.685.685 0 0 0 .33-.734v.003ZM82.762 85.988a2.23 2.23 0 0 1-.164.457c-.088.136-.19.262-.305.377a.84.84 0 0 0 .469-.834ZM82.241 85.465c-.088.104-.17.214-.244.328-.135.173-.272.293-.262.31a1.044 1.044 0 0 0 .501-.638h.005ZM78.367 87.335c.09.022.184.032.278.032.171 0 .41.012.672 0 .225-.008.45-.026.673-.056a.954.954 0 0 0 .273-.054c0-.02-.425.022-.948.041-.523.02-.948.018-.948.037Z"/><path fill="#263238" d="M57.956 84.507c.546.836.854 1.805.892 2.804.017.454 0 .943-.245 1.31-.205.29-.547.474-.687.804-.158.372-.014.802-.07 1.203-.071.525-.734 1.044-1.21 1.256-.477.213-.895.189-1.406.225-.733.054-1.393.059-1.992-.396a1.969 1.969 0 0 1-.719-1.523c.005-.588.188-1.16.526-1.642.276-.411.635-.77.833-1.223a11.81 11.81 0 0 0 .565-2.266s.225-.317 1.249-.347c1.024-.03 1.467 1.086 1.814.792.347-.293.45-.997.45-.997Z"/><path fill="#455A64" d="M52.534 90.865c.432.332.933.562 1.466.675a4.517 4.517 0 0 0 1.621.012c.38-.06.74-.213 1.046-.445.391-.362.536-.538.636-.856.1-.317.02-.716.134-1.048.13-.372.477-.604.734-.897.337-.394.65-1.003.618-1.526a1.681 1.681 0 0 1 .108 1.711c-.245.411-.68.668-.88 1.096-.174.373 0 .76-.106 1.16-.16.558-.762 1.044-1.283 1.264a3.667 3.667 0 0 1-1.657.228 3.596 3.596 0 0 1-1.357-.303 1.887 1.887 0 0 1-.978-.993"/><path fill="#fff" d="M55.604 88.73c-.02.035-.372-.14-.843-.207-.472-.066-.86 0-.868-.039a1.857 1.857 0 0 1 1.71.244v.003ZM55.8 88.046c-.018.035-.37-.144-.844-.21s-.86 0-.868-.036a1.855 1.855 0 0 1 1.712.244v.002ZM56.218 87.377c-.018.034-.372-.142-.844-.208s-.86 0-.868-.04a1.86 1.86 0 0 1 1.712.245v.003ZM55.23 86.57a.881.881 0 0 1 .086-.227c.09-.203.198-.396.325-.577a.992.992 0 0 1 .344-.328.274.274 0 0 1 .294.025.338.338 0 0 1 .117.286.997.997 0 0 1-.274.537c-.145.16-.322.288-.52.374a.748.748 0 0 1-.65 0 1.198 1.198 0 0 1-.438-.408c-.054-.078-.1-.154-.147-.23a.46.46 0 0 1-.061-.134.132.132 0 0 1 .017-.098.11.11 0 0 1 .086-.056c.049-.007.1.002.144.024.037.015.074.031.11.05a1.282 1.282 0 0 1 .604.645c.039.075.058.16.056.244 0 0-.032-.08-.103-.218-.1-.189-.243-.351-.418-.474a1.291 1.291 0 0 0-.18-.102.502.502 0 0 0-.194-.059c-.017 0-.017 0-.014.032a.35.35 0 0 0 .048.095c.047.073.096.15.147.22.1.153.237.278.398.364a.626.626 0 0 0 .546 0 1.222 1.222 0 0 0 .733-.804.223.223 0 0 0-.07-.193.166.166 0 0 0-.182-.015.95.95 0 0 0-.313.286c-.131.174-.25.357-.354.548-.083.124-.127.198-.137.193ZM57.936 86.636c.034 0 .034.23-.086.489-.12.26-.298.389-.32.364-.022-.024.098-.193.206-.42.107-.228.163-.438.2-.433Z"/><path fill="#FFBF9D" d="M88.912 13.887c-1.073 0-7.309 3.366-9.044 4.923-1.181 1.063-5.596 4.923-5.596 4.923l2.934 2.381 3.153.276.183-1.044 2.88-2.5s4.08-2.264 5.456-4.09l9.347 2.2 1.494-2.268s-7.654-4.801-10.807-4.801Z"/><path fill="#FFBF9D" d="M98.347 21.303s.186 1.738.345 2.423c.159.684.711 1.24.711 1.687-.003.25.041.5.132.733 0 0 .553.054.604-.606.051-.66 0-1.817 0-1.817s.897 1.342 1.53 1.633c.633.291 2.081.342 2.107.078.027-.264.211-.283-.264-.488a8.293 8.293 0 0 0-.977-.333l-.868-.733a7.15 7.15 0 0 0 1.237.474c.423.078 1.66.29 1.74.105a.59.59 0 0 0-.21-.733s.447-.108.447-.396c0-.289-.185-.555-.342-.528a7.2 7.2 0 0 1-1.185-.21c-.081-.027-.949-.712-.949-.712l.051-.159s.58.634.898.607c.317-.027.867-.027.867-.184 0-.156.054-.555-.342-.555a.71.71 0 0 1-.579-.288l-.79-.423a17.143 17.143 0 0 0-1.222-1.555c-.423-.42-1.711-.711-1.711-.711l-1.381 2.242.151.45Z"/><path fill="#FF9A6C" d="M100.682 20.582c.104.13.179.283.218.445a2.546 2.546 0 0 1-.396 2.305c-.093.14-.214.258-.355.347-.015-.014.117-.149.281-.4a2.88 2.88 0 0 0 .428-1.074 2.931 2.931 0 0 0-.044-1.153c-.081-.291-.152-.462-.132-.47Z"/><path fill="#FFBF9D" d="m82.427 32.998 9.675-3.684c2.444-.839 3.98-2.956 3.073-5.378l-.096-.218a4.608 4.608 0 0 0-5.732-2.48c-2.107.733-4.427 1.58-5.512 2.077-2.249 1.032-1.599 3.447-1.599 3.447s-1.39.567-2.065.83l-.585 1.793 2.84 3.613Z"/><path fill="#FF9A6C" d="M82.236 26.772a5.988 5.988 0 0 0 2.176 2.556s-2.012.047-2.809-2.3l.633-.256Z"/><path fill="#263238" d="M87.846 23.066a.352.352 0 0 0-.188.454.339.339 0 0 0 .44.203.352.352 0 0 0 .188-.454.337.337 0 0 0-.44-.203ZM88.562 22.171c-.024.059.264.223.418.57.154.347.09.68.152.699.06.02.083-.066.115-.213a.964.964 0 0 0-.455-1.012c-.127-.07-.22-.073-.23-.044ZM89.098 26.234a.352.352 0 0 0-.188.454.34.34 0 0 0 .44.206.356.356 0 0 0 .188-.457.338.338 0 0 0-.44-.203ZM89.99 25.61c-.024.06.266.223.418.573.151.35.093.677.151.696.06.02.086-.063.118-.21a.978.978 0 0 0-.069-.582.935.935 0 0 0-.386-.423c-.13-.078-.222-.08-.232-.054ZM86.77 25.547a2.614 2.614 0 0 0-.149-.609c-.029-.093-.048-.183 0-.225a.472.472 0 0 1 .289-.058l.792-.037c1.122-.061 2.029-.15 2.026-.193-.002-.044-.914-.032-2.038.03l-.79.048a.562.562 0 0 0-.37.11.245.245 0 0 0-.065.203c.01.055.025.108.046.159.06.201.147.394.26.572ZM91.026 25.017c-.066.085.176.38.367.79.19.407.279.774.389.776.05 0 .1-.107.107-.283a1.416 1.416 0 0 0-.149-.663 1.467 1.467 0 0 0-.425-.53c-.142-.103-.254-.13-.289-.09ZM89.577 21.702c-.05.107.154.357.303.696.149.34.215.656.327.687.054.013.113-.068.135-.227a1.203 1.203 0 0 0-.12-.616 1.181 1.181 0 0 0-.396-.489c-.127-.095-.225-.1-.25-.051Z"/><path fill="#FFBF9D" d="M90.347 29.871c.034.03 1.146 1.35-.42 1.985-1.568.636-1.883-1.068-1.84-1.09a462.62 462.62 0 0 1 2.26-.895Z"/><path fill="#FF9A6C" d="M88.878 31.003s0 .037-.012.09a.29.29 0 0 0 .078.206.733.733 0 0 0 .733.066.939.939 0 0 0 .36-.245.338.338 0 0 0 .127-.288.15.15 0 0 0-.14-.132c-.053 0-.08.02-.085.012-.005-.007.012-.044.08-.059a.202.202 0 0 1 .125.022c.05.03.085.079.1.135a.413.413 0 0 1-.127.384 1.01 1.01 0 0 1-.398.273.766.766 0 0 1-.839-.124.315.315 0 0 1-.058-.267c.02-.053.05-.076.056-.073Z"/><path fill="#263238" d="M86.988 26.742c-.017-.053-.379.086-.758-.124s-.489-.609-.538-.592c-.048.017-.036.113.023.276a.958.958 0 0 0 .43.504c.19.107.414.136.626.08.156-.043.23-.12.217-.144ZM90.163 17.255a.405.405 0 0 1 .286.086c.159.15.274.338.335.547.213.495.536.935.944 1.286.012-.185.054-.368.124-.54a1.061 1.061 0 0 1 .86-.682.244.244 0 0 1 .201.061c.074.088 0 .218-.041.323a.919.919 0 0 0 0 .934c.098.204.242.383.42.523h.03l.34.142c.823.35 1.434.691 1.857 1.126a5.76 5.76 0 0 1 1.384 2.75c.114.883-.245 1.86-1.01 2.305.56.294.829.978.834 1.6h.012c.03.693-.47 1.297-1.015 1.73l-.09.068a2.572 2.572 0 0 0-.465 1.142c0 .073-.024.156-.09.19a.215.215 0 0 1-.203-.036 1.286 1.286 0 0 1-.403-.408c-.126.114-.241.24-.345.374-.088.117-.193.244-.34.244a.281.281 0 0 1-.224-.22.815.815 0 0 1 .012-.335l-.42.423a1.545 1.545 0 0 1-.226-.677c-.63.108-1.74.447-2.2.457-.176-.413-.173-.53-.327-.714-.2-.244-.638.066-.646-.342 0-.208.563-.763.734-.897a9.676 9.676 0 0 1 3.627-1.931c.165-.362.26-.752.279-1.149l-.02.03c-.039-.734-.114-1.546-.664-2.03-.426-.376-1.027-.454-1.56-.647a3.537 3.537 0 0 1-2.163-1.939c-.734.193-1.87.628-2.528.856l1.066-1.076c.056-.076.117-.142.178-.21l.02-.02c.103-.105.201-.215.293-.33a.435.435 0 0 1 .298-.809c.097.025.19.063.274.115a.684.684 0 0 1-.403-.543.54.54 0 0 1 .35-.554.454.454 0 0 1 .444.114 1.564 1.564 0 0 1-.154-.892c.022-.195.108-.415.335-.445Z"/><path fill="#455A64" d="M95.324 25.513a2.623 2.623 0 0 1-.118.315c-.145.27-.358.499-.618.663a3.05 3.05 0 0 1-.557.295c-.21.088-.443.162-.69.245-.258.08-.511.176-.758.288-.13.062-.254.133-.374.213a.912.912 0 0 0-.32.32.371.371 0 0 0 .025.367.56.56 0 0 0 .283.225c.222.053.454.047.672-.017l-.026-.047c-.145.14-.267.3-.365.474a.733.733 0 0 0-.06.545.47.47 0 0 0 .136.22.43.43 0 0 0 .447.061.305.305 0 0 0 .147-.146l-.032-.015a1.622 1.622 0 0 0-.166.819.445.445 0 0 0 0 .061.24.24 0 0 0 0-.061v-.176c.02-.22.08-.432.18-.628l-.03-.015a.316.316 0 0 1-.333.154.371.371 0 0 1-.2-.088.44.44 0 0 1-.123-.2.687.687 0 0 1 .061-.506 2.1 2.1 0 0 1 .362-.462l.059-.061-.086.017c-.208.061-.43.067-.64.017a.503.503 0 0 1-.245-.2.313.313 0 0 1-.02-.314.824.824 0 0 1 .299-.295c.117-.08.24-.15.367-.21.243-.113.494-.21.75-.291.244-.081.489-.16.692-.245.197-.082.385-.184.562-.305a1.76 1.76 0 0 0 .614-.687c.053-.104.088-.215.105-.33ZM90.2 19.333v.025a.708.708 0 0 1-.02.075.937.937 0 0 0-.022.123c0 .049-.014.105-.017.168-.013.365.065.727.225 1.054.237.487.61.895 1.076 1.173a4.837 4.837 0 0 0 1.853.63c.347.055.686.074 1.01.116.31.033.616.11.906.227.26.105.49.273.67.489.078.1.14.213.183.332.037.112.06.228.069.345a1.443 1.443 0 0 1-.323.99 1.697 1.697 0 0 1-.296.26h.022l.066-.04c.083-.055.158-.12.225-.193.24-.28.363-.64.345-1.007a1.339 1.339 0 0 0-.066-.357 1.324 1.324 0 0 0-.186-.347 1.735 1.735 0 0 0-.687-.516 3.376 3.376 0 0 0-.922-.244c-.325-.044-.664-.064-1.007-.118a4.864 4.864 0 0 1-1.835-.616 2.787 2.787 0 0 1-1.066-1.146 2.237 2.237 0 0 1-.245-1.037c.008-.247.064-.383.042-.386Z"/><path fill="#455A64" d="M91.122 18.715a1.96 1.96 0 0 0-.046.398c-.004.147.005.293.029.438.029.176.074.35.136.518.066.17.148.334.245.489.078.123.165.24.261.35.066.073.136.142.21.207a.404.404 0 0 0 .089.064s-.11-.108-.267-.298a2.71 2.71 0 0 1-.244-.352 3.192 3.192 0 0 1-.228-.475 3.236 3.236 0 0 1-.136-.508 2.646 2.646 0 0 1-.042-.428c-.02-.25.005-.403-.007-.403Z"/><path fill="currentColor" d="M71.618 25.525c2.016-1.836 5.478-4.669 5.478-4.669s.457.653 2.126 2.12a13.848 13.848 0 0 0 3.044 1.992l-1.279 1.855a.629.629 0 0 1-.269.687c-.589.489-.63 1.71-.305 2.689.45 1.349 3.608 2.407 3.608 2.407s1.053 1.978 1.3 2.675c.247.696.931 2.899.931 2.899l-5.074 3.344-3.752.733-3.178 1.57v1.014l-.89.516-.616 2.894s-6.297 1.516-9.53-.587a38.777 38.777 0 0 1-6.22-5.15s4.469-6.473 5.378-7.602c0-.003 7.343-7.656 9.248-9.387Z"/><path fill="#263238" d="M79.222 27.097a2.282 2.282 0 0 1 1.77-.34c0 .037-.41.017-.897.112-.487.096-.873.262-.873.228ZM72.316 40.996c.032-.02.418.538.956 1.178.538.64 1.015 1.122.978 1.149a5.456 5.456 0 0 1-1.088-1.068 5.522 5.522 0 0 1-.846-1.26ZM70.276 43.834c.533.141 1.055.325 1.56.55.519.184 1.024.407 1.51.667a10.46 10.46 0 0 1-1.56-.55 11.075 11.075 0 0 1-1.51-.667Z"/><path fill="#FFBF9D" d="M73.372 50.458c.123 0 8.126-1.826 8.126-1.826l-.152-5.424-.159-2.244 5.055-1.956s-.146-.508 0 2.47l.14 1.867s-.416 5.898-.663 7.045c-.247 1.146-.775 2.063-2.241 2.232-1.3.149-10.106.655-10.106.655v-2.819Z"/><path fill="#FFBF9D" d="M73.373 50.458s-.035-1.696-.467-2.095c-.433-.398-2.335-1.466-2.69-1.112-.354.355-.195.364.245.545.44.181 1.78.734 1.555.734-.225 0-2.24-1.171-2.347-.653-.107.518.49.687.49.687s-.245.367.43 1.031c.397.399.885.696 1.422.866 0 0-1.454-.49-1.555 0-.1.489.299.596.831.794.374.144.74.307 1.096.49 0 0 .43 1.879.733 1.854a5.787 5.787 0 0 0 1.031-.325l-.774-2.816Z"/><path fill="currentColor" d="M81.178 40.964v2.853l5.51-.827s.02-3.32-.734-5.69l-4.776 3.664Z"/><path fill="#263238" d="M85.524 38.375c0 .022-.274.025-.704.098a5.18 5.18 0 0 0-2.933 1.611c-.294.323-.443.555-.462.543a.585.585 0 0 1 .088-.174c.09-.15.191-.294.305-.428a4.677 4.677 0 0 1 2.987-1.65 3.46 3.46 0 0 1 .526-.029c.065 0 .13.01.193.03ZM33.064 50.984c.225.14.447 2.98.33 5.243-.157 2.934-1.134 8.465-1.134 8.465l-7.126 5.904s-.342-7.661-.286-8.786c.056-1.124-1.159-3.879-1.489-4.25-.33-.372-2.76-2.2-3.441-4.542-1.115-3.83-.228-5.948-.228-5.948l2.159-5.487 7.018 2.129 4.197 7.272Z"/><path fill="#263238" d="M32.995 49.713s1.499 10.973-1.38 18.876c-.622 1.71-.695 3.461-.72 5.12-.02 1.426-.838 11.812-.838 11.812l-5.155.423s-1.489-8.027-1.516-10.022c-.027-1.995.117-6.319.188-7.922.071-1.604-.034-12.42-.034-12.42l4.37-5.276 5.085-.591Z"/><path fill="#9F5029" d="M27.59 15.886a1.54 1.54 0 0 0 .055-2.688l-1.822-.472a550.192 550.192 0 0 1-.332 6.942 2.613 2.613 0 0 0 1.34-.474 1.165 1.165 0 0 0 .418-1.279 1.24 1.24 0 0 0 .733-.924 1.254 1.254 0 0 0-.391-1.104Z"/><path fill="#FFBF9D" d="M18.771 15.153v-.821l4.967-.785c1.525-.112 3.124 1.467 3.178 2.995.054 1.71.051 3.776-.188 5.038-.49 2.532-2.445 2.796-2.445 2.796v2.51c-.03 1.467-1.276 1.756-2.747 1.726a2.664 2.664 0 0 1-2.613-2.625l-.152-10.834Z"/><path fill="#263238" d="M25.653 18.163a.328.328 0 0 1-.325.318.309.309 0 0 1-.328-.303.325.325 0 0 1 .325-.32.312.312 0 0 1 .328.305ZM26.28 17.446c-.041.04-.283-.152-.635-.161-.352-.01-.614.159-.65.115-.037-.044.027-.096.14-.174.155-.1.337-.15.522-.144.183.005.36.068.504.18.107.091.142.165.12.184ZM22.086 18.163a.323.323 0 0 1-.325.318.314.314 0 0 1-.332-.303.328.328 0 0 1 .325-.32.311.311 0 0 1 .332.305ZM22.843 17.417c-.041.041-.283-.15-.633-.16-.35-.009-.616.16-.652.113-.037-.046.024-.093.142-.17a.894.894 0 0 1 1.026.036c.105.085.14.164.117.18ZM24.085 20.198c.188-.052.38-.08.575-.085.09 0 .176-.022.193-.08a.46.46 0 0 0-.054-.27c-.076-.22-.156-.45-.244-.691-.34-.978-.58-1.792-.54-1.807.038-.015.344.775.684 1.76.08.245.159.472.244.694a.52.52 0 0 1 .034.355.213.213 0 0 1-.151.124c-.05.014-.1.02-.152.018a2.371 2.371 0 0 1-.589-.018Z"/><path fill="#FF9A6C" d="M24.283 24.371a6.74 6.74 0 0 1-3.466-1.024s.826 1.85 3.469 1.699l-.003-.675Z"/><path fill="#263238" d="M22.724 16.094c-.034.096-.384.05-.797.098-.413.049-.733.164-.802.078-.024-.041.035-.132.169-.225a1.395 1.395 0 0 1 1.217-.134c.152.061.23.137.213.183ZM26.192 16.322c-.073.073-.335-.03-.657-.06-.323-.028-.6 0-.655-.082-.025-.042.024-.117.149-.184a.978.978 0 0 1 .545-.088.958.958 0 0 1 .513.2c.108.091.14.177.105.214Z"/><path fill="#9F5029" d="M27.889 14.28a1.584 1.584 0 0 0 .665-1.613 1.801 1.801 0 0 0-1.552-1.398 1.653 1.653 0 0 0-.785-.245.853.853 0 0 0-.63-.686 2.017 2.017 0 0 0-.979 0 1.662 1.662 0 0 0-2.689.031 1.357 1.357 0 0 0-2.036.775 1.347 1.347 0 0 0-.977.426c-.1.1-.182.215-.245.342-.114.144-.197.31-.244.489a1.53 1.53 0 0 0-.78 2.764 1.4 1.4 0 0 0 .244 2.23 1.783 1.783 0 0 0 .083 1.425.863.863 0 0 0 .436.433.266.266 0 0 0 .036.095c.144.244.523.151.748-.017a3.08 3.08 0 0 0 1.037-1.738c.173-.665.232-1.357.4-2.024v-.047c.072-.276.206-.533.392-.75.188.151.387.288.596.41a2.029 2.029 0 0 0 2.374-.393c.517.46 1.178.725 1.87.75a2.867 2.867 0 0 0 1.906-.508.938.938 0 0 0 .31-.418.288.288 0 0 0-.18-.332Z"/><path fill="#FFBF9D" d="M19.089 18.522c-.034-.017-1.352-.565-1.467.828-.115 1.394 1.313 1.223 1.32 1.176.008-.046.147-2.004.147-2.004Z"/><path fill="#FF9A6C" d="M18.551 19.964s-.024.015-.068.032a.245.245 0 0 1-.181-.013.6.6 0 0 1-.245-.56.834.834 0 0 1 .096-.342.283.283 0 0 1 .198-.17.12.12 0 0 1 .137.075c.017.042 0 .069 0 .071 0 .002.031-.02.027-.078a.173.173 0 0 0-.05-.093.198.198 0 0 0-.131-.047.348.348 0 0 0-.272.198.831.831 0 0 0-.112.382.636.636 0 0 0 .325.623.266.266 0 0 0 .225-.02c.046-.024.056-.056.051-.058Z"/><path fill="#455A64" d="M28.488 12.432v.035a1.06 1.06 0 0 1-.007.496 1.046 1.046 0 0 1-.32.528c-.21.184-.48.282-.759.274l.027-.02a2.412 2.412 0 0 1-.635 1.186 1.85 1.85 0 0 1-.636.435 1.538 1.538 0 0 1-.809.08 2.725 2.725 0 0 1-.765-.23 2.118 2.118 0 0 1-.606-.42h.041c-.34.306-.758.514-1.207.602-.355.049-.717 0-1.046-.14a2.105 2.105 0 0 1-.72-.496.323.323 0 0 1-.038-.049s.06.059.186.164c.175.146.373.263.586.347.325.131.678.173 1.024.122.437-.09.842-.294 1.174-.591l.022-.02.02.022c.176.166.38.3.603.396.237.112.489.188.748.225.26.045.528.019.775-.076.232-.094.442-.237.616-.418.317-.314.539-.713.638-1.149v-.022h.022c.268.011.53-.08.733-.256.151-.134.259-.31.31-.504.036-.125.05-.256.04-.386-.007-.086-.02-.132-.017-.135ZM18.615 12.342c-.063.153-.113.31-.15.472a2 2 0 0 0 .157 1.254v.02l-.02.014c-.179.143-.317.331-.4.545-.091.234-.11.49-.052.733.08.32.277.596.553.775l.024.015-.014.027c-.15.261-.223.56-.21.86.007.238.063.472.163.687.094.192.219.367.37.518a1.138 1.138 0 0 1-.13-.112 1.53 1.53 0 0 1-.274-.389 1.753 1.753 0 0 1-.18-.701 1.665 1.665 0 0 1 .21-.895v.042a1.337 1.337 0 0 1-.55-.81 1.28 1.28 0 0 1 .053-.78c.088-.223.235-.42.425-.566v.034a1.973 1.973 0 0 1-.137-1.286c.023-.114.056-.226.098-.335l.047-.088c.002-.027.017-.036.017-.034Z"/><path fill="#263238" d="M18.197 20.433c-.022.08-.036.162-.042.245 0 .089.03.175.086.244a.311.311 0 0 0 .28.098.244.244 0 0 0 .189-.218.487.487 0 0 0-.032-.261c-.059-.145-.115-.23-.105-.245a.616.616 0 0 1 .147.218c.044.09.061.19.049.288a.383.383 0 0 1-.066.166.298.298 0 0 1-.167.106.36.36 0 0 1-.34-.123.396.396 0 0 1-.085-.28c0-.087.03-.171.086-.238Z"/><path fill="#FF9A6C" d="M22.72 21.142a.545.545 0 0 1 .819-.425.734.734 0 0 1 .324.665.654.654 0 0 1-.455.308.539.539 0 0 1-.088 0 .594.594 0 0 1-.413-.13.541.541 0 0 1-.188-.418Z"/><path fill="#263238" d="M22.883 20.48c.056 0 .063.374.393.64.33.267.734.215.734.269 0 .054-.088.076-.26.083a.949.949 0 0 1-.616-.205.833.833 0 0 1-.305-.536c-.015-.159.027-.254.054-.251Z"/><path fill="currentColor" d="M20.756 45.276c-1.518-1.222.178-2.645.345-4.234.093-.867-3.359-7.534-3.752-10.154-.394-2.62.537-4.718 1.28-5.378.743-.66 5.733.323 5.733.323s6.724 4.679 7.555 7.627c1.01 3.571.49 7.497.49 7.497l-2.978 3.221-8.673 1.098Z"/><path fill="#E0E0E0" d="m41.685 56.41 1.027-4.903-5.248-.853.08 3.627-.471 1.98s.843 1.196 1.026 1.152a662.91 662.91 0 0 0 3.586-1.002Z"/><path fill="#263238" d="M46.882 62.128s-1.885.279-3.422-.068c-1.538-.348-3.767-1.223-4.586-1.528-.819-.306-3.327-.355-3.38-1.242-.054-.887 1.669-3.894 1.669-3.894s.562 1.044 1.423 1.13c.86.085 2.59-.13 2.59-.13s.878-1.022 1.377-.998c.499.025.142 1.401.142 1.401s.977 1.848 1.743 2.327c.765.48.772.734 1.73.895.959.161 1.372.574 1.372.574s.332.851.068 1.103a2.666 2.666 0 0 1-.726.43Z"/><path fill="#455A64" d="M47.618 61.683a1.975 1.975 0 0 1-.733.46s-1.887.278-3.423-.071c-1.535-.35-3.769-1.222-4.588-1.526-.819-.303-3.327-.356-3.38-1.244a1.446 1.446 0 0 1 .139-.718s2.403 1.019 3.613 1.166c1.21.146 3.666 1.351 5.023 1.53.974.105 1.956.125 2.933.061l.49-.178c.021.205.07.352-.074.52Z"/><path fill="#fff" d="M44.162 58.848a3.298 3.298 0 0 1-.23.422 2.87 2.87 0 0 1-.345.335.642.642 0 0 0 .41-.286c.116-.13.174-.299.165-.471ZM43.472 58.041a2.756 2.756 0 0 1-.308.489 3.19 3.19 0 0 1-.452.357.82.82 0 0 0 .51-.303.811.811 0 0 0 .25-.543ZM43.008 57.298c-.02-.012-.16.151-.362.318-.133.09-.261.187-.384.29a1.236 1.236 0 0 0 .733-.608h.013ZM38.036 58.45c.1.049.204.086.313.11a9.642 9.642 0 0 0 1.572.288c.109.015.22.015.33 0 0-.022-.49-.086-1.108-.198-.618-.113-1.1-.23-1.107-.2Z"/><path fill="#263238" d="M35.821 88.812s-1.772.704-3.351.718c-1.58.015-3.948-.31-4.826-.432-.877-.123-3.32.415-3.576-.435-.257-.851.733-4.175.733-4.175s.785.887 1.643.772c.858-.115 2.494-.719 2.494-.719s.618-1.195 1.11-1.285c.49-.091.459 1.332.459 1.332s1.366 1.576 2.232 1.862c.865.286.919.54 1.89.475.97-.066 1.466.244 1.466.244s.518.75.318 1.059a2.67 2.67 0 0 1-.592.584Z"/><path fill="#455A64" d="M36.444 88.21a1.954 1.954 0 0 1-.608.614s-1.77.704-3.352.719c-1.581.014-3.945-.32-4.815-.433-.87-.113-3.32.415-3.574-.435a1.454 1.454 0 0 1-.032-.734s2.574.443 3.784.308c1.21-.134 3.875.475 5.241.338a16.968 16.968 0 0 0 2.868-.616l.427-.286c.061.195.152.327.061.525Z"/><path fill="#fff" d="M32.418 86.243c-.03.157-.071.312-.124.464-.074.14-.157.276-.25.406a.813.813 0 0 0 .384-.87h-.01ZM31.556 85.617a2.83 2.83 0 0 1-.189.542 2.999 2.999 0 0 1-.357.45.826.826 0 0 0 .428-.41.809.809 0 0 0 .118-.582ZM30.94 85c-.022 0-.118.184-.279.392-.161.208-.32.352-.306.369a1.223 1.223 0 0 0 .585-.76ZM26.366 87.264c.108.028.22.04.33.035h.8c.31 0 .591-.047.794-.076.11-.007.22-.03.325-.066 0-.022-.503.03-1.124.06-.621.033-1.125.02-1.125.047Z"/><path fill="#263238" d="M37.288 33.975c1.251-.535 3.317-.652 4.243-.35.57.184 1.078.523 1.467.979 1.093 1.305.912 4.889.843 7.895-.053 2.506-1.136 11.406-1.136 11.406l-5.674.115a39.082 39.082 0 0 0-.054-4.156 8.739 8.739 0 0 0-.643-2.816s-.52 1.52-1.295 3.276c-.775 1.755-3.396 6.013-6.539 6.157-4.139.191-7.822-5.544-7.089-7.55 1.061-2.812 4.033-5.576 6.967-7.784 2.334-1.745 3.816-2.874 5.668-4.688 1.093-1.066 2.286-2.073 3.242-2.484Z"/><path fill="#455A64" d="M37.056 38.375a1.84 1.84 0 0 1-.147.325c-.051.1-.112.225-.174.374-.06.15-.146.316-.212.507a10.752 10.752 0 0 0-.719 3.067c-.041.58-.041 1.161 0 1.74.038.475.107.946.205 1.411.037.198.088.377.127.533.04.157.076.288.11.398.042.111.072.226.091.343a1.99 1.99 0 0 1-.137-.328 4.065 4.065 0 0 1-.132-.393c-.046-.157-.105-.333-.147-.533a9.972 9.972 0 0 1-.244-1.42 10.115 10.115 0 0 1 .755-4.86c.074-.19.162-.355.23-.501a4.41 4.41 0 0 1 .196-.37c.057-.103.123-.201.198-.293ZM22.232 53.257c.022-.012.172.355.536.866a5.523 5.523 0 0 0 4.114 2.341c.628.047 1.017 0 1.02.013-.089.028-.18.045-.272.05-.25.03-.502.038-.753.025a5.29 5.29 0 0 1-4.183-2.368 4.565 4.565 0 0 1-.366-.658 1.105 1.105 0 0 1-.096-.269Z"/><path fill="#FFBF9D" d="m42.416 36.664-12.973-1.386-3.178-5.338s-2.889-4.156-5.409-4.4c-2.52-.245-2.794 2.126-2.745 3.603.049 1.476 1.774 4.136 1.774 4.136s6.314 7.446 7.554 7.734c1.24.288 14.422-1.557 14.422-1.557l.555-2.792Z"/><path fill="#FFBF9D" d="M41.536 36.503s1.504-.763 2.117-.829c.614-.066 1.391.748 1.423.829a.808.808 0 0 1 0 .293s.137 1.254.12 1.384c-.017.13-.44 1.723-.797 2.2-.248.303-.568.539-.932.684 0 0-1.422-.471-1.93-.929a5.761 5.761 0 0 0-.915-.682l-.56-.017.245-2.752 1.23-.181Z"/><path fill="#FFBF9D" d="M44.21 35.662a.298.298 0 0 1 .113-.07c.042-.015.087-.02.132-.015.092.014.18.046.259.095a.925.925 0 0 1 .284.227.424.424 0 0 1 .095.335.3.3 0 0 1-.245.244.489.489 0 0 1-.285-.07 1.186 1.186 0 0 1-.245-.154.49.49 0 0 1-.161-.264.354.354 0 0 1 .054-.328Z"/><path fill="#FF9A6C" d="M44.21 35.662a.472.472 0 0 0 0 .313.54.54 0 0 0 .289.315c.159.08.366.196.489.042a.333.333 0 0 0-.047-.43 1.179 1.179 0 0 0-.352-.245.389.389 0 0 0-.276-.034c-.064.02-.093.049-.1.041-.008-.007 0-.048.083-.087a.403.403 0 0 1 .327 0c.152.055.29.142.404.256.072.073.12.166.14.267a.38.38 0 0 1-.084.325.347.347 0 0 1-.36.105 1.17 1.17 0 0 1-.283-.132.581.581 0 0 1-.313-.404.455.455 0 0 1 .02-.261c.027-.046.058-.076.063-.071Z"/><path fill="#FFBF9D" d="M44.457 36.801a.49.49 0 0 1 .328-.068c.17.018.336.067.489.144.13.048.243.133.325.244.07.112.098.244.08.374-.016.1-.043.2-.08.294a.396.396 0 0 1-.406.293v-.044a.208.208 0 0 0-.054-.227.641.641 0 0 0-.217-.125 1.799 1.799 0 0 1-.364-.196.592.592 0 0 1-.228-.327.354.354 0 0 1 .127-.362Z"/><path fill="#FF9A6C" d="M44.457 36.801s-.034.037-.068.108a.372.372 0 0 0 0 .322.77.77 0 0 0 .381.328c.093.044.193.076.303.134a.293.293 0 0 1 .169.37v-.025.047l-.051-.066a.282.282 0 0 0 .261-.118.57.57 0 0 0 .088-.176 1.33 1.33 0 0 0 .059-.193.51.51 0 0 0-.047-.352.465.465 0 0 0-.244-.218 2.02 2.02 0 0 0-.281-.13.996.996 0 0 0-.43-.068c-.103 0-.154.047-.16.037-.004-.01.037-.056.15-.085a.922.922 0 0 1 .47.031 2.1 2.1 0 0 1 .3.123c.124.049.227.14.29.259.072.13.095.28.064.425a1.355 1.355 0 0 1-.06.213.612.612 0 0 1-.11.212.391.391 0 0 1-.38.162h-.059v-.115c.035-.066-.024-.166-.114-.21-.09-.044-.198-.09-.291-.14a.822.822 0 0 1-.409-.393.401.401 0 0 1 .03-.377c.085-.093.137-.11.14-.105Z"/><path fill="#FFBF9D" d="M44.433 38.32a.61.61 0 0 1 .489-.099.909.909 0 0 1 .533.213.516.516 0 0 1 .11.565c-.081.185-.474.317-.687.32l.032-.108a1.491 1.491 0 0 1-.32-.183.636.636 0 0 1-.245-.328.387.387 0 0 1 .088-.38Z"/><path fill="#FF9A6C" d="M44.433 38.32a.488.488 0 0 0-.076.3c.02.2.245.413.567.538l.047.02-.015.05-.03.108-.058-.078a1.09 1.09 0 0 0 .518-.169.301.301 0 0 0 .11-.112.442.442 0 0 0 .037-.16.489.489 0 0 0-.088-.295.777.777 0 0 0-.49-.244.892.892 0 0 0-.385 0c-.088.024-.13.06-.137.051-.008-.01.024-.056.12-.098a1.008 1.008 0 0 1 .977.23.58.58 0 0 1 .074.58.433.433 0 0 1-.154.163c-.176.114-.38.177-.59.183h-.082l.024-.08.034-.108.032.071a1.357 1.357 0 0 1-.418-.276.566.566 0 0 1-.171-.362.38.38 0 0 1 .073-.244c.047-.059.078-.074.08-.069Z"/><path fill="#FFBF9D" d="M44.42 40.412a.77.77 0 0 0 .558-.057.475.475 0 0 0 .244-.462.504.504 0 0 0-.488-.39.772.772 0 0 0-.597.288.39.39 0 0 0-.11.288.327.327 0 0 0 .16.223c.083.048.172.085.266.11"/><path fill="#FF9A6C" d="M44.465 40.412s-.052 0-.135-.02a.476.476 0 0 1-.31-.22.32.32 0 0 1 0-.283.788.788 0 0 1 .19-.245.733.733 0 0 1 .665-.186.592.592 0 0 1 .316.2.452.452 0 0 1 .097.343.554.554 0 0 1-.366.43.72.72 0 0 1-.377.027c-.085-.017-.13-.04-.127-.046.159.005.318-.016.47-.064a.49.49 0 0 0 .285-.362.406.406 0 0 0-.332-.405.645.645 0 0 0-.555.153c-.147.12-.244.282-.188.399.053.098.14.174.244.213.081.036.125.056.123.066Z"/><path fill="#FFBF9D" d="M43.866 40.607c.098-.137.266-.117.435-.08.037-.001.074.006.107.021l.032.018c.057.04.103.094.135.156a.466.466 0 0 1 .06.367.364.364 0 0 1-.185.2.489.489 0 0 1-.567-.12.467.467 0 0 1-.017-.562Z"/><path fill="#FF9A6C" d="M43.866 40.607a.682.682 0 0 0-.03.37.388.388 0 0 0 .245.266.403.403 0 0 0 .425-.076.286.286 0 0 0 .051-.318.44.44 0 0 0-.178-.244l-.271-.13.296.03-.015.102a.284.284 0 0 0-.083-.022h-.012a.572.572 0 0 0-.318-.022c-.071.025-.1.064-.108.056-.007-.007 0-.056.086-.105a.548.548 0 0 1 .359-.024.273.273 0 0 1 .13.024l-.015.105.027-.1a.53.53 0 0 1 .244.306c.028.071.04.148.035.225a.386.386 0 0 1-.11.222.511.511 0 0 1-.56.098.49.49 0 0 1-.296-.355.489.489 0 0 1 .041-.305c.018-.083.05-.108.057-.103ZM28.263 37.556c.058-.443.207-.87.44-1.251.197-.4.477-.755.821-1.039.03.027-.364.467-.709 1.1-.344.633-.513 1.2-.552 1.19Z"/></g></svg>