<svg viewBox="0 0 162 24" fill="none" xmlns="http://www.w3.org/2000/svg">
<path fill-rule="evenodd" clip-rule="evenodd" d="M43.8739 11.9983C43.8739 5.40425 48.8666 0 55.734 0C62.5997 0 67.5307 5.33593 67.5307 11.9983C67.5307 18.5941 62.5397 23.9967 55.6706 23.9967C48.8016 23.9967 43.8739 18.6541 43.8739 11.9983ZM62.413 11.9983C62.413 8.02888 59.6134 4.70768 55.6706 4.70768C51.7278 4.70768 48.9949 7.95056 48.9949 11.9983C48.9949 15.9678 51.7945 19.2923 55.734 19.2923C59.6734 19.2923 62.413 16.0378 62.413 11.9983ZM9.08708 0.391613H0V23.5951H4.89432V16.6327H8.60714C13.5998 16.6327 17.6059 13.8497 17.6059 8.47882C17.6059 3.67449 14.3963 0.391613 9.08708 0.391613ZM12.6532 8.51382C12.6532 10.5685 11.2234 12.0917 8.77545 12.0917L4.89432 12.085V5.00097H8.68213C11.1301 5.00097 12.6549 6.22747 12.6549 8.51548L12.6532 8.51382ZM32.0389 0.391613H21.8636V23.5951H26.758V16.1661H30.5658L35.3851 23.5934H41.096L35.6567 15.3045C38.488 14.213 40.4261 11.8567 40.4261 8.11221C40.4261 5.86252 39.7628 4.03611 38.523 2.74295C37.0599 1.21816 34.8685 0.389946 32.0372 0.389946L32.0389 0.391613ZM35.4734 8.31218C35.4734 10.3369 34.1069 11.6617 31.7206 11.6617H26.7596V4.99931H31.6256C34.0103 4.99931 35.4734 6.12748 35.4734 8.31218ZM72.4466 16.6027L69.5637 20.2189C72.1324 22.6093 75.5135 23.9341 79.0224 23.925C83.8084 23.925 87.1796 21.3404 87.1796 16.7327C87.1796 12.6232 84.6233 10.9335 80.1106 9.70865C76.2611 8.67879 75.3112 8.18386 75.3112 6.65908C75.3112 5.46424 76.2944 4.56937 78.1709 4.56937C80.0473 4.56937 81.987 5.43924 83.9584 6.85738L86.4997 3.01292C84.1898 1.0659 81.2549 0.0179555 78.2342 0.0616592C73.6865 0.0616592 70.4453 2.8446 70.4453 7.05569C70.4453 11.73 73.3382 13.0215 77.8192 14.2164C81.5404 15.2079 82.3036 15.8711 82.3036 17.1643C82.3036 18.5908 81.0971 19.4173 79.0924 19.4173C76.5494 19.4173 74.4514 18.3258 72.4466 16.6027ZM89.8176 12C89.8176 5.40592 94.5886 0.00166711 101.424 0.00166711C105.62 0.00166711 107.973 1.6581 110.04 3.78114L107.117 7.29399C105.397 5.66921 103.934 4.70935 101.406 4.70935C97.6532 4.70935 94.9502 7.95889 94.9502 12C94.9502 15.9694 97.5898 19.294 101.406 19.294C103.949 19.294 105.505 18.2308 107.255 16.576L110.371 20.0539C108.082 22.6035 105.539 24 101.246 24C94.6836 23.9933 89.8176 18.7241 89.8176 12ZM123.871 0.00166711C117.002 0.00166711 112.013 5.40592 112.013 12C112.013 18.6557 116.942 23.9983 123.81 23.9983C130.675 23.9983 135.668 18.5958 135.668 12C135.668 5.33759 130.74 0.00166711 123.871 0.00166711ZM123.81 4.70935C127.749 4.70935 130.549 8.03055 130.549 12C130.549 16.0394 127.816 19.294 123.871 19.294C119.928 19.294 117.13 15.9694 117.13 12C117.13 7.95056 119.868 4.70935 123.81 4.70935ZM139.386 0.393279H144.663L150.516 13.0582L156.365 0.393279H161.643V23.5967H156.778V8.44883L156.668 8.62047L150.751 21.2121H150.264L144.238 8.64213L144.277 8.68546L144.195 8.55715V23.6084H139.386V0.393279Z" fill="#1D1D1D"/>
</svg>
