<svg width="200" height="56" viewBox="0 0 200 56" fill="none" xmlns="http://www.w3.org/2000/svg">
<path fill-rule="evenodd" clip-rule="evenodd" d="M60.9751 27.8073C60.9751 20.8424 66.2485 15.1343 73.502 15.1343C80.7538 15.1343 85.962 20.7702 85.962 27.8073C85.962 34.7739 80.6904 40.4802 73.4352 40.4802C66.1799 40.4802 60.9751 34.8372 60.9751 27.8073ZM80.5567 27.8073C80.5567 23.6146 77.5996 20.1067 73.4352 20.1067C69.2707 20.1067 66.384 23.5319 66.384 27.8073C66.384 31.9999 69.3411 35.5114 73.502 35.5114C77.663 35.5114 80.5567 32.0738 80.5567 27.8073ZM24.2323 15.5479H14.6343V40.056H19.8038V32.7022H23.7254C28.9987 32.7022 33.2301 29.7628 33.2301 24.0899C33.2301 19.0154 29.8401 15.5479 24.2323 15.5479ZM27.999 24.1268C27.999 26.2971 26.4888 27.9058 23.9032 27.9058L19.8038 27.8988V20.4164H23.8046C26.3902 20.4164 28.0008 21.7119 28.0008 24.1286L27.999 24.1268ZM48.4747 15.5479H37.7273V40.056H42.8968V32.2094H46.9187L52.009 40.0543H58.041L52.2959 31.2994C55.2864 30.1465 57.3334 27.6576 57.3334 23.7026C57.3334 21.3264 56.6329 19.3973 55.3233 18.0315C53.7779 16.4209 51.4634 15.5461 48.4729 15.5461L48.4747 15.5479ZM52.1023 23.9138C52.1023 26.0524 50.659 27.4517 48.1385 27.4517H42.8985V20.4147H48.0381C50.5569 20.4147 52.1023 21.6063 52.1023 23.9138ZM91.1544 32.6705L88.1094 36.49C90.8225 39.0149 94.3938 40.4142 98.0999 40.4046C103.155 40.4046 106.716 37.6746 106.716 32.8078C106.716 28.4673 104.016 26.6825 99.2493 25.3888C95.1834 24.3011 94.1801 23.7783 94.1801 22.1678C94.1801 20.9058 95.2186 19.9606 97.2005 19.9606C99.1824 19.9606 101.231 20.8794 103.313 22.3772L105.998 18.3166C103.558 16.2601 100.458 15.1532 97.2674 15.1994C92.464 15.1994 89.0405 18.1388 89.0405 22.5867C89.0405 27.5239 92.0961 28.888 96.8291 30.15C100.76 31.1973 101.566 31.8978 101.566 33.2637C101.566 34.7704 100.291 35.6434 98.1739 35.6434C95.4879 35.6434 93.2719 34.4905 91.1544 32.6705ZM109.502 27.809C109.502 20.8442 114.541 15.136 121.761 15.136C126.193 15.136 128.679 16.8856 130.861 19.128L127.774 22.8384C125.958 21.1223 124.412 20.1084 121.742 20.1084C117.778 20.1084 114.923 23.5407 114.923 27.809C114.923 32.0017 117.711 35.5131 121.742 35.5131C124.428 35.5131 126.072 34.3902 127.92 32.6424L131.212 36.3158C128.793 39.0088 126.107 40.4838 121.573 40.4838C114.642 40.4767 109.502 34.9112 109.502 27.809ZM145.47 15.136C138.215 15.136 132.945 20.8442 132.945 27.809C132.945 34.839 138.152 40.482 145.405 40.482C152.657 40.482 157.93 34.7756 157.93 27.809C157.93 20.772 152.726 15.136 145.47 15.136ZM145.405 20.1084C149.566 20.1084 152.523 23.6164 152.523 27.809C152.523 32.0756 149.637 35.5131 145.47 35.5131C141.306 35.5131 138.351 32.0017 138.351 27.809C138.351 23.5319 141.243 20.1084 145.405 20.1084ZM161.857 15.5497H167.432L173.613 28.9267L179.791 15.5497H185.366V40.0578H180.228V24.0582L180.112 24.2395L173.861 37.5391H173.348L166.983 24.2623L167.023 24.3081L166.937 24.1726V40.0701H161.857V15.5497Z" fill="#1D1D1D"/>
</svg>
