<svg width="40" height="40" viewBox="0 0 40 40" fill="none" xmlns="http://www.w3.org/2000/svg">
<path fill-rule="evenodd" clip-rule="evenodd" d="M7.08334 10C7.08334 9.30965 7.52819 8.75 8.07693 8.75H31.923C32.4718 8.75 32.9167 9.30965 32.9167 10C32.9167 10.6903 32.4718 11.25 31.923 11.25H8.07693C7.52819 11.25 7.08334 10.6903 7.08334 10Z" fill="#1D1D1D"/>
<path fill-rule="evenodd" clip-rule="evenodd" d="M3.75 20C3.75 19.3097 4.30965 18.75 5 18.75H35C35.6903 18.75 36.25 19.3097 36.25 20C36.25 20.6903 35.6903 21.25 35 21.25H5C4.30965 21.25 3.75 20.6903 3.75 20Z" fill="#1D1D1D"/>
<path fill-rule="evenodd" clip-rule="evenodd" d="M7.08334 30C7.08334 29.3097 7.52819 28.75 8.07693 28.75H31.923C32.4718 28.75 32.9167 29.3097 32.9167 30C32.9167 30.6903 32.4718 31.25 31.923 31.25H8.07693C7.52819 31.25 7.08334 30.6903 7.08334 30Z" fill="#1D1D1D"/>
</svg>
